<svg
            width="25"
            height="15"
            viewBox="0 0 25 15"
            fill="none"
            xmlns="http://www.w3.org/2000/svg"
          >
            <path
              fill-rule="evenodd"
              clip-rule="evenodd"
              d="M0 0v15h24.696V0z"
              fill="#BF2714"
            />
            <mask
              id="a"
              style="mask-type: luminance"
              maskUnits="userSpaceOnUse"
              x="0"
              y="0"
              width="25"
              height="15"
            >
              <path
                fill-rule="evenodd"
                clip-rule="evenodd"
                d="M0 0v15h24.696V0z"
                fill="#fff"
              />
            </mask>
            <g mask="url(#a)">
              <path
                fill-rule="evenodd"
                clip-rule="evenodd"
                d="M0-1.25V7.5h24.696v-8.75z"
                fill="#3D58DB"
              />
            </g>
            <path
              fill-rule="evenodd"
              clip-rule="evenodd"
              d="M0 0v15l13.892-7.5z"
              fill="#F7FCFF"
            />
            <mask
              id="b"
              style="mask-type: luminance"
              maskUnits="userSpaceOnUse"
              x="0"
              y="0"
              width="14"
              height="15"
            >
              <path
                fill-rule="evenodd"
                clip-rule="evenodd"
                d="M0 0v15l13.892-7.5z"
                fill="#fff"
              />
            </mask>
            <g
              mask="url(#b)"
              fill-rule="evenodd"
              clip-rule="evenodd"
              fill="#FECA00"
            >
              <path
                d="m10.5 6.825.984.308.586-.559.016.747.906.239-.954.262.063.686-.628-.526-.988.153.583-.606zm-9.261 3.75.905.324.665-.575-.064.764.986.222-1.034.278.143.67-.72-.478-.896.105.503-.59zm0-7.5 1.001.299.57-.55.031.738.89.248-.937.253.046.695-.623-.504-.993.13.6-.613zm5.029 6.008c1.065 0 1.929-.7 1.929-1.562s-.864-1.563-1.93-1.563-1.929.7-1.929 1.563c0 .862.864 1.562 1.93 1.562"
              />
              <path
                d="m6.04 5.15.103 1.003c.01.061.068.11.143.12.094.012.183-.039.199-.115l.137-1 .004-.036c.002-.131-.127-.24-.29-.242l-.043.002c-.161.017-.275.137-.253.267m-.323.484.16.437c.015.04.065.066.122.058.046-.01.075-.047.064-.084l-.128-.439c-.015-.05-.075-.083-.138-.074l-.013.002c-.053.013-.083.058-.067.1m.866.455c-.012.037.015.076.066.087.051.009.102-.015.119-.055l.179-.432c.017-.042-.011-.088-.063-.102l-.013-.003c-.062-.01-.124.021-.14.07zm1.603-.439-.862.772a.12.12 0 0 0-.004.166.2.2 0 0 0 .241.033l1.03-.631.033-.023c.117-.092.12-.242.008-.337l-.033-.024a.34.34 0 0 0-.413.044m-.262 1.638 1.288-.08c.161-.018.31.074.33.204l.003.036c-.003.131-.137.236-.3.234l-.043-.004-1.284-.114c-.094-.012-.157-.084-.142-.16.013-.061.073-.108.148-.116m.668 1.661-1-.705a.2.2 0 0 0-.205-.003c-.078.045-.096.132-.04.195l.827.84.028.028a.345.345 0 0 0 .416.006l.029-.027c.099-.104.074-.254-.055-.334m-2.07-.219L6.6 9.783c.021.13-.092.25-.253.268l-.044.002c-.162-.003-.292-.111-.289-.243q0-.018.004-.035l.164-1.05c.016-.076.105-.127.2-.115.074.01.132.06.142.12m-2.03.569.85-.838a.12.12 0 0 0 .004-.166c-.056-.063-.163-.077-.241-.033L4.09 8.96l-.034.022c-.117.092-.12.243-.007.337q.015.014.033.024c.129.08.313.06.412-.044m.25-1.704-1.296.087c-.161.017-.309-.075-.33-.205l-.003-.036c.003-.131.137-.236.3-.234l.043.003 1.292.109c.094.012.157.085.142.16-.013.061-.073.108-.148.116m-.767-1.644 1.099.688c.06.038.143.039.205.003.078-.045.096-.132.04-.195l-.926-.824-.028-.027a.345.345 0 0 0-.416-.006l-.029.027c-.099.104-.074.254.055.334m3.232.26.268-.4c.026-.04.087-.054.135-.033l.011.006c.052.03.066.088.033.132l-.292.383c-.026.033-.079.043-.12.023-.046-.027-.06-.073-.035-.11m1.357.732-.539.13c-.05.011-.08.052-.07.098.01.037.057.06.103.052l.541-.104c.062-.012.103-.06.092-.112l-.002-.01c-.016-.043-.072-.067-.125-.054M7.852 8.15l.495.217c.048.02.066.07.04.11l-.007.008c-.037.042-.109.053-.163.026l-.473-.237c-.04-.02-.053-.063-.028-.096a.12.12 0 0 1 .136-.028m-.903 1.099-.16-.437c-.015-.04-.065-.066-.121-.058-.047.01-.075.047-.065.084l.128.439c.015.05.075.083.138.074l.013-.002c.053-.013.083-.058.067-.1m-1.49-.577-.268.4c-.026.04-.087.054-.135.033l-.011-.006c-.052-.03-.066-.088-.033-.132l.293-.383c.025-.033.078-.043.118-.023.047.027.06.074.036.11M4.102 7.94l.539-.13c.05-.012.08-.053.07-.099-.01-.037-.057-.06-.103-.051l-.541.103c-.062.012-.103.06-.092.112l.002.01c.016.043.072.067.125.055m.712-1.207-.495-.217c-.048-.022-.066-.07-.04-.11l.007-.009c.037-.042.109-.053.163-.026l.473.237c.04.02.053.063.028.096a.12.12 0 0 1-.136.029m2.877-.105c-.042.019-.056.061-.03.099.029.035.086.047.132.029l.504-.203c.05-.02.07-.069.045-.109l-.007-.009c-.035-.043-.106-.056-.161-.03zm.205 1.068c.013-.04.06-.063.107-.053l.536.12c.062.013.1.063.088.114l-.004.01c-.017.042-.074.065-.126.05l-.533-.144c-.05-.014-.079-.055-.068-.097m-.56.844c-.023-.033-.076-.045-.121-.024-.044.023-.06.07-.036.107l.25.408c.025.04.085.056.134.036l.011-.005c.053-.029.07-.086.038-.13zm-1.319.166c.051.011.078.05.066.087l-.147.434c-.017.05-.079.081-.141.071l-.013-.003c-.052-.014-.08-.06-.063-.102l.18-.432c.016-.04.067-.064.118-.055m-1.042-.453c.042-.019.056-.061.03-.098-.029-.036-.086-.048-.132-.03l-.504.203c-.05.02-.07.069-.045.109l.007.009c.035.043.106.056.161.03zM4.77 7.186c-.013.041-.06.063-.107.053l-.536-.119c-.062-.014-.1-.064-.088-.114l.004-.01c.017-.043.074-.066.126-.051l.533.145c.05.013.079.054.068.096m.56-.844c.023.033.076.045.121.024.044-.023.06-.07.036-.107l-.25-.408c-.025-.04-.085-.056-.134-.036l-.011.005c-.053.029-.07.086-.038.13z"
              />
            </g>
          </svg>