<svg
            width="24"
            height="15"
            viewBox="0 0 24 15"
            fill="none"
            xmlns="http://www.w3.org/2000/svg"
          >
            <mask
              id="a"
              style="mask-type: luminance"
              maskUnits="userSpaceOnUse"
              x="0"
              y="0"
              width="24"
              height="15"
            >
              <path d="M0 0h23.924v15H0z" fill="#fff" />
            </mask>
            <g mask="url(#a)">
              <path
                fill-rule="evenodd"
                clip-rule="evenodd"
                d="M0 0h23.924v15H0z"
                fill="#F7FCFF"
              />
              <path
                fill-rule="evenodd"
                clip-rule="evenodd"
                d="M0 9.167v1.25h23.924v-1.25zm0 2.291v1.25h23.924v-1.25zm0-6.875v1.25h23.924v-1.25zm0 9.167V15h23.924v-1.25zm0-6.875v1.25h23.924v-1.25zM0 0v1.25h23.924V0zm0 2.292v1.25h23.924v-1.25z"
                fill="#E31D1C"
              />
              <path d="M0 0h14.953v8.125H0z" fill="#2E42A5" />
              <path
                fill-rule="evenodd"
                clip-rule="evenodd"
                d="m1.288 1.837-.543.318.183-.566-.482-.359h.63l.21-.461.248.461h.537l-.422.36.164.565zm2.99 0-.543.318.184-.566-.482-.359h.63l.21-.461.248.461h.537l-.422.36.163.565zm2.448.318.543-.318.525.318-.164-.566.422-.359h-.537L7.268.77l-.211.461h-.63l.482.36zm3.533-.318-.543.318.184-.566-.482-.359h.63l.21-.461.248.461h.537l-.422.36.163.565zM.745 4.655l.543-.318.525.318-.164-.566.422-.359h-.537l-.247-.461-.211.461h-.63l.482.36zm3.533-.318-.543.318.184-.566-.482-.359h.63l.21-.461.248.461h.537l-.422.36.163.565zm2.448.318.543-.318.525.318-.164-.566.422-.359h-.537l-.247-.461-.211.461h-.63l.482.36zm3.533-.318-.543.318.184-.566-.482-.359h.63l.21-.461.248.461h.537l-.422.36.163.565zM.745 7.155l.543-.318.525.318-.164-.566.422-.359h-.537l-.247-.461-.211.461h-.63l.482.36zm3.533-.318-.543.318.184-.566-.482-.359h.63l.21-.461.248.461h.537l-.422.36.163.565zm2.448.318.543-.318.525.318-.164-.566.422-.359h-.537l-.247-.461-.211.461h-.63l.482.36zm3.533-.318-.543.318.184-.566-.482-.359h.63l.21-.461.248.461h.537l-.422.36.163.565zm2.448-4.682.543-.318.525.318-.164-.566.422-.359h-.536l-.248-.46-.211.461h-.63l.482.36zm.543 2.182-.543.318.183-.566-.482-.359h.63l.211-.461.248.461h.536l-.421.36.163.565zm-.543 2.818.543-.318.525.318-.164-.566.422-.359h-.536l-.248-.461-.211.461h-.63l.482.36zM2.783 3.087l-.543.318.183-.566-.482-.359h.63l.211-.461.248.461h.536l-.421.36.163.565zm2.448.318.542-.318.525.318-.163-.566.422-.359H6.02l-.247-.461-.212.461h-.63l.483.36zm3.533-.318-.543.318.183-.566-.482-.359h.63l.211-.461.248.461h.536l-.421.36.163.565zM2.24 5.905l.543-.318.525.318-.163-.566.421-.359H3.03l-.248-.461-.211.461h-.63l.482.36zm3.533-.318-.542.318.183-.566-.482-.359h.63l.21-.461.248.461h.537l-.422.36.163.565zm2.448.318.543-.318.525.318-.163-.566.421-.359h-.536l-.248-.461-.211.461h-.63l.482.36zm3.534-2.818-.543.318.183-.566-.482-.359h.63l.21-.461.248.461h.537l-.422.36.164.565zm-.543 2.818.543-.318.524.318-.163-.566.422-.359h-.537l-.247-.461-.211.461h-.63l.482.36z"
                fill="#F7FCFF"
              />
            </g>
          </svg>