<svg width="256" height="299.592" viewBox="0 0 256 299.592" fill="none" xmlns="http://www.w3.org/2000/svg">
  <path d="M136.824 277.151h-2.933v-5.989h-5.495v5.989h-2.942v-13.875h2.942v5.438h5.495v-5.438h2.933zm12.033 0-1.006-3.303h-5.058l-1.006 3.303h-3.17l4.897-13.932h3.597l4.916 13.932zm-1.708-5.77-1.006-3.227a36 36 0 0 0-.256-.825 96 96 0 0 0-.313-1.035 25 25 0 0 1-.247-.92 22 22 0 0 1-.266.968 91 91 0 0 1-.313 1.082l-.218.731-.997 3.227zm11.093-8.105q2.686 0 3.919 1.158 1.234 1.148 1.234 3.17 0 .911-.275 1.746-.275.825-.902 1.471-.617.645-1.651 1.025-1.035.37-2.553.37h-1.262v4.935h-2.942v-13.875zm-.152 2.411h-1.338v4.119h.968q.826 0 1.433-.218.608-.219.94-.683t.332-1.196q0-1.025-.569-1.519-.57-.503-1.765-.503m12.383-2.411q2.686 0 3.919 1.158 1.234 1.148 1.234 3.17 0 .911-.275 1.746-.275.825-.902 1.471-.617.645-1.651 1.025-1.035.37-2.553.37h-1.262v4.935h-2.942v-13.875zm-.152 2.411h-1.338v4.119h.968q.826 0 1.433-.218.608-.219.94-.683t.332-1.196q0-1.025-.569-1.519-.57-.503-1.765-.503m12.269 3.302 2.895-5.713h3.17l-4.603 8.475v5.4h-2.923v-5.305l-4.603-8.57h3.189zm-84.91 30.376-1.006-3.304h-5.058l-1.006 3.304h-3.17l4.897-13.933h3.597l4.916 13.933zm-1.708-5.772-1.006-3.226q-.095-.321-.256-.825a89 89 0 0 0-.313-1.036 25 25 0 0 1-.247-.919q-.095.389-.266.969a115 115 0 0 1-.531 1.81l-.997 3.226zm18.97 5.772h-3.739l-6.036-10.498h-.086q.037.657.066 1.319l.057 1.33.057 1.319v6.53h-2.629V285.49h3.711l6.026 10.39h.066q-.018-.646-.047-1.28l-.057-1.272-.038-1.272v-6.567h2.648zm15.838 0h-3.739l-6.036-10.498h-.085q.038.657.066 1.319l.057 1.33.057 1.319v6.53h-2.629V285.49h3.711l6.027 10.39h.066q-.02-.646-.047-1.28l-.057-1.272-.038-1.272v-6.567h2.648zm3.53 0V285.49h2.942v13.875zm17.348-13.875-4.717 13.875h-3.208l-4.707-13.875h2.971l2.61 8.255q.066.21.218.789.151.569.304 1.213.16.636.218 1.055.057-.419.199-1.055.151-.634.294-1.205.152-.578.219-.797l2.629-8.255zm9.774 13.875h-7.991V285.49h7.991v2.41h-5.049v3.046h4.698v2.41h-4.698v3.579h5.049zm6.975-13.875q1.889-.001 3.113.455 1.234.454 1.831 1.374.598.92.598 2.327 0 .947-.361 1.66a3.8 3.8 0 0 1-.949 1.205 5.6 5.6 0 0 1-1.272.805l4.081 6.047h-3.265l-3.312-5.324h-1.566v5.325h-2.942v-13.875zm-.209 2.41h-.892v3.748h.949q1.461 0 2.088-.486.636-.491.636-1.441 0-.988-.683-1.405-.674-.416-2.097-.416m17.213 7.611q0 1.234-.598 2.144-.599.913-1.746 1.405-1.139.494-2.771.494-.721 0-1.414-.094a10 10 0 0 1-1.319-.275 8 8 0 0 1-1.196-.466v-2.732a22 22 0 0 0 2.05.786 6.6 6.6 0 0 0 2.107.353q.721 0 1.158-.189.446-.193.646-.522a1.45 1.45 0 0 0 .199-.761q0-.521-.351-.891t-.968-.694q-.607-.321-1.376-.691a17 17 0 0 1-1.053-.55 6.2 6.2 0 0 1-1.082-.808q-.512-.475-.845-1.15-.323-.684-.323-1.63 0-1.244.569-2.127.57-.884 1.623-1.347 1.063-.475 2.506-.475 1.082-.001 2.059.255a12.7 12.7 0 0 1 2.059.722l-.949 2.288q-.959-.391-1.718-.6-.759-.217-1.547-.217-.55-.002-.94.18-.389.171-.588.491a1.33 1.33 0 0 0-.199.73q0 .494.285.836.294.332.873.647.589.313 1.462.73 1.063.503 1.813 1.052.759.541 1.167 1.283.408.73.408 1.821m11.036 3.856-1.006-3.304h-5.058l-1.006 3.304h-3.17l4.897-13.933h3.597l4.916 13.933zm-1.708-5.772-1.006-3.226q-.095-.321-.256-.825a89 89 0 0 0-.313-1.036 25 25 0 0 1-.247-.919q-.095.389-.266.969a115 115 0 0 1-.531 1.81l-.997 3.226zm10.704-8.103q1.889-.001 3.113.455 1.234.454 1.832 1.374t.598 2.327q0 .947-.361 1.66a3.8 3.8 0 0 1-.949 1.205 5.6 5.6 0 0 1-1.272.805l4.081 6.047h-3.265l-3.312-5.324h-1.566v5.325h-2.942v-13.875zm-.209 2.41h-.892v3.748h.949q1.462 0 2.088-.486.636-.491.636-1.441 0-.988-.683-1.405-.674-.416-2.097-.416m13.341 3.301 2.895-5.711h3.17l-4.603 8.474v5.4h-2.923v-5.306l-4.603-8.569h3.189z" fill="#005A9E"/>
  <path d="M87.462 128a.82.82 0 0 1-.542.774l-2.693.991-.991 2.694a.825.825 0 0 1-1.548 0l-.99-2.694-2.693-.991a.825.825 0 0 1-.391-1.246.83.83 0 0 1 .391-.303l2.693-.991.99-2.694a.827.827 0 0 1 1.245-.391.83.83 0 0 1 .303.391l.991 2.694 2.693.991a.81.81 0 0 1 .542.775m2.499 10.273c.001.085-.027.167-.078.237s-.124.122-.208.15l-1.421.496-.523 1.347a.4.4 0 0 1-.16.195.45.45 0 0 1-.249.074.45.45 0 0 1-.249-.074.4.4 0 0 1-.16-.195l-.523-1.347-1.422-.496a.43.43 0 0 1-.206-.151.4.4 0 0 1-.077-.236c0-.084.027-.167.078-.236a.43.43 0 0 1 .206-.151l1.422-.496.523-1.347a.4.4 0 0 1 .16-.195.45.45 0 0 1 .498 0 .4.4 0 0 1 .16.195l.523 1.347 1.421.496a.43.43 0 0 1 .208.15.4.4 0 0 1 .078.237" fill="#FFEBB2"/>
  <path d="M168.089 26.733c-2.554-2.999-8.051-2.499-9.856 0l-4.581-4.72c3.517-3.98 13.665-8.967 20.823-4.304 8.052 5.246 5.414 10.967 6.247 25.961.563 10.134 23.563-7.609 31.93 17.492 4.72 14.161-12.594 39.024-8.746 49.146 11.462 30.148 30.437 32.269 32.658 65.727-4.72 38.178-28.565 56.087-78.331 56.087-50.09-1.083-80.937-27.301-77.467-59.371 3.943-36.438 55.254-34.985 43.731-66.36s49.978-10.799 58.03-25.931-5.553-16.243-14.438-22.074c-8.879-5.827-4.587-13.734-1.949-18.594l.005-.009c2.638-4.859 5.137-9.302 1.944-13.05" fill="#F887CB"/>
  <path d="M3.614 66.135c-3.577 1.579 2.775 16.654 6.397 23.994L160.885 23.89l-3.303-7.48-32.148 14.196c-3.832 1.692-18.462 6.875-32.021 4.689-10.847-1.749-25.142 2.503-30.933 4.847z" fill="#B6DEFC"/>
  <path d="M22.308 108.471c-3.577 1.579-10.377-13.13-13.33-20.682L159.57 20.912l3.272 7.411-32.148 14.196c-3.832 1.692-17.522 9.002-25.069 20.432-6.037 9.144-18.816 16.827-24.451 19.527z" fill="#B6DEFC"/>
  <path d="M157.565 14.933a2.21 2.21 0 0 1 2.913 1.129l4.603 10.424a2.209 2.209 0 0 1-4.042 1.785l-4.603-10.424a2.21 2.21 0 0 1 1.129-2.913" fill="#B6DEFC"/>
  <path fill="#fff" d="m274.808-49.533 14.75 33.4L255.73-1.194l-14.749-33.401z"/>
  <path d="M133.125 190.482c2.532-3.612 2.78-7.532 1.379-11.18-1.371-3.572-4.284-6.813-7.972-9.399-3.672-2.574-10.059-5.741-16.082-7.522-3.009-.89-6.04-1.469-8.655-1.402-2.573.065-5.136.774-6.625 2.9-1.488 2.122-1.29 4.779-.486 7.232.818 2.494 2.381 5.164 4.23 7.709 3.701 5.092 8.831 10.057 12.511 12.636 3.701 2.594 7.773 4.185 11.626 4.213 3.926.028 7.545-1.579 10.074-5.186Z" fill="#FFC000" stroke="#D39C28" stroke-width="3.332"/>
  <path d="M134.342 192.061c4.314-5.941 3.218-12.434.268-17.305-1.472-2.43-3.431-4.517-5.502-6.036-2.046-1.5-4.335-2.541-6.478-2.672-.573-.035-1.096.126-1.498.3a7 7 0 0 0-1.225.711c-.786.557-1.641 1.329-2.509 2.212-1.743 1.775-3.695 4.16-5.482 6.623s-3.45 5.059-4.599 7.268c-.572 1.1-1.042 2.152-1.329 3.072-.144.46-.255.93-.3 1.383-.043.435-.036.98.17 1.513.781 2.021 2.492 3.876 4.564 5.344 2.099 1.487 4.709 2.68 7.492 3.302 5.576 1.245 12.118.22 16.427-5.715Z" fill="#fff" stroke="#CCC" stroke-width="3.332"/>
  <path d="M177.695 191.479c2.518 3.621 6.112 5.206 10.02 5.149 3.826-.056 7.872-1.673 11.57-4.244 3.682-2.56 8.856-7.463 12.605-12.503 1.873-2.518 3.461-5.163 4.3-7.641.826-2.438 1.044-5.088-.438-7.219-1.48-2.128-4.042-2.858-6.621-2.948-2.624-.092-5.668.454-8.695 1.313-6.055 1.719-12.485 4.823-16.174 7.388-3.711 2.579-6.608 5.854-7.962 9.461-1.38 3.676-1.119 7.627 1.396 11.244Z" fill="#FFC000" stroke="#D39C28" stroke-width="3.332"/>
  <path d="M175.792 192.076c4.09 6.098 10.562 7.307 16.152 6.216 2.789-.544 5.423-1.663 7.563-3.084 2.113-1.403 3.88-3.193 4.742-5.159.23-.526.259-1.072.234-1.51a7 7 0 0 0-.245-1.395c-.252-.93-.682-1.999-1.212-3.118-1.065-2.248-2.632-4.902-4.328-7.429s-3.559-4.983-5.237-6.823c-.835-.916-1.661-1.72-2.425-2.306a7 7 0 0 0-1.195-.758c-.394-.19-.907-.372-1.479-.362-2.166.036-4.497 1.003-6.59 2.442-2.12 1.458-4.139 3.496-5.682 5.895-3.091 4.805-4.384 11.299-.298 17.39Z" fill="#fff" stroke="#CCC" stroke-width="3.332"/>
  <path d="M193.013 207.983c0 16.393-16.347 25.901-36.512 25.901s-36.512-9.508-36.512-25.901c0-28.317 16.347-47.678 36.512-47.678s36.512 21.93 36.512 47.678Z" fill="#fff" stroke="#CCC" stroke-width="3.332"/>
  <path d="M128.764 200.589a1.12 1.12 0 0 1-1.314.996l-8.155-1.474a1.1 1.1 0 0 1-.903-1.19c.266-2.628 1.059-9.95 2.273-16.666s3.033-13.852 3.705-16.407a1.097 1.097 0 0 1 1.263-.798l8.155 1.474a1.12 1.12 0 0 1 .883 1.393c-.691 2.588-2.364 9.118-3.646 16.212s-2 13.796-2.259 16.462Zm48.043-32.607a1.12 1.12 0 0 1 .871-1.4l8.143-1.538a1.1 1.1 0 0 1 1.269.789c.691 2.55 2.567 9.672 3.834 16.378s2.118 14.021 2.404 16.647a1.1 1.1 0 0 1-.894 1.197l-8.143 1.538a1.12 1.12 0 0 1-1.322-.985c-.28-2.664-1.051-9.361-2.389-16.444s-3.063-13.599-3.774-16.182Z" fill="#45566A" stroke="#394457" stroke-width="3.332"/>
  <path d="M155.873 235.423c10.327 0 19.812-2.424 26.769-7.072 7.002-4.678 11.445-11.627 11.445-20.448 0-6.476-.785-10.959-2.617-13.875-1.957-3.115-4.915-4.172-8.333-4.294-2.905-.104-6.398.459-10.237 1.078l-1.531.245c-4.524.717-9.679 1.448-15.496 1.448-5.786 0-10.918-.882-15.426-1.796q-1.19-.242-2.341-.485c-3.503-.734-6.718-1.408-9.41-1.452-1.685-.027-3.308.182-4.774.848-1.497.679-2.72 1.783-3.664 3.356-1.818 3.033-2.599 7.832-2.599 14.927 0 8.821 4.443 15.77 11.445 20.448 6.957 4.647 16.441 7.072 26.769 7.072Z" fill="#45566A" stroke="#394457" stroke-width="3.332"/>
  <path d="M131.717 198.519a337 337 0 0 1-1.504-2.412 1.11 1.11 0 0 0-.951-.527q-1.447.008-2.898.009a1.11 1.11 0 0 0-.957.547l-.363.618q-.524.892-1.051 1.78a1.11 1.11 0 0 0 .009 1.15q.749 1.216 1.501 2.426a1.11 1.11 0 0 0 .94.525l2.949.009a1.11 1.11 0 0 0 .966-.558q.696-1.21 1.387-2.428a1.11 1.11 0 0 0-.027-1.138Zm56.414 0a322 322 0 0 1-1.504-2.412 1.11 1.11 0 0 0-.952-.527q-1.447.008-2.898.009a1.11 1.11 0 0 0-.957.547l-.364.618q-.524.892-1.05 1.78a1.11 1.11 0 0 0 .009 1.15q.749 1.216 1.501 2.426a1.11 1.11 0 0 0 .941.525l2.948.009a1.11 1.11 0 0 0 .967-.558q.696-1.21 1.387-2.428a1.11 1.11 0 0 0-.027-1.138Z" fill="#fff" stroke="#CCC" stroke-width="1.666"/>
  <path d="M153.647 214.725h-5.02a.69.69 0 0 1-.596-.343l-2.508-4.341a.68.68 0 0 1 0-.687l2.508-4.341a.69.69 0 0 1 .596-.343h5.02c.248 0 .472.133.596.343l2.508 4.341a.68.68 0 0 1 0 .687l-2.508 4.341a.69.69 0 0 1-.596.343m-4.621-1.374h4.223l2.114-3.654-2.114-3.654h-4.223l-2.114 3.654z" fill="#4CB4FA"/>
  <path d="M161.176 210.406h-5.021a.69.69 0 0 1-.596-.343l-2.508-4.341a.68.68 0 0 1 0-.687l2.508-4.341a.69.69 0 0 1 .596-.343h5.021c.247 0 .472.133.596.343l2.508 4.341a.68.68 0 0 1 0 .687l-2.508 4.341a.68.68 0 0 1-.596.343m-4.622-1.374h4.223l2.114-3.654-2.114-3.654h-4.223l-2.114 3.654z" fill="#FFC000"/>
  <path d="M161.176 219.06h-5.021a.69.69 0 0 1-.596-.343l-2.508-4.341a.68.68 0 0 1 0-.687l2.508-4.341a.69.69 0 0 1 .596-.343h5.021c.247 0 .472.133.596.343l2.508 4.341a.68.68 0 0 1 0 .687l-2.508 4.341a.68.68 0 0 1-.596.343m-4.622-1.374h4.223l2.114-3.654-2.114-3.654h-4.223l-2.114 3.654z" fill="#fff"/>
  <path d="M138.104 218.861c-4.248-1.138-8.453-.765-11.85 1.437-3.406 2.208-5.737 6.083-6.571 11.421-.609 3.899.466 8.398 2.233 12.033.892 1.836 1.994 3.521 3.223 4.854 1.211 1.313 2.65 2.396 4.238 2.822 1.568.42 3.284.238 4.926-.263 1.657-.505 3.352-1.368 4.952-2.458 3.184-2.169 6.188-5.372 7.857-8.884 2.269-4.773 2.291-9.432.528-13.239-1.757-3.793-5.206-6.563-9.536-7.724Z" fill="#FFC000" stroke="#D39C28" stroke-width="3.332"/>
  <path d="M116.636 230.262c1.733-16.925 8.478-17.119 20.95-13.778s19.905 7.028 12.283 22.683c-3.096 6.36-12.853 3.34-18.827 1.74-5.974-1.601-15.118-3.689-14.405-10.645" fill="#45566A"/>
  <path d="M151.576 234.763c-.403 1.03-1.144 3.249-1.706 4.404-3.096 6.36-12.853 3.34-18.827 1.74-5.974-1.601-15.118-3.689-14.406-10.645.58-5.662 1.721-9.452 3.449-11.863" stroke="#394457" stroke-width="3.332" stroke-linecap="round"/>
  <path d="M148.577 239.224c.74.16 1.109.995.731 1.65l-1.976 3.429a1.1 1.1 0 0 1-1.175.531 267 267 0 0 1-14.026-3.324c-6.2-1.661-12.157-3.567-14.297-4.264a1.1 1.1 0 0 1-.751-1.152l.363-3.87a1.12 1.12 0 0 1 1.457-.958c2.546.818 8.432 2.667 14.801 4.374a330 330 0 0 0 14.872 3.583Z" fill="#fff" stroke="#CCC" stroke-width="3.332"/>
  <path d="M177.406 218.746c4.303-1.153 8.558-.82 11.989 1.331 3.45 2.162 5.8 5.993 6.609 11.289.592 3.872-.541 8.342-2.364 11.953-.921 1.824-2.053 3.499-3.309 4.825-1.239 1.307-2.699 2.38-4.296 2.807-3.081.826-6.839-.549-9.975-2.616-3.219-2.122-6.254-5.274-7.929-8.749-2.279-4.727-2.263-9.356-.439-13.144 1.814-3.767 5.331-6.521 9.715-7.695Z" fill="#FFC000" stroke="#D39C28" stroke-width="3.332"/>
  <path d="M199.139 229.885c-1.632-16.736-8.484-16.877-21.183-13.475s-20.281 7.107-12.656 22.542c3.098 6.27 13.035 3.207 19.119 1.577s15.391-3.767 14.72-10.645" fill="#45566A"/>
  <path d="M192.391 216.02c3.471 3.193 6.115 7.365 6.748 13.865.671 6.878-8.637 9.015-14.72 10.645s-16.021 4.693-19.119-1.577c-.743-1.504-1.183-3.037-1.647-4.329" stroke="#394457" stroke-width="3.332" stroke-linecap="round"/>
  <path d="M166.596 239.002a1.118 1.118 0 0 0-.725 1.658l1.964 3.344a1.1 1.1 0 0 0 1.173.523c2.056-.43 7.941-1.698 14.296-3.401 6.33-1.696 12.414-3.633 14.579-4.335a1.1 1.1 0 0 0 .754-1.147l-.335-3.791a1.118 1.118 0 0 0-1.455-.965 347 347 0 0 1-15.094 4.448c-6.39 1.712-12.435 3.071-15.156 3.665Z" fill="#fff" stroke="#CCC" stroke-width="3.332"/>
  <path d="M156.041 183.531c8.812 0 15.655-2.444 20.523-6.514 4.867-4.07 7.631-9.657 8.469-15.7.59-4.252-.14-9.975-1.659-16.042-1.529-6.11-3.901-12.733-6.727-18.852-2.822-6.109-6.13-11.787-9.56-15.966-1.714-2.089-3.498-3.852-5.31-5.105-1.804-1.247-3.745-2.062-5.737-2.062-1.97 0-3.892.766-5.687 1.96-1.799 1.198-3.565 2.887-5.257 4.898-3.385 4.022-6.631 9.509-9.401 15.493-2.774 5.995-5.101 12.556-6.62 18.765-1.512 6.183-2.25 12.13-1.757 16.856.652 6.256 3.348 11.87 8.21 15.906 4.854 4.027 11.72 6.363 20.513 6.363Z" fill="#FFC000" stroke="#D39C28" stroke-width="3.332"/>
  <path d="M137.768 161.249c3.666 0 6.639-2.041 6.639-4.558s-2.972-4.558-6.639-4.558-6.638 2.041-6.638 4.558 2.972 4.558 6.638 4.558m36.718 0c3.666 0 6.638-2.041 6.638-4.558s-2.972-4.558-6.638-4.558-6.638 2.041-6.638 4.558 2.972 4.558 6.638 4.558" fill="#E4A92D"/>
  <path d="M165.981 151.824c3.437 0 6.223-3.061 6.223-6.836s-2.786-6.837-6.223-6.837-6.223 3.061-6.223 6.837 2.786 6.836 6.223 6.836" fill="#fff"/>
  <path d="M165.981 152.86c-4.004 0-7.26-3.53-7.26-7.872s3.257-7.872 7.26-7.872 7.26 3.53 7.26 7.872-3.257 7.872-7.26 7.872m0-13.673c-2.858 0-5.186 2.602-5.186 5.801s2.328 5.801 5.186 5.801 5.186-2.602 5.186-5.801-2.328-5.801-5.186-5.801" fill="#534741"/>
  <path d="M166.097 152.097c2.686 0 4.863-2.319 4.863-5.179s-2.177-5.179-4.863-5.179-4.863 2.319-4.863 5.179 2.177 5.179 4.863 5.179" fill="#534741"/>
  <path d="M165.454 145.07c.802 0 1.452-.514 1.452-1.148s-.65-1.148-1.452-1.148-1.452.514-1.452 1.148.65 1.148 1.452 1.148m-19.365 6.754c3.437 0 6.223-3.061 6.223-6.836s-2.786-6.837-6.223-6.837-6.223 3.061-6.223 6.837 2.786 6.836 6.223 6.836" fill="#fff"/>
  <path d="M146.089 152.86c-4.004 0-7.26-3.53-7.26-7.872s3.257-7.872 7.26-7.872 7.261 3.53 7.261 7.872-3.257 7.872-7.261 7.872m0-13.673c-2.858 0-5.186 2.602-5.186 5.801s2.328 5.801 5.186 5.801 5.186-2.602 5.186-5.801-2.328-5.801-5.186-5.801" fill="#534741"/>
  <path d="M146.205 152.097c2.686 0 4.863-2.319 4.863-5.179s-2.177-5.179-4.863-5.179-4.862 2.319-4.862 5.179 2.177 5.179 4.862 5.179" fill="#534741"/>
  <path d="M145.562 145.07c.802 0 1.452-.514 1.452-1.148s-.65-1.148-1.452-1.148-1.452.514-1.452 1.148.65 1.148 1.452 1.148" fill="#fff"/>
  <path d="M170.904 133.003c-2.36-1.805-6.058-2.999-9.44-2.749m-21.38 2.742c1.934-1.526 5.97-2.774 8.885-2.774" stroke="#534741" stroke-width="2.221" stroke-linecap="round"/>
  <path d="M168.085 162.88c.041 2.641-1.089 4.845-2.993 6.988-1.998 2.25-5.011 3.826-8.921 3.885-4.303.066-6.876-1.26-9.236-3.607-1.887-1.878-3.094-3.723-3.141-6.755-.011-.694.671-1.538 1.51-1.117 1.69.95 4.968 2.684 10.731 2.596 5.492-.084 8.952-1.804 10.095-2.654s1.943-.03 1.954.664" fill="#534741"/>
  <path d="M100.01 177.794c.118-.52-.284-1.158-.847-1.18l-2.972-.527 2.325-14.425c.839-.083 1.668-.4 2.529-1.046 4.222-3.038 7.957-11.907 9.605-22.511.411-3.482.363-5.68.304-8.111-.02-.467.002-1.03.025-1.593-.02-.467-.37-.967-.89-1.085l-13.481-2.131c-.52-.118-1.02.231-1.138.751-.246.807-.545 1.475-.748 2.186-.673 1.761-1.303 3.427-1.99 7.014-2.367 14.521.054 23.965 3.703 26.054l-2.315 14.659-2.876-.484c-.52-.118-1.063.327-1.181.847-.075.425.179.882.656 1.095l.286.128 7.919 1.249c.52.118 1.02-.231 1.085-.89" fill="#fff"/>
  <path d="M108.354 141.612s-2.785 18.816-10.311 17.702-4.742-19.93-4.742-19.93z" fill="#CB3B34"/>
  <path d="M212.116 119.982c0 .754-1.364 4.838-1.364 4.838s-1.365-4.084-1.365-4.838a1.365 1.365 0 0 1 2.729 0" fill="url(#a)"/>
  <path d="M209.387 137.346c0-.754 1.364-4.838 1.364-4.838s1.365 4.084 1.365 4.838a1.365 1.365 0 0 1-2.729 0" fill="url(#b)"/>
  <path d="M219.61 121.735c-.533.533-5.701 3.771-5.701 3.771s3.239-5.168 3.771-5.701a1.365 1.365 0 0 1 1.93 1.93" fill="url(#c)"/>
  <path d="M201.893 135.592c.533-.533 5.876-3.947 5.876-3.947s-3.414 5.344-3.947 5.876a1.363 1.363 0 0 1-1.929 0 1.363 1.363 0 0 1 0-1.929" fill="url(#d)"/>
  <path d="M217.68 137.523c-.533-.533-3.772-5.701-3.772-5.701s5.168 3.239 5.701 3.772a1.364 1.364 0 1 1-1.929 1.929" fill="url(#e)"/>
  <path d="M203.822 119.805c.533.533 3.947 5.877 3.947 5.877s-5.344-3.414-5.877-3.947a1.364 1.364 0 1 1 1.929-1.929" fill="url(#f)"/>
  <path d="M203.482 143.047c.292-.695 3.855-5.645 3.855-5.645s-1.047 6.009-1.339 6.703a1.365 1.365 0 0 1-2.515-1.058" fill="url(#g)"/>
  <path d="M218.021 115.521c-.292.695-3.951 5.874-3.951 5.874s1.143-6.237 1.435-6.932a1.364 1.364 0 1 1 2.515 1.058" fill="url(#h)"/>
  <path d="M206.16 114.411c.285.698 1.266 6.717 1.266 6.717s-3.508-4.989-3.793-5.687a1.364 1.364 0 0 1 2.527-1.03" fill="url(#i)"/>
  <path d="M215.343 144.156c-.285-.698-1.36-6.947-1.36-6.947s3.602 5.219 3.887 5.917a1.364 1.364 0 0 1-2.527 1.031" fill="url(#j)"/>
  <path d="M195.879 133.876c.698-.285 6.717-1.266 6.717-1.266s-4.989 3.508-5.687 3.793a1.364 1.364 0 1 1-1.03-2.527" fill="url(#k)"/>
  <path d="M225.623 124.691c-.698.285-6.947 1.36-6.947 1.36s5.219-3.602 5.917-3.887a1.365 1.365 0 0 1 1.03 2.527" fill="url(#l)"/>
  <path d="M196.988 122.015c.695.292 5.645 3.855 5.645 3.855s-6.009-1.047-6.703-1.339a1.365 1.365 0 0 1 1.058-2.516" fill="url(#m)"/>
  <path d="M224.514 136.552c-.694-.292-5.874-3.951-5.874-3.951s6.237 1.143 6.932 1.435a1.364 1.364 0 0 1 .729 1.787 1.364 1.364 0 0 1-1.787.729" fill="url(#n)"/>
  <path d="M219.434 130.028c-.754 0-4.838-1.364-4.838-1.364s4.084-1.364 4.838-1.364a1.364 1.364 0 1 1 0 2.729" fill="url(#o)"/>
  <path d="M202.068 127.299c.754 0 4.838 1.364 4.838 1.364s-4.084 1.364-4.838 1.364a1.364 1.364 0 1 1 0-2.729" fill="url(#p)"/>
  <path d="M98.565 92.576c0 .796-1.441 5.109-1.441 5.109s-1.441-4.313-1.441-5.109a1.441 1.441 0 0 1 2.882 0" fill="url(#q)"/>
  <path d="M95.683 110.914c0-.796 1.441-5.109 1.441-5.109s1.441 4.313 1.441 5.109a1.441 1.441 0 0 1-2.882 0" fill="url(#r)"/>
  <path d="M106.479 94.427c-.563.563-6.021 3.983-6.021 3.983s3.42-5.458 3.983-6.021a1.44 1.44 0 0 1 2.038 0 1.44 1.44 0 0 1 0 2.038" fill="url(#s)"/>
  <path d="M87.768 109.062c.563-.563 6.206-4.168 6.206-4.168s-3.606 5.643-4.168 6.206a1.44 1.44 0 0 1-2.038 0 1.44 1.44 0 0 1 0-2.038" fill="url(#t)"/>
  <path d="M104.441 111.1c-.563-.563-3.983-6.021-3.983-6.021s5.458 3.42 6.021 3.983a1.44 1.44 0 0 1 0 2.038 1.44 1.44 0 0 1-2.038 0" fill="url(#u)"/>
  <path d="M89.806 92.389c.563.563 4.168 6.206 4.168 6.206s-5.643-3.606-6.206-4.168a1.44 1.44 0 0 1 0-2.038 1.44 1.44 0 0 1 2.038 0" fill="url(#v)"/>
  <path d="M89.447 116.934c.309-.734 4.071-5.962 4.071-5.962s-1.106 6.346-1.414 7.079a1.441 1.441 0 0 1-2.657-1.117" fill="url(#w)"/>
  <path d="M104.801 87.865c-.308.734-4.172 6.203-4.172 6.203s1.207-6.587 1.516-7.32a1.441 1.441 0 1 1 2.656 1.117" fill="url(#x)"/>
  <path d="M92.275 86.693c.3.737 1.337 7.094 1.337 7.094s-3.705-5.269-4.005-6.006a1.441 1.441 0 0 1 2.669-1.088" fill="url(#y)"/>
  <path d="M101.973 118.106c-.3-.737-1.436-7.337-1.436-7.337s3.804 5.511 4.105 6.248a1.441 1.441 0 0 1-2.669 1.088" fill="url(#z)"/>
  <path d="M81.418 107.249c.737-.3 7.094-1.337 7.094-1.337s-5.269 3.705-6.006 4.006a1.441 1.441 0 0 1-1.088-2.669" fill="url(#A)"/>
  <path d="M112.83 97.549c-.737.301-7.337 1.436-7.337 1.436s5.511-3.804 6.248-4.104a1.44 1.44 0 0 1 1.878.79 1.44 1.44 0 0 1-.79 1.878" fill="url(#B)"/>
  <path d="M82.589 94.723c.734.309 5.962 4.071 5.962 4.071s-6.346-1.106-7.079-1.414a1.441 1.441 0 0 1 1.117-2.657" fill="url(#C)"/>
  <path d="M111.659 110.075c-.734-.308-6.203-4.172-6.203-4.172s6.587 1.207 7.32 1.516a1.441 1.441 0 0 1-1.117 2.657" fill="url(#D)"/>
  <path d="M106.293 103.185c-.796 0-5.109-1.441-5.109-1.441s4.313-1.441 5.109-1.441a1.441 1.441 0 1 1 0 2.882" fill="url(#E)"/>
  <path d="M87.954 100.304c.796 0 5.109 1.441 5.109 1.441s-4.313 1.441-5.109 1.441a1.441 1.441 0 1 1 0-2.882" fill="url(#F)"/>
  <path d="M228.036 61.474c0 1.008-1.824 20.568-1.824 20.568s-1.825-19.561-1.825-20.568a1.825 1.825 0 0 1 3.649 0" fill="url(#G)"/>
  <path d="M224.386 103.44c0-1.008 1.824-20.568 1.824-20.568s1.825 19.561 1.825 20.568a1.824 1.824 0 0 1-3.649 0" fill="url(#H)"/>
  <path d="M247.194 84.281c-1.008 0-20.568-1.824-20.568-1.824s19.56-1.825 20.568-1.825a1.825 1.825 0 0 1 0 3.649" fill="url(#I)"/>
  <path d="M205.228 80.632c1.008 0 20.568 1.824 20.568 1.824s-19.56 1.825-20.568 1.825a1.824 1.824 0 0 1 0-3.649" fill="url(#J)"/>
  <path d="M238.882 71.814c-.56.56-12.44 10.413-12.44 10.413s9.853-11.881 10.413-12.44a1.433 1.433 0 0 1 2.027 0 1.433 1.433 0 0 1 0 2.027" fill="url(#K)"/>
  <path d="M213.54 93.101c.56-.56 12.44-10.413 12.44-10.413s-9.853 11.881-10.413 12.44a1.434 1.434 0 0 1-2.027-2.027" fill="url(#L)"/>
  <path d="M236.855 95.128c-.56-.56-10.413-12.44-10.413-12.44s11.88 9.853 12.44 10.413a1.434 1.434 0 0 1-2.027 2.027" fill="url(#M)"/>
  <path d="M215.004 104.78c.308-.729 7.603-14.331 7.603-14.331s-4.654 14.716-4.962 15.446a1.434 1.434 0 0 1-2.642-1.115" fill="url(#N)"/>
  <path d="M215.568 69.786c.56.56 10.413 12.44 10.413 12.44s-11.88-9.853-12.44-10.413a1.434 1.434 0 0 1 2.027-2.027" fill="url(#O)"/>
  <path d="M237.3 59.316c-.308.729-7.603 14.331-7.603 14.331s4.654-14.716 4.962-15.446a1.434 1.434 0 0 1 2.642 1.115" fill="url(#P)"/>
  <path d="M202.196 90.239c.734-.298 15.51-4.757 15.51-4.757s-13.697 7.116-14.43 7.413a1.434 1.434 0 1 1-1.08-2.656" fill="url(#Q)"/>
  <path d="M250.108 73.857c-.734.298-15.51 4.757-15.51 4.757s13.697-7.116 14.43-7.413a1.434 1.434 0 1 1 1.08 2.656" fill="url(#R)"/>
  <path d="M203.421 70.9c.729.308 14.331 7.603 14.331 7.603s-14.716-4.654-15.446-4.962a1.433 1.433 0 1 1 1.115-2.641" fill="url(#S)"/>
  <path d="M248.883 93.196c-.729-.308-14.331-7.603-14.331-7.603s14.716 4.654 15.446 4.962a1.433 1.433 0 1 1-1.115 2.641" fill="url(#T)"/>
  <path d="M217.961 58.091c.298.734 4.757 15.51 4.757 15.51s-7.115-13.697-7.413-14.43a1.434 1.434 0 0 1 2.656-1.08" fill="url(#U)"/>
  <path d="M234.343 106.004c-.298-.734-4.757-15.51-4.757-15.51s7.115 13.697 7.413 14.43a1.434 1.434 0 0 1-2.656 1.08" fill="url(#V)"/>
  <path fill="#FF9C42" d="M219.675 174.451a2.035 2.035 0 0 1-2.035 2.034 2.035 2.035 0 0 1-2.034-2.034 2.035 2.035 0 0 1 4.069 0"/>
  <path fill="#4CB4FA" d="M62.932 144.75a2.035 2.035 0 0 1-2.034 2.035 2.035 2.035 0 0 1-2.035-2.035 2.035 2.035 0 0 1 4.069 0"/>
  <path fill="#36B27B" d="M132.902 59.232a2.035 2.035 0 0 1-2.035 2.034 2.035 2.035 0 0 1-2.034-2.034 2.035 2.035 0 0 1 4.069 0"/>
  <path fill="#FF9C42" d="M247.297 121.149a2.035 2.035 0 0 1-2.035 2.035 2.035 2.035 0 0 1-2.034-2.035 2.035 2.035 0 0 1 4.069 0"/>
  <path fill="#36B27B" d="M243.132 133.644a2.035 2.035 0 0 1-2.035 2.034 2.035 2.035 0 0 1-2.034-2.034 2.035 2.035 0 0 1 4.069 0"/>
  <path fill="#E87461" d="M255.904 148.915a2.035 2.035 0 0 1-2.034 2.035 2.035 2.035 0 0 1-2.035-2.035 2.035 2.035 0 0 1 4.069 0"/>
  <path fill="#4CB4FA" d="M189.544 106.989a2.035 2.035 0 0 1-2.035 2.034 2.035 2.035 0 0 1-2.034-2.034 2.035 2.035 0 0 1 4.069 0"/>
  <path fill="#FF9C42" d="M54.88 135.032a2.035 2.035 0 0 1-2.034 2.035 2.035 2.035 0 0 1-2.035-2.035 2.035 2.035 0 0 1 4.069 0"/>
  <path d="m135.095 122.354 20.917-36.218 20.917 36.218s-8.938 4.59-20.917 4.59-20.917-4.59-20.917-4.59" fill="#4CB4FA"/>
  <mask id="W" style="mask-type:alpha" maskUnits="userSpaceOnUse" x="486" y="310" width="152" height="148">
    <path d="m135.095 122.354 20.917-36.218 20.917 36.218s-8.938 4.59-20.917 4.59-20.917-4.59-20.917-4.59" fill="#4CB4FA"/>
  </mask>
  <g mask="url(#W)" fill="#F54F47">
    <path d="m126.764 118.278 47.943-27.68 1.697 2.94-47.943 27.68zm-3.526-6.106 47.943-27.68 1.828 3.166-47.943 27.68zm6.92 11.986 47.943-27.68 1.698 2.94-47.943 27.68zm3.395 5.88 47.943-27.68 1.697 2.94-47.943 27.68zm3.395 5.88 47.943-27.68 1.697 2.94-47.943 27.68z"/>
  </g>
  <path d="M154.719 77.466h2.059v18.018h-2.059z" fill="#F54F47"/>
  <path d="M164.758 85.446v2.059H146.74v-2.059z" fill="#F54F47"/>
  <path d="m163.036 81.078 1.03 1.783-15.604 9.009-1.03-1.783z" fill="#F54F47"/>
  <path d="m161.145 93.763-1.783 1.03-9.009-15.604 1.783-1.03z" fill="#F54F47"/>
  <path d="m159.361 78.158 1.783 1.03-9.009 15.604-1.783-1.03z" fill="#F54F47"/>
  <path d="m164.066 90.089-1.03 1.783-15.604-9.009 1.03-1.783z" fill="#F54F47"/>
  <defs>
    <radialGradient id="a" cx="0" cy="0" r="1" gradientUnits="userSpaceOnUse" gradientTransform="matrix(0 56.6236 -56.6228 0 759.034 465.624)">
      <stop stop-color="#BAE4FF"/>
      <stop offset="1" stop-color="#4CB4FA"/>
    </radialGradient>
    <radialGradient id="b" cx="0" cy="0" r="1" gradientUnits="userSpaceOnUse" gradientTransform="matrix(0 56.6236 -56.6228 0 759.034 465.624)">
      <stop stop-color="#BAE4FF"/>
      <stop offset="1" stop-color="#4CB4FA"/>
    </radialGradient>
    <radialGradient id="c" cx="0" cy="0" r="1" gradientUnits="userSpaceOnUse" gradientTransform="matrix(0 56.6236 -56.6228 0 759.034 465.624)">
      <stop stop-color="#BAE4FF"/>
      <stop offset="1" stop-color="#4CB4FA"/>
    </radialGradient>
    <radialGradient id="d" cx="0" cy="0" r="1" gradientUnits="userSpaceOnUse" gradientTransform="matrix(0 56.6236 -56.6228 0 759.034 465.624)">
      <stop stop-color="#BAE4FF"/>
      <stop offset="1" stop-color="#4CB4FA"/>
    </radialGradient>
    <radialGradient id="e" cx="0" cy="0" r="1" gradientUnits="userSpaceOnUse" gradientTransform="matrix(0 56.6236 -56.6228 0 759.034 465.624)">
      <stop stop-color="#BAE4FF"/>
      <stop offset="1" stop-color="#4CB4FA"/>
    </radialGradient>
    <radialGradient id="f" cx="0" cy="0" r="1" gradientUnits="userSpaceOnUse" gradientTransform="matrix(0 56.6236 -56.6228 0 759.034 465.624)">
      <stop stop-color="#BAE4FF"/>
      <stop offset="1" stop-color="#4CB4FA"/>
    </radialGradient>
    <radialGradient id="g" cx="0" cy="0" r="1" gradientUnits="userSpaceOnUse" gradientTransform="matrix(0 56.6236 -56.6228 0 759.034 465.624)">
      <stop stop-color="#BAE4FF"/>
      <stop offset="1" stop-color="#4CB4FA"/>
    </radialGradient>
    <radialGradient id="h" cx="0" cy="0" r="1" gradientUnits="userSpaceOnUse" gradientTransform="matrix(0 56.6236 -56.6228 0 759.034 465.624)">
      <stop stop-color="#BAE4FF"/>
      <stop offset="1" stop-color="#4CB4FA"/>
    </radialGradient>
    <radialGradient id="i" cx="0" cy="0" r="1" gradientUnits="userSpaceOnUse" gradientTransform="matrix(0 56.6236 -56.6228 0 759.034 465.624)">
      <stop stop-color="#BAE4FF"/>
      <stop offset="1" stop-color="#4CB4FA"/>
    </radialGradient>
    <radialGradient id="j" cx="0" cy="0" r="1" gradientUnits="userSpaceOnUse" gradientTransform="matrix(0 56.6236 -56.6228 0 759.034 465.624)">
      <stop stop-color="#BAE4FF"/>
      <stop offset="1" stop-color="#4CB4FA"/>
    </radialGradient>
    <radialGradient id="k" cx="0" cy="0" r="1" gradientUnits="userSpaceOnUse" gradientTransform="matrix(0 56.6236 -56.6228 0 759.034 465.624)">
      <stop stop-color="#BAE4FF"/>
      <stop offset="1" stop-color="#4CB4FA"/>
    </radialGradient>
    <radialGradient id="l" cx="0" cy="0" r="1" gradientUnits="userSpaceOnUse" gradientTransform="matrix(0 56.6236 -56.6228 0 759.034 465.624)">
      <stop stop-color="#BAE4FF"/>
      <stop offset="1" stop-color="#4CB4FA"/>
    </radialGradient>
    <radialGradient id="m" cx="0" cy="0" r="1" gradientUnits="userSpaceOnUse" gradientTransform="matrix(0 56.6236 -56.6228 0 759.034 465.624)">
      <stop stop-color="#BAE4FF"/>
      <stop offset="1" stop-color="#4CB4FA"/>
    </radialGradient>
    <radialGradient id="n" cx="0" cy="0" r="1" gradientUnits="userSpaceOnUse" gradientTransform="matrix(0 56.6236 -56.6228 0 759.034 465.624)">
      <stop stop-color="#BAE4FF"/>
      <stop offset="1" stop-color="#4CB4FA"/>
    </radialGradient>
    <radialGradient id="o" cx="0" cy="0" r="1" gradientUnits="userSpaceOnUse" gradientTransform="matrix(0 56.6236 -56.6228 0 759.034 465.624)">
      <stop stop-color="#BAE4FF"/>
      <stop offset="1" stop-color="#4CB4FA"/>
    </radialGradient>
    <radialGradient id="p" cx="0" cy="0" r="1" gradientUnits="userSpaceOnUse" gradientTransform="matrix(0 56.6236 -56.6228 0 759.034 465.624)">
      <stop stop-color="#BAE4FF"/>
      <stop offset="1" stop-color="#4CB4FA"/>
    </radialGradient>
    <radialGradient id="q" cx="0" cy="0" r="1" gradientUnits="userSpaceOnUse" gradientTransform="scale(59.7975 59.7983)rotate(90 -.159 6.009)">
      <stop stop-color="#FFE3FD"/>
      <stop offset="1" stop-color="#C563CA"/>
    </radialGradient>
    <radialGradient id="r" cx="0" cy="0" r="1" gradientUnits="userSpaceOnUse" gradientTransform="scale(59.7975 59.7983)rotate(90 -.159 6.009)">
      <stop stop-color="#FFE3FD"/>
      <stop offset="1" stop-color="#C563CA"/>
    </radialGradient>
    <radialGradient id="s" cx="0" cy="0" r="1" gradientUnits="userSpaceOnUse" gradientTransform="scale(59.7975 59.7983)rotate(90 -.159 6.009)">
      <stop stop-color="#FFE3FD"/>
      <stop offset="1" stop-color="#C563CA"/>
    </radialGradient>
    <radialGradient id="t" cx="0" cy="0" r="1" gradientUnits="userSpaceOnUse" gradientTransform="scale(59.7975 59.7983)rotate(90 -.159 6.009)">
      <stop stop-color="#FFE3FD"/>
      <stop offset="1" stop-color="#C563CA"/>
    </radialGradient>
    <radialGradient id="u" cx="0" cy="0" r="1" gradientUnits="userSpaceOnUse" gradientTransform="scale(59.7975 59.7983)rotate(90 -.159 6.009)">
      <stop stop-color="#FFE3FD"/>
      <stop offset="1" stop-color="#C563CA"/>
    </radialGradient>
    <radialGradient id="v" cx="0" cy="0" r="1" gradientUnits="userSpaceOnUse" gradientTransform="scale(59.7975 59.7983)rotate(90 -.159 6.009)">
      <stop stop-color="#FFE3FD"/>
      <stop offset="1" stop-color="#C563CA"/>
    </radialGradient>
    <radialGradient id="w" cx="0" cy="0" r="1" gradientUnits="userSpaceOnUse" gradientTransform="scale(59.7975 59.7983)rotate(90 -.159 6.009)">
      <stop stop-color="#FFE3FD"/>
      <stop offset="1" stop-color="#C563CA"/>
    </radialGradient>
    <radialGradient id="x" cx="0" cy="0" r="1" gradientUnits="userSpaceOnUse" gradientTransform="scale(59.7975 59.7983)rotate(90 -.159 6.009)">
      <stop stop-color="#FFE3FD"/>
      <stop offset="1" stop-color="#C563CA"/>
    </radialGradient>
    <radialGradient id="y" cx="0" cy="0" r="1" gradientUnits="userSpaceOnUse" gradientTransform="scale(59.7975 59.7983)rotate(90 -.159 6.009)">
      <stop stop-color="#FFE3FD"/>
      <stop offset="1" stop-color="#C563CA"/>
    </radialGradient>
    <radialGradient id="z" cx="0" cy="0" r="1" gradientUnits="userSpaceOnUse" gradientTransform="scale(59.7975 59.7983)rotate(90 -.159 6.009)">
      <stop stop-color="#FFE3FD"/>
      <stop offset="1" stop-color="#C563CA"/>
    </radialGradient>
    <radialGradient id="A" cx="0" cy="0" r="1" gradientUnits="userSpaceOnUse" gradientTransform="scale(59.7975 59.7983)rotate(90 -.159 6.009)">
      <stop stop-color="#FFE3FD"/>
      <stop offset="1" stop-color="#C563CA"/>
    </radialGradient>
    <radialGradient id="B" cx="0" cy="0" r="1" gradientUnits="userSpaceOnUse" gradientTransform="scale(59.7975 59.7983)rotate(90 -.159 6.009)">
      <stop stop-color="#FFE3FD"/>
      <stop offset="1" stop-color="#C563CA"/>
    </radialGradient>
    <radialGradient id="C" cx="0" cy="0" r="1" gradientUnits="userSpaceOnUse" gradientTransform="scale(59.7975 59.7983)rotate(90 -.159 6.009)">
      <stop stop-color="#FFE3FD"/>
      <stop offset="1" stop-color="#C563CA"/>
    </radialGradient>
    <radialGradient id="D" cx="0" cy="0" r="1" gradientUnits="userSpaceOnUse" gradientTransform="scale(59.7975 59.7983)rotate(90 -.159 6.009)">
      <stop stop-color="#FFE3FD"/>
      <stop offset="1" stop-color="#C563CA"/>
    </radialGradient>
    <radialGradient id="E" cx="0" cy="0" r="1" gradientUnits="userSpaceOnUse" gradientTransform="scale(59.7975 59.7983)rotate(90 -.159 6.009)">
      <stop stop-color="#FFE3FD"/>
      <stop offset="1" stop-color="#C563CA"/>
    </radialGradient>
    <radialGradient id="F" cx="0" cy="0" r="1" gradientUnits="userSpaceOnUse" gradientTransform="scale(59.7975 59.7983)rotate(90 -.159 6.009)">
      <stop stop-color="#FFE3FD"/>
      <stop offset="1" stop-color="#C563CA"/>
    </radialGradient>
    <radialGradient id="G" cx="0" cy="0" r="1" gradientUnits="userSpaceOnUse" gradientTransform="rotate(90 259.5 555)scale(89.5)">
      <stop stop-color="#FEFFFF"/>
      <stop offset="1" stop-color="#FFC000"/>
    </radialGradient>
    <radialGradient id="H" cx="0" cy="0" r="1" gradientUnits="userSpaceOnUse" gradientTransform="rotate(90 259.5 555)scale(89.5)">
      <stop stop-color="#FEFFFF"/>
      <stop offset="1" stop-color="#FFC000"/>
    </radialGradient>
    <radialGradient id="I" cx="0" cy="0" r="1" gradientUnits="userSpaceOnUse" gradientTransform="rotate(90 259.5 555)scale(89.5)">
      <stop stop-color="#FEFFFF"/>
      <stop offset="1" stop-color="#FFC000"/>
    </radialGradient>
    <radialGradient id="J" cx="0" cy="0" r="1" gradientUnits="userSpaceOnUse" gradientTransform="rotate(90 259.5 555)scale(89.5)">
      <stop stop-color="#FEFFFF"/>
      <stop offset="1" stop-color="#FFC000"/>
    </radialGradient>
    <radialGradient id="K" cx="0" cy="0" r="1" gradientUnits="userSpaceOnUse" gradientTransform="rotate(90 259.5 555)scale(89.5)">
      <stop stop-color="#FEFFFF"/>
      <stop offset="1" stop-color="#FFC000"/>
    </radialGradient>
    <radialGradient id="L" cx="0" cy="0" r="1" gradientUnits="userSpaceOnUse" gradientTransform="rotate(90 259.5 555)scale(89.5)">
      <stop stop-color="#FEFFFF"/>
      <stop offset="1" stop-color="#FFC000"/>
    </radialGradient>
    <radialGradient id="M" cx="0" cy="0" r="1" gradientUnits="userSpaceOnUse" gradientTransform="rotate(90 259.5 555)scale(89.5)">
      <stop stop-color="#FEFFFF"/>
      <stop offset="1" stop-color="#FFC000"/>
    </radialGradient>
    <radialGradient id="N" cx="0" cy="0" r="1" gradientUnits="userSpaceOnUse" gradientTransform="rotate(90 259.5 555)scale(89.5)">
      <stop stop-color="#FEFFFF"/>
      <stop offset="1" stop-color="#FFC000"/>
    </radialGradient>
    <radialGradient id="O" cx="0" cy="0" r="1" gradientUnits="userSpaceOnUse" gradientTransform="rotate(90 259.5 555)scale(89.5)">
      <stop stop-color="#FEFFFF"/>
      <stop offset="1" stop-color="#FFC000"/>
    </radialGradient>
    <radialGradient id="P" cx="0" cy="0" r="1" gradientUnits="userSpaceOnUse" gradientTransform="rotate(90 259.5 555)scale(89.5)">
      <stop stop-color="#FEFFFF"/>
      <stop offset="1" stop-color="#FFC000"/>
    </radialGradient>
    <radialGradient id="Q" cx="0" cy="0" r="1" gradientUnits="userSpaceOnUse" gradientTransform="rotate(90 259.5 555)scale(89.5)">
      <stop stop-color="#FEFFFF"/>
      <stop offset="1" stop-color="#FFC000"/>
    </radialGradient>
    <radialGradient id="R" cx="0" cy="0" r="1" gradientUnits="userSpaceOnUse" gradientTransform="rotate(90 259.5 555)scale(89.5)">
      <stop stop-color="#FEFFFF"/>
      <stop offset="1" stop-color="#FFC000"/>
    </radialGradient>
    <radialGradient id="S" cx="0" cy="0" r="1" gradientUnits="userSpaceOnUse" gradientTransform="rotate(90 259.5 555)scale(89.5)">
      <stop stop-color="#FEFFFF"/>
      <stop offset="1" stop-color="#FFC000"/>
    </radialGradient>
    <radialGradient id="T" cx="0" cy="0" r="1" gradientUnits="userSpaceOnUse" gradientTransform="rotate(90 259.5 555)scale(89.5)">
      <stop stop-color="#FEFFFF"/>
      <stop offset="1" stop-color="#FFC000"/>
    </radialGradient>
    <radialGradient id="U" cx="0" cy="0" r="1" gradientUnits="userSpaceOnUse" gradientTransform="rotate(90 259.5 555)scale(89.5)">
      <stop stop-color="#FEFFFF"/>
      <stop offset="1" stop-color="#FFC000"/>
    </radialGradient>
    <radialGradient id="V" cx="0" cy="0" r="1" gradientUnits="userSpaceOnUse" gradientTransform="rotate(90 259.5 555)scale(89.5)">
      <stop stop-color="#FEFFFF"/>
      <stop offset="1" stop-color="#FFC000"/>
    </radialGradient>
  </defs>
</svg>
