<svg width="922" height="1079" viewBox="0 0 922 1079" fill="none" xmlns="http://www.w3.org/2000/svg">
<path d="M492.779 998.176H482.217V976.608H462.427V998.176H451.831V948.205H462.427V967.79H482.217V948.205H492.779V998.176Z" fill="#005A9E"/>
<path d="M536.116 998.176L532.493 986.281H514.275L510.652 998.176H499.236L516.873 948H529.827L547.532 998.176H536.116ZM529.963 977.395L526.34 965.773C526.113 964.999 525.805 964.007 525.418 962.8C525.053 961.569 524.677 960.327 524.29 959.074C523.925 957.798 523.629 956.693 523.401 955.759C523.173 956.693 522.854 957.855 522.444 959.245C522.057 960.612 521.681 961.911 521.316 963.142C520.951 964.372 520.689 965.249 520.53 965.773L516.941 977.395H529.963Z" fill="#005A9E"/>
<path d="M569.917 948.205C576.366 948.205 581.071 949.595 584.033 952.375C586.995 955.132 588.477 958.938 588.477 963.791C588.477 965.979 588.146 968.075 587.485 970.08C586.825 972.062 585.742 973.828 584.238 975.378C582.757 976.927 580.775 978.158 578.291 979.069C575.807 979.958 572.743 980.402 569.097 980.402H564.551V998.176H553.955V948.205H569.917ZM569.37 956.887H564.551V971.721H568.037C570.02 971.721 571.74 971.459 573.198 970.935C574.657 970.41 575.785 969.59 576.582 968.474C577.38 967.357 577.778 965.922 577.778 964.167C577.778 961.706 577.095 959.883 575.728 958.698C574.36 957.491 572.241 956.887 569.37 956.887Z" fill="#005A9E"/>
<path d="M613.972 948.205C620.421 948.205 625.126 949.595 628.088 952.375C631.051 955.132 632.532 958.938 632.532 963.791C632.532 965.979 632.201 968.075 631.54 970.08C630.88 972.062 629.797 973.828 628.293 975.378C626.812 976.927 624.83 978.158 622.346 979.069C619.862 979.958 616.798 980.402 613.152 980.402H608.606V998.176H598.01V948.205H613.972ZM613.425 956.887H608.606V971.721H612.092C614.075 971.721 615.795 971.459 617.253 970.935C618.712 970.41 619.84 969.59 620.637 968.474C621.435 967.357 621.833 965.922 621.833 964.167C621.833 961.706 621.15 959.883 619.783 958.698C618.415 957.491 616.296 956.887 613.425 956.887Z" fill="#005A9E"/>
<path d="M657.617 968.781L668.042 948.205H679.458L662.881 978.728V998.176H652.353V979.069L635.776 948.205H647.261L657.617 968.781Z" fill="#005A9E"/>
<path d="M351.808 1078.18L348.185 1066.28H329.967L326.344 1078.18H314.928L332.564 1028H345.519L363.224 1078.18H351.808ZM345.655 1057.39L342.032 1045.77C341.804 1045 341.497 1044.01 341.109 1042.8C340.745 1041.57 340.369 1040.33 339.981 1039.07C339.617 1037.8 339.321 1036.69 339.093 1035.76C338.865 1036.69 338.546 1037.86 338.136 1039.25C337.748 1040.61 337.372 1041.91 337.008 1043.14C336.643 1044.37 336.381 1045.25 336.222 1045.77L332.633 1057.39H345.655Z" fill="#005A9E"/>
<path d="M413.978 1078.18H400.511L378.773 1040.37H378.465C378.556 1041.95 378.636 1043.53 378.704 1045.12C378.773 1046.72 378.841 1048.31 378.91 1049.91C378.978 1051.48 379.046 1053.07 379.115 1054.66V1078.18H369.647V1028.21H383.011L404.715 1065.63H404.954C404.909 1064.08 404.852 1062.54 404.784 1061.02C404.715 1059.49 404.647 1057.96 404.579 1056.44C404.533 1054.91 404.487 1053.38 404.442 1051.86V1028.21H413.978V1078.18Z" fill="#005A9E"/>
<path d="M471.021 1078.18H457.554L435.816 1040.37H435.509C435.6 1041.95 435.679 1043.53 435.748 1045.12C435.816 1046.72 435.885 1048.31 435.953 1049.91C436.021 1051.48 436.09 1053.07 436.158 1054.66V1078.18H426.69V1028.21H440.054L461.759 1065.63H461.998C461.952 1064.08 461.895 1062.54 461.827 1061.02C461.759 1059.49 461.69 1057.96 461.622 1056.44C461.576 1054.91 461.531 1053.38 461.485 1051.86V1028.21H471.021V1078.18Z" fill="#005A9E"/>
<path d="M483.734 1078.18V1028.21H494.329V1078.18H483.734Z" fill="#005A9E"/>
<path d="M546.212 1028.21L529.224 1078.18H517.671L500.718 1028.21H511.417L520.816 1057.94C520.976 1058.44 521.238 1059.39 521.602 1060.78C521.967 1062.15 522.331 1063.6 522.696 1065.15C523.083 1066.68 523.345 1067.94 523.482 1068.95C523.619 1067.94 523.858 1066.68 524.2 1065.15C524.564 1063.63 524.918 1062.18 525.259 1060.81C525.624 1059.42 525.886 1058.47 526.046 1057.94L535.513 1028.21H546.212Z" fill="#005A9E"/>
<path d="M581.414 1078.18H552.635V1028.21H581.414V1036.89H563.23V1047.86H580.149V1056.54H563.23V1069.43H581.414V1078.18Z" fill="#005A9E"/>
<path d="M606.534 1028.21C611.068 1028.21 614.805 1028.75 617.745 1029.85C620.707 1030.94 622.906 1032.59 624.341 1034.8C625.777 1037.01 626.495 1039.8 626.495 1043.18C626.495 1045.45 626.062 1047.45 625.196 1049.16C624.33 1050.87 623.191 1052.31 621.778 1053.5C620.365 1054.68 618.838 1055.65 617.198 1056.4L631.895 1078.18H620.137L608.208 1059H602.569V1078.18H591.973V1028.21H606.534ZM605.782 1036.89H602.569V1050.39H605.987C609.496 1050.39 612.002 1049.81 613.506 1048.64C615.033 1047.46 615.796 1045.73 615.796 1043.45C615.796 1041.08 614.976 1039.39 613.335 1038.39C611.718 1037.39 609.2 1036.89 605.782 1036.89Z" fill="#005A9E"/>
<path d="M667.781 1064.3C667.781 1067.26 667.063 1069.84 665.628 1072.02C664.192 1074.21 662.096 1075.9 659.339 1077.08C656.604 1078.27 653.277 1078.86 649.358 1078.86C647.626 1078.86 645.929 1078.75 644.265 1078.52C642.625 1078.29 641.041 1077.96 639.514 1077.53C638.011 1077.07 636.575 1076.51 635.208 1075.85V1066.01C637.578 1067.06 640.039 1068 642.591 1068.84C645.143 1069.69 647.672 1070.11 650.179 1070.11C651.91 1070.11 653.3 1069.88 654.348 1069.43C655.419 1068.97 656.194 1068.34 656.673 1067.55C657.151 1066.75 657.39 1065.84 657.39 1064.81C657.39 1063.56 656.969 1062.49 656.126 1061.6C655.283 1060.71 654.121 1059.88 652.639 1059.1C651.181 1058.33 649.529 1057.5 647.683 1056.61C646.521 1056.06 645.257 1055.4 643.889 1054.63C642.522 1053.83 641.223 1052.86 639.993 1051.72C638.763 1050.58 637.749 1049.2 636.951 1047.58C636.176 1045.94 635.789 1043.98 635.789 1041.71C635.789 1038.72 636.472 1036.17 637.84 1034.05C639.207 1031.93 641.155 1030.31 643.684 1029.2C646.236 1028.06 649.244 1027.49 652.708 1027.49C655.305 1027.49 657.778 1027.79 660.125 1028.41C662.495 1029 664.967 1029.87 667.542 1031.01L664.124 1039.25C661.822 1038.31 659.76 1037.59 657.937 1037.09C656.114 1036.57 654.257 1036.31 652.366 1036.31C651.044 1036.31 649.916 1036.52 648.982 1036.96C648.048 1037.37 647.342 1037.96 646.863 1038.73C646.385 1039.48 646.145 1040.36 646.145 1041.36C646.145 1042.55 646.487 1043.55 647.171 1044.37C647.877 1045.17 648.925 1045.94 650.315 1046.7C651.728 1047.45 653.483 1048.33 655.579 1049.33C658.131 1050.54 660.307 1051.8 662.107 1053.12C663.93 1054.42 665.332 1055.96 666.311 1057.74C667.291 1059.49 667.781 1061.68 667.781 1064.3Z" fill="#005A9E"/>
<path d="M707.529 1078.18L703.906 1066.28H685.689L682.066 1078.18H670.65L688.286 1028H701.24L718.945 1078.18H707.529ZM701.377 1057.39L697.754 1045.77C697.526 1045 697.219 1044.01 696.831 1042.8C696.467 1041.57 696.091 1040.33 695.703 1039.07C695.339 1037.8 695.043 1036.69 694.815 1035.76C694.587 1036.69 694.268 1037.86 693.858 1039.25C693.47 1040.61 693.094 1041.91 692.73 1043.14C692.365 1044.37 692.103 1045.25 691.944 1045.77L688.355 1057.39H701.377Z" fill="#005A9E"/>
<path d="M739.929 1028.21C744.464 1028.21 748.201 1028.75 751.14 1029.85C754.102 1030.94 756.301 1032.59 757.737 1034.8C759.172 1037.01 759.89 1039.8 759.89 1043.18C759.89 1045.45 759.457 1047.45 758.591 1049.16C757.726 1050.87 756.586 1052.31 755.173 1053.5C753.761 1054.68 752.234 1055.65 750.593 1056.4L765.291 1078.18H753.533L741.604 1059H735.964V1078.18H725.369V1028.21H739.929ZM739.177 1036.89H735.964V1050.39H739.382C742.892 1050.39 745.398 1049.81 746.902 1048.64C748.429 1047.46 749.192 1045.73 749.192 1043.45C749.192 1041.08 748.372 1039.39 746.731 1038.39C745.113 1037.39 742.595 1036.89 739.177 1036.89Z" fill="#005A9E"/>
<path d="M787.231 1048.78L797.656 1028.21H809.072L792.495 1058.73V1078.18H781.968V1059.07L765.391 1028.21H776.875L787.231 1048.78Z" fill="#005A9E"/>
<path d="M315 461C315.004 461.61 314.819 462.206 314.469 462.706C314.12 463.205 313.623 463.584 313.049 463.788L303.349 467.357L299.781 477.061C299.57 477.63 299.19 478.121 298.691 478.468C298.193 478.814 297.601 479 296.994 479C296.387 479 295.794 478.814 295.296 478.468C294.798 478.121 294.418 477.63 294.206 477.061L290.639 467.357L280.939 463.788C280.37 463.577 279.879 463.197 279.532 462.698C279.186 462.2 279 461.607 279 461C279 460.393 279.186 459.8 279.532 459.302C279.879 458.803 280.37 458.423 280.939 458.212L290.639 454.643L294.206 444.939C294.418 444.37 294.798 443.879 295.296 443.532C295.794 443.186 296.387 443 296.994 443C297.601 443 298.193 443.186 298.691 443.532C299.19 443.879 299.57 444.37 299.781 444.939L303.349 454.643L313.049 458.212C313.623 458.416 314.12 458.795 314.469 459.294C314.819 459.794 315.004 460.39 315 461Z" fill="#FFEBB2"/>
<path d="M324 498C324.002 498.305 323.904 498.603 323.72 498.853C323.535 499.103 323.273 499.292 322.97 499.394L317.851 501.179L315.968 506.03C315.856 506.315 315.656 506.56 315.393 506.734C315.13 506.907 314.817 507 314.497 507C314.176 507 313.864 506.907 313.601 506.734C313.338 506.56 313.137 506.315 313.026 506.03L311.143 501.179L306.023 499.394C305.723 499.289 305.464 499.098 305.281 498.849C305.098 498.6 305 498.304 305 498C305 497.696 305.098 497.4 305.281 497.151C305.464 496.902 305.723 496.711 306.023 496.606L311.143 494.821L313.026 489.97C313.137 489.685 313.338 489.44 313.601 489.266C313.864 489.093 314.176 489 314.497 489C314.817 489 315.13 489.093 315.393 489.266C315.656 489.44 315.856 489.685 315.968 489.97L317.851 494.821L322.97 496.606C323.273 496.708 323.535 496.897 323.72 497.147C323.904 497.397 324.002 497.695 324 498Z" fill="#FFEBB2"/>
<path d="M605.383 96.2795C596.183 85.4795 576.387 87.2795 569.887 96.2795L553.387 79.2795C566.053 64.9462 602.602 46.984 628.383 63.7795C657.383 82.6723 647.883 103.28 650.883 157.28C652.91 193.78 735.746 129.874 765.881 220.279C782.881 271.279 720.524 360.825 734.382 397.28C775.662 505.862 844 513.5 852 634C835 771.5 749.121 836 569.887 836C389.486 832.101 278.386 737.672 290.885 622.172C305.086 490.938 489.885 496.172 448.385 383.172C406.885 270.172 628.383 344.28 657.383 289.78C686.383 235.28 637.383 231.28 605.383 210.28C573.404 189.293 588.862 160.817 598.364 143.314L598.383 143.28C607.883 125.78 616.883 109.78 605.383 96.2795Z" fill="#F887CB"/>
<path d="M13.0152 238.19C0.133469 243.878 23.0078 298.17 36.0551 324.605L579.437 86.0433L567.54 59.1004L451.758 110.226C437.956 116.321 385.266 134.988 336.434 127.114C297.368 120.815 245.885 136.128 225.027 144.572L13.0152 238.19Z" fill="#B6DEFC"/>
<path d="M80.3432 390.664C67.4615 396.352 42.9694 343.376 32.3335 316.177L574.7 75.3165L586.486 102.008L470.704 153.134C456.902 159.228 407.596 185.557 380.417 226.72C358.673 259.651 312.649 287.325 292.355 297.046L80.3432 390.664Z" fill="#B6DEFC"/>
<path d="M567.481 53.7833C571.501 52.0082 576.199 53.828 577.974 57.848L594.552 95.3918C596.327 99.4118 594.507 104.11 590.487 105.885C586.467 107.66 581.769 105.84 579.994 101.82L563.416 64.2764C561.641 60.2563 563.461 55.5584 567.481 53.7833Z" fill="#B6DEFC"/>
<rect x="242.328" y="156.16" width="131.499" height="133.174" transform="rotate(66.1751 242.328 156.16)" fill="white"/>
<path d="M479.458 686.034C488.576 673.026 489.47 658.907 484.426 645.767C479.488 632.902 468.998 621.229 455.714 611.917C442.488 602.647 419.487 591.241 397.795 584.825C386.957 581.619 376.043 579.536 366.623 579.774C357.356 580.009 348.127 582.562 342.761 590.218C337.402 597.862 338.115 607.431 341.012 616.263C343.959 625.247 349.586 634.863 356.248 644.029C369.578 662.367 388.055 680.25 401.306 689.539C414.634 698.88 429.301 704.611 443.177 704.712C457.317 704.814 470.351 699.026 479.458 686.034Z" fill="#FFC000" stroke="#D39C28" stroke-width="12"/>
<path d="M483.84 691.719C499.377 670.321 495.43 646.938 484.805 629.395C479.504 620.642 472.449 613.125 464.99 607.656C457.623 602.255 449.378 598.503 441.659 598.032C439.594 597.906 437.713 598.485 436.265 599.113C434.757 599.766 433.27 600.67 431.854 601.673C429.022 603.678 425.943 606.458 422.818 609.64C416.539 616.032 409.511 624.622 403.074 633.493C396.637 642.365 390.647 651.713 386.51 659.669C384.45 663.629 382.757 667.418 381.723 670.732C381.205 672.389 380.803 674.081 380.644 675.714C380.49 677.281 380.513 679.242 381.255 681.164C384.067 688.443 390.229 695.123 397.694 700.412C405.253 705.768 414.652 710.064 424.677 712.303C444.758 716.786 468.32 713.095 483.84 691.719Z" fill="white" stroke="#CCCCCC" stroke-width="12"/>
<path d="M639.978 689.623C649.045 702.666 661.99 708.372 676.065 708.167C689.843 707.966 704.417 702.143 717.736 692.883C730.998 683.663 749.633 666.004 763.133 647.854C769.879 638.785 775.597 629.258 778.62 620.333C781.594 611.553 782.379 602.01 777.042 594.333C771.713 586.668 762.485 584.039 753.196 583.714C743.747 583.383 732.781 585.35 721.88 588.444C700.071 594.636 676.914 605.816 663.628 615.054C650.264 624.344 639.829 636.137 634.951 649.127C629.981 662.366 630.921 676.596 639.978 689.623Z" fill="#FFC000" stroke="#D39C28" stroke-width="12"/>
<path d="M633.127 691.775C647.858 713.736 671.167 718.091 691.298 714.164C701.341 712.205 710.83 708.174 718.535 703.057C726.145 698.004 732.508 691.558 735.612 684.475C736.442 682.579 736.546 680.614 736.456 679.038C736.363 677.398 736.027 675.69 735.574 674.015C734.668 670.665 733.119 666.817 731.21 662.787C727.373 654.689 721.732 645.131 715.624 636.03C709.516 626.929 702.805 618.085 696.763 611.458C693.756 608.16 690.782 605.265 688.028 603.151C686.651 602.094 685.201 601.134 683.724 600.421C682.306 599.737 680.456 599.082 678.397 599.116C670.595 599.247 662.2 602.728 654.662 607.912C647.028 613.162 639.755 620.504 634.199 629.143C623.068 646.447 618.411 669.838 633.127 691.775Z" fill="white" stroke="#CCCCCC" stroke-width="12"/>
<path d="M695.15 749.063C695.15 808.102 636.276 842.347 563.65 842.347C491.025 842.347 432.15 808.102 432.15 749.063C432.15 647.076 491.025 577.347 563.65 577.347C636.276 577.347 695.15 656.328 695.15 749.063Z" fill="white" stroke="#CCCCCC" stroke-width="12"/>
<path d="M463.75 722.433C463.521 724.781 461.338 726.438 459.017 726.019L429.645 720.711C427.604 720.342 426.184 718.49 426.392 716.425C427.349 706.959 430.206 680.589 434.577 656.401C438.948 632.214 445.502 606.512 447.919 597.309C448.446 595.303 450.424 594.065 452.466 594.434L481.837 599.741C484.159 600.161 485.624 602.477 485.016 604.757C482.529 614.079 476.503 637.596 471.886 663.144C467.269 688.691 464.683 712.83 463.75 722.433Z" fill="#45566A" stroke="#394457" stroke-width="12"/>
<path d="M636.781 604.998C636.154 602.723 637.601 600.395 639.919 599.957L669.248 594.417C671.287 594.032 673.275 595.255 673.818 597.257C676.307 606.44 683.064 632.09 687.626 656.242C692.189 680.394 695.253 706.741 696.285 716.199C696.51 718.262 695.105 720.125 693.066 720.51L663.738 726.05C661.42 726.488 659.223 724.848 658.977 722.502C657.968 712.907 655.19 688.789 650.372 663.279C645.553 637.769 639.341 614.3 636.781 604.998Z" fill="#45566A" stroke="#394457" stroke-width="12"/>
<path d="M561.387 847.89C598.582 847.89 632.741 839.159 657.797 822.421C683.016 805.574 699.017 780.547 699.017 748.776C699.017 725.452 696.19 709.307 689.591 698.805C682.541 687.587 671.89 683.78 659.578 683.34C649.116 682.966 636.536 684.994 622.709 687.222C620.892 687.515 619.054 687.811 617.196 688.106C600.902 690.69 582.337 693.321 561.387 693.321C540.549 693.321 522.065 690.144 505.83 686.852C502.975 686.274 500.161 685.684 497.397 685.104C484.782 682.46 473.203 680.032 463.508 679.874C457.44 679.775 451.595 680.531 446.313 682.928C440.923 685.373 436.515 689.349 433.117 695.016C426.568 705.941 423.757 723.224 423.757 748.776C423.757 780.547 439.758 805.574 464.978 822.421C490.034 839.159 524.192 847.89 561.387 847.89Z" fill="#45566A" stroke="#394457" stroke-width="12"/>
<path d="M474.386 714.978C472.567 712.088 470.758 709.189 468.968 706.291C468.235 705.104 466.937 704.384 465.542 704.392C462.065 704.412 458.589 704.422 455.103 704.423C453.688 704.423 452.377 705.172 451.657 706.393C451.22 707.136 450.783 707.878 450.348 708.619C449.087 710.762 447.831 712.897 446.564 715.029C445.805 716.306 445.815 717.9 446.596 719.169C448.393 722.09 450.198 725.001 452.002 727.908C452.729 729.08 454.009 729.795 455.389 729.799L466.009 729.83C467.445 729.834 468.774 729.067 469.489 727.821C471.157 724.916 472.829 722.002 474.483 719.078C475.208 717.796 475.169 716.222 474.386 714.978Z" fill="white" stroke="#CCCCCC" stroke-width="6"/>
<path d="M677.564 714.978C675.744 712.088 673.936 709.189 672.146 706.291C671.413 705.104 670.115 704.384 668.719 704.392C665.243 704.412 661.767 704.422 658.281 704.423C656.865 704.423 655.554 705.172 654.835 706.393C654.398 707.136 653.961 707.878 653.525 708.619C652.265 710.762 651.009 712.897 649.742 715.029C648.983 716.306 648.993 717.9 649.773 719.169C651.57 722.09 653.376 725.001 655.179 727.908C655.907 729.08 657.187 729.795 658.567 729.799L669.186 729.83C670.623 729.834 671.952 729.067 672.667 727.821C674.335 724.916 676.006 722.002 677.661 719.078C678.386 717.796 678.347 716.222 677.564 714.978Z" fill="white" stroke="#CCCCCC" stroke-width="6"/>
<path d="M553.371 773.345H535.29C534.398 773.345 533.589 772.866 533.143 772.108L524.111 756.474C523.665 755.716 523.665 754.759 524.111 754.001L533.143 738.367C533.589 737.609 534.398 737.131 535.29 737.131H553.371C554.263 737.131 555.072 737.609 555.518 738.367L564.551 754.001C564.996 754.759 564.996 755.716 564.551 756.474L555.518 772.108C555.089 772.866 554.263 773.345 553.371 773.345ZM536.727 768.397H551.935L559.547 755.238L551.935 742.078H536.727L529.114 755.238L536.727 768.397Z" fill="#4CB4FA"/>
<path d="M580.486 757.792H562.404C561.512 757.792 560.703 757.314 560.258 756.555L551.225 740.922C550.779 740.163 550.779 739.207 551.225 738.448L560.258 722.815C560.703 722.056 561.512 721.578 562.404 721.578H580.486C581.377 721.578 582.187 722.056 582.632 722.815L591.665 738.448C592.111 739.207 592.111 740.163 591.665 740.922L582.632 756.555C582.187 757.33 581.377 757.792 580.486 757.792ZM563.841 752.845H579.049L586.662 739.685L579.049 726.525H563.841L556.228 739.685L563.841 752.845Z" fill="#FFC000"/>
<path d="M580.486 788.959H562.404C561.512 788.959 560.703 788.481 560.258 787.722L551.225 772.089C550.779 771.33 550.779 770.374 551.225 769.615L560.258 753.982C560.703 753.223 561.512 752.745 562.404 752.745H580.486C581.377 752.745 582.187 753.223 582.632 753.982L591.665 769.615C592.111 770.374 592.111 771.33 591.665 772.089L582.632 787.722C582.187 788.497 581.377 788.959 580.486 788.959ZM563.841 784.012H579.049L586.662 770.852L579.049 757.692H563.841L556.228 770.852L563.841 784.012Z" fill="white"/>
<path d="M497.391 788.241C482.093 784.141 466.947 785.487 454.712 793.417C442.444 801.369 434.049 815.326 431.047 834.55C428.854 848.591 432.726 864.795 439.091 877.889C442.304 884.5 446.272 890.571 450.699 895.372C455.059 900.101 460.242 904.003 465.962 905.536C471.61 907.049 477.791 906.392 483.702 904.589C489.668 902.77 495.773 899.661 501.537 895.735C513.004 887.924 523.824 876.386 529.836 863.739C538.008 846.547 538.088 829.768 531.737 816.058C525.409 802.397 512.987 792.42 497.391 788.241Z" fill="#FFC000" stroke="#D39C28" stroke-width="12"/>
<path d="M420.073 829.303C426.315 768.348 450.608 767.647 495.524 779.682C540.44 791.717 567.212 804.992 539.763 861.375C528.612 884.281 493.472 873.406 471.955 867.64C450.439 861.875 417.507 854.353 420.073 829.303Z" fill="#45566A"/>
<path d="M545.91 845.512C544.46 849.221 541.79 857.213 539.764 861.375C528.612 884.281 493.473 873.406 471.956 867.64C450.439 861.875 417.508 854.353 420.073 829.303C422.161 808.91 426.27 795.261 432.496 786.577" stroke="#394457" stroke-width="12" stroke-linecap="round"/>
<path d="M535.109 861.581C537.773 862.157 539.104 865.163 537.743 867.525L530.628 879.873C529.771 881.359 528.076 882.135 526.397 881.787C519.062 880.265 498.294 875.822 475.883 869.817C453.554 863.834 432.1 856.972 424.392 854.46C422.624 853.883 421.513 852.162 421.686 850.31L422.993 836.372C423.233 833.811 425.793 832.134 428.242 832.921C437.412 835.868 458.61 842.528 481.548 848.675C504.104 854.718 525.451 859.491 535.109 861.581Z" fill="white" stroke="#CCCCCC" stroke-width="12"/>
<path d="M638.938 787.826C654.437 783.673 669.759 784.872 682.118 792.618C694.543 800.406 703.006 814.203 705.92 833.275C708.051 847.221 703.972 863.32 697.406 876.323C694.089 882.893 690.013 888.925 685.488 893.7C681.026 898.408 675.766 902.27 670.016 903.811C658.918 906.785 645.385 901.835 634.089 894.389C622.496 886.746 611.564 875.395 605.531 862.879C597.323 845.855 597.379 829.182 603.949 815.541C610.483 801.975 623.148 792.057 638.938 787.826Z" fill="#FFC000" stroke="#D39C28" stroke-width="12"/>
<path d="M717.213 827.944C711.336 767.667 686.656 767.159 640.921 779.414C595.186 791.668 567.879 805.011 595.34 860.6C606.496 883.183 642.288 872.152 664.197 866.281C686.106 860.411 719.628 852.715 717.213 827.944Z" fill="#45566A"/>
<path d="M692.908 778.009C705.408 789.509 714.93 804.533 717.213 827.944C719.628 852.715 686.106 860.411 664.197 866.281C642.287 872.152 606.496 883.184 595.339 860.6C592.663 855.183 591.078 849.662 589.409 845.009" stroke="#394457" stroke-width="12" stroke-linecap="round"/>
<path d="M600.006 860.78C597.332 861.363 596.009 864.39 597.394 866.75L604.466 878.795C605.33 880.267 607.021 881.03 608.691 880.68C616.095 879.131 637.292 874.565 660.179 868.432C682.978 862.323 704.89 855.347 712.686 852.82C714.451 852.248 715.565 850.536 715.402 848.689L714.196 835.037C713.97 832.469 711.411 830.777 708.955 831.562C699.654 834.537 678.01 841.308 654.593 847.582C631.578 853.749 609.807 858.644 600.006 860.78Z" fill="white" stroke="#CCCCCC" stroke-width="12"/>
<path d="M561.99 661C593.728 661 618.373 652.197 635.906 637.538C653.436 622.881 663.388 602.757 666.408 580.992C668.533 565.679 665.904 545.067 660.434 523.215C654.926 501.211 646.385 477.357 636.205 455.317C626.041 433.314 614.126 412.867 601.775 397.814C595.601 390.289 589.177 383.939 582.651 379.427C576.153 374.935 569.163 372 561.99 372C554.895 372 547.972 374.758 541.508 379.06C535.027 383.374 528.67 389.459 522.574 396.701C510.383 411.185 498.691 430.949 488.717 452.501C478.725 474.091 470.344 497.723 464.876 520.083C459.431 542.351 456.772 563.77 458.547 580.79C460.897 603.323 470.605 623.54 488.116 638.075C505.595 652.584 530.322 661 561.99 661Z" fill="#FFC000" stroke="#D39C28" stroke-width="12"/>
<path d="M496.181 580.75C509.386 580.75 520.09 573.401 520.09 564.335C520.09 555.269 509.386 547.92 496.181 547.92C482.977 547.92 472.273 555.269 472.273 564.335C472.273 573.401 482.977 580.75 496.181 580.75Z" fill="#E4A92D"/>
<path d="M628.423 580.75C641.627 580.75 652.331 573.401 652.331 564.335C652.331 555.269 641.627 547.92 628.423 547.92C615.219 547.92 604.515 555.269 604.515 564.335C604.515 573.401 615.219 580.75 628.423 580.75Z" fill="#E4A92D"/>
<path d="M597.791 546.803C610.17 546.803 620.205 535.779 620.205 522.181C620.205 508.582 610.17 497.558 597.791 497.558C585.412 497.558 575.377 508.582 575.377 522.181C575.377 535.779 585.412 546.803 597.791 546.803Z" fill="white"/>
<path d="M597.791 550.534C583.371 550.534 571.642 537.82 571.642 522.181C571.642 506.542 583.371 493.828 597.791 493.828C612.211 493.828 623.94 506.542 623.94 522.181C623.94 537.82 612.211 550.534 597.791 550.534ZM597.791 501.289C587.496 501.289 579.113 510.66 579.113 522.181C579.113 533.701 587.496 543.073 597.791 543.073C608.086 543.073 616.469 533.701 616.469 522.181C616.469 510.66 608.086 501.289 597.791 501.289Z" fill="#534741"/>
<path d="M598.209 547.787C607.881 547.787 615.722 539.435 615.722 529.133C615.722 518.831 607.881 510.48 598.209 510.48C588.537 510.48 580.696 518.831 580.696 529.133C580.696 539.435 588.537 547.787 598.209 547.787Z" fill="#534741"/>
<path d="M595.893 522.478C598.781 522.478 601.123 520.627 601.123 518.344C601.123 516.061 598.781 514.211 595.893 514.211C593.005 514.211 590.663 516.061 590.663 518.344C590.663 520.627 593.005 522.478 595.893 522.478Z" fill="white"/>
<path d="M526.149 546.803C538.528 546.803 548.563 535.779 548.563 522.181C548.563 508.582 538.528 497.558 526.149 497.558C513.77 497.558 503.735 508.582 503.735 522.181C503.735 535.779 513.77 546.803 526.149 546.803Z" fill="white"/>
<path d="M526.149 550.534C511.73 550.534 500 537.82 500 522.181C500 506.542 511.73 493.828 526.149 493.828C540.569 493.828 552.299 506.542 552.299 522.181C552.299 537.82 540.569 550.534 526.149 550.534ZM526.149 501.289C515.854 501.289 507.471 510.66 507.471 522.181C507.471 533.701 515.854 543.073 526.149 543.073C536.445 543.073 544.828 533.701 544.828 522.181C544.828 510.66 536.445 501.289 526.149 501.289Z" fill="#534741"/>
<path d="M526.567 547.787C536.239 547.787 544.08 539.435 544.08 529.133C544.08 518.831 536.239 510.48 526.567 510.48C516.895 510.48 509.055 518.831 509.055 529.133C509.055 539.435 516.895 547.787 526.567 547.787Z" fill="#534741"/>
<path d="M524.251 522.478C527.14 522.478 529.481 520.627 529.481 518.344C529.481 516.061 527.14 514.211 524.251 514.211C521.363 514.211 519.021 516.061 519.021 518.344C519.021 520.627 521.363 522.478 524.251 522.478Z" fill="white"/>
<path d="M615.522 479.02C607.022 472.519 593.702 468.218 581.522 469.118" stroke="#534741" stroke-width="8" stroke-linecap="round"/>
<path d="M504.522 478.992C511.486 473.496 526.022 469 536.522 469" stroke="#534741" stroke-width="8" stroke-linecap="round"/>
<path d="M605.369 586.621C605.515 596.133 601.446 604.07 594.591 611.79C587.395 619.894 576.545 625.568 562.463 625.783C546.965 626.021 537.697 621.246 529.199 612.791C522.402 606.028 518.054 599.382 517.887 588.462C517.849 585.963 520.303 582.924 523.326 584.439C529.412 587.862 541.217 594.106 561.974 593.788C581.753 593.485 594.216 587.292 598.332 584.228C602.448 581.163 605.331 584.119 605.369 586.621Z" fill="#534741"/>
<path d="M360.194 640.338C360.619 638.465 359.171 636.168 357.144 636.087L346.441 634.19L354.813 582.238C357.834 581.938 360.82 580.797 363.922 578.471C379.128 567.529 392.581 535.588 398.514 497.397C399.995 484.857 399.82 476.941 399.61 468.183C399.537 466.5 399.618 464.473 399.699 462.447C399.626 460.764 398.368 458.964 396.495 458.539L347.944 450.863C346.072 450.438 344.271 451.696 343.847 453.569C342.961 456.474 341.885 458.88 341.153 461.441C338.73 467.784 336.461 473.783 333.986 486.703C325.46 539 334.182 573.015 347.321 580.539L338.985 633.333L328.626 631.59C326.753 631.165 324.799 632.767 324.374 634.64C324.103 636.169 325.017 637.815 326.737 638.584C327.08 638.737 327.424 638.891 327.768 639.045L356.287 643.542C358.16 643.967 359.96 642.709 360.194 640.338Z" fill="white"/>
<path d="M390.244 510.024C390.244 510.024 380.214 577.792 353.107 573.78C326 569.768 336.029 502 336.029 502L390.244 510.024Z" fill="#CB3B34"/>
<path d="M763.948 432.121C763.948 434.835 759.034 449.544 759.034 449.544C759.034 449.544 754.119 434.835 754.119 432.121C754.119 429.407 756.32 427.207 759.034 427.207C761.748 427.207 763.948 429.407 763.948 432.121Z" fill="url(#paint0_radial_88_2984)"/>
<path d="M754.119 494.662C754.119 491.948 759.033 477.239 759.033 477.239C759.033 477.239 763.948 491.948 763.948 494.662C763.948 497.376 761.747 499.576 759.033 499.576C756.319 499.576 754.119 497.376 754.119 494.662Z" fill="url(#paint1_radial_88_2984)"/>
<path d="M790.939 438.436C789.02 440.355 770.406 452.019 770.406 452.019C770.406 452.019 782.07 433.405 783.989 431.486C785.908 429.567 789.02 429.567 790.939 431.486C792.858 433.405 792.858 436.517 790.939 438.436Z" fill="url(#paint2_radial_88_2984)"/>
<path d="M727.129 488.344C729.048 486.425 748.293 474.129 748.293 474.129C748.293 474.129 735.997 493.374 734.078 495.293C732.159 497.213 729.048 497.213 727.129 495.293C725.209 493.374 725.209 490.263 727.129 488.344Z" fill="url(#paint3_radial_88_2984)"/>
<path d="M783.989 495.296C782.07 493.377 770.405 474.763 770.405 474.763C770.405 474.763 789.019 486.427 790.938 488.347C792.857 490.266 792.857 493.377 790.938 495.296C789.019 497.215 785.908 497.215 783.989 495.296Z" fill="url(#paint4_radial_88_2984)"/>
<path d="M734.078 431.484C735.997 433.403 748.294 452.649 748.294 452.649C748.294 452.649 729.048 440.352 727.129 438.433C725.21 436.514 725.21 433.403 727.129 431.484C729.048 429.565 732.159 429.565 734.078 431.484Z" fill="url(#paint5_radial_88_2984)"/>
<path d="M732.853 515.192C733.905 512.69 746.736 494.86 746.736 494.86C746.736 494.86 742.965 516.501 741.912 519.003C740.86 521.504 737.979 522.679 735.477 521.627C732.976 520.575 731.801 517.694 732.853 515.192Z" fill="url(#paint6_radial_88_2984)"/>
<path d="M785.215 416.055C784.163 418.557 770.986 437.21 770.986 437.21C770.986 437.21 775.104 414.746 776.156 412.245C777.208 409.743 780.089 408.568 782.591 409.62C785.093 410.672 786.268 413.554 785.215 416.055Z" fill="url(#paint7_radial_88_2984)"/>
<path d="M742.497 412.06C743.522 414.573 747.056 436.253 747.056 436.253C747.056 436.253 734.421 418.284 733.396 415.771C732.371 413.258 733.578 410.39 736.091 409.365C738.604 408.34 741.472 409.547 742.497 412.06Z" fill="url(#paint8_radial_88_2984)"/>
<path d="M775.571 519.188C774.546 516.674 770.674 494.167 770.674 494.167C770.674 494.167 783.647 512.963 784.672 515.476C785.697 517.989 784.49 520.857 781.977 521.882C779.464 522.907 776.596 521.701 775.571 519.188Z" fill="url(#paint9_radial_88_2984)"/>
<path d="M705.471 482.162C707.984 481.137 729.664 477.602 729.664 477.602C729.664 477.602 711.695 490.238 709.182 491.262C706.669 492.287 703.801 491.081 702.776 488.568C701.751 486.055 702.958 483.187 705.471 482.162Z" fill="url(#paint10_radial_88_2984)"/>
<path d="M812.597 449.082C810.084 450.107 787.576 453.979 787.576 453.979C787.576 453.979 806.372 441.006 808.886 439.981C811.399 438.957 814.267 440.163 815.292 442.676C816.316 445.189 815.11 448.057 812.597 449.082Z" fill="url(#paint11_radial_88_2984)"/>
<path d="M709.465 439.443C711.967 440.496 729.797 453.327 729.797 453.327C729.797 453.327 708.156 449.555 705.654 448.503C703.153 447.451 701.978 444.57 703.03 442.068C704.082 439.566 706.963 438.391 709.465 439.443Z" fill="url(#paint12_radial_88_2984)"/>
<path d="M808.603 491.8C806.102 490.748 787.448 477.571 787.448 477.571C787.448 477.571 809.912 481.689 812.414 482.741C814.916 483.793 816.091 486.674 815.038 489.176C813.986 491.678 811.105 492.853 808.603 491.8Z" fill="url(#paint13_radial_88_2984)"/>
<path d="M790.305 468.303C787.591 468.303 772.882 463.389 772.882 463.389C772.882 463.389 787.591 458.475 790.305 458.475C793.019 458.475 795.219 460.675 795.219 463.389C795.219 466.103 793.019 468.303 790.305 468.303Z" fill="url(#paint14_radial_88_2984)"/>
<path d="M727.762 458.477C730.476 458.477 745.185 463.391 745.185 463.391C745.185 463.391 730.476 468.305 727.762 468.305C725.048 468.305 722.848 466.105 722.848 463.391C722.848 460.677 725.048 458.477 727.762 458.477Z" fill="url(#paint15_radial_88_2984)"/>
<path d="M354.987 333.417C354.987 336.283 349.797 351.817 349.797 351.817C349.797 351.817 344.607 336.283 344.607 333.417C344.607 330.551 346.931 328.228 349.797 328.228C352.663 328.228 354.987 330.551 354.987 333.417Z" fill="url(#paint16_radial_88_2984)"/>
<path d="M344.607 399.465C344.607 396.599 349.797 381.065 349.797 381.065C349.797 381.065 354.987 396.599 354.987 399.465C354.987 402.331 352.663 404.655 349.797 404.655C346.931 404.655 344.607 402.331 344.607 399.465Z" fill="url(#paint17_radial_88_2984)"/>
<path d="M383.491 340.086C381.464 342.113 361.807 354.431 361.807 354.431C361.807 354.431 374.125 334.774 376.152 332.747C378.178 330.72 381.464 330.72 383.491 332.747C385.518 334.774 385.518 338.06 383.491 340.086Z" fill="url(#paint18_radial_88_2984)"/>
<path d="M316.103 392.792C318.13 390.766 338.455 377.78 338.455 377.78C338.455 377.78 325.469 398.105 323.443 400.132C321.416 402.158 318.13 402.158 316.103 400.132C314.077 398.105 314.077 394.819 316.103 392.792Z" fill="url(#paint19_radial_88_2984)"/>
<path d="M376.151 400.135C374.125 398.108 361.806 378.45 361.806 378.45C361.806 378.45 381.464 390.769 383.491 392.795C385.517 394.822 385.517 398.108 383.491 400.135C381.464 402.161 378.178 402.161 376.151 400.135Z" fill="url(#paint20_radial_88_2984)"/>
<path d="M323.443 332.744C325.469 334.771 338.455 355.096 338.455 355.096C338.455 355.096 318.13 342.11 316.103 340.084C314.077 338.057 314.077 334.771 316.103 332.744C318.13 330.718 321.416 330.718 323.443 332.744Z" fill="url(#paint21_radial_88_2984)"/>
<path d="M322.148 421.146C323.26 418.504 336.81 399.674 336.81 399.674C336.81 399.674 332.827 422.528 331.716 425.17C330.605 427.812 327.562 429.053 324.92 427.942C322.278 426.83 321.037 423.788 322.148 421.146Z" fill="url(#paint22_radial_88_2984)"/>
<path d="M377.447 316.451C376.336 319.093 362.42 338.792 362.42 338.792C362.42 338.792 366.768 315.068 367.88 312.427C368.991 309.785 372.033 308.544 374.675 309.655C377.317 310.766 378.558 313.809 377.447 316.451Z" fill="url(#paint23_radial_88_2984)"/>
<path d="M332.333 312.231C333.415 314.885 337.148 337.781 337.148 337.781C337.148 337.781 323.805 318.805 322.722 316.151C321.64 313.497 322.914 310.468 325.568 309.386C328.222 308.303 331.251 309.577 332.333 312.231Z" fill="url(#paint24_radial_88_2984)"/>
<path d="M367.262 425.365C366.18 422.712 362.09 398.942 362.09 398.942C362.09 398.942 375.79 418.792 376.873 421.446C377.955 424.1 376.681 427.129 374.027 428.211C371.373 429.293 368.344 428.019 367.262 425.365Z" fill="url(#paint25_radial_88_2984)"/>
<path d="M293.231 386.264C295.885 385.182 318.781 381.448 318.781 381.448C318.781 381.448 299.805 394.792 297.151 395.875C294.497 396.957 291.468 395.683 290.386 393.029C289.303 390.375 290.577 387.346 293.231 386.264Z" fill="url(#paint26_radial_88_2984)"/>
<path d="M406.364 351.329C403.71 352.412 379.94 356.501 379.94 356.501C379.94 356.501 399.79 342.801 402.444 341.719C405.098 340.636 408.127 341.91 409.209 344.564C410.292 347.218 409.018 350.247 406.364 351.329Z" fill="url(#paint27_radial_88_2984)"/>
<path d="M297.449 341.15C300.091 342.262 318.921 355.812 318.921 355.812C318.921 355.812 296.067 351.829 293.425 350.718C290.783 349.607 289.542 346.564 290.653 343.922C291.765 341.28 294.807 340.039 297.449 341.15Z" fill="url(#paint28_radial_88_2984)"/>
<path d="M402.146 396.443C399.504 395.332 379.805 381.416 379.805 381.416C379.805 381.416 403.528 385.764 406.17 386.875C408.812 387.987 410.053 391.029 408.942 393.671C407.831 396.313 404.788 397.554 402.146 396.443Z" fill="url(#paint29_radial_88_2984)"/>
<path d="M382.822 371.628C379.956 371.628 364.422 366.438 364.422 366.438C364.422 366.438 379.956 361.249 382.822 361.249C385.688 361.249 388.012 363.572 388.012 366.438C388.012 369.304 385.688 371.628 382.822 371.628Z" fill="url(#paint30_radial_88_2984)"/>
<path d="M316.772 361.251C319.638 361.251 335.172 366.441 335.172 366.441C335.172 366.441 319.638 371.63 316.772 371.63C313.906 371.63 311.582 369.307 311.582 366.441C311.582 363.575 313.906 361.251 316.772 361.251Z" fill="url(#paint31_radial_88_2984)"/>
<path d="M821.285 221.402C821.285 225.031 814.714 295.48 814.714 295.48C814.714 295.48 808.142 225.031 808.142 221.402C808.142 217.773 811.084 214.83 814.714 214.83C818.343 214.83 821.285 217.773 821.285 221.402Z" fill="url(#paint32_radial_88_2984)"/>
<path d="M808.142 372.545C808.142 368.916 814.713 298.467 814.713 298.467C814.713 298.467 821.285 368.916 821.285 372.545C821.285 376.174 818.343 379.116 814.713 379.116C811.084 379.116 808.142 376.174 808.142 372.545Z" fill="url(#paint33_radial_88_2984)"/>
<path d="M890.284 303.545C886.655 303.545 816.207 296.974 816.207 296.974C816.207 296.974 886.655 290.402 890.284 290.402C893.913 290.402 896.856 293.344 896.856 296.974C896.856 300.603 893.913 303.545 890.284 303.545Z" fill="url(#paint34_radial_88_2984)"/>
<path d="M739.143 290.402C742.772 290.402 813.22 296.973 813.22 296.973C813.22 296.973 742.772 303.545 739.143 303.545C735.514 303.545 732.572 300.603 732.572 296.973C732.572 293.344 735.514 290.402 739.143 290.402Z" fill="url(#paint35_radial_88_2984)"/>
<path d="M860.348 258.641C858.332 260.658 815.544 296.145 815.544 296.145C815.544 296.145 851.031 253.356 853.047 251.34C855.063 249.323 858.332 249.323 860.348 251.34C862.365 253.356 862.365 256.625 860.348 258.641Z" fill="url(#paint36_radial_88_2984)"/>
<path d="M769.079 335.309C771.095 333.293 813.884 297.805 813.884 297.805C813.884 297.805 778.397 340.594 776.38 342.61C774.364 344.627 771.095 344.627 769.079 342.61C767.063 340.594 767.063 337.325 769.079 335.309Z" fill="url(#paint37_radial_88_2984)"/>
<path d="M853.047 342.608C851.03 340.592 815.544 297.803 815.544 297.803C815.544 297.803 858.332 333.29 860.348 335.306C862.364 337.323 862.364 340.592 860.348 342.608C858.332 344.624 855.063 344.624 853.047 342.608Z" fill="url(#paint38_radial_88_2984)"/>
<path d="M774.35 377.37C775.459 374.743 801.734 325.755 801.734 325.755C801.734 325.755 784.972 378.757 783.864 381.384C782.755 384.011 779.727 385.242 777.1 384.134C774.473 383.025 773.242 379.997 774.35 377.37Z" fill="url(#paint39_radial_88_2984)"/>
<path d="M776.381 251.339C778.397 253.355 813.884 296.144 813.884 296.144C813.884 296.144 771.096 260.657 769.079 258.641C767.063 256.624 767.063 253.355 769.079 251.339C771.096 249.323 774.365 249.323 776.381 251.339Z" fill="url(#paint40_radial_88_2984)"/>
<path d="M854.65 213.63C853.541 216.257 827.266 265.245 827.266 265.245C827.266 265.245 844.028 212.243 845.136 209.616C846.245 206.989 849.273 205.758 851.9 206.866C854.527 207.975 855.758 211.003 854.65 213.63Z" fill="url(#paint41_radial_88_2984)"/>
<path d="M728.22 325C730.862 323.927 784.08 307.866 784.08 307.866C784.08 307.866 734.75 333.493 732.109 334.566C729.467 335.64 726.455 334.369 725.381 331.728C724.308 329.086 725.579 326.074 728.22 325Z" fill="url(#paint42_radial_88_2984)"/>
<path d="M900.78 266C898.138 267.073 844.92 283.134 844.92 283.134C844.92 283.134 894.25 257.507 896.891 256.434C899.533 255.36 902.545 256.631 903.619 259.272C904.692 261.914 903.421 264.926 900.78 266Z" fill="url(#paint43_radial_88_2984)"/>
<path d="M732.632 255.35C735.259 256.458 784.246 282.733 784.246 282.733C784.246 282.733 731.244 265.972 728.617 264.863C725.99 263.755 724.759 260.726 725.868 258.099C726.976 255.472 730.005 254.241 732.632 255.35Z" fill="url(#paint44_radial_88_2984)"/>
<path d="M896.368 335.65C893.741 334.542 844.753 308.267 844.753 308.267C844.753 308.267 897.755 325.028 900.383 326.137C903.01 327.245 904.241 330.274 903.132 332.901C902.024 335.528 898.995 336.759 896.368 335.65Z" fill="url(#paint45_radial_88_2984)"/>
<path d="M785 209.22C786.074 211.862 802.134 265.081 802.134 265.081C802.134 265.081 776.508 215.75 775.434 213.109C774.361 210.467 775.632 207.455 778.273 206.381C780.915 205.308 783.926 206.579 785 209.22Z" fill="url(#paint46_radial_88_2984)"/>
<path d="M844 381.78C842.926 379.138 826.866 325.919 826.866 325.919C826.866 325.919 852.492 375.25 853.566 377.891C854.639 380.533 853.368 383.545 850.727 384.619C848.085 385.692 845.074 384.421 844 381.78Z" fill="url(#paint47_radial_88_2984)"/>
<circle cx="783.845" cy="628.296" r="7.32743" fill="#FF9C42"/>
<circle cx="219.327" cy="521.327" r="7.32743" fill="#4CB4FA"/>
<circle cx="471.327" cy="213.327" r="7.32743" fill="#36B27B"/>
<circle cx="883.327" cy="436.327" r="7.32743" fill="#FF9C42"/>
<circle cx="868.327" cy="481.327" r="7.32743" fill="#36B27B"/>
<circle cx="914.327" cy="536.327" r="7.32743" fill="#E87461"/>
<circle cx="675.327" cy="385.327" r="7.32743" fill="#4CB4FA"/>
<circle cx="190.327" cy="486.327" r="7.32743" fill="#FF9C42"/>
<path d="M486.553 440.664L561.887 310.224L637.22 440.664C637.22 440.664 605.031 457.196 561.887 457.196C518.743 457.196 486.553 440.664 486.553 440.664Z" fill="#4CB4FA"/>
<mask id="mask0_88_2984" style="mask-type:alpha" maskUnits="userSpaceOnUse" x="486" y="310" width="152" height="148">
<path d="M486.553 440.664L561.887 310.224L637.22 440.664C637.22 440.664 605.031 457.196 561.887 457.196C518.743 457.196 486.553 440.664 486.553 440.664Z" fill="#4CB4FA"/>
</mask>
<g mask="url(#mask0_88_2984)">
<path d="M456.547 425.987L629.215 326.297L635.328 336.885L462.66 436.575L456.547 425.987Z" fill="#F54F47"/>
<path d="M443.851 403.996L616.519 304.306L623.102 315.709L450.434 415.399L443.851 403.996Z" fill="#F54F47"/>
<path d="M468.773 447.163L641.441 347.473L647.555 358.061L474.886 457.751L468.773 447.163Z" fill="#F54F47"/>
<path d="M480.999 468.339L653.668 368.649L659.781 379.238L487.112 478.928L480.999 468.339Z" fill="#F54F47"/>
<path d="M493.225 489.516L665.894 389.826L672.007 400.414L499.338 500.104L493.225 489.516Z" fill="#F54F47"/>
</g>
<path d="M557.231 279H564.648V343.893H557.231V279Z" fill="#F54F47"/>
<path d="M593.386 307.738V315.154L528.493 315.154L528.493 307.738L593.386 307.738Z" fill="#F54F47"/>
<path d="M587.184 292.007L590.893 298.43L534.694 330.877L530.986 324.454L587.184 292.007Z" fill="#F54F47"/>
<path d="M580.375 337.693L573.952 341.401L541.506 285.203L547.928 281.494L580.375 337.693Z" fill="#F54F47"/>
<path d="M573.949 281.491L580.371 285.2L547.925 341.398L541.502 337.69L573.949 281.491Z" fill="#F54F47"/>
<path d="M590.893 324.461L587.184 330.884L530.986 298.437L534.694 292.015L590.893 324.461Z" fill="#F54F47"/>
<defs>
<radialGradient id="paint0_radial_88_2984" cx="0" cy="0" r="1" gradientUnits="userSpaceOnUse" gradientTransform="translate(759.034 465.624) rotate(90) scale(56.6236 56.6228)">
<stop stop-color="#BAE4FF"/>
<stop offset="1" stop-color="#4CB4FA"/>
</radialGradient>
<radialGradient id="paint1_radial_88_2984" cx="0" cy="0" r="1" gradientUnits="userSpaceOnUse" gradientTransform="translate(759.034 465.624) rotate(90) scale(56.6236 56.6228)">
<stop stop-color="#BAE4FF"/>
<stop offset="1" stop-color="#4CB4FA"/>
</radialGradient>
<radialGradient id="paint2_radial_88_2984" cx="0" cy="0" r="1" gradientUnits="userSpaceOnUse" gradientTransform="translate(759.034 465.624) rotate(90) scale(56.6236 56.6228)">
<stop stop-color="#BAE4FF"/>
<stop offset="1" stop-color="#4CB4FA"/>
</radialGradient>
<radialGradient id="paint3_radial_88_2984" cx="0" cy="0" r="1" gradientUnits="userSpaceOnUse" gradientTransform="translate(759.034 465.624) rotate(90) scale(56.6236 56.6228)">
<stop stop-color="#BAE4FF"/>
<stop offset="1" stop-color="#4CB4FA"/>
</radialGradient>
<radialGradient id="paint4_radial_88_2984" cx="0" cy="0" r="1" gradientUnits="userSpaceOnUse" gradientTransform="translate(759.034 465.624) rotate(90) scale(56.6236 56.6228)">
<stop stop-color="#BAE4FF"/>
<stop offset="1" stop-color="#4CB4FA"/>
</radialGradient>
<radialGradient id="paint5_radial_88_2984" cx="0" cy="0" r="1" gradientUnits="userSpaceOnUse" gradientTransform="translate(759.034 465.624) rotate(90) scale(56.6236 56.6228)">
<stop stop-color="#BAE4FF"/>
<stop offset="1" stop-color="#4CB4FA"/>
</radialGradient>
<radialGradient id="paint6_radial_88_2984" cx="0" cy="0" r="1" gradientUnits="userSpaceOnUse" gradientTransform="translate(759.034 465.624) rotate(90) scale(56.6236 56.6228)">
<stop stop-color="#BAE4FF"/>
<stop offset="1" stop-color="#4CB4FA"/>
</radialGradient>
<radialGradient id="paint7_radial_88_2984" cx="0" cy="0" r="1" gradientUnits="userSpaceOnUse" gradientTransform="translate(759.034 465.624) rotate(90) scale(56.6236 56.6228)">
<stop stop-color="#BAE4FF"/>
<stop offset="1" stop-color="#4CB4FA"/>
</radialGradient>
<radialGradient id="paint8_radial_88_2984" cx="0" cy="0" r="1" gradientUnits="userSpaceOnUse" gradientTransform="translate(759.034 465.624) rotate(90) scale(56.6236 56.6228)">
<stop stop-color="#BAE4FF"/>
<stop offset="1" stop-color="#4CB4FA"/>
</radialGradient>
<radialGradient id="paint9_radial_88_2984" cx="0" cy="0" r="1" gradientUnits="userSpaceOnUse" gradientTransform="translate(759.034 465.624) rotate(90) scale(56.6236 56.6228)">
<stop stop-color="#BAE4FF"/>
<stop offset="1" stop-color="#4CB4FA"/>
</radialGradient>
<radialGradient id="paint10_radial_88_2984" cx="0" cy="0" r="1" gradientUnits="userSpaceOnUse" gradientTransform="translate(759.034 465.624) rotate(90) scale(56.6236 56.6228)">
<stop stop-color="#BAE4FF"/>
<stop offset="1" stop-color="#4CB4FA"/>
</radialGradient>
<radialGradient id="paint11_radial_88_2984" cx="0" cy="0" r="1" gradientUnits="userSpaceOnUse" gradientTransform="translate(759.034 465.624) rotate(90) scale(56.6236 56.6228)">
<stop stop-color="#BAE4FF"/>
<stop offset="1" stop-color="#4CB4FA"/>
</radialGradient>
<radialGradient id="paint12_radial_88_2984" cx="0" cy="0" r="1" gradientUnits="userSpaceOnUse" gradientTransform="translate(759.034 465.624) rotate(90) scale(56.6236 56.6228)">
<stop stop-color="#BAE4FF"/>
<stop offset="1" stop-color="#4CB4FA"/>
</radialGradient>
<radialGradient id="paint13_radial_88_2984" cx="0" cy="0" r="1" gradientUnits="userSpaceOnUse" gradientTransform="translate(759.034 465.624) rotate(90) scale(56.6236 56.6228)">
<stop stop-color="#BAE4FF"/>
<stop offset="1" stop-color="#4CB4FA"/>
</radialGradient>
<radialGradient id="paint14_radial_88_2984" cx="0" cy="0" r="1" gradientUnits="userSpaceOnUse" gradientTransform="translate(759.034 465.624) rotate(90) scale(56.6236 56.6228)">
<stop stop-color="#BAE4FF"/>
<stop offset="1" stop-color="#4CB4FA"/>
</radialGradient>
<radialGradient id="paint15_radial_88_2984" cx="0" cy="0" r="1" gradientUnits="userSpaceOnUse" gradientTransform="translate(759.034 465.624) rotate(90) scale(56.6236 56.6228)">
<stop stop-color="#BAE4FF"/>
<stop offset="1" stop-color="#4CB4FA"/>
</radialGradient>
<radialGradient id="paint16_radial_88_2984" cx="0" cy="0" r="1" gradientUnits="userSpaceOnUse" gradientTransform="translate(349.797 368.798) rotate(90) scale(59.7983 59.7975)">
<stop stop-color="#FFE3FD"/>
<stop offset="1" stop-color="#C563CA"/>
</radialGradient>
<radialGradient id="paint17_radial_88_2984" cx="0" cy="0" r="1" gradientUnits="userSpaceOnUse" gradientTransform="translate(349.797 368.798) rotate(90) scale(59.7983 59.7975)">
<stop stop-color="#FFE3FD"/>
<stop offset="1" stop-color="#C563CA"/>
</radialGradient>
<radialGradient id="paint18_radial_88_2984" cx="0" cy="0" r="1" gradientUnits="userSpaceOnUse" gradientTransform="translate(349.797 368.798) rotate(90) scale(59.7983 59.7975)">
<stop stop-color="#FFE3FD"/>
<stop offset="1" stop-color="#C563CA"/>
</radialGradient>
<radialGradient id="paint19_radial_88_2984" cx="0" cy="0" r="1" gradientUnits="userSpaceOnUse" gradientTransform="translate(349.797 368.798) rotate(90) scale(59.7983 59.7975)">
<stop stop-color="#FFE3FD"/>
<stop offset="1" stop-color="#C563CA"/>
</radialGradient>
<radialGradient id="paint20_radial_88_2984" cx="0" cy="0" r="1" gradientUnits="userSpaceOnUse" gradientTransform="translate(349.797 368.798) rotate(90) scale(59.7983 59.7975)">
<stop stop-color="#FFE3FD"/>
<stop offset="1" stop-color="#C563CA"/>
</radialGradient>
<radialGradient id="paint21_radial_88_2984" cx="0" cy="0" r="1" gradientUnits="userSpaceOnUse" gradientTransform="translate(349.797 368.798) rotate(90) scale(59.7983 59.7975)">
<stop stop-color="#FFE3FD"/>
<stop offset="1" stop-color="#C563CA"/>
</radialGradient>
<radialGradient id="paint22_radial_88_2984" cx="0" cy="0" r="1" gradientUnits="userSpaceOnUse" gradientTransform="translate(349.797 368.798) rotate(90) scale(59.7983 59.7975)">
<stop stop-color="#FFE3FD"/>
<stop offset="1" stop-color="#C563CA"/>
</radialGradient>
<radialGradient id="paint23_radial_88_2984" cx="0" cy="0" r="1" gradientUnits="userSpaceOnUse" gradientTransform="translate(349.797 368.798) rotate(90) scale(59.7983 59.7975)">
<stop stop-color="#FFE3FD"/>
<stop offset="1" stop-color="#C563CA"/>
</radialGradient>
<radialGradient id="paint24_radial_88_2984" cx="0" cy="0" r="1" gradientUnits="userSpaceOnUse" gradientTransform="translate(349.797 368.798) rotate(90) scale(59.7983 59.7975)">
<stop stop-color="#FFE3FD"/>
<stop offset="1" stop-color="#C563CA"/>
</radialGradient>
<radialGradient id="paint25_radial_88_2984" cx="0" cy="0" r="1" gradientUnits="userSpaceOnUse" gradientTransform="translate(349.797 368.798) rotate(90) scale(59.7983 59.7975)">
<stop stop-color="#FFE3FD"/>
<stop offset="1" stop-color="#C563CA"/>
</radialGradient>
<radialGradient id="paint26_radial_88_2984" cx="0" cy="0" r="1" gradientUnits="userSpaceOnUse" gradientTransform="translate(349.797 368.798) rotate(90) scale(59.7983 59.7975)">
<stop stop-color="#FFE3FD"/>
<stop offset="1" stop-color="#C563CA"/>
</radialGradient>
<radialGradient id="paint27_radial_88_2984" cx="0" cy="0" r="1" gradientUnits="userSpaceOnUse" gradientTransform="translate(349.797 368.798) rotate(90) scale(59.7983 59.7975)">
<stop stop-color="#FFE3FD"/>
<stop offset="1" stop-color="#C563CA"/>
</radialGradient>
<radialGradient id="paint28_radial_88_2984" cx="0" cy="0" r="1" gradientUnits="userSpaceOnUse" gradientTransform="translate(349.797 368.798) rotate(90) scale(59.7983 59.7975)">
<stop stop-color="#FFE3FD"/>
<stop offset="1" stop-color="#C563CA"/>
</radialGradient>
<radialGradient id="paint29_radial_88_2984" cx="0" cy="0" r="1" gradientUnits="userSpaceOnUse" gradientTransform="translate(349.797 368.798) rotate(90) scale(59.7983 59.7975)">
<stop stop-color="#FFE3FD"/>
<stop offset="1" stop-color="#C563CA"/>
</radialGradient>
<radialGradient id="paint30_radial_88_2984" cx="0" cy="0" r="1" gradientUnits="userSpaceOnUse" gradientTransform="translate(349.797 368.798) rotate(90) scale(59.7983 59.7975)">
<stop stop-color="#FFE3FD"/>
<stop offset="1" stop-color="#C563CA"/>
</radialGradient>
<radialGradient id="paint31_radial_88_2984" cx="0" cy="0" r="1" gradientUnits="userSpaceOnUse" gradientTransform="translate(349.797 368.798) rotate(90) scale(59.7983 59.7975)">
<stop stop-color="#FFE3FD"/>
<stop offset="1" stop-color="#C563CA"/>
</radialGradient>
<radialGradient id="paint32_radial_88_2984" cx="0" cy="0" r="1" gradientUnits="userSpaceOnUse" gradientTransform="translate(814.5 295.5) rotate(90) scale(89.5)">
<stop stop-color="#FEFFFF"/>
<stop offset="1" stop-color="#FFC000"/>
</radialGradient>
<radialGradient id="paint33_radial_88_2984" cx="0" cy="0" r="1" gradientUnits="userSpaceOnUse" gradientTransform="translate(814.5 295.5) rotate(90) scale(89.5)">
<stop stop-color="#FEFFFF"/>
<stop offset="1" stop-color="#FFC000"/>
</radialGradient>
<radialGradient id="paint34_radial_88_2984" cx="0" cy="0" r="1" gradientUnits="userSpaceOnUse" gradientTransform="translate(814.5 295.5) rotate(90) scale(89.5)">
<stop stop-color="#FEFFFF"/>
<stop offset="1" stop-color="#FFC000"/>
</radialGradient>
<radialGradient id="paint35_radial_88_2984" cx="0" cy="0" r="1" gradientUnits="userSpaceOnUse" gradientTransform="translate(814.5 295.5) rotate(90) scale(89.5)">
<stop stop-color="#FEFFFF"/>
<stop offset="1" stop-color="#FFC000"/>
</radialGradient>
<radialGradient id="paint36_radial_88_2984" cx="0" cy="0" r="1" gradientUnits="userSpaceOnUse" gradientTransform="translate(814.5 295.5) rotate(90) scale(89.5)">
<stop stop-color="#FEFFFF"/>
<stop offset="1" stop-color="#FFC000"/>
</radialGradient>
<radialGradient id="paint37_radial_88_2984" cx="0" cy="0" r="1" gradientUnits="userSpaceOnUse" gradientTransform="translate(814.5 295.5) rotate(90) scale(89.5)">
<stop stop-color="#FEFFFF"/>
<stop offset="1" stop-color="#FFC000"/>
</radialGradient>
<radialGradient id="paint38_radial_88_2984" cx="0" cy="0" r="1" gradientUnits="userSpaceOnUse" gradientTransform="translate(814.5 295.5) rotate(90) scale(89.5)">
<stop stop-color="#FEFFFF"/>
<stop offset="1" stop-color="#FFC000"/>
</radialGradient>
<radialGradient id="paint39_radial_88_2984" cx="0" cy="0" r="1" gradientUnits="userSpaceOnUse" gradientTransform="translate(814.5 295.5) rotate(90) scale(89.5)">
<stop stop-color="#FEFFFF"/>
<stop offset="1" stop-color="#FFC000"/>
</radialGradient>
<radialGradient id="paint40_radial_88_2984" cx="0" cy="0" r="1" gradientUnits="userSpaceOnUse" gradientTransform="translate(814.5 295.5) rotate(90) scale(89.5)">
<stop stop-color="#FEFFFF"/>
<stop offset="1" stop-color="#FFC000"/>
</radialGradient>
<radialGradient id="paint41_radial_88_2984" cx="0" cy="0" r="1" gradientUnits="userSpaceOnUse" gradientTransform="translate(814.5 295.5) rotate(90) scale(89.5)">
<stop stop-color="#FEFFFF"/>
<stop offset="1" stop-color="#FFC000"/>
</radialGradient>
<radialGradient id="paint42_radial_88_2984" cx="0" cy="0" r="1" gradientUnits="userSpaceOnUse" gradientTransform="translate(814.5 295.5) rotate(90) scale(89.5)">
<stop stop-color="#FEFFFF"/>
<stop offset="1" stop-color="#FFC000"/>
</radialGradient>
<radialGradient id="paint43_radial_88_2984" cx="0" cy="0" r="1" gradientUnits="userSpaceOnUse" gradientTransform="translate(814.5 295.5) rotate(90) scale(89.5)">
<stop stop-color="#FEFFFF"/>
<stop offset="1" stop-color="#FFC000"/>
</radialGradient>
<radialGradient id="paint44_radial_88_2984" cx="0" cy="0" r="1" gradientUnits="userSpaceOnUse" gradientTransform="translate(814.5 295.5) rotate(90) scale(89.5)">
<stop stop-color="#FEFFFF"/>
<stop offset="1" stop-color="#FFC000"/>
</radialGradient>
<radialGradient id="paint45_radial_88_2984" cx="0" cy="0" r="1" gradientUnits="userSpaceOnUse" gradientTransform="translate(814.5 295.5) rotate(90) scale(89.5)">
<stop stop-color="#FEFFFF"/>
<stop offset="1" stop-color="#FFC000"/>
</radialGradient>
<radialGradient id="paint46_radial_88_2984" cx="0" cy="0" r="1" gradientUnits="userSpaceOnUse" gradientTransform="translate(814.5 295.5) rotate(90) scale(89.5)">
<stop stop-color="#FEFFFF"/>
<stop offset="1" stop-color="#FFC000"/>
</radialGradient>
<radialGradient id="paint47_radial_88_2984" cx="0" cy="0" r="1" gradientUnits="userSpaceOnUse" gradientTransform="translate(814.5 295.5) rotate(90) scale(89.5)">
<stop stop-color="#FEFFFF"/>
<stop offset="1" stop-color="#FFC000"/>
</radialGradient>
</defs>
</svg>
