<svg width="922" height="1026" viewBox="0 0 922 1026" fill="none" xmlns="http://www.w3.org/2000/svg">
  <path d="M492.779 945.176h-10.562v-21.568h-19.79v21.568h-10.596v-49.971h10.596v19.585h19.79v-19.585h10.562zm43.337 0-3.623-11.895h-18.218l-3.623 11.895h-11.416L516.873 895h12.954l17.705 50.176zm-6.153-20.781-3.623-11.622a130 130 0 0 0-.922-2.973 344 344 0 0 0-1.128-3.726 89 89 0 0 1-.889-3.315 79 79 0 0 1-.957 3.486 329 329 0 0 1-1.128 3.897 512 512 0 0 1-.786 2.631l-3.589 11.622zm39.954-29.19q9.673 0 14.116 4.17 4.444 4.136 4.444 11.416 0 3.282-.992 6.289-.99 2.973-3.247 5.298-2.221 2.324-5.947 3.691-3.726 1.333-9.194 1.333h-4.546v17.774h-10.596v-49.971zm-.547 8.682h-4.819v14.834h3.486q2.974 0 5.161-.786 2.188-.787 3.384-2.461 1.197-1.675 1.196-4.307 0-3.691-2.05-5.469-2.052-1.81-6.358-1.811m44.602-8.682q9.673 0 14.116 4.17 4.444 4.136 4.444 11.416 0 3.282-.992 6.289-.99 2.973-3.247 5.298-2.221 2.324-5.947 3.691-3.726 1.333-9.194 1.333h-4.546v17.774H598.01v-49.971zm-.547 8.682h-4.819v14.834h3.486q2.974 0 5.161-.786 2.188-.787 3.384-2.461 1.197-1.675 1.196-4.307 0-3.691-2.05-5.469-2.052-1.81-6.358-1.811m44.192 11.894 10.425-20.576h11.416l-16.577 30.523v19.448h-10.528v-19.107l-16.577-30.864h11.485zM351.808 1025.18l-3.623-11.9h-18.218l-3.623 11.9h-11.416L332.564 975h12.955l17.705 50.18zm-6.153-20.79-3.623-11.62q-.341-1.155-.923-2.97c-.364-1.23-.74-2.47-1.128-3.73a90 90 0 0 1-.888-3.31c-.228.93-.547 2.1-.957 3.49a415 415 0 0 1-1.914 6.52l-3.589 11.62zm68.323 20.79h-13.467l-21.738-37.81h-.308c.091 1.58.171 3.16.239 4.75l.206 4.79.205 4.75v23.52h-9.468v-49.97h13.364l21.704 37.42h.239c-.045-1.55-.102-3.09-.17-4.61l-.205-4.58-.137-4.58v-23.65h9.536zm57.043 0h-13.467l-21.738-37.81h-.307c.091 1.58.17 3.16.239 4.75l.205 4.79.205 4.75v23.52h-9.468v-49.97h13.364l21.705 37.42h.239c-.046-1.55-.103-3.09-.171-4.61l-.205-4.58-.137-4.58v-23.65h9.536zm12.713 0v-49.97h10.595v49.97zm62.478-49.97-16.988 49.97h-11.553l-16.953-49.97h10.699l9.399 29.73c.16.5.422 1.45.786 2.84.365 1.37.729 2.82 1.094 4.37.387 1.53.649 2.79.786 3.8.137-1.01.376-2.27.718-3.8.364-1.52.718-2.97 1.059-4.34.365-1.39.627-2.34.787-2.87l9.467-29.73zm35.202 49.97h-28.779v-49.97h28.779v8.68H563.23v10.97h16.919v8.68H563.23v12.89h18.184zm25.12-49.97c4.534 0 8.271.54 11.211 1.64q4.443 1.635 6.596 4.95c1.436 2.21 2.154 5 2.154 8.38 0 2.27-.433 4.27-1.299 5.98a13.7 13.7 0 0 1-3.418 4.34 20.3 20.3 0 0 1-4.58 2.9l14.697 21.78h-11.758L608.208 1006h-5.639v19.18h-10.596v-49.97zm-.752 8.68h-3.213v13.5h3.418c3.509 0 6.015-.58 7.519-1.75q2.29-1.77 2.29-5.19c0-2.37-.82-4.06-2.461-5.06q-2.426-1.5-7.553-1.5m61.999 27.41c0 2.96-.718 5.54-2.153 7.72-1.436 2.19-3.532 3.88-6.289 5.06-2.735 1.19-6.062 1.78-9.981 1.78-1.732 0-3.429-.11-5.093-.34a36 36 0 0 1-4.751-.99 30 30 0 0 1-4.306-1.68v-9.84a80 80 0 0 0 7.383 2.83c2.552.85 5.081 1.27 7.588 1.27 1.731 0 3.121-.23 4.169-.68 1.071-.46 1.846-1.09 2.325-1.88.478-.8.717-1.71.717-2.74q0-1.875-1.264-3.21c-.843-.89-2.005-1.72-3.487-2.5q-2.187-1.155-4.956-2.49a61 61 0 0 1-3.794-1.98 22.3 22.3 0 0 1-3.896-2.91q-1.845-1.71-3.042-4.14c-.775-1.64-1.162-3.6-1.162-5.87 0-2.99.683-5.54 2.051-7.66 1.367-2.12 3.315-3.74 5.844-4.85q3.828-1.71 9.024-1.71c2.597 0 5.07.3 7.417.92 2.37.59 4.842 1.46 7.417 2.6l-3.418 8.24q-3.453-1.41-6.187-2.16-2.734-.78-5.571-.78c-1.322 0-2.45.21-3.384.65q-1.4.615-2.119 1.77c-.478.75-.718 1.63-.718 2.63 0 1.19.342 2.19 1.026 3.01.706.8 1.754 1.57 3.144 2.33 1.413.75 3.168 1.63 5.264 2.63 2.552 1.21 4.728 2.47 6.528 3.79q2.735 1.95 4.204 4.62c.98 1.75 1.47 3.94 1.47 6.56m39.748 13.88-3.623-11.9h-18.217l-3.623 11.9H670.65L688.286 975h12.954l17.705 50.18zm-6.152-20.79-3.623-11.62q-.341-1.155-.923-2.97c-.364-1.23-.74-2.47-1.128-3.73a90 90 0 0 1-.888-3.31c-.228.93-.547 2.1-.957 3.49a415 415 0 0 1-1.914 6.52l-3.589 11.62zm38.552-29.18c4.535 0 8.272.54 11.211 1.64q4.443 1.635 6.597 4.95c1.435 2.21 2.153 5 2.153 8.38 0 2.27-.433 4.27-1.299 5.98a13.7 13.7 0 0 1-3.418 4.34 20.3 20.3 0 0 1-4.58 2.9l14.698 21.78h-11.758L741.604 1006h-5.64v19.18h-10.595v-49.97zm-.752 8.68h-3.213v13.5h3.418c3.51 0 6.016-.58 7.52-1.75q2.29-1.77 2.29-5.19c0-2.37-.82-4.06-2.461-5.06q-2.427-1.5-7.554-1.5m48.054 11.89 10.425-20.57h11.416l-16.577 30.52v19.45h-10.527v-19.11l-16.577-30.86h11.484z" fill="#005A9E"/>
  <path d="M315 408a2.94 2.94 0 0 1-1.951 2.788l-9.7 3.569-3.568 9.704a2.972 2.972 0 0 1-5.575 0l-3.567-9.704-9.7-3.569a2.972 2.972 0 0 1-1.407-4.486 2.97 2.97 0 0 1 1.407-1.09l9.7-3.569 3.567-9.704a2.977 2.977 0 0 1 4.485-1.407c.499.347.879.838 1.09 1.407l3.568 9.704 9.7 3.569A2.93 2.93 0 0 1 315 408m9 37c.002.305-.096.603-.28.853s-.447.439-.75.541l-5.119 1.785-1.883 4.851c-.112.285-.312.53-.575.704a1.63 1.63 0 0 1-.896.266c-.321 0-.633-.093-.896-.266a1.5 1.5 0 0 1-.575-.704l-1.883-4.851-5.12-1.785a1.56 1.56 0 0 1-.742-.545A1.43 1.43 0 0 1 305 445c0-.304.098-.6.281-.849a1.56 1.56 0 0 1 .742-.545l5.12-1.785 1.883-4.851a1.5 1.5 0 0 1 .575-.704c.263-.173.575-.266.896-.266.32 0 .633.093.896.266s.463.419.575.704l1.883 4.851 5.119 1.785c.303.102.565.291.75.541.184.25.282.548.28.853" fill="#FFEBB2"/>
  <path d="M605.383 43.28c-9.2-10.8-28.996-9-35.496 0l-16.5-17c12.666-14.334 49.215-32.296 74.996-15.5 29 18.892 19.5 39.5 22.5 93.5 2.027 36.5 84.863-27.406 114.998 62.999 17 51-45.357 140.546-31.499 177.001C775.662 452.862 844 460.5 852 581c-17 137.5-102.879 202-282.113 202-180.401-3.899-291.501-98.328-279.002-213.828 14.201-131.234 199-126 157.5-239s179.998-38.892 208.998-93.392-20-58.5-52-79.5c-31.979-20.987-16.521-49.463-7.019-66.966l.019-.034c9.5-17.5 18.5-33.5 7-47" fill="#F887CB"/>
  <path d="M13.015 185.19c-12.882 5.688 9.993 59.98 23.04 86.415L579.437 33.043 567.54 6.1 451.758 57.226c-13.802 6.095-66.492 24.762-115.324 16.888-39.066-6.299-90.549 9.014-111.407 17.458z" fill="#B6DEFC"/>
  <path d="M80.343 337.664c-12.882 5.688-37.374-47.288-48.01-74.487L574.7 22.317l11.786 26.691-115.782 51.126c-13.802 6.094-63.108 32.423-90.287 73.586-21.744 32.931-67.768 60.605-88.062 70.326z" fill="#B6DEFC"/>
  <path d="M567.481.783a7.957 7.957 0 0 1 10.493 4.065l16.578 37.544a7.957 7.957 0 0 1-14.558 6.428l-16.578-37.544A7.957 7.957 0 0 1 567.481.783" fill="#B6DEFC"/>
  <path d="M295.446 223.453 242.328 103.16l-121.825 53.795 53.118 120.293z" fill="#fff"/>
  <path d="M479.458 633.034c9.118-13.008 10.012-27.127 4.968-40.267-4.938-12.865-15.428-24.538-28.712-33.85-13.226-9.27-36.227-20.676-57.919-27.092-10.838-3.206-21.752-5.289-31.172-5.051-9.267.235-18.496 2.788-23.862 10.444-5.359 7.644-4.646 17.213-1.749 26.045 2.947 8.984 8.574 18.6 15.236 27.766 13.33 18.338 31.807 36.221 45.058 45.51 13.328 9.341 27.995 15.072 41.871 15.173 14.14.102 27.174-5.686 36.281-18.678Z" fill="#FFC000" stroke="#D39C28" stroke-width="12"/>
  <path d="M483.84 638.719c15.537-21.398 11.59-44.781.965-62.324-5.301-8.753-12.356-16.27-19.815-21.739-7.367-5.401-15.612-9.153-23.331-9.624-2.065-.126-3.946.453-5.394 1.081-1.508.653-2.995 1.557-4.411 2.56-2.832 2.005-5.911 4.785-9.036 7.967-6.279 6.392-13.307 14.982-19.744 23.853s-12.427 18.22-16.564 26.176c-2.06 3.96-3.753 7.749-4.787 11.063-.518 1.657-.92 3.349-1.079 4.982-.154 1.567-.131 3.528.611 5.45 2.812 7.279 8.974 13.959 16.439 19.248 7.559 5.356 16.958 9.652 26.983 11.891 20.081 4.483 43.643.792 59.163-20.584Z" fill="#fff" stroke="#CCC" stroke-width="12"/>
  <path d="M639.978 636.623c9.067 13.043 22.012 18.749 36.087 18.544 13.778-.201 28.352-6.024 41.671-15.284 13.262-9.22 31.897-26.879 45.397-45.029 6.746-9.069 12.464-18.596 15.487-27.521 2.974-8.78 3.759-18.323-1.578-26-5.329-7.665-14.557-10.294-23.846-10.619-9.449-.331-20.415 1.636-31.316 4.73-21.809 6.192-44.966 17.372-58.252 26.61-13.364 9.29-23.799 21.083-28.677 34.073-4.97 13.239-4.03 27.469 5.027 40.496Z" fill="#FFC000" stroke="#D39C28" stroke-width="12"/>
  <path d="M633.127 638.775c14.731 21.961 38.04 26.316 58.171 22.389 10.043-1.959 19.532-5.99 27.237-11.107 7.61-5.053 13.973-11.499 17.077-18.582.83-1.896.934-3.861.844-5.437-.093-1.64-.429-3.348-.882-5.023-.906-3.35-2.455-7.198-4.364-11.228-3.837-8.098-9.478-17.656-15.586-26.757s-12.819-17.945-18.861-24.572c-3.007-3.298-5.981-6.193-8.735-8.307-1.377-1.057-2.827-2.017-4.304-2.73-1.418-.684-3.268-1.339-5.327-1.305-7.802.131-16.197 3.612-23.735 8.796-7.634 5.25-14.907 12.592-20.463 21.231-11.131 17.304-15.788 40.695-1.072 62.632Z" fill="#fff" stroke="#CCC" stroke-width="12"/>
  <path d="M695.15 696.063c0 59.039-58.874 93.284-131.5 93.284-72.625 0-131.5-34.245-131.5-93.284 0-101.987 58.875-171.716 131.5-171.716 72.626 0 131.5 78.981 131.5 171.716Z" fill="#fff" stroke="#CCC" stroke-width="12"/>
  <path d="M463.75 669.433a4.04 4.04 0 0 1-4.733 3.586l-29.372-5.308a3.954 3.954 0 0 1-3.253-4.286c.957-9.466 3.814-35.836 8.185-60.024 4.371-24.187 10.925-49.889 13.342-59.092.527-2.006 2.505-3.244 4.547-2.875l29.371 5.307a4.04 4.04 0 0 1 3.179 5.016c-2.487 9.322-8.513 32.839-13.13 58.387-4.617 25.547-7.203 49.686-8.136 59.289Zm173.031-117.435a4.037 4.037 0 0 1 3.138-5.041l29.329-5.54c2.039-.385 4.027.838 4.57 2.84 2.489 9.183 9.246 34.833 13.808 58.985 4.563 24.152 7.627 50.499 8.659 59.957.225 2.063-1.18 3.926-3.219 4.311l-29.328 5.54a4.037 4.037 0 0 1-4.761-3.548c-1.009-9.595-3.787-33.713-8.605-59.223s-11.031-48.979-13.591-58.281Z" fill="#45566A" stroke="#394457" stroke-width="12"/>
  <path d="M561.387 794.89c37.195 0 71.354-8.731 96.41-25.469 25.219-16.847 41.22-41.874 41.22-73.645 0-23.324-2.827-39.469-9.426-49.971-7.05-11.218-17.701-15.025-30.013-15.465-10.462-.374-23.042 1.654-36.869 3.882q-2.726.44-5.513.884c-16.294 2.584-34.859 5.215-55.809 5.215-20.838 0-39.322-3.177-55.557-6.469-2.855-.578-5.669-1.168-8.433-1.748-12.615-2.644-24.194-5.072-33.889-5.23-6.068-.099-11.913.657-17.195 3.054-5.39 2.445-9.798 6.421-13.196 12.088-6.549 10.925-9.36 28.208-9.36 53.76 0 31.771 16.001 56.798 41.221 73.645 25.056 16.738 59.214 25.469 96.409 25.469Z" fill="#45566A" stroke="#394457" stroke-width="12"/>
  <path d="M474.386 661.978a1212 1212 0 0 1-5.418-8.687 4 4 0 0 0-3.426-1.899c-3.477.02-6.953.03-10.439.031a4 4 0 0 0-3.446 1.97l-1.309 2.226c-1.261 2.143-2.517 4.278-3.784 6.41a4 4 0 0 0 .032 4.14c1.797 2.921 3.602 5.832 5.406 8.739a4 4 0 0 0 3.387 1.891l10.62.031a4 4 0 0 0 3.48-2.009c1.668-2.905 3.34-5.819 4.994-8.743a4 4 0 0 0-.097-4.1Zm203.178 0c-1.82-2.89-3.628-5.789-5.418-8.687a4 4 0 0 0-3.427-1.899c-3.476.02-6.952.03-10.438.031a4 4 0 0 0-3.446 1.97l-1.31 2.226c-1.26 2.143-2.516 4.278-3.783 6.41a4 4 0 0 0 .031 4.14c1.797 2.921 3.603 5.832 5.406 8.739a4 4 0 0 0 3.388 1.891l10.619.031a4 4 0 0 0 3.481-2.009c1.668-2.905 3.339-5.819 4.994-8.743a4 4 0 0 0-.097-4.1Z" fill="#fff" stroke="#CCC" stroke-width="6"/>
  <path d="M553.371 720.345H535.29a2.49 2.49 0 0 1-2.147-1.237l-9.032-15.634a2.45 2.45 0 0 1 0-2.473l9.032-15.634a2.49 2.49 0 0 1 2.147-1.236h18.081c.892 0 1.701.478 2.147 1.236l9.033 15.634a2.46 2.46 0 0 1 0 2.473l-9.033 15.634a2.47 2.47 0 0 1-2.147 1.237m-16.644-4.948h15.208l7.612-13.159-7.612-13.16h-15.208l-7.613 13.16z" fill="#4CB4FA"/>
  <path d="M580.486 704.792h-18.082a2.49 2.49 0 0 1-2.146-1.237l-9.033-15.633a2.45 2.45 0 0 1 0-2.474l9.033-15.633a2.49 2.49 0 0 1 2.146-1.237h18.082c.891 0 1.701.478 2.146 1.237l9.033 15.633a2.45 2.45 0 0 1 0 2.474l-9.033 15.633a2.46 2.46 0 0 1-2.146 1.237m-16.645-4.947h15.208l7.613-13.16-7.613-13.16h-15.208l-7.613 13.16z" fill="#FFC000"/>
  <path d="M580.486 735.959h-18.082a2.49 2.49 0 0 1-2.146-1.237l-9.033-15.633a2.45 2.45 0 0 1 0-2.474l9.033-15.633a2.49 2.49 0 0 1 2.146-1.237h18.082c.891 0 1.701.478 2.146 1.237l9.033 15.633a2.45 2.45 0 0 1 0 2.474l-9.033 15.633a2.46 2.46 0 0 1-2.146 1.237m-16.645-4.947h15.208l7.613-13.16-7.613-13.16h-15.208l-7.613 13.16z" fill="#fff"/>
  <path d="M497.391 735.241c-15.298-4.1-30.444-2.754-42.679 5.176-12.268 7.952-20.663 21.909-23.665 41.133-2.193 14.041 1.679 30.245 8.044 43.339 3.213 6.611 7.181 12.682 11.608 17.483 4.36 4.729 9.543 8.631 15.263 10.164 5.648 1.513 11.829.856 17.74-.947 5.966-1.819 12.071-4.928 17.835-8.854 11.467-7.811 22.287-19.349 28.299-31.996 8.172-17.192 8.252-33.971 1.901-47.681-6.328-13.661-18.75-23.638-34.346-27.817Z" fill="#FFC000" stroke="#D39C28" stroke-width="12"/>
  <path d="M420.073 776.303c6.242-60.955 30.535-61.656 75.451-49.621s71.688 25.31 44.239 81.693c-11.151 22.906-46.291 12.031-67.808 6.265-21.516-5.765-54.448-13.287-51.882-38.337" fill="#45566A"/>
  <path d="M545.91 792.512c-1.45 3.709-4.12 11.701-6.146 15.863-11.152 22.906-46.291 12.031-67.808 6.265-21.517-5.765-54.448-13.287-51.883-38.337 2.088-20.393 6.197-34.042 12.423-42.726" stroke="#394457" stroke-width="12" stroke-linecap="round"/>
  <path d="M535.109 808.581c2.664.576 3.995 3.582 2.634 5.944l-7.115 12.348a3.95 3.95 0 0 1-4.231 1.914c-7.335-1.522-28.103-5.965-50.514-11.97-22.329-5.983-43.783-12.845-51.491-15.357a3.96 3.96 0 0 1-2.706-4.15l1.307-13.938c.24-2.561 2.8-4.238 5.249-3.451 9.17 2.947 30.368 9.607 53.306 15.754 22.556 6.043 43.903 10.816 53.561 12.906Z" fill="#fff" stroke="#CCC" stroke-width="12"/>
  <path d="M638.938 734.826c15.499-4.153 30.821-2.954 43.18 4.792 12.425 7.788 20.888 21.585 23.802 40.657 2.131 13.946-1.948 30.045-8.514 43.048-3.317 6.57-7.393 12.602-11.918 17.377-4.462 4.708-9.722 8.57-15.472 10.111-11.098 2.974-24.631-1.976-35.927-9.422-11.593-7.643-22.525-18.994-28.558-31.51-8.208-17.024-8.152-33.697-1.582-47.338 6.534-13.566 19.199-23.484 34.989-27.715Z" fill="#FFC000" stroke="#D39C28" stroke-width="12"/>
  <path d="M717.213 774.944c-5.877-60.277-30.557-60.785-76.292-48.53s-73.042 25.597-45.581 81.186c11.156 22.583 46.948 11.552 68.857 5.681s55.431-13.566 53.016-38.337" fill="#45566A"/>
  <path d="M692.908 725.009c12.5 11.5 22.022 26.524 24.305 49.935 2.415 24.771-31.107 32.467-53.016 38.337-21.91 5.871-57.701 16.903-68.858-5.681-2.676-5.417-4.261-10.938-5.93-15.591" stroke="#394457" stroke-width="12" stroke-linecap="round"/>
  <path d="M600.006 807.78c-2.674.583-3.997 3.61-2.612 5.97l7.072 12.045a3.955 3.955 0 0 0 4.225 1.885c7.404-1.549 28.601-6.115 51.488-12.248 22.799-6.109 44.711-13.085 52.507-15.612a3.96 3.96 0 0 0 2.716-4.131l-1.206-13.652c-.226-2.568-2.785-4.26-5.241-3.475-9.301 2.975-30.945 9.746-54.362 16.02-23.015 6.167-44.786 11.062-54.587 13.198Z" fill="#fff" stroke="#CCC" stroke-width="12"/>
  <path d="M561.99 608c31.738 0 56.383-8.803 73.916-23.462 17.53-14.657 27.482-34.781 30.502-56.546 2.125-15.313-.504-35.925-5.974-57.777-5.508-22.004-14.049-45.858-24.229-67.898-10.164-22.003-22.079-42.45-34.43-57.503-6.174-7.525-12.598-13.875-19.124-18.387-6.498-4.492-13.488-7.427-20.661-7.427-7.095 0-14.018 2.758-20.482 7.06-6.481 4.314-12.838 10.399-18.934 17.641-12.191 14.484-23.883 34.248-33.857 55.8-9.992 21.59-18.373 45.222-23.841 67.582-5.445 22.268-8.104 43.687-6.329 60.707 2.35 22.533 12.058 42.75 29.569 57.285C505.595 599.584 530.322 608 561.99 608Z" fill="#FFC000" stroke="#D39C28" stroke-width="12"/>
  <path d="M496.181 527.75c13.205 0 23.909-7.349 23.909-16.415s-10.704-16.415-23.909-16.415-23.908 7.349-23.908 16.415 10.704 16.415 23.908 16.415m132.242 0c13.204 0 23.908-7.349 23.908-16.415s-10.704-16.415-23.908-16.415-23.908 7.349-23.908 16.415 10.704 16.415 23.908 16.415" fill="#E4A92D"/>
  <path d="M597.791 493.803c12.379 0 22.414-11.024 22.414-24.622s-10.035-24.623-22.414-24.623-22.414 11.024-22.414 24.623c0 13.598 10.035 24.622 22.414 24.622" fill="#fff"/>
  <path d="M597.791 497.534c-14.42 0-26.149-12.714-26.149-28.353s11.729-28.353 26.149-28.353 26.149 12.714 26.149 28.353-11.729 28.353-26.149 28.353m0-49.245c-10.295 0-18.678 9.371-18.678 20.892s8.383 20.892 18.678 20.892 18.678-9.372 18.678-20.892c0-11.521-8.383-20.892-18.678-20.892" fill="#534741"/>
  <path d="M598.209 494.787c9.672 0 17.513-8.352 17.513-18.654s-7.841-18.653-17.513-18.653-17.513 8.351-17.513 18.653 7.841 18.654 17.513 18.654" fill="#534741"/>
  <path d="M595.893 469.478c2.888 0 5.23-1.851 5.23-4.134s-2.342-4.133-5.23-4.133-5.23 1.85-5.23 4.133 2.342 4.134 5.23 4.134m-69.744 24.325c12.379 0 22.414-11.024 22.414-24.622s-10.035-24.623-22.414-24.623-22.414 11.024-22.414 24.623c0 13.598 10.035 24.622 22.414 24.622" fill="#fff"/>
  <path d="M526.149 497.534c-14.419 0-26.149-12.714-26.149-28.353s11.73-28.353 26.149-28.353 26.15 12.714 26.15 28.353-11.73 28.353-26.15 28.353m0-49.245c-10.295 0-18.678 9.371-18.678 20.892s8.383 20.892 18.678 20.892 18.679-9.372 18.679-20.892c0-11.521-8.383-20.892-18.679-20.892" fill="#534741"/>
  <path d="M526.567 494.787c9.672 0 17.513-8.352 17.513-18.654s-7.841-18.653-17.513-18.653-17.512 8.351-17.512 18.653 7.84 18.654 17.512 18.654" fill="#534741"/>
  <path d="M524.251 469.478c2.889 0 5.23-1.851 5.23-4.134s-2.341-4.133-5.23-4.133c-2.888 0-5.23 1.85-5.23 4.133s2.342 4.134 5.23 4.134" fill="#fff"/>
  <path d="M615.522 426.02c-8.5-6.501-21.82-10.802-34-9.902m-77 9.874c6.964-5.496 21.5-9.992 32-9.992" stroke="#534741" stroke-width="8" stroke-linecap="round"/>
  <path d="M605.369 533.621c.146 9.512-3.923 17.449-10.778 25.169-7.196 8.104-18.046 13.778-32.128 13.993-15.498.238-24.766-4.537-33.264-12.992-6.797-6.763-11.145-13.409-11.312-24.329-.038-2.499 2.416-5.538 5.439-4.023 6.086 3.423 17.891 9.667 38.648 9.349 19.779-.303 32.242-6.496 36.358-9.56s6.999-.109 7.037 2.393" fill="#534741"/>
  <path d="M360.194 587.338c.425-1.873-1.023-4.17-3.05-4.251l-10.703-1.897 8.372-51.952c3.021-.3 6.007-1.441 9.109-3.767 15.206-10.942 28.659-42.883 34.592-81.074 1.481-12.54 1.306-20.456 1.096-29.214-.073-1.683.008-3.71.089-5.736-.073-1.683-1.331-3.483-3.204-3.908l-48.551-7.676c-1.872-.425-3.673.833-4.097 2.706-.886 2.905-1.962 5.311-2.694 7.872-2.423 6.343-4.692 12.342-7.167 25.262-8.526 52.297.196 86.312 13.335 93.836l-8.336 52.794-10.359-1.743c-1.873-.425-3.827 1.177-4.252 3.05-.271 1.529.643 3.175 2.363 3.944l1.031.461 28.519 4.497c1.873.425 3.673-.833 3.907-3.204" fill="#fff"/>
  <path d="M390.244 457.024s-10.03 67.768-37.137 63.756S336.029 449 336.029 449z" fill="#CB3B34"/>
  <path d="M763.948 379.121c0 2.714-4.914 17.423-4.914 17.423s-4.915-14.709-4.915-17.423a4.915 4.915 0 0 1 9.829 0" fill="url(#a)"/>
  <path d="M754.119 441.662c0-2.714 4.914-17.423 4.914-17.423s4.915 14.709 4.915 17.423a4.915 4.915 0 0 1-9.829 0" fill="url(#b)"/>
  <path d="M790.939 385.436c-1.919 1.919-20.533 13.583-20.533 13.583s11.664-18.614 13.583-20.533a4.915 4.915 0 0 1 6.95 6.95" fill="url(#c)"/>
  <path d="M727.129 435.344c1.919-1.919 21.164-14.215 21.164-14.215s-12.296 19.245-14.215 21.164a4.91 4.91 0 0 1-6.949 0 4.91 4.91 0 0 1 0-6.949" fill="url(#d)"/>
  <path d="M783.989 442.296c-1.919-1.919-13.584-20.533-13.584-20.533s18.614 11.664 20.533 13.584a4.914 4.914 0 1 1-6.949 6.949" fill="url(#e)"/>
  <path d="M734.078 378.484c1.919 1.919 14.216 21.165 14.216 21.165s-19.246-12.297-21.165-14.216a4.914 4.914 0 1 1 6.949-6.949" fill="url(#f)"/>
  <path d="M732.853 462.192c1.052-2.502 13.883-20.332 13.883-20.332s-3.771 21.641-4.824 24.143a4.915 4.915 0 0 1-9.059-3.811" fill="url(#g)"/>
  <path d="M785.215 363.055c-1.052 2.502-14.229 21.155-14.229 21.155s4.118-22.464 5.17-24.965a4.914 4.914 0 1 1 9.059 3.81" fill="url(#h)"/>
  <path d="M742.497 359.06c1.025 2.513 4.559 24.193 4.559 24.193s-12.635-17.969-13.66-20.482a4.914 4.914 0 0 1 9.101-3.711" fill="url(#i)"/>
  <path d="M775.571 466.188c-1.025-2.514-4.897-25.021-4.897-25.021s12.973 18.796 13.998 21.309a4.914 4.914 0 0 1-9.101 3.712" fill="url(#j)"/>
  <path d="M705.471 429.162c2.513-1.025 24.193-4.56 24.193-4.56s-17.969 12.636-20.482 13.66a4.914 4.914 0 1 1-3.711-9.1" fill="url(#k)"/>
  <path d="M812.597 396.082c-2.513 1.025-25.021 4.897-25.021 4.897s18.796-12.973 21.31-13.998a4.915 4.915 0 0 1 3.711 9.101" fill="url(#l)"/>
  <path d="M709.465 386.443c2.502 1.053 20.332 13.884 20.332 13.884s-21.641-3.772-24.143-4.824a4.915 4.915 0 0 1 3.811-9.06" fill="url(#m)"/>
  <path d="M808.603 438.8c-2.501-1.052-21.155-14.229-21.155-14.229s22.464 4.118 24.966 5.17a4.913 4.913 0 0 1 2.624 6.435 4.913 4.913 0 0 1-6.435 2.624" fill="url(#n)"/>
  <path d="M790.305 415.303c-2.714 0-17.423-4.914-17.423-4.914s14.709-4.914 17.423-4.914a4.914 4.914 0 1 1 0 9.828" fill="url(#o)"/>
  <path d="M727.762 405.477c2.714 0 17.423 4.914 17.423 4.914s-14.709 4.914-17.423 4.914a4.914 4.914 0 1 1 0-9.828" fill="url(#p)"/>
  <path d="M354.987 280.417c0 2.866-5.19 18.4-5.19 18.4s-5.19-15.534-5.19-18.4a5.19 5.19 0 0 1 10.38 0" fill="url(#q)"/>
  <path d="M344.607 346.465c0-2.866 5.19-18.4 5.19-18.4s5.19 15.534 5.19 18.4a5.19 5.19 0 0 1-10.38 0" fill="url(#r)"/>
  <path d="M383.491 287.086c-2.027 2.027-21.684 14.345-21.684 14.345s12.318-19.657 14.345-21.684a5.19 5.19 0 0 1 7.339 0 5.19 5.19 0 0 1 0 7.339" fill="url(#s)"/>
  <path d="M316.103 339.792c2.027-2.026 22.352-15.012 22.352-15.012s-12.986 20.325-15.012 22.352a5.19 5.19 0 0 1-7.34 0 5.19 5.19 0 0 1 0-7.34" fill="url(#t)"/>
  <path d="M376.151 347.135c-2.026-2.027-14.345-21.685-14.345-21.685s19.658 12.319 21.685 14.345a5.19 5.19 0 0 1 0 7.34 5.19 5.19 0 0 1-7.34 0" fill="url(#u)"/>
  <path d="M323.443 279.744c2.026 2.027 15.012 22.352 15.012 22.352s-20.325-12.986-22.352-15.012a5.19 5.19 0 0 1 0-7.34 5.19 5.19 0 0 1 7.34 0" fill="url(#v)"/>
  <path d="M322.148 368.146c1.112-2.642 14.662-21.472 14.662-21.472s-3.983 22.854-5.094 25.496a5.19 5.19 0 0 1-9.568-4.024" fill="url(#w)"/>
  <path d="M377.447 263.451c-1.111 2.642-15.027 22.341-15.027 22.341s4.348-23.724 5.46-26.365a5.189 5.189 0 1 1 9.567 4.024" fill="url(#x)"/>
  <path d="M332.333 259.231c1.082 2.654 4.815 25.55 4.815 25.55s-13.343-18.976-14.426-21.63a5.19 5.19 0 0 1 9.611-3.92" fill="url(#y)"/>
  <path d="M367.262 372.365c-1.082-2.653-5.172-26.423-5.172-26.423s13.7 19.85 14.783 22.504a5.19 5.19 0 0 1-9.611 3.919" fill="url(#z)"/>
  <path d="M293.231 333.264c2.654-1.082 25.55-4.816 25.55-4.816s-18.976 13.344-21.63 14.427a5.19 5.19 0 0 1-3.92-9.611" fill="url(#A)"/>
  <path d="M406.364 298.329c-2.654 1.083-26.424 5.172-26.424 5.172s19.85-13.7 22.504-14.782a5.19 5.19 0 0 1 6.765 2.845 5.19 5.19 0 0 1-2.845 6.765" fill="url(#B)"/>
  <path d="M297.449 288.15c2.642 1.112 21.472 14.662 21.472 14.662s-22.854-3.983-25.496-5.094a5.19 5.19 0 0 1 4.024-9.568" fill="url(#C)"/>
  <path d="M402.146 343.443c-2.642-1.111-22.341-15.027-22.341-15.027s23.723 4.348 26.365 5.459a5.19 5.19 0 0 1-4.024 9.568" fill="url(#D)"/>
  <path d="M382.822 318.628c-2.866 0-18.4-5.19-18.4-5.19s15.534-5.189 18.4-5.189a5.19 5.19 0 1 1 0 10.379" fill="url(#E)"/>
  <path d="M316.772 308.251c2.866 0 18.4 5.19 18.4 5.19s-15.534 5.189-18.4 5.189a5.19 5.19 0 1 1 0-10.379" fill="url(#F)"/>
  <path d="M821.285 168.402c0 3.629-6.571 74.078-6.571 74.078s-6.572-70.449-6.572-74.078a6.572 6.572 0 0 1 13.143 0" fill="url(#G)"/>
  <path d="M808.142 319.545c0-3.629 6.571-74.078 6.571-74.078s6.572 70.449 6.572 74.078a6.571 6.571 0 0 1-13.143 0" fill="url(#H)"/>
  <path d="M890.284 250.545c-3.629 0-74.077-6.571-74.077-6.571s70.448-6.572 74.077-6.572a6.572 6.572 0 0 1 0 13.143" fill="url(#I)"/>
  <path d="M739.143 237.402c3.629 0 74.077 6.571 74.077 6.571s-70.448 6.572-74.077 6.572a6.571 6.571 0 0 1 0-13.143" fill="url(#J)"/>
  <path d="M860.348 205.641c-2.016 2.017-44.804 37.504-44.804 37.504s35.487-42.789 37.503-44.805a5.16 5.16 0 0 1 7.301 0 5.16 5.16 0 0 1 0 7.301" fill="url(#K)"/>
  <path d="M769.079 282.309c2.016-2.016 44.805-37.504 44.805-37.504s-35.487 42.789-37.504 44.805a5.163 5.163 0 0 1-7.301-7.301" fill="url(#L)"/>
  <path d="M853.047 289.608c-2.017-2.016-37.503-44.805-37.503-44.805s42.788 35.487 44.804 37.503a5.164 5.164 0 0 1-7.301 7.302" fill="url(#M)"/>
  <path d="M774.35 324.37c1.109-2.627 27.384-51.615 27.384-51.615s-16.762 53.002-17.87 55.629a5.164 5.164 0 0 1-9.514-4.014" fill="url(#N)"/>
  <path d="M776.381 198.339c2.016 2.016 37.503 44.805 37.503 44.805s-42.788-35.487-44.805-37.503a5.164 5.164 0 0 1 7.302-7.302" fill="url(#O)"/>
  <path d="M854.65 160.63c-1.109 2.627-27.384 51.615-27.384 51.615s16.762-53.002 17.87-55.629a5.164 5.164 0 0 1 9.514 4.014" fill="url(#P)"/>
  <path d="M728.22 272c2.642-1.073 55.86-17.134 55.86-17.134s-49.33 25.627-51.971 26.7A5.164 5.164 0 1 1 728.22 272" fill="url(#Q)"/>
  <path d="M900.78 213c-2.642 1.073-55.86 17.134-55.86 17.134s49.33-25.627 51.971-26.7A5.164 5.164 0 1 1 900.78 213" fill="url(#R)"/>
  <path d="M732.632 202.35c2.627 1.108 51.614 27.383 51.614 27.383s-53.002-16.761-55.629-17.87a5.162 5.162 0 1 1 4.015-9.513" fill="url(#S)"/>
  <path d="M896.368 282.65c-2.627-1.108-51.615-27.383-51.615-27.383s53.002 16.761 55.63 17.87a5.162 5.162 0 1 1-4.015 9.513" fill="url(#T)"/>
  <path d="M785 156.22c1.074 2.642 17.134 55.861 17.134 55.861s-25.626-49.331-26.7-51.972A5.164 5.164 0 0 1 785 156.22" fill="url(#U)"/>
  <path d="M844 328.78c-1.074-2.642-17.134-55.861-17.134-55.861s25.626 49.331 26.7 51.972A5.164 5.164 0 0 1 844 328.78" fill="url(#V)"/>
  <path d="M783.845 582.623a7.326 7.326 0 0 0 7.327-7.327 7.326 7.326 0 0 0-7.327-7.327 7.326 7.326 0 0 0-7.327 7.327 7.326 7.326 0 0 0 7.327 7.327" fill="#FF9C42"/>
  <path d="M219.327 475.654a7.326 7.326 0 0 0 7.327-7.327 7.326 7.326 0 0 0-7.327-7.327 7.326 7.326 0 0 0-7.327 7.327 7.326 7.326 0 0 0 7.327 7.327" fill="#4CB4FA"/>
  <path d="M471.327 167.654a7.326 7.326 0 0 0 7.327-7.327 7.326 7.326 0 0 0-7.327-7.327 7.326 7.326 0 0 0-7.327 7.327 7.326 7.326 0 0 0 7.327 7.327" fill="#36B27B"/>
  <path d="M883.327 390.654a7.326 7.326 0 0 0 7.327-7.327 7.326 7.326 0 0 0-7.327-7.327 7.326 7.326 0 0 0-7.327 7.327 7.326 7.326 0 0 0 7.327 7.327" fill="#FF9C42"/>
  <path d="M868.327 435.654a7.326 7.326 0 0 0 7.327-7.327 7.326 7.326 0 0 0-7.327-7.327 7.326 7.326 0 0 0-7.327 7.327 7.326 7.326 0 0 0 7.327 7.327" fill="#36B27B"/>
  <path d="M914.327 490.654a7.326 7.326 0 0 0 7.327-7.327 7.326 7.326 0 0 0-7.327-7.327 7.326 7.326 0 0 0-7.327 7.327 7.326 7.326 0 0 0 7.327 7.327" fill="#E87461"/>
  <path d="M675.327 339.654a7.326 7.326 0 0 0 7.327-7.327 7.326 7.326 0 0 0-7.327-7.327 7.326 7.326 0 0 0-7.327 7.327 7.326 7.326 0 0 0 7.327 7.327" fill="#4CB4FA"/>
  <path d="M190.327 440.654a7.326 7.326 0 0 0 7.327-7.327 7.326 7.326 0 0 0-7.327-7.327 7.326 7.326 0 0 0-7.327 7.327 7.326 7.326 0 0 0 7.327 7.327" fill="#FF9C42"/>
  <path d="m486.553 387.664 75.334-130.44 75.333 130.44s-32.189 16.532-75.333 16.532-75.334-16.532-75.334-16.532" fill="#4CB4FA"/>
  <mask id="W" style="mask-type:alpha" maskUnits="userSpaceOnUse" x="486" y="257" width="152" height="148">
    <path d="m486.553 387.664 75.334-130.44 75.333 130.44s-32.189 16.532-75.333 16.532-75.334-16.532-75.334-16.532" fill="#4CB4FA"/>
  </mask>
  <g mask="url(#W)" fill="#F54F47">
    <path d="m456.547 372.987 172.668-99.69 6.113 10.588-172.668 99.69zm-12.696-21.991 172.668-99.69 6.583 11.403-172.668 99.69zm24.922 43.167 172.668-99.69 6.114 10.588-172.669 99.69zm12.226 21.176 172.669-99.69 6.113 10.589-172.669 99.69zm12.226 21.177 172.669-99.69 6.113 10.588-172.669 99.69z"/>
  </g>
  <path d="M557.231 226h7.417v64.893h-7.417z" fill="#F54F47"/>
  <path d="M593.386 254.738v7.416h-64.893v-7.416z" fill="#F54F47"/>
  <path d="m587.184 239.007 3.709 6.423-56.199 32.447-3.708-6.423z" fill="#F54F47"/>
  <path d="m580.375 284.693-6.423 3.708-32.446-56.198 6.422-3.709z" fill="#F54F47"/>
  <path d="m573.949 228.491 6.422 3.709-32.446 56.198-6.423-3.708z" fill="#F54F47"/>
  <path d="m590.893 271.461-3.709 6.423-56.198-32.447 3.708-6.422z" fill="#F54F47"/>
  <defs>
    <radialGradient id="a" cx="0" cy="0" r="1" gradientUnits="userSpaceOnUse" gradientTransform="matrix(0 56.6236 -56.6227 0 759.034 412.624)">
      <stop stop-color="#BAE4FF"/>
      <stop offset="1" stop-color="#4CB4FA"/>
    </radialGradient>
    <radialGradient id="b" cx="0" cy="0" r="1" gradientUnits="userSpaceOnUse" gradientTransform="matrix(0 56.6235 -56.6227 0 759.034 412.624)">
      <stop stop-color="#BAE4FF"/>
      <stop offset="1" stop-color="#4CB4FA"/>
    </radialGradient>
    <radialGradient id="c" cx="0" cy="0" r="1" gradientUnits="userSpaceOnUse" gradientTransform="matrix(0 56.6237 -56.6229 0 759.034 412.624)">
      <stop stop-color="#BAE4FF"/>
      <stop offset="1" stop-color="#4CB4FA"/>
    </radialGradient>
    <radialGradient id="d" cx="0" cy="0" r="1" gradientUnits="userSpaceOnUse" gradientTransform="matrix(0 56.6236 -56.6228 0 759.034 412.624)">
      <stop stop-color="#BAE4FF"/>
      <stop offset="1" stop-color="#4CB4FA"/>
    </radialGradient>
    <radialGradient id="e" cx="0" cy="0" r="1" gradientUnits="userSpaceOnUse" gradientTransform="matrix(0 56.6236 -56.6227 0 759.034 412.624)">
      <stop stop-color="#BAE4FF"/>
      <stop offset="1" stop-color="#4CB4FA"/>
    </radialGradient>
    <radialGradient id="f" cx="0" cy="0" r="1" gradientUnits="userSpaceOnUse" gradientTransform="matrix(0 56.6235 -56.6227 0 759.034 412.624)">
      <stop stop-color="#BAE4FF"/>
      <stop offset="1" stop-color="#4CB4FA"/>
    </radialGradient>
    <radialGradient id="g" cx="0" cy="0" r="1" gradientUnits="userSpaceOnUse" gradientTransform="matrix(0 56.6237 -56.6228 0 759.034 412.624)">
      <stop stop-color="#BAE4FF"/>
      <stop offset="1" stop-color="#4CB4FA"/>
    </radialGradient>
    <radialGradient id="h" cx="0" cy="0" r="1" gradientUnits="userSpaceOnUse" gradientTransform="matrix(0 56.6236 -56.6228 0 759.034 412.624)">
      <stop stop-color="#BAE4FF"/>
      <stop offset="1" stop-color="#4CB4FA"/>
    </radialGradient>
    <radialGradient id="i" cx="0" cy="0" r="1" gradientUnits="userSpaceOnUse" gradientTransform="matrix(0 56.6236 -56.6229 0 759.034 412.624)">
      <stop stop-color="#BAE4FF"/>
      <stop offset="1" stop-color="#4CB4FA"/>
    </radialGradient>
    <radialGradient id="j" cx="0" cy="0" r="1" gradientUnits="userSpaceOnUse" gradientTransform="matrix(0 56.6236 -56.6227 0 759.034 412.624)">
      <stop stop-color="#BAE4FF"/>
      <stop offset="1" stop-color="#4CB4FA"/>
    </radialGradient>
    <radialGradient id="k" cx="0" cy="0" r="1" gradientUnits="userSpaceOnUse" gradientTransform="matrix(0 56.6236 -56.6228 0 759.034 412.624)">
      <stop stop-color="#BAE4FF"/>
      <stop offset="1" stop-color="#4CB4FA"/>
    </radialGradient>
    <radialGradient id="l" cx="0" cy="0" r="1" gradientUnits="userSpaceOnUse" gradientTransform="matrix(0 56.6237 -56.6228 0 759.034 412.624)">
      <stop stop-color="#BAE4FF"/>
      <stop offset="1" stop-color="#4CB4FA"/>
    </radialGradient>
    <radialGradient id="m" cx="0" cy="0" r="1" gradientUnits="userSpaceOnUse" gradientTransform="matrix(0 56.6236 -56.6227 0 759.034 412.624)">
      <stop stop-color="#BAE4FF"/>
      <stop offset="1" stop-color="#4CB4FA"/>
    </radialGradient>
    <radialGradient id="n" cx="0" cy="0" r="1" gradientUnits="userSpaceOnUse" gradientTransform="matrix(0 56.6235 -56.6228 0 759.034 412.624)">
      <stop stop-color="#BAE4FF"/>
      <stop offset="1" stop-color="#4CB4FA"/>
    </radialGradient>
    <radialGradient id="o" cx="0" cy="0" r="1" gradientUnits="userSpaceOnUse" gradientTransform="matrix(0 56.6236 -56.6227 0 759.034 412.624)">
      <stop stop-color="#BAE4FF"/>
      <stop offset="1" stop-color="#4CB4FA"/>
    </radialGradient>
    <radialGradient id="p" cx="0" cy="0" r="1" gradientUnits="userSpaceOnUse" gradientTransform="matrix(0 56.6236 -56.6227 0 759.034 412.624)">
      <stop stop-color="#BAE4FF"/>
      <stop offset="1" stop-color="#4CB4FA"/>
    </radialGradient>
    <radialGradient id="q" cx="0" cy="0" r="1" gradientUnits="userSpaceOnUse" gradientTransform="matrix(0 59.7983 -59.7975 0 349.756 315.795)">
      <stop stop-color="#FFE3FD"/>
      <stop offset="1" stop-color="#C563CA"/>
    </radialGradient>
    <radialGradient id="r" cx="0" cy="0" r="1" gradientUnits="userSpaceOnUse" gradientTransform="matrix(0 59.7983 -59.7975 0 349.756 315.795)">
      <stop stop-color="#FFE3FD"/>
      <stop offset="1" stop-color="#C563CA"/>
    </radialGradient>
    <radialGradient id="s" cx="0" cy="0" r="1" gradientUnits="userSpaceOnUse" gradientTransform="matrix(0 59.7983 -59.7975 0 349.756 315.795)">
      <stop stop-color="#FFE3FD"/>
      <stop offset="1" stop-color="#C563CA"/>
    </radialGradient>
    <radialGradient id="t" cx="0" cy="0" r="1" gradientUnits="userSpaceOnUse" gradientTransform="matrix(0 59.7983 -59.7975 0 349.756 315.795)">
      <stop stop-color="#FFE3FD"/>
      <stop offset="1" stop-color="#C563CA"/>
    </radialGradient>
    <radialGradient id="u" cx="0" cy="0" r="1" gradientUnits="userSpaceOnUse" gradientTransform="matrix(0 59.7983 -59.7975 0 349.756 315.795)">
      <stop stop-color="#FFE3FD"/>
      <stop offset="1" stop-color="#C563CA"/>
    </radialGradient>
    <radialGradient id="v" cx="0" cy="0" r="1" gradientUnits="userSpaceOnUse" gradientTransform="matrix(0 59.7984 -59.7975 0 349.756 315.795)">
      <stop stop-color="#FFE3FD"/>
      <stop offset="1" stop-color="#C563CA"/>
    </radialGradient>
    <radialGradient id="w" cx="0" cy="0" r="1" gradientUnits="userSpaceOnUse" gradientTransform="matrix(0 59.7983 -59.7974 0 349.755 315.795)">
      <stop stop-color="#FFE3FD"/>
      <stop offset="1" stop-color="#C563CA"/>
    </radialGradient>
    <radialGradient id="x" cx="0" cy="0" r="1" gradientUnits="userSpaceOnUse" gradientTransform="matrix(0 59.7983 -59.7974 0 349.755 315.795)">
      <stop stop-color="#FFE3FD"/>
      <stop offset="1" stop-color="#C563CA"/>
    </radialGradient>
    <radialGradient id="y" cx="0" cy="0" r="1" gradientUnits="userSpaceOnUse" gradientTransform="rotate(90 17 332.798)scale(59.7983 59.7976)">
      <stop stop-color="#FFE3FD"/>
      <stop offset="1" stop-color="#C563CA"/>
    </radialGradient>
    <radialGradient id="z" cx="0" cy="0" r="1" gradientUnits="userSpaceOnUse" gradientTransform="matrix(0 59.7983 -59.7975 0 349.756 315.795)">
      <stop stop-color="#FFE3FD"/>
      <stop offset="1" stop-color="#C563CA"/>
    </radialGradient>
    <radialGradient id="A" cx="0" cy="0" r="1" gradientUnits="userSpaceOnUse" gradientTransform="matrix(0 59.7983 -59.7975 0 349.756 315.795)">
      <stop stop-color="#FFE3FD"/>
      <stop offset="1" stop-color="#C563CA"/>
    </radialGradient>
    <radialGradient id="B" cx="0" cy="0" r="1" gradientUnits="userSpaceOnUse" gradientTransform="matrix(0 59.7984 -59.7975 0 349.756 315.795)">
      <stop stop-color="#FFE3FD"/>
      <stop offset="1" stop-color="#C563CA"/>
    </radialGradient>
    <radialGradient id="C" cx="0" cy="0" r="1" gradientUnits="userSpaceOnUse" gradientTransform="matrix(0 59.7984 -59.7975 0 349.756 315.795)">
      <stop stop-color="#FFE3FD"/>
      <stop offset="1" stop-color="#C563CA"/>
    </radialGradient>
    <radialGradient id="D" cx="0" cy="0" r="1" gradientUnits="userSpaceOnUse" gradientTransform="matrix(0 59.7983 -59.7975 0 349.756 315.795)">
      <stop stop-color="#FFE3FD"/>
      <stop offset="1" stop-color="#C563CA"/>
    </radialGradient>
    <radialGradient id="E" cx="0" cy="0" r="1" gradientUnits="userSpaceOnUse" gradientTransform="matrix(0 59.7983 -59.7975 0 349.756 315.795)">
      <stop stop-color="#FFE3FD"/>
      <stop offset="1" stop-color="#C563CA"/>
    </radialGradient>
    <radialGradient id="F" cx="0" cy="0" r="1" gradientUnits="userSpaceOnUse" gradientTransform="matrix(0 59.7983 -59.7975 0 349.756 315.795)">
      <stop stop-color="#FFE3FD"/>
      <stop offset="1" stop-color="#C563CA"/>
    </radialGradient>
    <radialGradient id="G" cx="0" cy="0" r="1" gradientUnits="userSpaceOnUse" gradientTransform="matrix(0 89.5 -89.4996 0 814.5 242.5)">
      <stop stop-color="#FEFFFF"/>
      <stop offset="1" stop-color="#FFC000"/>
    </radialGradient>
    <radialGradient id="H" cx="0" cy="0" r="1" gradientUnits="userSpaceOnUse" gradientTransform="matrix(0 89.5 -89.4996 0 814.5 242.5)">
      <stop stop-color="#FEFFFF"/>
      <stop offset="1" stop-color="#FFC000"/>
    </radialGradient>
    <radialGradient id="I" cx="0" cy="0" r="1" gradientUnits="userSpaceOnUse" gradientTransform="matrix(0 89.5 -89.5001 0 814.5 242.5)">
      <stop stop-color="#FEFFFF"/>
      <stop offset="1" stop-color="#FFC000"/>
    </radialGradient>
    <radialGradient id="J" cx="0" cy="0" r="1" gradientUnits="userSpaceOnUse" gradientTransform="matrix(0 89.5 -89.4999 0 814.5 242.5)">
      <stop stop-color="#FEFFFF"/>
      <stop offset="1" stop-color="#FFC000"/>
    </radialGradient>
    <radialGradient id="K" cx="0" cy="0" r="1" gradientUnits="userSpaceOnUse" gradientTransform="rotate(90 286 528.5)scale(89.5)">
      <stop stop-color="#FEFFFF"/>
      <stop offset="1" stop-color="#FFC000"/>
    </radialGradient>
    <radialGradient id="L" cx="0" cy="0" r="1" gradientUnits="userSpaceOnUse" gradientTransform="rotate(90 286 528.5)scale(89.5)">
      <stop stop-color="#FEFFFF"/>
      <stop offset="1" stop-color="#FFC000"/>
    </radialGradient>
    <radialGradient id="M" cx="0" cy="0" r="1" gradientUnits="userSpaceOnUse" gradientTransform="rotate(90 286 528.5)scale(89.5)">
      <stop stop-color="#FEFFFF"/>
      <stop offset="1" stop-color="#FFC000"/>
    </radialGradient>
    <radialGradient id="N" cx="0" cy="0" r="1" gradientUnits="userSpaceOnUse" gradientTransform="matrix(0 89.5 -89.5001 0 814.5 242.5)">
      <stop stop-color="#FEFFFF"/>
      <stop offset="1" stop-color="#FFC000"/>
    </radialGradient>
    <radialGradient id="O" cx="0" cy="0" r="1" gradientUnits="userSpaceOnUse" gradientTransform="rotate(90 286 528.5)scale(89.5)">
      <stop stop-color="#FEFFFF"/>
      <stop offset="1" stop-color="#FFC000"/>
    </radialGradient>
    <radialGradient id="P" cx="0" cy="0" r="1" gradientUnits="userSpaceOnUse" gradientTransform="matrix(0 89.5 -89.5001 0 814.5 242.5)">
      <stop stop-color="#FEFFFF"/>
      <stop offset="1" stop-color="#FFC000"/>
    </radialGradient>
    <radialGradient id="Q" cx="0" cy="0" r="1" gradientUnits="userSpaceOnUse" gradientTransform="matrix(0 89.5 -89.5001 0 814.5 242.5)">
      <stop stop-color="#FEFFFF"/>
      <stop offset="1" stop-color="#FFC000"/>
    </radialGradient>
    <radialGradient id="R" cx="0" cy="0" r="1" gradientUnits="userSpaceOnUse" gradientTransform="matrix(0 89.5 -89.5001 0 814.5 242.5)">
      <stop stop-color="#FEFFFF"/>
      <stop offset="1" stop-color="#FFC000"/>
    </radialGradient>
    <radialGradient id="S" cx="0" cy="0" r="1" gradientUnits="userSpaceOnUse" gradientTransform="rotate(90 286 528.5)scale(89.5)">
      <stop stop-color="#FEFFFF"/>
      <stop offset="1" stop-color="#FFC000"/>
    </radialGradient>
    <radialGradient id="T" cx="0" cy="0" r="1" gradientUnits="userSpaceOnUse" gradientTransform="rotate(90 286 528.5)scale(89.5)">
      <stop stop-color="#FEFFFF"/>
      <stop offset="1" stop-color="#FFC000"/>
    </radialGradient>
    <radialGradient id="U" cx="0" cy="0" r="1" gradientUnits="userSpaceOnUse" gradientTransform="matrix(0 89.5 -89.4998 0 814.5 242.5)">
      <stop stop-color="#FEFFFF"/>
      <stop offset="1" stop-color="#FFC000"/>
    </radialGradient>
    <radialGradient id="V" cx="0" cy="0" r="1" gradientUnits="userSpaceOnUse" gradientTransform="matrix(0 89.5 -89.4998 0 814.5 242.5)">
      <stop stop-color="#FEFFFF"/>
      <stop offset="1" stop-color="#FFC000"/>
    </radialGradient>
  </defs>
</svg>
