<svg width="755" height="976" viewBox="0 0 755 976" fill="none" xmlns="http://www.w3.org/2000/svg">
  <mask id="a" style="mask-type:alpha" maskUnits="userSpaceOnUse" x="72" y="274" width="584" height="485">
    <path fill="#D9D9D9" d="M72 274h584v485H72z"/>
  </mask>
  <g mask="url(#a)">
    <path d="M255.413 625.189c13.696-11.183 18.908-26.011 17.473-41.616-1.409-15.311-9.151-31.087-20.687-45.217-11.492-14.075-32.957-33.487-54.526-47.08-10.778-6.793-21.937-12.361-32.148-14.962-10.063-2.563-20.579-2.559-28.481 3.893-7.891 6.442-10.044 16.761-9.604 27.165.445 10.564 3.589 22.668 8.014 34.649 8.853 23.97 23.433 49.021 34.944 63.12 11.569 14.171 25.647 24.789 40.518 29.097 15.127 4.383 30.815 2.121 44.497-9.049Z" fill="#FFC000" stroke="#D39C28" stroke-width="12"/>
    <path d="M258.444 632.715c23.153-18.268 26.021-44.557 19.897-66.699-3.055-11.05-8.379-21.301-14.755-29.46-6.307-8.07-14.014-14.559-22.077-17.373-2.046-.714-4.133-.672-5.838-.441-1.77.239-3.61.749-5.428 1.394-3.635 1.291-7.793 3.348-12.15 5.84-8.749 5.005-18.999 12.172-28.705 19.835-9.707 7.663-19.06 15.973-25.969 23.324-3.44 3.661-6.41 7.228-8.517 10.462-1.054 1.617-1.98 3.286-2.629 4.947-.625 1.6-1.158 3.611-.956 5.76.808 8.575 5.368 17.592 11.813 25.569 6.518 8.067 15.348 15.557 25.477 21.018 20.289 10.938 46.706 14.076 69.837-4.176Z" fill="#fff" stroke="#CCC" stroke-width="12"/>
    <path d="M454.058 628.206c12.709 12.293 28.046 15.732 43.375 12.479 15.041-3.192 29.802-12.728 42.484-25.84 12.633-13.06 29.397-36.65 40.371-59.663 5.484-11.5 9.707-23.233 11.095-33.679 1.367-10.293.131-20.737-7.201-27.829-7.323-7.083-17.822-8.012-28.104-6.357-10.439 1.679-22.091 6.219-33.472 12.016-22.768 11.599-45.94 29.012-58.594 42.095-12.718 13.149-21.615 28.374-24.152 43.647-2.581 15.536 1.503 30.851 14.198 43.131Z" fill="#FFC000" stroke="#D39C28" stroke-width="12"/>
    <path d="M446.938 632.098c20.854 20.854 47.298 20.623 68.571 11.949 10.615-4.328 20.172-10.816 27.529-18.104 7.276-7.207 12.817-15.622 14.668-23.958.469-2.117.183-4.184-.245-5.851-.445-1.729-1.167-3.497-2.021-5.227-1.708-3.459-4.237-7.347-7.222-11.382-5.995-8.103-14.313-17.443-23.06-26.185-8.747-8.743-18.095-17.059-26.205-23.059-4.038-2.988-7.928-5.52-11.387-7.234-1.729-.857-3.495-1.581-5.221-2.031-1.662-.433-3.722-.728-5.832-.275-8.422 1.806-16.843 7.391-24.01 14.726-7.248 7.417-13.653 17.064-17.89 27.763-8.487 21.43-8.51 48.033 12.325 68.868Z" fill="#fff" stroke="#CCC" stroke-width="12"/>
    <path d="M488.75 672.716c0 59.038-58.875 93.284-131.5 93.284s-131.5-34.246-131.5-93.284C225.75 570.729 284.625 501 357.25 501s131.5 78.981 131.5 171.716Z" fill="#fff" stroke="#CCC" stroke-width="12"/>
    <path d="M259.669 646.613a4.04 4.04 0 0 1-4.733 3.586l-29.371-5.308c-2.042-.369-3.462-2.222-3.253-4.286.957-9.466 3.813-35.837 8.184-60.024s10.925-49.889 13.342-59.092c.527-2.007 2.505-3.245 4.547-2.876l29.372 5.308a4.037 4.037 0 0 1 3.178 5.015c-2.487 9.323-8.513 32.84-13.13 58.387-4.616 25.548-7.203 49.687-8.136 59.29ZM432.7 529.177a4.036 4.036 0 0 1 3.138-5.04l29.329-5.54c2.039-.385 4.027.837 4.57 2.84 2.489 9.183 9.246 34.833 13.808 58.984s7.627 50.499 8.659 59.958c.225 2.063-1.18 3.926-3.219 4.311l-29.328 5.54a4.037 4.037 0 0 1-4.761-3.548c-1.009-9.596-3.787-33.713-8.605-59.223S435.26 538.48 432.7 529.177Z" fill="#45566A" stroke="#394457" stroke-width="12"/>
    <path d="M357.306 772.069c37.195 0 71.354-8.731 96.41-25.468 25.219-16.847 41.22-41.874 41.22-73.646 0-23.323-2.827-39.469-9.426-49.97-7.05-11.219-17.701-15.025-30.013-15.465-10.462-.374-23.042 1.653-36.869 3.882-1.817.292-3.655.589-5.513.883-16.294 2.585-34.859 5.216-55.809 5.216-20.838 0-39.322-3.177-55.557-6.469-2.855-.579-5.669-1.169-8.433-1.748-12.615-2.645-24.194-5.072-33.889-5.23-6.068-.099-11.913.656-17.195 3.053-5.39 2.446-9.798 6.422-13.196 12.089-6.549 10.925-9.36 28.208-9.36 53.759 0 31.772 16.001 56.799 41.221 73.646 25.056 16.737 59.214 25.468 96.409 25.468Z" fill="#45566A" stroke="#394457" stroke-width="12"/>
    <path d="M270.305 639.158a1212 1212 0 0 1-5.418-8.688 4 4 0 0 0-3.426-1.898c-3.477.019-6.953.03-10.439.031a4 4 0 0 0-3.446 1.97l-1.309 2.225c-1.261 2.143-2.517 4.279-3.784 6.411a4 4 0 0 0 .032 4.139 2603 2603 0 0 0 5.405 8.739 4 4 0 0 0 3.388 1.892l10.62.031a4 4 0 0 0 3.48-2.009c1.668-2.905 3.34-5.819 4.994-8.743a4 4 0 0 0-.097-4.1Zm203.178 0q-2.731-4.338-5.418-8.688a4 4 0 0 0-3.427-1.898c-3.476.019-6.952.03-10.438.031a4 4 0 0 0-3.446 1.97l-1.31 2.225c-1.26 2.143-2.516 4.279-3.783 6.411a4 4 0 0 0 .031 4.139 2603 2603 0 0 0 5.406 8.739 4 4 0 0 0 3.387 1.892l10.62.031a4 4 0 0 0 3.481-2.009c1.668-2.905 3.339-5.819 4.993-8.743a4 4 0 0 0-.096-4.1Z" fill="#fff" stroke="#CCC" stroke-width="6"/>
    <path d="M347.122 711.766h-18.081a2.49 2.49 0 0 1-2.147-1.236l-9.032-15.634a2.45 2.45 0 0 1 0-2.473l9.032-15.634a2.49 2.49 0 0 1 2.147-1.237h18.081c.892 0 1.701.479 2.147 1.237l9.033 15.634a2.46 2.46 0 0 1 0 2.473l-9.033 15.634a2.47 2.47 0 0 1-2.147 1.236m-16.644-4.947h15.208l7.612-13.16-7.612-13.159h-15.208l-7.613 13.159z" fill="#4CB4FA"/>
    <path d="M374.237 696.214h-18.082a2.49 2.49 0 0 1-2.146-1.237l-9.033-15.633a2.45 2.45 0 0 1 0-2.474l9.033-15.633a2.49 2.49 0 0 1 2.146-1.237h18.082c.891 0 1.701.478 2.146 1.237l9.033 15.633a2.45 2.45 0 0 1 0 2.474l-9.033 15.633a2.46 2.46 0 0 1-2.146 1.237m-16.645-4.947H372.8l7.613-13.16-7.613-13.16h-15.208l-7.613 13.16z" fill="#FFC000"/>
    <path d="M374.237 727.381h-18.082a2.49 2.49 0 0 1-2.146-1.237l-9.033-15.633a2.45 2.45 0 0 1 0-2.474l9.033-15.633a2.49 2.49 0 0 1 2.146-1.237h18.082c.891 0 1.701.478 2.146 1.237l9.033 15.633a2.45 2.45 0 0 1 0 2.474l-9.033 15.633a2.46 2.46 0 0 1-2.146 1.237m-16.645-4.947H372.8l7.613-13.16-7.613-13.16h-15.208l-7.613 13.16z" fill="#fff"/>
    <path d="M292.614 709.664c-15.298-4.099-30.444-2.754-42.679 5.176-12.267 7.952-20.663 21.909-23.665 41.133-2.193 14.041 1.679 30.245 8.044 43.339 3.214 6.611 7.181 12.682 11.608 17.483 4.36 4.729 9.543 8.631 15.263 10.164 5.648 1.513 11.83.856 17.74-.947 5.966-1.819 12.071-4.928 17.835-8.854 11.468-7.811 22.287-19.349 28.299-31.996 8.172-17.192 8.252-33.97 1.901-47.681-6.328-13.661-18.75-23.638-34.346-27.817Z" fill="#FFC000" stroke="#D39C28" stroke-width="12"/>
    <path d="M215.296 750.726c6.243-60.955 30.535-61.656 75.451-49.621 44.916 12.036 71.689 25.31 44.24 81.693-11.151 22.906-46.291 12.031-67.808 6.265-21.517-5.765-54.448-13.287-51.883-38.337" fill="#45566A"/>
    <path d="M340.194 771c-1.45 3.709-3.181 7.636-5.207 11.798-11.151 22.906-46.291 12.031-67.808 6.265-21.517-5.765-54.448-13.287-51.883-38.337 2.089-20.393 6.198-34.042 12.423-42.726" stroke="#394457" stroke-width="12" stroke-linecap="round"/>
    <path d="M330.332 783.004c2.664.576 3.996 3.582 2.635 5.944l-7.116 12.348a3.95 3.95 0 0 1-4.231 1.914c-7.335-1.522-28.103-5.965-50.514-11.969-22.329-5.984-43.783-12.846-51.49-15.358a3.956 3.956 0 0 1-2.706-4.15l1.306-13.938c.24-2.561 2.801-4.238 5.249-3.451 9.171 2.947 30.368 9.607 53.307 15.754 22.555 6.043 43.902 10.816 53.56 12.906Z" fill="#fff" stroke="#CCC" stroke-width="12"/>
    <path d="M425.214 710.812c15.5-4.153 30.822-2.955 43.181 4.792 12.424 7.787 20.887 21.585 23.801 40.657 2.131 13.945-1.948 30.045-8.513 43.047-3.318 6.57-7.394 12.603-11.919 17.377-4.461 4.708-9.722 8.571-15.472 10.112-11.098 2.973-24.631-1.976-35.927-9.423-11.593-7.643-22.525-18.994-28.558-31.509-8.207-17.024-8.152-33.697-1.581-47.339 6.534-13.565 19.198-23.483 34.988-27.714Z" fill="#FFC000" stroke="#D39C28" stroke-width="12"/>
    <path d="M503.489 750.929c-5.877-60.277-30.557-60.785-76.292-48.53s-73.042 25.597-45.581 81.186c11.156 22.584 46.948 11.552 68.857 5.682 21.909-5.871 55.431-13.567 53.016-38.338" fill="#45566A"/>
    <path d="M487.5 706.497c8.087 8.133 13.706 21.021 15.989 44.432 2.415 24.771-31.107 32.467-53.016 38.338s-57.701 16.902-68.857-5.681c-2.676-5.417-3.946-7.934-5.616-12.587" stroke="#394457" stroke-width="12" stroke-linecap="round"/>
    <path d="M386.282 783.766c-2.673.583-3.997 3.61-2.612 5.969l7.072 12.046a3.96 3.96 0 0 0 4.225 1.885c7.405-1.55 28.601-6.116 51.489-12.249 22.798-6.108 44.71-13.084 52.506-15.612a3.96 3.96 0 0 0 2.716-4.131l-1.205-13.651c-.227-2.568-2.786-4.261-5.241-3.475-9.302 2.974-30.946 9.745-54.363 16.02-23.015 6.167-44.786 11.062-54.587 13.198Z" fill="#fff" stroke="#CCC" stroke-width="12"/>
    <path d="M360.99 581c31.738 0 56.383-8.803 73.916-23.462 17.53-14.657 27.482-34.781 30.502-56.546 2.125-15.313-.504-35.925-5.974-57.777-5.508-22.004-14.049-45.858-24.229-67.898-10.164-22.003-22.079-42.45-34.43-57.503-6.174-7.525-12.598-13.875-19.124-18.387-6.498-4.492-13.488-7.427-20.661-7.427-7.095 0-14.018 2.758-20.482 7.06-6.481 4.314-12.838 10.399-18.934 17.641-12.191 14.484-23.883 34.248-33.857 55.8-9.992 21.59-18.373 45.222-23.841 67.582-5.445 22.268-8.104 43.687-6.329 60.707 2.35 22.533 12.058 42.75 29.569 57.285C304.595 572.584 329.322 581 360.99 581Z" fill="#FFC000" stroke="#D39C28" stroke-width="12"/>
    <path d="M295.181 500.75c13.205 0 23.909-7.349 23.909-16.415s-10.704-16.415-23.909-16.415-23.908 7.349-23.908 16.415 10.704 16.415 23.908 16.415m132.242 0c13.204 0 23.908-7.349 23.908-16.415s-10.704-16.415-23.908-16.415-23.908 7.349-23.908 16.415 10.704 16.415 23.908 16.415" fill="#E4A92D"/>
    <path d="M396.791 466.803c12.379 0 22.414-11.024 22.414-24.622s-10.035-24.623-22.414-24.623-22.414 11.024-22.414 24.623c0 13.598 10.035 24.622 22.414 24.622" fill="#fff"/>
    <path d="M396.791 470.534c-14.42 0-26.149-12.714-26.149-28.353s11.729-28.353 26.149-28.353 26.149 12.714 26.149 28.353-11.729 28.353-26.149 28.353m0-49.245c-10.295 0-18.678 9.371-18.678 20.892s8.383 20.891 18.678 20.891 18.678-9.371 18.678-20.891c0-11.521-8.383-20.892-18.678-20.892" fill="#534741"/>
    <path d="M397.209 467.787c9.672 0 17.513-8.352 17.513-18.654s-7.841-18.653-17.513-18.653-17.513 8.351-17.513 18.653 7.841 18.654 17.513 18.654" fill="#534741"/>
    <path d="M394.893 442.478c2.888 0 5.23-1.851 5.23-4.134s-2.342-4.134-5.23-4.134-5.23 1.851-5.23 4.134 2.342 4.134 5.23 4.134m-69.743 24.325c12.378 0 22.413-11.024 22.413-24.622s-10.035-24.623-22.413-24.623-22.414 11.024-22.414 24.623c0 13.598 10.035 24.622 22.414 24.622" fill="#fff"/>
    <path d="M325.149 470.534c-14.419 0-26.149-12.714-26.149-28.353s11.73-28.353 26.149-28.353 26.15 12.714 26.15 28.353-11.73 28.353-26.15 28.353m0-49.245c-10.295 0-18.678 9.371-18.678 20.892s8.383 20.891 18.678 20.891 18.679-9.371 18.679-20.891c0-11.521-8.383-20.892-18.679-20.892" fill="#534741"/>
    <path d="M325.567 467.787c9.672 0 17.513-8.352 17.513-18.654s-7.841-18.653-17.513-18.653-17.512 8.351-17.512 18.653 7.84 18.654 17.512 18.654" fill="#534741"/>
    <path d="M323.251 442.478c2.889 0 5.23-1.851 5.23-4.134s-2.341-4.134-5.23-4.134c-2.888 0-5.23 1.851-5.23 4.134s2.342 4.134 5.23 4.134" fill="#fff"/>
    <path d="M414.523 399.02c-8.5-6.501-21.821-10.802-34-9.902m-77 9.874c6.964-5.496 21.5-9.992 32-9.992" stroke="#534741" stroke-width="8" stroke-linecap="round"/>
    <path d="M325.523 513s4.5 22.5 35.5 22.5 35.5-22.5 35.5-22.5" stroke="#534741" stroke-width="12" stroke-linecap="round"/>
  </g>
  <path d="M530.693 579H652l-20.693 180H510z" fill="#F74A44"/>
  <path d="M589 579.5 576 759" stroke="#4CB4FA" stroke-width="12"/>
  <path d="M63 615h155.33L243 768H87.67z" fill="#FCA9BB"/>
  <path d="M589 578.811c-9.67-14.236-34.74-42.563-45.854-29.421-11.229 13.278 8.422 36.067 45.854 29.421Zm0 0c9.67-14.236 34.74-42.563 45.854-29.421 11.229 13.278-8.422 36.067-45.854 29.421Z" stroke="#4CB4FA" stroke-width="12"/>
  <path d="M144.958 622.35c-10.418-15.338-37.428-45.857-49.402-31.698-12.098 14.306 9.074 38.858 49.402 31.698Zm0 0c10.418-15.338 37.428-45.857 49.402-31.698 12.099 14.306-9.074 38.858-49.402 31.698Zm1.078.742 12.39 143.831" stroke="#005A9E" stroke-width="12"/>
  <path fill="#FFEBB2" d="M144 658h105v110H144z"/>
  <path d="M193 658v110m0-110.49c-3.982-5.861-14.305-17.526-18.881-12.114-4.624 5.467 3.468 14.851 18.881 12.114Zm0 0c3.982-5.861 14.304-17.526 18.881-12.114 4.624 5.467-3.468 14.851-18.881 12.114Z" stroke="#F74A44" stroke-width="12"/>
  <path d="M491.685 647.4H619.4L588.715 768H461z" fill="#FF9C42"/>
  <path d="M548.3 645.15 525.35 767.1m22.95-122.57c-8.703-12.812-31.265-38.307-41.268-26.479-10.107 11.95 7.58 32.46 41.268 26.479Zm0 0c8.703-12.812 31.266-38.307 41.269-26.479 10.106 11.95-7.58 32.46-41.269 26.479Z" stroke="#FFC000" stroke-width="12"/>
  <path d="M0 832h144v144H0l33.488-72zm755 144H611V832h144l-33.488 72z" fill="#F54F47"/>
  <path d="M144 924v52l-72-52zm467-2v54l75-54z" fill="#CB3B34"/>
  <path fill="#F54F47" d="M72 754h584v168H72z"/>
  <path d="M288.778 824h-10.561v-21.567h-19.79V824h-10.596v-49.971h10.596v19.585h19.79v-19.585h10.561zm43.338 0-3.623-11.895h-18.218L306.652 824h-11.416l17.637-50.176h12.954L343.532 824zm-6.153-20.781-3.623-11.621q-.342-1.162-.923-2.974a335 335 0 0 0-1.127-3.726 89 89 0 0 1-.889-3.315 79 79 0 0 1-.957 3.486 343 343 0 0 1-1.128 3.897q-.548 1.846-.786 2.632l-3.589 11.621zm39.954-29.19q9.673 0 14.116 4.17 4.443 4.136 4.443 11.416 0 3.282-.991 6.289-.991 2.975-3.247 5.298-2.221 2.324-5.947 3.692-3.726 1.332-9.194 1.333h-4.546V824h-10.596v-49.971zm-.547 8.682h-4.819v14.834h3.486q2.974 0 5.161-.786t3.384-2.461 1.196-4.307q0-3.691-2.051-5.469-2.05-1.81-6.357-1.811m44.602-8.682q9.673 0 14.116 4.17 4.444 4.136 4.444 11.416 0 3.282-.992 6.289-.99 2.975-3.247 5.298-2.221 2.324-5.947 3.692-3.726 1.332-9.194 1.333h-4.546V824H394.01v-49.971zm-.547 8.682h-4.819v14.834h3.486q2.974 0 5.161-.786 2.188-.786 3.384-2.461 1.197-1.675 1.196-4.307 0-3.691-2.05-5.469-2.052-1.81-6.358-1.811m44.192 11.894 10.425-20.576h11.416l-16.577 30.523V824h-10.528v-19.106l-16.577-30.865h11.484zm-266.366 51.424h15.552q9.981 0 15.108 2.803t5.127 9.844q0 2.837-.923 5.127-.89 2.29-2.598 3.759-1.709 1.47-4.17 1.915v.341q2.495.513 4.512 1.778 2.016 1.23 3.213 3.623 1.23 2.358 1.23 6.289 0 4.545-2.221 7.793-2.223 3.246-6.358 4.99-4.101 1.709-9.775 1.709h-18.697zm10.596 19.79H204q4.614 0 6.391-1.435 1.777-1.47 1.777-4.307 0-2.871-2.119-4.101-2.085-1.266-6.631-1.265h-5.571zm0 8.409v13.022h6.904q4.786 0 6.666-1.846 1.88-1.845 1.879-4.956 0-1.846-.82-3.247t-2.768-2.187q-1.915-.786-5.298-.786zM234.383 896v-49.971h10.595V896zm37.834-49.971q6.803 0 11.211 1.641 4.443 1.641 6.597 4.956 2.153 3.315 2.153 8.374 0 3.418-1.299 5.981t-3.418 4.341a20.2 20.2 0 0 1-4.58 2.906L297.578 896h-11.757l-11.929-19.175h-5.64V896h-10.595v-49.971zm-.752 8.682h-3.213v13.501h3.418q5.264 0 7.52-1.743 2.29-1.778 2.29-5.196 0-3.554-2.461-5.058-2.427-1.504-7.554-1.504M323.245 896h-10.596v-41.152H299.08v-8.819h37.734v8.819h-13.569zm62.307 0H374.99v-21.567H355.2V896h-10.595v-49.971H355.2v19.585h19.79v-19.585h10.562zm54.206-25.464q0 8.442-3.247 14.116-3.213 5.64-9.331 8.511Q421.062 896 412.449 896h-14.151v-49.971h15.689q7.861 0 13.638 2.803 5.775 2.77 8.955 8.237 3.178 5.434 3.178 13.467m-11.006.274q0-5.537-1.64-9.092-1.606-3.59-4.785-5.298-3.145-1.709-7.793-1.709h-5.64v32.539h4.546q7.758 0 11.518-4.136 3.794-4.135 3.794-12.304M480.806 896l-3.623-11.895h-18.218L455.342 896h-11.416l17.636-50.176h12.955L492.222 896zm-6.153-20.781-3.623-11.621q-.341-1.162-.923-2.974-.546-1.845-1.128-3.726a91 91 0 0 1-.888-3.315 79 79 0 0 1-.957 3.486 365 365 0 0 1-1.914 6.529l-3.589 11.621zm39.544-8.614 10.424-20.576h11.416l-16.577 30.523V896h-10.527v-19.106l-16.577-30.865h11.484z" fill="#fff"/>
  <path d="M347.913 155.456s124.786 112.689 353.122 94.619" stroke="#000" stroke-width="4"/>
  <path d="M484.769 238.856c-.81-2.978 1.914-5.713 4.895-4.914l48.319 12.947c2.981.799 3.973 4.529 1.783 6.703l-35.276 35.014c-2.176 2.16-5.873 1.17-6.678-1.789z" fill="#FFEBB2"/>
  <path d="M416.115 213.079c-.392-3.061 2.683-5.394 5.525-4.192l46.075 19.48c2.842 1.202 3.311 5.033.842 6.884l-39.763 29.821c-2.453 1.84-5.978.349-6.367-2.692zm207.172 51.565c-1.553-2.667.371-6.013 3.457-6.013h50.023c3.086 0 5.01 3.346 3.457 6.013l-25.011 42.951c-1.543 2.65-5.371 2.65-6.913 0z" fill="#4CB4FA"/>
  <path d="M349.397 173.34c.124-3.083 3.545-4.87 6.147-3.211l42.178 26.896c2.602 1.659 2.425 5.514-.318 6.928l-44.182 22.767c-2.725 1.405-5.953-.653-5.829-3.717zm204.133 82.654c-1.173-2.854 1.191-5.905 4.248-5.482l49.552 6.858c3.056.423 4.503 4.002 2.599 6.43l-30.663 39.117c-1.892 2.413-5.683 1.888-6.848-.948z" fill="#E87461"/>
  <circle cx="640.792" cy="488.791" r="9.623" transform="rotate(-97.462 640.792 488.791)" fill="#36B27B"/>
  <circle cx="513.459" cy="329.791" r="9.623" transform="rotate(-97.462 513.459 329.791)" fill="#FD7BAC"/>
  <path d="M556.031 427.884s15.508 33.512 34.619 21.251c19.11-12.261-.835-59.214-14.262-50.312-13.428 8.902 37.821 44.674 44.767 6.726s-37.849-49.228-40.14-35.785 37.898 26.873 54.867-5.509" stroke="#FF9C42" stroke-width="8" stroke-miterlimit="10"/>
  <path d="M642.389 428.735s6.268-3.205 12.618-10.029c6.351-6.825 9.097-13.307 9.097-13.307" stroke="#4CB4FA" stroke-width="8"/>
  <path d="M503.45 378.416 487 359.34" stroke="#36B27B" stroke-width="8"/>
  <circle cx="81.894" cy="524.583" r="9.623" transform="rotate(35.536 81.894 524.583)" fill="#36B27B"/>
  <path d="M116.452 320.219s-34.944 11.937-24.738 32.22c10.207 20.282 58.979 5.332 51.523-8.949s-48.367 32.966-11.348 43.824 52.9-32.522 39.768-36.199-30.671 34.897-.231 55.143" stroke="#B572ED" stroke-width="8" stroke-miterlimit="10"/>
  <path d="M48.845 486s5.353 4.572 14.084 7.84 15.77 3.333 15.77 3.333" stroke="#FF9C42" stroke-width="8"/>
  <path d="M194.608 287.473s-2.53 6.569-2.706 15.89 2.104 15.981 2.104 15.981" stroke="#4CB4FA" stroke-width="8"/>
  <path d="m104.942 231.549 11.634 22.341" stroke="#FD7BAC" stroke-width="8"/>
  <path fill="#FFC98D" d="M266.53 681.607h183.231V754H266.53z"/>
  <path d="M423.217 645.247c-12.72 0-117.423.356-130.511.356-14.458 0-26.176 11.718-26.176 25.808v28.098c4.014 2.496 8.748 4.634 13.088 4.634 8.441 0 18.425-8.069 21.554-11.178a6.55 6.55 0 0 1 9.239 0c2.785 3.489 13.133 11.178 21.558 11.178s18.426-8.069 21.555-11.178a6.55 6.55 0 0 1 9.239 0c2.785 3.489 13.133 11.178 21.558 11.178s18.426-8.069 21.554-11.178a6.55 6.55 0 0 1 9.24 0c2.785 3.489 13.133 11.178 21.558 11.178 4.339 0 9.076-2.138 13.088-4.634v-28.086c0-14.11-11.738-26.176-26.544-26.176" fill="#FDF8E6"/>
  <path d="M345.057 619.44c0-7.229 5.86-13.088 13.088-13.088s13.088 5.859 13.088 13.088v35.992h-26.176z" fill="#F54F47"/>
  <path d="M374.505 583.092c0 9.035-7.325 16.348-16.359 16.348-9.039 0-16.36-6.957-16.36-15.992S358.146 554 358.146 554s16.359 20.057 16.359 29.092" fill="#FFEBB2"/>
</svg>
