<svg width="256" height="330.935" viewBox="0 0 256 330.935" fill="none" xmlns="http://www.w3.org/2000/svg">
  <mask id="a" style="mask-type:alpha" maskUnits="userSpaceOnUse" x="72" y="274" width="584" height="485">
    <path fill="#D9D9D9" d="M24.413 92.906h198.019v164.45H24.413z"/>
  </mask>
  <g mask="url(#a)">
    <path d="M86.604 211.985c4.644-3.792 6.411-8.82 5.925-14.111-.478-5.192-3.103-10.541-7.014-15.332-3.897-4.772-11.175-11.355-18.488-15.964-3.655-2.303-7.438-4.191-10.901-5.073-3.412-.869-6.978-.868-9.657 1.32-2.676 2.184-3.406 5.683-3.256 9.211.151 3.582 1.217 7.686 2.717 11.749 3.002 8.128 7.945 16.622 11.849 21.402 3.923 4.805 8.696 8.405 13.739 9.866 5.129 1.486 10.449.719 15.088-3.068Z" fill="#FFC000" stroke="#D39C28" stroke-width="4.069"/>
    <path d="M87.631 214.536c7.851-6.194 8.823-15.108 6.747-22.616-1.036-3.747-2.841-7.223-5.003-9.989-2.139-2.736-4.752-4.937-7.486-5.891-.694-.242-1.401-.228-1.98-.15-.6.081-1.224.254-1.84.473-1.233.438-2.642 1.135-4.12 1.98-2.967 1.697-6.442 4.127-9.733 6.726-3.291 2.598-6.463 5.416-8.805 7.909-1.166 1.241-2.173 2.451-2.888 3.547a9.4 9.4 0 0 0-.891 1.677c-.212.543-.393 1.224-.324 1.953.274 2.908 1.82 5.965 4.005 8.67 2.21 2.735 5.204 5.275 8.639 7.127 6.879 3.709 15.837 4.773 23.68-1.416Z" fill="#fff" stroke="#CCC" stroke-width="4.069"/>
    <path d="M153.959 213.008c4.309 4.168 9.51 5.334 14.707 4.231 5.1-1.082 10.105-4.316 14.405-8.762 4.284-4.428 9.968-12.427 13.689-20.23 1.859-3.899 3.291-7.878 3.762-11.42.464-3.49.044-7.031-2.442-9.436-2.483-2.402-6.043-2.717-9.529-2.155-3.54.569-7.49 2.109-11.349 4.074-7.72 3.933-15.577 9.837-19.868 14.273-4.312 4.458-7.329 9.621-8.189 14.8-.875 5.268.51 10.461 4.814 14.625Z" fill="#FFC000" stroke="#D39C28" stroke-width="4.069"/>
    <path d="M151.545 214.327c7.071 7.071 16.037 6.993 23.251 4.052 3.599-1.468 6.84-3.667 9.334-6.139 2.467-2.444 4.346-5.297 4.974-8.124.159-.718.062-1.419-.083-1.984-.151-.586-.396-1.186-.685-1.772-.579-1.173-1.437-2.491-2.449-3.859-2.033-2.748-4.853-5.914-7.819-8.879s-6.136-5.784-8.885-7.819c-1.369-1.013-2.688-1.872-3.861-2.453a9.4 9.4 0 0 0-1.77-.689c-.564-.147-1.262-.247-1.977-.093-2.856.612-5.711 2.506-8.141 4.993-2.458 2.515-4.629 5.786-6.066 9.414-2.878 7.266-2.886 16.287 4.179 23.351Z" fill="#fff" stroke="#CCC" stroke-width="4.069"/>
    <path d="M165.722 228.1c0 20.018-19.963 31.63-44.588 31.63s-44.588-11.612-44.588-31.63c0-34.581 19.963-58.225 44.588-58.225s44.588 26.78 44.588 58.224Z" fill="#fff" stroke="#CCC" stroke-width="4.069"/>
    <path d="M88.047 219.249a1.37 1.37 0 0 1-1.605 1.216l-9.959-1.8a1.34 1.34 0 0 1-1.103-1.453c.324-3.21 1.293-12.151 2.775-20.353s3.704-16.916 4.524-20.036a1.34 1.34 0 0 1 1.542-.975l9.959 1.8a1.37 1.37 0 0 1 1.078 1.7c-.843 3.161-2.887 11.135-4.452 19.797s-2.442 16.848-2.759 20.104Zm58.67-39.819a1.37 1.37 0 0 1 1.064-1.709l9.945-1.878a1.34 1.34 0 0 1 1.55.963c.844 3.114 3.135 11.811 4.682 20s2.586 17.123 2.936 20.33c.076.7-.4 1.331-1.091 1.462l-9.944 1.878a1.37 1.37 0 0 1-1.614-1.203c-.342-3.254-1.284-11.431-2.918-20.081s-3.742-16.608-4.61-19.762Z" fill="#45566A" stroke="#394457" stroke-width="4.069"/>
    <path d="M121.153 261.788c12.612 0 24.194-2.96 32.69-8.636 8.551-5.712 13.977-14.198 13.977-24.971 0-7.908-.959-13.383-3.196-16.943-2.39-3.804-6.002-5.095-10.177-5.244-3.547-.127-7.813.56-12.501 1.316q-.924.15-1.869.299c-5.525.877-11.82 1.769-18.923 1.769-7.066 0-13.333-1.077-18.838-2.193q-1.453-.296-2.859-.593c-4.277-.897-8.204-1.72-11.491-1.773-2.057-.034-4.039.222-5.83 1.035-1.828.829-3.322 2.178-4.474 4.099-2.221 3.704-3.174 9.565-3.174 18.228 0 10.773 5.426 19.259 13.977 24.971 8.496 5.675 20.078 8.636 32.69 8.636Z" fill="#45566A" stroke="#394457" stroke-width="4.069"/>
    <path d="M91.653 216.721a411 411 0 0 1-1.837-2.946 1.36 1.36 0 0 0-1.162-.644q-1.768.01-3.54.011a1.36 1.36 0 0 0-1.168.668l-.444.754q-.64 1.09-1.283 2.174a1.36 1.36 0 0 0 .011 1.403 883 883 0 0 0 1.833 2.963 1.36 1.36 0 0 0 1.149.642l3.601.011a1.36 1.36 0 0 0 1.18-.681q.851-1.477 1.693-2.965a1.36 1.36 0 0 0-.033-1.39Zm68.892 0q-.926-1.471-1.837-2.946a1.36 1.36 0 0 0-1.162-.644q-1.767.01-3.539.011a1.36 1.36 0 0 0-1.168.668l-.444.754q-.64 1.09-1.283 2.174a1.36 1.36 0 0 0 .011 1.403 883 883 0 0 0 1.833 2.963 1.36 1.36 0 0 0 1.148.642l3.601.011a1.36 1.36 0 0 0 1.18-.681q.85-1.477 1.693-2.965a1.36 1.36 0 0 0-.033-1.39Z" fill="#fff" stroke="#CCC" stroke-width="2.034"/>
    <path d="M117.7 241.341h-6.131a.84.84 0 0 1-.728-.419l-3.063-5.301a.83.83 0 0 1 0-.839l3.063-5.301a.84.84 0 0 1 .728-.419h6.131c.302 0 .577.162.728.419l3.063 5.301a.83.83 0 0 1 0 .839l-3.063 5.301a.84.84 0 0 1-.728.419m-5.644-1.677h5.157l2.581-4.462-2.581-4.462h-5.157l-2.581 4.462z" fill="#4CB4FA"/>
    <path d="M126.894 236.067h-6.131a.84.84 0 0 1-.728-.419l-3.063-5.301a.83.83 0 0 1 0-.839l3.063-5.301a.84.84 0 0 1 .728-.419h6.131c.302 0 .577.162.728.419l3.063 5.301a.83.83 0 0 1 0 .839l-3.063 5.301a.83.83 0 0 1-.728.419m-5.644-1.677h5.156l2.581-4.462-2.581-4.462h-5.157l-2.581 4.462z" fill="#FFC000"/>
    <path d="M126.894 246.635h-6.131a.84.84 0 0 1-.728-.419l-3.063-5.301a.83.83 0 0 1 0-.839l3.063-5.301a.84.84 0 0 1 .728-.419h6.131c.302 0 .577.162.728.419l3.063 5.301a.83.83 0 0 1 0 .839l-3.063 5.301a.83.83 0 0 1-.728.419m-5.644-1.677h5.156l2.581-4.462-2.581-4.462h-5.157l-2.581 4.462z" fill="#fff"/>
    <path d="M99.217 240.628c-5.187-1.39-10.323-.934-14.471 1.755-4.159 2.696-7.006 7.429-8.024 13.947-.744 4.761.569 10.255 2.728 14.695 1.09 2.242 2.435 4.3 3.936 5.928 1.478 1.603 3.236 2.927 5.175 3.446 1.915.513 4.011.29 6.015-.321 2.023-.617 4.093-1.671 6.047-3.002 3.888-2.648 7.557-6.561 9.595-10.849 2.771-5.829 2.798-11.518.645-16.167-2.146-4.632-6.358-8.015-11.646-9.432Z" fill="#FFC000" stroke="#D39C28" stroke-width="4.069"/>
    <path d="M73.001 254.551c2.117-20.668 10.354-20.906 25.583-16.825 15.23 4.081 24.308 8.582 15.001 27.7-3.781 7.767-15.696 4.079-22.992 2.124s-18.462-4.505-17.592-12.999" fill="#45566A"/>
    <path d="M115.351 261.425a55 55 0 0 1-1.766 4c-3.781 7.767-15.696 4.079-22.992 2.124s-18.462-4.505-17.592-12.999c.708-6.915 2.102-11.543 4.212-14.487" stroke="#394457" stroke-width="4.069" stroke-linecap="round"/>
    <path d="M112.007 265.495a1.364 1.364 0 0 1 .893 2.015l-2.413 4.187a1.34 1.34 0 0 1-1.435.649c-2.487-.516-9.529-2.023-17.128-4.058-7.571-2.029-14.846-4.356-17.459-5.207a1.34 1.34 0 0 1-.918-1.407l.443-4.726a1.367 1.367 0 0 1 1.78-1.17c3.11.999 10.297 3.257 18.075 5.342 7.648 2.049 14.886 3.667 18.161 4.376Z" fill="#fff" stroke="#CCC" stroke-width="4.069"/>
    <path d="M144.179 241.017c5.256-1.408 10.451-1.002 14.642 1.625 4.213 2.64 7.082 7.319 8.07 13.786.723 4.728-.661 10.187-2.887 14.596-1.125 2.228-2.507 4.273-4.041 5.892-1.513 1.596-3.296 2.906-5.246 3.429-3.763 1.008-8.352-.67-12.182-3.195-3.931-2.592-7.638-6.44-9.683-10.684-2.783-5.772-2.764-11.426-.536-16.051 2.216-4.6 6.51-7.962 11.863-9.397Z" fill="#FFC000" stroke="#D39C28" stroke-width="4.069"/>
    <path d="M170.719 254.62c-1.993-20.438-10.361-20.611-25.869-16.455s-24.767 8.679-15.455 27.528c3.783 7.658 15.919 3.917 23.348 1.927 7.429-1.991 18.795-4.6 17.976-12.999" fill="#45566A"/>
    <path d="M165.298 239.554c2.742 2.758 4.647 7.128 5.421 15.066.819 8.399-10.548 11.009-17.976 12.999s-19.565 5.731-23.348-1.926c-.907-1.837-1.338-2.69-1.904-4.268" stroke="#394457" stroke-width="4.069" stroke-linecap="round"/>
    <path d="M130.978 265.754a1.366 1.366 0 0 0-.886 2.024l2.398 4.084a1.34 1.34 0 0 0 1.433.639c2.511-.526 9.698-2.074 17.459-4.153 7.73-2.071 15.16-4.436 17.803-5.294a1.34 1.34 0 0 0 .921-1.401l-.409-4.629a1.366 1.366 0 0 0-1.777-1.178c-3.154 1.008-10.493 3.304-18.433 5.432-7.804 2.091-15.186 3.751-18.509 4.475Z" fill="#fff" stroke="#CCC" stroke-width="4.069"/>
    <path d="M122.402 197.001c10.761 0 19.118-2.985 25.063-7.955 5.944-4.97 9.318-11.793 10.342-19.173.721-5.192-.171-12.181-2.026-19.591-1.868-7.461-4.764-15.549-8.215-23.022-3.446-7.461-7.486-14.394-11.674-19.498-2.093-2.552-4.272-4.705-6.484-6.235-2.203-1.523-4.573-2.518-7.006-2.518-2.406 0-4.753.935-6.945 2.394-2.198 1.463-4.353 3.526-6.42 5.982-4.134 4.911-8.098 11.613-11.48 18.92-3.388 7.321-6.23 15.334-8.084 22.915-1.846 7.55-2.748 14.813-2.146 20.584.797 7.64 4.089 14.495 10.026 19.424 5.927 4.92 14.311 7.773 25.049 7.773Z" fill="#FFC000" stroke="#D39C28" stroke-width="4.069"/>
    <path d="M100.088 169.791c4.477 0 8.107-2.492 8.107-5.566s-3.629-5.566-8.107-5.566-8.107 2.492-8.107 5.566 3.629 5.566 8.107 5.566m44.84 0c4.477 0 8.107-2.492 8.107-5.566s-3.629-5.566-8.107-5.566-8.107 2.492-8.107 5.566 3.629 5.566 8.107 5.566" fill="#E4A92D"/>
    <path d="M134.541 158.28c4.197 0 7.6-3.738 7.6-8.349s-3.403-8.349-7.6-8.349-7.6 3.738-7.6 8.349 3.403 8.349 7.6 8.349" fill="#fff"/>
    <path d="M134.541 159.545c-4.889 0-8.866-4.311-8.866-9.614s3.977-9.614 8.866-9.614 8.866 4.311 8.866 9.614-3.977 9.614-8.866 9.614m0-16.698c-3.491 0-6.333 3.177-6.333 7.084s2.842 7.084 6.333 7.084 6.333-3.177 6.333-7.084-2.842-7.084-6.333-7.084" fill="#534741"/>
    <path d="M134.683 158.614c3.28 0 5.938-2.832 5.938-6.325s-2.659-6.325-5.938-6.325-5.938 2.832-5.938 6.325 2.659 6.325 5.938 6.325" fill="#534741"/>
    <path d="M133.897 150.032c.979 0 1.773-.628 1.773-1.402s-.794-1.402-1.773-1.402-1.773.628-1.773 1.402.794 1.402 1.773 1.402m-23.647 8.248c4.197 0 7.6-3.738 7.6-8.349s-3.403-8.349-7.6-8.349-7.6 3.738-7.6 8.349 3.403 8.349 7.6 8.349" fill="#fff"/>
    <path d="M110.249 159.545c-4.889 0-8.866-4.311-8.866-9.614s3.977-9.614 8.866-9.614 8.867 4.311 8.867 9.614-3.977 9.614-8.867 9.614m0-16.698c-3.491 0-6.333 3.177-6.333 7.084s2.842 7.084 6.333 7.084 6.334-3.177 6.334-7.084-2.842-7.084-6.334-7.084" fill="#534741"/>
    <path d="M110.391 158.614c3.28 0 5.938-2.832 5.938-6.325s-2.659-6.325-5.938-6.325-5.938 2.832-5.938 6.325 2.658 6.325 5.938 6.325" fill="#534741"/>
    <path d="M109.606 150.032c.98 0 1.773-.628 1.773-1.402s-.794-1.402-1.773-1.402-1.773.628-1.773 1.402.794 1.402 1.773 1.402" fill="#fff"/>
    <path d="M140.553 135.297c-2.882-2.204-7.399-3.663-11.528-3.357m-26.109 3.347c2.361-1.864 7.29-3.388 10.85-3.388" stroke="#534741" stroke-width="2.713" stroke-linecap="round"/>
    <path d="M110.376 173.944s1.526 7.629 12.037 7.629 12.037-7.629 12.037-7.629" stroke="#534741" stroke-width="4.069" stroke-linecap="round"/>
  </g>
  <path d="M179.944 196.323h41.131l-7.016 61.033h-41.132z" fill="#F74A44"/>
  <path d="m199.714 196.493-4.408 60.863" stroke="#4CB4FA" stroke-width="4.069"/>
  <path d="M21.362 208.53H74.03l8.365 51.878H29.727z" fill="#FCA9BB"/>
  <path d="M199.714 196.259c-3.279-4.827-11.779-14.432-15.548-9.976-3.807 4.502 2.856 12.229 15.548 9.976Zm0 0c3.279-4.827 11.779-14.432 15.548-9.976 3.807 4.502-2.856 12.229-15.548 9.976Z" stroke="#4CB4FA" stroke-width="4.069"/>
  <path d="M49.151 211.022c-3.532-5.201-12.691-15.549-16.751-10.748-4.102 4.851 3.077 13.176 16.751 10.748Z" stroke="#005A9E" stroke-width="4.069"/>
  <path d="M49.151 211.022c3.532-5.201 12.691-15.549 16.751-10.748 4.102 4.851-3.077 13.176-16.751 10.748Zm.366.252 4.201 48.769" stroke="#005A9E" stroke-width="4.069"/>
  <path fill="#FFEBB2" d="M48.826 223.11h35.603v37.298H48.826z"/>
  <path d="M65.441 223.11v37.298m0-37.464c-1.35-1.987-4.85-5.943-6.402-4.108-1.568 1.854 1.176 5.036 6.402 4.108Zm0 0c1.35-1.987 4.85-5.943 6.402-4.108 1.568 1.854-1.176 5.036-6.402 4.108Z" stroke="#F74A44" stroke-width="4.069"/>
  <path d="M166.717 219.516h43.305l-10.405 40.892h-43.304z" fill="#FF9C42"/>
  <path d="m185.914 218.753-7.782 41.35m7.782-41.56c-2.951-4.344-10.601-12.989-13.993-8.978-3.427 4.052 2.57 11.006 13.993 8.978Zm0 0c2.951-4.344 10.601-12.989 13.993-8.978 3.427 4.052-2.57 11.006-13.993 8.978Z" stroke="#FFC000" stroke-width="4.069"/>
  <path d="M0 282.109h48.826v48.826H0l11.355-24.413zm256 48.826h-48.826v-48.826H256l-11.355 24.413z" fill="#F54F47"/>
  <path d="M48.826 313.303v17.632l-24.413-17.632zm158.348-.678v18.31l25.43-18.31z" fill="#CB3B34"/>
  <path fill="#F54F47" d="M24.413 255.661h198.019v56.964H24.413z"/>
  <path d="M97.917 279.396h-3.581v-7.313h-6.71v7.313h-3.593v-16.944h3.593v6.641h6.71v-6.641h3.581zm14.695 0-1.228-4.033h-6.177l-1.23 4.033h-3.871l5.98-17.013h4.392l6.004 17.013zm-2.086-7.046-1.228-3.94q-.116-.394-.313-1.008a114 114 0 0 0-.382-1.263 30 30 0 0 1-.301-1.124 27 27 0 0 1-.324 1.182 116 116 0 0 1-.382 1.321q-.186.626-.267.892l-1.217 3.94zm13.547-9.898q3.28 0 4.786 1.414 1.507 1.402 1.507 3.871 0 1.113-.336 2.132-.336 1.009-1.101 1.796-.753.788-2.016 1.252-1.263.452-3.117.452h-1.541v6.027h-3.593v-16.944zm-.185 2.944h-1.634v5.03h1.182q1.008 0 1.75-.267t1.147-.834.406-1.46q0-1.252-.695-1.854-.695-.614-2.155-.614m15.121-2.945q3.28 0 4.786 1.414 1.507 1.402 1.507 3.871 0 1.113-.336 2.132-.336 1.009-1.101 1.796-.753.788-2.016 1.252-1.263.452-3.117.452h-1.541v6.027h-3.594v-16.944zm-.185 2.944h-1.634v5.03h1.182q1.008 0 1.75-.267t1.147-.834q.406-.568.406-1.46 0-1.252-.695-1.854-.696-.614-2.156-.614m14.984 4.032 3.535-6.977h3.871l-5.621 10.35v6.594h-3.57v-6.478l-5.621-10.465h3.894zm-90.317 17.436h5.273q3.384 0 5.123.95t1.738 3.338q0 .962-.313 1.738-.302.776-.881 1.275t-1.414.649v.116q.846.174 1.53.603.684.417 1.089 1.228.417.8.417 2.132 0 1.541-.753 2.642-.754 1.101-2.156 1.692-1.391.579-3.314.579h-6.34zm3.593 6.71h2.086q1.564 0 2.167-.487.603-.498.603-1.46 0-.973-.718-1.391-.707-.429-2.248-.429h-1.889zm0 2.851v4.415h2.341q1.623 0 2.26-.626t.637-1.68q0-.626-.278-1.101t-.939-.742q-.649-.267-1.796-.267zm12.388 7.383v-16.944h3.592v16.944zm12.828-16.944q2.307 0 3.801.556 1.507.556 2.237 1.68t.73 2.839q0 1.159-.44 2.028t-1.159 1.472a7 7 0 0 1-1.553.985l4.984 7.384h-3.986l-4.045-6.502h-1.912v6.502h-3.592v-16.944zm-.255 2.944h-1.089v4.578h1.159q1.785 0 2.55-.591.776-.603.776-1.762 0-1.205-.834-1.715-.823-.51-2.561-.51m17.557 14h-3.593v-13.954h-4.601v-2.99h12.795v2.99h-4.601zm21.126 0h-3.581v-7.313h-6.71v7.313h-3.592v-16.944h3.592v6.641h6.71v-6.641h3.581zm18.38-8.634q0 2.862-1.101 4.786-1.089 1.912-3.164 2.886-2.074.962-4.995.962h-4.798v-16.944h5.32q2.665 0 4.624.95 1.958.939 3.036 2.793 1.078 1.843 1.078 4.566m-3.732.093q0-1.877-.556-3.083-.545-1.217-1.622-1.796-1.066-.579-2.642-.579h-1.912v11.033h1.541q2.631 0 3.905-1.402 1.286-1.402 1.286-4.172m17.65 8.541-1.228-4.033h-6.177l-1.229 4.033h-3.871l5.98-17.013h4.393l6.003 17.013zm-2.086-7.046-1.228-3.94q-.116-.394-.313-1.008-.185-.626-.382-1.263a31 31 0 0 1-.301-1.124 27 27 0 0 1-.324 1.182 124 124 0 0 1-.649 2.214l-1.217 3.94zm13.408-2.921 3.534-6.977h3.871l-5.621 10.35v6.594h-3.569v-6.478l-5.621-10.465h3.894z" fill="#fff"/>
  <path d="M117.968 52.711s42.312 38.21 119.734 32.083" stroke="#000" stroke-width="1.356"/>
  <path d="M164.372 80.99a1.356 1.356 0 0 1 1.66-1.666l16.384 4.39a1.357 1.357 0 0 1 .605 2.273L171.06 97.859a1.356 1.356 0 0 1-2.264-.607z" fill="#FFEBB2"/>
  <path d="M141.093 72.249a1.356 1.356 0 0 1 1.873-1.421l15.623 6.605a1.356 1.356 0 0 1 .285 2.334l-13.483 10.111a1.356 1.356 0 0 1-2.159-.913zm70.247 17.485a1.356 1.356 0 0 1 1.172-2.039h16.961a1.356 1.356 0 0 1 1.172 2.039l-8.481 14.564a1.356 1.356 0 0 1-2.344 0z" fill="#4CB4FA"/>
  <path d="M118.471 58.775a1.356 1.356 0 0 1 2.084-1.089l14.301 9.12c.882.563.822 1.87-.108 2.349l-14.981 7.72a1.356 1.356 0 0 1-1.976-1.26zm69.216 28.026a1.356 1.356 0 0 1 1.44-1.859l16.802 2.325a1.356 1.356 0 0 1 .881 2.18l-10.397 13.264a1.357 1.357 0 0 1-2.322-.321z" fill="#E87461"/>
  <path fill="#36B27B" d="M375.05 947.44a3.263 3.263 0 0 1 3.66 2.812 3.263 3.263 0 0 1-2.812 3.66 3.263 3.263 0 0 1-.847-6.471"/>
  <path fill="#FD7BAC" d="M340.985 691.348a3.263 3.263 0 0 1 3.66 2.811 3.263 3.263 0 0 1-2.812 3.66 3.263 3.263 0 0 1-.848-6.471"/>
  <path d="M188.535 145.084s5.258 11.363 11.738 7.206-.283-20.078-4.836-17.059 12.824 15.148 15.179 2.281-12.834-16.692-13.61-12.134 12.85 9.112 18.604-1.868" stroke="#FF9C42" stroke-width="2.713" stroke-miterlimit="10"/>
  <path d="M217.817 145.372s2.125-1.087 4.278-3.401 3.085-4.512 3.085-4.512" stroke="#4CB4FA" stroke-width="2.713"/>
  <path d="m170.706 128.311-5.578-6.469" stroke="#36B27B" stroke-width="2.713"/>
  <path fill="#36B27B" d="M242.018 212.884a3.263 3.263 0 0 1-4.552.76 3.263 3.263 0 0 1-.759-4.553 3.263 3.263 0 0 1 5.31 3.793"/>
  <path d="M39.486 108.578s-11.849 4.048-8.388 10.925 19.998 1.808 17.47-3.034-16.4 11.178-3.848 14.86 17.937-11.027 13.484-12.274-10.4 11.833-.078 18.697" stroke="#B572ED" stroke-width="2.713" stroke-miterlimit="10"/>
  <path d="M16.562 164.789s1.815 1.55 4.776 2.658 5.347 1.13 5.347 1.13" stroke="#FF9C42" stroke-width="2.713"/>
  <path d="M65.986 97.474s-.858 2.227-.918 5.388.713 5.419.713 5.419" stroke="#4CB4FA" stroke-width="2.713"/>
  <path d="m35.583 78.512 3.945 7.575" stroke="#FD7BAC" stroke-width="2.713"/>
  <path fill="#FFC98D" d="M90.373 231.114h62.129v24.547H90.373z"/>
  <path d="M143.501 218.786c-4.313 0-39.815.121-44.253.121-4.902 0-8.876 3.973-8.876 8.751v9.527c1.361.846 2.966 1.571 4.438 1.571 2.862 0 6.247-2.736 7.308-3.79a2.22 2.22 0 0 1 3.133 0c.944 1.183 4.453 3.79 7.31 3.79s6.248-2.736 7.309-3.79a2.22 2.22 0 0 1 3.133 0c.944 1.183 4.453 3.79 7.31 3.79s6.248-2.736 7.308-3.79a2.22 2.22 0 0 1 3.133 0c.944 1.183 4.453 3.79 7.31 3.79 1.471 0 3.077-.725 4.438-1.571v-9.523c0-4.784-3.98-8.876-9-8.876" fill="#FDF8E6"/>
  <path d="M116.999 210.035a4.438 4.438 0 0 1 8.876 0v12.204h-8.876z" fill="#F54F47"/>
  <path d="M126.984 197.711a5.544 5.544 0 0 1-5.547 5.543c-3.065 0-5.547-2.359-5.547-5.422s5.548-9.986 5.548-9.986 5.547 6.801 5.547 9.864" fill="#FFEBB2"/>
</svg>
