<svg width="122" height="125" viewBox="0 0 122 125" fill="none" xmlns="http://www.w3.org/2000/svg">
  <ellipse cx="57.653" cy="116.855" rx="41.98" ry="7.022" fill="#000" fill-opacity=".1"/>
  <path d="M64.689 24.133c-9.183.303-19.028 15.177-23.562 26-1.027 2.45-2.693 6.607-2.961 9.36-.384 3.932-.24 3.202-5.298 4.44-5.852 1.433-16.823-6.07-16.594 2.512.151 5.643 4.965 15.797 8.668 20.27 5.038 6.08 3.188 13.463 5.617 21.269 1.623 5.219 1.438 12.517 9.734 9.511 5.625-2.036 12.213-11.562 13.347-17.534-.04-.07-.023-.216 0 0 4.59 8.222 14.92 16.346 24.211 16.107 9.292-.239 4.73-5.112 3.19-9.441-2.037-5.733-7.48-15.663-1.242-17.028 6.289-1.37 13.565-5.865 15.804-11.202 2.715-6.472-9.515-5.056-15.807-7.66-4.578-1.893-5.317-2.573-3.963-6.466.666-1.913.851-6.02.868-8.273.081-10.059-3.003-29.034-12.012-31.865" fill="#FEBD33"/>
  <path d="M36.89 119.046c-.972 0-1.825-.202-2.572-.61-2.41-1.312-3.138-4.41-3.84-7.404-.221-.941-.448-1.913-.722-2.792-.938-3.014-1.251-5.925-1.554-8.74-.478-4.446-.929-8.642-3.91-12.244-3.887-4.693-8.706-15.014-8.86-20.786-.053-1.952.423-3.312 1.452-4.152 1.904-1.553 5.114-.795 8.511.012 2.62.62 5.329 1.264 7.271.789.787-.194 1.458-.34 2.001-.46 1.187-.262 1.973-.434 2.203-.7.238-.276.319-1.11.442-2.377l.017-.171c.274-2.795 1.855-6.82 3.023-9.604 4.39-10.48 14.488-26.188 24.309-26.514.095 0 .187.008.28.037 9.35 2.938 12.692 21.603 12.6 32.676-.009 1.012-.093 6.175-.916 8.545-.621 1.79-.713 2.666-.335 3.242.444.677 1.687 1.284 3.825 2.168 1.96.812 4.59 1.225 7.134 1.624 4.07.64 7.912 1.245 9.169 3.506.56 1.011.548 2.233-.042 3.637-2.435 5.804-10.266 10.363-16.4 11.705-.919.2-1.534.618-1.879 1.273-1.223 2.331.812 7.334 2.444 11.354.478 1.18.932 2.292 1.287 3.295.28.789.68 1.623 1.066 2.432 1.02 2.13 2.071 4.335 1.036 6.031-.823 1.349-2.748 2.017-6.065 2.101q-.21.005-.422.006c-8.925 0-18.522-7.216-23.504-14.829-2.012 6.141-8.032 14.267-13.37 16.2-1.376.497-2.6.75-3.68.75M19.92 63.102c-.825 0-1.514.146-1.976.522-.596.49-.87 1.405-.831 2.798.143 5.298 4.777 15.29 8.474 19.753 3.306 3.992 3.781 8.435 4.288 13.14.294 2.734.596 5.562 1.486 8.416.291.938.526 1.938.753 2.907.646 2.756 1.257 5.36 3.003 6.309 1.13.616 2.731.537 4.89-.247 5.26-1.907 11.597-10.98 12.773-16.736a.845.845 0 0 1 1.075-.93c.215.065.478.228.581.63 4.375 7.739 14.078 15.562 23.003 15.562q.195 0 .389-.006c3.26-.084 4.343-.753 4.674-1.298.556-.916-.294-2.696-1.12-4.421-.406-.848-.823-1.725-1.133-2.596-.345-.966-.79-2.064-1.263-3.224-1.855-4.57-3.962-9.748-2.376-12.776.58-1.106 1.593-1.826 3.006-2.135 5.72-1.25 12.994-5.43 15.211-10.71.383-.913.423-1.621.123-2.163-.86-1.545-4.47-2.113-7.962-2.66-2.642-.416-5.37-.843-7.515-1.73-4.66-1.928-6.03-2.936-4.436-7.523.571-1.643.8-5.337.82-8.003.04-4.595-.615-11.843-2.56-18.396-1.461-4.918-4.156-11.076-8.727-12.615-3.834.197-8.242 3.216-12.759 8.742-3.728 4.558-7.433 10.817-9.913 16.735-.646 1.545-2.62 6.25-2.9 9.116l-.016.168c-.344 3.523-.602 3.82-3.957 4.56-.56.123-1.195.263-1.962.449-2.332.573-5.242-.118-8.055-.784-1.808-.416-3.655-.854-5.088-.854" fill="#E4A92D"/>
  <path d="M73.933 105.292q-1.233-.004-2.466-.016l-1.063-.009a.42.42 0 0 1-.31-.14c-.874-.986-1.73-1.989-2.548-2.981a.43.43 0 0 1-.072-.41c.324-.904.685-1.845 1.105-2.882a.42.42 0 0 1 .42-.261c1.369.104 2.485.18 3.51.242a.44.44 0 0 1 .302.154c.683.846 1.477 1.832 2.283 2.792a.42.42 0 0 1 .079.399 71 71 0 0 0-.837 2.801.414.414 0 0 1-.403.311m-3.333-.865.876.009c.713.005 1.427.014 2.138.017q.329-1.173.688-2.304a209 209 0 0 1-2.026-2.483c-.898-.056-1.875-.123-3.03-.21a73 73 0 0 0-.896 2.339c.725.877 1.48 1.759 2.25 2.632m6.901 9.073q-.029.001-.061-.005c-.873-.127-1.825-.278-2.992-.478a.42.42 0 0 1-.294-.205c-.456-.8-.949-1.646-1.598-2.741a.42.42 0 0 1 .022-.464c.479-.66.969-1.359 1.495-2.135a.42.42 0 0 1 .428-.177c.924.186 2.018.405 3.132.613a.42.42 0 0 1 .274.182c.577.888 1.13 1.79 1.646 2.68a.42.42 0 0 1-.034.472 110 110 0 0 1-1.696 2.107.43.43 0 0 1-.322.151m-2.717-1.28c.97.165 1.79.295 2.544.407.456-.551.9-1.112 1.354-1.683-.436-.747-.898-1.5-1.38-2.241-.951-.18-1.88-.363-2.695-.528a89 89 0 0 1-1.19 1.699c.538.913.97 1.652 1.367 2.346m-6.776-2.194a.5.5 0 0 1-.103-.014q-1.255-.324-2.503-.663a.42.42 0 0 1-.263-.214l-.226-.444c-.303-.595-.608-1.188-.907-1.783a.43.43 0 0 1 .045-.453c.411-.522.82-1.047 1.209-1.561a.42.42 0 0 1 .442-.152q1.188.315 2.376.626c.11.028.201.101.257.2.412.727.849 1.483 1.296 2.244a.42.42 0 0 1-.03.472c-.474.61-.876 1.115-1.268 1.593a.43.43 0 0 1-.325.149m-2.208-1.441q1.025.276 2.054.545c.286-.349.58-.72.91-1.141-.367-.626-.725-1.25-1.07-1.854q-.968-.253-1.936-.511-.431.565-.884 1.14.392.77.783 1.543zm-28.424-1.734a.42.42 0 0 1-.313-.14 138 138 0 0 1-2.74-3.177.42.42 0 0 1-.092-.345c.207-1.133.44-2.279.688-3.41a.42.42 0 0 1 .398-.33q1.547-.047 3.095-.078a.46.46 0 0 1 .352.18c.697.991 1.417 1.983 2.142 2.946a.43.43 0 0 1 .08.318 55 55 0 0 0-.38 3.177.42.42 0 0 1-.344.376q-1.408.248-2.818.483zm-2.28-3.707c.797.955 1.617 1.904 2.44 2.831q1.134-.19 2.267-.388c.09-.927.201-1.842.33-2.73-.65-.865-1.293-1.756-1.923-2.643q-1.269.028-2.538.064a94 94 0 0 0-.576 2.866m2.759 13.412a.4.4 0 0 1-.226-.067l-2.572-1.657a.42.42 0 0 1-.194-.337c-.039-1-.1-1.989-.181-2.939a.42.42 0 0 1 .254-.424 79 79 0 0 0 2.533-1.126.42.42 0 0 1 .397.022q1.437.889 2.877 1.764a.42.42 0 0 1 .202.365 24 24 0 0 1-.213 2.779.42.42 0 0 1-.224.32c-.823.43-1.65.851-2.465 1.255a.4.4 0 0 1-.188.045m-2.16-2.314 2.188 1.41a127 127 0 0 0 2.043-1.042c.098-.792.154-1.523.174-2.225q-1.244-.757-2.483-1.523c-.683.318-1.38.627-2.073.925.064.8.114 1.623.15 2.455m8.156-.493a.4.4 0 0 1-.246-.079 85 85 0 0 0-1.537-1.09.42.42 0 0 1-.173-.258q-.24-1.133-.484-2.261a.42.42 0 0 1 .148-.419 62 62 0 0 1 1.352-1.05.42.42 0 0 1 .487-.012q.89.604 1.774 1.219a.43.43 0 0 1 .176.287q.157 1.08.297 2.163a.42.42 0 0 1-.168.393q-.414.307-.828.618l-.549.41a.44.44 0 0 1-.25.079m-1.167-1.767c.378.261.767.539 1.164.823l.302-.225q.317-.235.633-.472-.115-.862-.238-1.724-.68-.474-1.368-.941-.456.345-.89.691.2.926.397 1.848" fill="#E4A92D"/>
  <path d="M44.197 95.156c-6.154.284-12.06 3.048-17.816.028-2.752-1.44-1.47-5.534-2.768-7.438-2.058-3.008-6.297-5.792-5.234-9.306s3.44-5.048 4.976-8.017c1.537-2.97.216-5.399 3.636-7.643 2.58-1.694 3.593-1.4 7.497.879 4.347 2.536 11.82 6.885 17.66 8.042 1.008.2 4.176.528 5.253.528 9.376-.011 13.988-5.07 20.671-3.52 3.72.863 8.766-1.07 9.963 1.531 1.688 3.663-.649 6.374-.352 9.607.285 3.087 1.76 6.975-.655 9.986-1.864 2.323-3.8 1.357-5.684 2.846-1.192.94.145 4.196-2.334 4.744-5.186 1.149-11.397-.862-16.448-1.503-6.35-.803-12.21-1.048-18.365-.764" fill="#fff"/>
  <path d="M75.54 98.62c-2.841 0-5.788-.563-8.665-1.11-1.556-.295-3.026-.576-4.414-.753-6.322-.8-12.113-1.042-18.228-.761l-.039-.843.04.843c-1.825.084-3.673.398-5.46.705-4.196.716-8.534 1.458-12.785-.77-2.066-1.081-2.293-3.32-2.477-5.12-.107-1.037-.204-2.015-.596-2.588-.555-.812-1.282-1.61-2.052-2.455-1.964-2.157-4.192-4.601-3.294-7.573.677-2.239 1.845-3.719 2.975-5.154.759-.961 1.472-1.871 2.063-3.006.504-.975.669-1.916.831-2.823.305-1.728.621-3.514 3.09-5.135 2.936-1.927 4.293-1.53 8.38.857 4.074 2.38 11.661 6.809 17.399 7.944.937.185 4.027.51 5.085.51h.005c4.333-.005 7.683-1.145 10.638-2.15 3.342-1.138 6.496-2.214 10.227-1.346 1.32.306 2.871.227 4.371.149 2.552-.132 5.192-.267 6.166 1.848 1.147 2.489.627 4.618.168 6.497-.283 1.16-.552 2.256-.448 3.388.059.649.176 1.342.3 2.076.461 2.752.984 5.873-1.134 8.516-1.251 1.56-2.561 1.86-3.717 2.127-.775.18-1.444.334-2.102.85-.196.155-.257.818-.308 1.352-.114 1.233-.285 3.093-2.364 3.553-1.187.264-2.413.371-3.656.371m-26.476-4.422c4.475 0 8.897.292 13.607.888 1.439.182 2.933.466 4.514.766 3.972.756 8.08 1.54 11.648.748.8-.177.932-.736 1.056-2.065.084-.899.176-1.916.94-2.52.952-.752 1.914-.974 2.765-1.171 1.06-.244 1.9-.438 2.785-1.542 1.645-2.054 1.209-4.66.786-7.18-.129-.767-.249-1.489-.316-2.2-.132-1.415.185-2.702.487-3.943.43-1.767.84-3.433-.062-5.388-.464-1.008-2.031-1.003-4.556-.873-1.54.078-3.286.168-4.836-.192-3.263-.758-6.065.197-9.309 1.301-3.075 1.048-6.565 2.236-11.175 2.242h-.005c-1.153 0-4.391-.34-5.413-.543-6.017-1.19-13.761-5.71-17.92-8.14-3.834-2.239-4.453-2.323-6.616-.902-1.861 1.222-2.068 2.396-2.354 4.02-.173.986-.372 2.104-.993 3.306-.664 1.278-1.461 2.295-2.234 3.275-1.08 1.371-2.099 2.666-2.684 4.599-.62 2.05 1.103 3.94 2.925 5.944.775.85 1.576 1.73 2.197 2.64.635.93.761 2.171.882 3.37.162 1.613.319 3.136 1.584 3.799 3.75 1.966 7.623 1.303 11.726.604 1.836-.315 3.736-.638 5.665-.728a107 107 0 0 1 4.906-.115" fill="#CCC"/>
  <path d="M53.866 104.372c-1.69 1.632-2.82 3.533-3.795 5.634-.43.927-.78 2.135-1.85 2.312-1.335.222-1.97-.295-3.115-.896-5.617-2.958-11.205-3.64-17.57-4.576-1.133-.165-1.312-3.134-1.539-4.649-.389-2.57-2.203-5.775-1.752-8.736.372-2.449 1.967-2.587 2.93-5.432.848-2.511 1.89-6.331 2.667-9.736 1.095-4.787 2.483-10.674 3.099-15.888.036-.309-.443-1.1.375-1.247 1.228-.222 2.613-.772 3.747.22 1.133.994 1.07 2.974.65 4.286-1.179 3.665-4.78 9.688-.656 12.34 10.202 6.561 22.169 5.564 33.09 1.564 3.724-1.365 3.45-6.399 4.533-9.7.39-1.179.72-3.016 2.303-3.314 1.585-.297 3.026.89 4.212 1.663.79.514.023.995-.083 1.275-1.73 4.554-3.3 9.58-4.095 14.104-.604 3.439.168 6.394 1.184 9.163.778 2.124 2.69 1.916 3.47 3.514.944 1.933.767 3.958 1.296 5.778.314 1.073 1.215 2.576-.067 3.172-5.125 2.379-9.849 4.151-14.707 7.098-1.204.73-1.915 1.444-3.507 1.216-1.276-.182-2.56-1.255-3.484-2.281-2.09-2.323-4.316-4.716-6.616-6.778-.32-.286-.485-.331-.72-.106" fill="#45566A"/>
  <path d="M65.251 114.422q-.32 0-.688-.05c-1.607-.231-3.053-1.514-3.988-2.551-1.99-2.213-4.14-4.536-6.398-6.573-1.279 1.306-2.32 2.902-3.347 5.115a18 18 0 0 0-.177.402c-.394.913-.931 2.16-2.297 2.388-1.425.238-2.276-.234-3.177-.731q-.218-.121-.464-.253c-5.164-2.719-10.277-3.463-16.2-4.325l-1.102-.161c-1.59-.233-1.886-2.553-2.146-4.601a29 29 0 0 0-.101-.755c-.129-.854-.44-1.818-.767-2.837-.61-1.902-1.304-4.056-.985-6.152.23-1.506.876-2.3 1.5-3.067.518-.638 1.055-1.295 1.464-2.509.817-2.413 1.852-6.202 2.644-9.654l.194-.84c1.027-4.475 2.303-10.042 2.882-14.896l-.022-.099c-.067-.3-.193-.86.131-1.356.143-.217.426-.492.957-.59.194-.034.392-.079.591-.124 1.156-.256 2.591-.57 3.856.537 1.38 1.207 1.445 3.472.896 5.18-.232.718-.546 1.51-.879 2.345-1.634 4.107-2.68 7.382-.123 9.025 8.763 5.638 19.647 6.135 32.347 1.483 2.295-.84 2.796-3.438 3.325-6.185.196-1.014.398-2.062.7-2.983q.07-.219.143-.464c.366-1.219.92-3.061 2.804-3.415 1.713-.326 3.177.671 4.35 1.469q.241.165.472.317c.414.27.658.61.72 1.009.092.598-.26 1.033-.451 1.27l-.05.061c-1.358 3.579-3.15 8.874-4.03 13.893-.586 3.329.204 6.16 1.144 8.728.325.885.876 1.219 1.573 1.64.657.4 1.402.849 1.864 1.792.632 1.298.803 2.576.965 3.815.098.742.19 1.444.38 2.098.051.174.127.377.205.59.356.969 1.016 2.77-.725 3.579-1.433.666-2.843 1.286-4.209 1.887-3.577 1.576-6.957 3.068-10.42 5.166q-.287.178-.548.349c-.772.508-1.578 1.033-2.813 1.033M54.13 103.383c.294 0 .633.126 1.014.466 2.37 2.124 4.612 4.545 6.68 6.843 1.041 1.157 2.127 1.89 2.978 2.011 1.016.146 1.522-.185 2.362-.727q.28-.183.59-.374c3.555-2.154 6.983-3.666 10.613-5.267 1.357-.598 2.76-1.216 4.179-1.873.215-.102.313-.217-.146-1.467-.084-.23-.174-.472-.24-.702-.227-.778-.331-1.576-.434-2.348-.154-1.155-.297-2.245-.81-3.295-.243-.5-.677-.762-1.222-1.093-.781-.472-1.752-1.062-2.281-2.503-.971-2.654-1.878-5.868-1.223-9.6.91-5.178 2.75-10.613 4.136-14.26.059-.154.146-.277.23-.387l-.317-.213c-.968-.658-2.062-1.402-3.1-1.208-.818.154-1.14 1.028-1.506 2.247q-.078.266-.157.503c-.269.82-.453 1.77-.646 2.775-.569 2.944-1.212 6.284-4.397 7.45-6.034 2.21-11.788 3.294-17.111 3.23-6.183-.079-11.808-1.72-16.717-4.877-3.93-2.528-1.965-7.466-.529-11.07.322-.809.627-1.573.84-2.239.377-1.18.364-2.724-.4-3.393-.597-.522-1.3-.401-2.393-.16-.135.028-.266.059-.395.084.036.169.076.36.05.568-.585 4.96-1.88 10.604-2.922 15.14l-.193.837c-.8 3.503-1.858 7.357-2.69 9.818-.509 1.502-1.2 2.35-1.754 3.033-.568.7-.98 1.205-1.142 2.256-.26 1.702.342 3.57.924 5.38.35 1.086.68 2.112.828 3.103.037.236.07.506.107.795.098.775.358 2.815.76 3.152l1.064.154c6.074.885 11.318 1.649 16.74 4.503l.492.267c.828.458 1.242.685 2.093.545.431-.073.689-.598 1.033-1.396q.096-.227.196-.441c1.186-2.565 2.412-4.379 3.974-5.885.21-.205.493-.382.842-.382" fill="#394457"/>
  <path d="M53.906 104.416c-1.68 1.632-2.785 3.528-3.759 5.626-.428.925-.753 2.172-1.853 2.312-1.371.174-1.936-.323-3.151-.924-5.642-2.801-11.142-3.638-17.523-4.416-1.139-.137-1.304-3.087-1.503-4.592-.335-2.551-2.278-5.767-1.743-8.686.442-2.416 1.878-2.814 2.997-5.475.988-2.345.692-6.884 2.99-9.28 3.229-3.368 2.485-1.545 6.716.216 10.47 4.357 22.516 4.048 33.56 1.087 3.766-1.011 5.47-.896 5.888 3.323.316 3.205.49 6.517 1.65 9.146.89 2.014 2.688 1.963 3.51 3.511.997 1.871.767 3.969 1.355 5.7.347 1.019.92 2.702-.258 3.174-5.532 2.222-9.694 3.893-14.763 7.371-.727.5-1.97 1.505-3.347 1.101-1.105-.326-2.558-1.25-3.445-2.292-2.015-2.357-4.332-4.717-6.602-6.792-.314-.287-.487-.335-.72-.11" fill="#45566A"/>
  <path d="M65.335 114.548c-.29 0-.59-.039-.9-.132-1.313-.388-2.895-1.435-3.849-2.55a77 77 0 0 0-6.372-6.573c-1.26 1.292-2.262 2.845-3.309 5.103-.064.141-.128.293-.193.444-.386.916-.915 2.172-2.317 2.351-1.391.175-2.16-.233-3.053-.707q-.264-.14-.577-.298c-5.527-2.742-10.859-3.556-17.251-4.335-1.646-.199-1.928-2.676-2.158-4.665q-.041-.355-.078-.652c-.115-.859-.44-1.84-.784-2.882-.624-1.88-1.33-4.008-.951-6.067.282-1.537.915-2.365 1.584-3.242.495-.649 1.007-1.32 1.463-2.407.317-.75.499-1.835.692-2.983.38-2.264.811-4.829 2.465-6.554 2.34-2.438 3.099-2.64 5.088-1.354.61.394 1.369.885 2.556 1.38 11.964 4.98 24.56 3.32 33.021 1.05 2.382-.638 4-.843 5.217.003.982.683 1.514 1.933 1.724 4.05l.118 1.234c.249 2.696.509 5.486 1.466 7.654.38.865.963 1.239 1.637 1.674.641.413 1.366.882 1.845 1.781.66 1.239.836 2.556.993 3.716.104.762.199 1.478.414 2.107.353 1.034 1.179 3.458-.738 4.231-5.592 2.247-9.617 3.862-14.601 7.283l-.196.138c-.666.469-1.707 1.202-2.956 1.202M54.172 103.43c.29 0 .635.121 1.018.472a79 79 0 0 1 6.672 6.868c.74.862 2.049 1.736 3.048 2.031.868.256 1.769-.376 2.424-.84l.212-.149c5.136-3.525 9.446-5.255 14.903-7.449.46-.186-.022-1.596-.204-2.129-.269-.787-.38-1.621-.49-2.427-.15-1.118-.293-2.177-.811-3.15-.275-.513-.714-.797-1.27-1.157-.748-.483-1.68-1.084-2.265-2.41-1.07-2.421-1.34-5.348-1.604-8.18l-.114-1.224c-.151-1.54-.482-2.467-1.008-2.832-.677-.472-2.02-.244-3.829.24-8.71 2.336-21.698 4.038-34.099-1.122-1.326-.553-2.191-1.11-2.82-1.52-.617-.398-.882-.556-1.059-.513-.408.098-1.237.915-1.911 1.62-1.293 1.349-1.68 3.644-2.02 5.666-.21 1.247-.41 2.427-.801 3.36-.543 1.286-1.145 2.078-1.68 2.775-.612.806-1.057 1.385-1.267 2.525-.3 1.632.308 3.46.892 5.23.373 1.119.723 2.175.857 3.192q.04.308.081.679c.09.784.325 2.84.733 3.191 6.314.77 12.01 1.641 17.752 4.492q.334.168.619.32c.795.421 1.192.635 2.057.525.414-.053.646-.539.98-1.334q.107-.257.215-.497c.856-1.848 1.993-3.989 3.935-5.876.185-.172.476-.377.854-.377m-.266.986.584.607.003-.003z" fill="#394457"/>
  <path d="M73.247 86.25q-.713-1.19-1.416-2.383-1.355.009-2.715.009c-.445.792-.887 1.584-1.335 2.373q.703 1.196 1.408 2.388l2.754.008q.657-1.197 1.304-2.396" fill="#fff"/>
  <path d="M71.946 89.347c-.003 0 0 0 0 0l-2.757-.008a.7.7 0 0 1-.599-.343q-.71-1.194-1.41-2.39a.71.71 0 0 1-.006-.703l.773-1.37.562-1.003a.7.7 0 0 1 .61-.357c.901.003 1.805-.003 2.71-.008.24-.012.48.129.607.345q.702 1.192 1.413 2.377c.129.213.134.48.014.696q-.65 1.2-1.304 2.396a.7.7 0 0 1-.613.368m-2.357-1.413q.97.005 1.943.006l.912-1.674q-.507-.847-1.01-1.697-.953.005-1.906.006l-.361.643-.574 1.022q.496.852.996 1.694" fill="#CCC"/>
  <path d="M37.147 85.796c-.092-.899-.185-1.797-.271-2.696l-2.494-1.11q-1.116.788-2.236 1.57c.092.9.187 1.795.285 2.694q1.255.569 2.513 1.132a245 245 0 0 1 2.203-1.59" fill="#fff"/>
  <path d="M34.942 88.085a.7.7 0 0 1-.286-.062q-1.26-.563-2.516-1.132a.71.71 0 0 1-.408-.564q-.147-1.35-.286-2.697a.7.7 0 0 1 .297-.649q1.12-.782 2.233-1.567a.7.7 0 0 1 .686-.068l2.494 1.11c.229.104.389.32.41.573q.133 1.347.272 2.694a.7.7 0 0 1-.288.643l-2.203 1.584a.67.67 0 0 1-.405.135m-1.861-2.309 1.777.8q.773-.56 1.55-1.114a431 431 0 0 1-.19-1.888l-1.76-.784-1.576 1.107z" fill="#CCC"/>
  <path d="M67.27 39.542c-.4-.182-.815-.413-1.084-.056-.434.579-.436 1.079.132 1.683s1.489.685 2.407 1.047c.512.203 1.788.84 2.309 1.121.263.14 1.015.604 1.05.348.111-.867-.992-1.491-1.515-1.963a12.7 12.7 0 0 0-3.3-2.18m-9.843-1.99c.46-.022.938-.09 1.039.36.162.733-.073 1.174-.854 1.508-.78.335-1.71.07-2.729.082-.57.005-2.06.163-2.664.25-.305.042-1.22.219-1.148-.042.25-.88 1.579-1.076 2.276-1.34 1.38-.523 2.709-.75 4.08-.818m12.516 15.747a.55.55 0 0 1-.406-.177c-.366-.388-1.48-.922-2.555-1.438-1.629-.781-3.314-1.59-4.072-2.545-.398-.5-.224-.885-.132-1.028.359-.545 1.218-.843 8.122 1.056l.3.081a.56.56 0 0 1 .394.689.56.56 0 0 1-.685.396l-.305-.085c-3.896-1.073-5.651-1.376-6.44-1.432.758.632 2.093 1.272 3.297 1.85 1.276.613 2.379 1.141 2.885 1.68a.565.565 0 0 1-.022.796.54.54 0 0 1-.381.157M54.978 48.15c-.977 0-2.114-.149-3.225-.298-1.184-.157-2.407-.317-2.924-.19a.56.56 0 0 1-.675-.416.56.56 0 0 1 .414-.678c.72-.174 1.932-.014 3.334.172 1.32.174 2.787.368 3.767.253-.691-.385-2.329-1.09-6.177-2.323l-.3-.096a.563.563 0 0 1 .345-1.07l.294.095c6.82 2.186 7.38 2.905 7.383 3.56 0 .17-.062.587-.666.789-.437.149-.974.202-1.57.202" fill="#534741"/>
  <path d="M49.537 96.6a.42.42 0 0 1-.339-.175l-1.802-2.486a.42.42 0 0 1-.045-.418l1.243-2.81a.42.42 0 0 1 .338-.247l3.048-.323a.41.41 0 0 1 .384.172l1.802 2.486c.09.12.106.28.045.418l-1.246 2.81a.42.42 0 0 1-.338.246l-3.048.323zm-1.321-2.962 1.517 2.093 2.563-.272 1.047-2.365L51.826 91l-2.563.272z" fill="#4CB4FA"/>
  <path d="M53.827 93.482a.42.42 0 0 1-.338-.174l-1.803-2.486a.42.42 0 0 1-.045-.419l1.246-2.809a.42.42 0 0 1 .338-.247l3.048-.323a.42.42 0 0 1 .384.171l1.802 2.486c.09.121.106.281.045.419l-1.246 2.809a.42.42 0 0 1-.338.247l-3.048.323q-.02.004-.045.003m-1.32-2.958 1.516 2.093 2.564-.273 1.046-2.365-1.517-2.093-2.563.273z" fill="#FFC000"/>
  <path d="M54.384 98.76a.42.42 0 0 1-.338-.174L52.243 96.1a.42.42 0 0 1-.044-.418l1.242-2.81a.42.42 0 0 1 .339-.246l3.047-.323a.43.43 0 0 1 .384.171l1.802 2.486c.09.12.107.28.045.419l-1.242 2.808a.42.42 0 0 1-.34.248l-3.047.323q-.02.002-.045.002m-1.32-2.957 1.516 2.092 2.564-.272 1.047-2.365-1.517-2.093-2.564.272zm30.634 8.818c-3.19-.289-8.217.41-12.25 2.343-4.996 2.396-8.715 6.239-8.503 7.163.171.739 2.256 1.177 3.16.722.683-.343 1.296-1.247 1.853-1.733 2.432-2.124 4.721-3.236 6.546-3.84 7.428-2.458 8.894-.68 9.714-2.068.571-.966.717-2.474-.52-2.587" fill="#fff"/>
  <path d="M65.131 115.878c-.691 0-1.41-.161-1.937-.411-.744-.351-.99-.82-1.066-1.148-.425-1.852 4.57-6.009 8.959-8.113 4.327-2.076 9.49-2.711 12.686-2.421.672.062 1.2.402 1.484.96.475.936.125 2.147-.317 2.897-.596 1.008-1.469 1.019-2.575 1.036-1.315.02-3.515.051-7.598 1.402-2.186.724-4.29 1.96-6.258 3.677-.162.143-.35.351-.551.57-.42.463-.898.992-1.475 1.281-.383.188-.86.27-1.352.27m-1.284-1.961c.411.225 1.45.399 1.883.18.297-.149.66-.551.982-.908.224-.247.454-.503.692-.708 2.135-1.862 4.436-3.21 6.834-4.005 4.33-1.433 6.692-1.466 8.102-1.486 1.039-.014 1.061-.053 1.153-.211.317-.534.359-1.09.266-1.269-.005-.015-.02-.04-.14-.051-2.871-.261-7.794.337-11.81 2.264-4.45 2.138-7.447 5.216-7.962 6.194" fill="#CCC"/>
  <path d="M27.05 105.97c3.111-.896 8.188-1.022 12.462.41 5.295 1.773 9.54 5.391 9.465 6.461-.059.854-2.11 1.407-3.07 1.065-.725-.259-1.464-1.158-2.088-1.601-2.72-1.93-4.872-2.823-6.767-3.169-7.71-1.404-9.174.907-10.19-.494-.705-.978-1.022-2.323.187-2.672" fill="#fff"/>
  <path d="M46.62 114.849c-.363 0-.705-.048-.993-.152-.624-.222-1.175-.725-1.662-1.169a7 7 0 0 0-.63-.536c-2.399-1.702-4.444-2.666-6.431-3.028-4.23-.773-6.505-.388-7.862-.157-1.134.191-2.11.356-2.858-.672-.694-.958-.948-2-.68-2.786.2-.582.666-1.003 1.313-1.189 3.132-.901 8.354-1.12 12.96.422 5.01 1.677 10.168 5.438 10.04 7.317-.026.351-.194.863-.857 1.298-.632.416-1.539.652-2.34.652m-14.317-7.031c1.287 0 2.89.121 4.9.489 2.239.407 4.495 1.46 7.1 3.309.266.188.532.432.79.665.369.337.786.719 1.094.829.518.185 1.573-.093 1.906-.354-.501-.913-3.983-3.949-8.847-5.576-4.24-1.418-9.177-1.202-11.964-.399-.163.048-.182.099-.188.118-.062.177.04.68.45 1.247.107.146.135.186 1.22 0 .813-.14 1.932-.328 3.539-.328" fill="#CCC"/>
  <path d="M74.447 60.612c.4-1.659-1.225-3.477-3.629-4.06-2.403-.584-4.676.288-5.076 1.947-.4 1.658 1.225 3.476 3.629 4.06s4.676-.288 5.076-1.947m-24.073-5.844c.4-1.659-1.225-3.476-3.63-4.06-2.403-.584-4.676.288-5.075 1.947-.4 1.658 1.225 3.476 3.628 4.06s4.677-.288 5.077-1.947" fill="#E4A92D"/>
  <path d="M56.542 63.22c3.895 1.084 8.046-1.124 8.046-1.124-.92 3.82-4.934 6.025-8.99 5.042-4.055-.983-6.621-4.787-5.7-8.607 0 0 2.44 3.52 6.644 4.688" fill="#534741"/>
  <path d="M57.505 67.931a8.7 8.7 0 0 1-2.04-.244c-2.105-.512-3.9-1.745-5.05-3.475-1.167-1.75-1.542-3.815-1.06-5.812a.56.56 0 0 1 1.005-.191c.022.034 2.387 3.37 6.333 4.47 3.624 1.008 7.593-1.057 7.635-1.08a.562.562 0 0 1 .806.63c-.829 3.427-4.039 5.702-7.63 5.702m-7.232-8.059c-.05 1.295.316 2.581 1.072 3.714.996 1.494 2.552 2.561 4.382 3.005 3.37.82 6.614-.674 7.91-3.463-1.573.606-4.445 1.41-7.246.632-2.939-.815-5.035-2.705-6.118-3.888" fill="#534741"/>
  <path d="m97.459 43.744-1.853-.635c.09-.267.291-.966.19-1.702-.109-.8-.49-1.053-.531-1.082l1.021-1.677c.364.225 1.237.916 1.45 2.495.151 1.11-.11 2.104-.277 2.6" fill="#662D91"/>
  <path d="m18.264 45.855-1.903-.46c.112-.467.165-.953.16-1.442-.017-1.272-.44-2.275-.848-2.705l1.416-1.36c.848.891 1.368 2.4 1.39 4.037a7.8 7.8 0 0 1-.215 1.93" fill="#39B54A"/>
  <path d="M24.228 43.087a9 9 0 0 1-.215-2.059c.022-1.744.545-3.354 1.402-4.303l1.452 1.32c-.433.48-.878 1.595-.895 3.008a6.6 6.6 0 0 0 .168 1.596z" fill="#662D91"/>
  <path d="M86.852 47.838c.37 1.188.1 2.637-.748 3.758a4.7 4.7 0 0 1-1.281 1.16" fill="#fff"/>
  <path d="m85.338 53.596-1.022-1.677q.598-.367 1.01-.915c.639-.849.874-1.978.594-2.874l1.87-.587c.47 1.506.122 3.287-.899 4.646a5.7 5.7 0 0 1-1.553 1.407" fill="#662D91"/>
  <path d="M17.702 35.986a27.5 27.5 0 0 1-1.016-5.101l1.948-.205c.095.904.235 1.809.42 2.685.145.697.321 1.385.523 2.048z" fill="#FFC000"/>
  <path d="m28.225 30.445-1.82-.728c.334-.837.726-1.635 1.165-2.368.557-.927 1.2-1.772 1.917-2.511l1.405 1.37a12 12 0 0 0-1.643 2.158c-.386.64-.73 1.34-1.024 2.079" fill="#C1272D"/>
  <path d="m9.14 51.73-1.805-.764q.265-.63.25-1.28a3.09 3.09 0 0 0-1.478-2.551l1.007-1.686a5.06 5.06 0 0 1 2.427 4.191 5 5 0 0 1-.4 2.09" fill="#FFC000"/>
  <path d="m25.801 54.522-1.959-.009c.008-2.196 1.047-4.073 2.712-4.904.71-.354 1.503-.503 2.348-.444l-.134 1.96c-.496-.033-.949.048-1.344.245-.993.5-1.617 1.705-1.623 3.152m77.882 4.416-1.875-.57a24 24 0 0 0 .523-2.048 26 26 0 0 0 .42-2.685l1.948.205a29 29 0 0 1-.451 2.887 26 26 0 0 1-.565 2.211" fill="#C1272D"/>
  <path d="m14.797 27.275-1.82-.728a16.3 16.3 0 0 1 1.165-2.368c.554-.927 1.2-1.77 1.914-2.511l1.408 1.368a12 12 0 0 0-1.643 2.157c-.386.64-.73 1.34-1.024 2.082" fill="#662D91"/>
  <path d="M15.32 55.171a26 26 0 0 1-.565-2.213 28 28 0 0 1-.45-2.888l1.947-.205c.095.905.235 1.81.42 2.686.145.694.322 1.382.523 2.047z" fill="#7BB9E2"/>
  <path d="m90.132 62.464-1.825-.716q.168-.43.16-.87c-.014-.689-.37-1.355-.904-1.7l1.057-1.655c1.084.7 1.775 1.967 1.806 3.31a4.2 4.2 0 0 1-.294 1.631" fill="#39B54A"/>
  <path d="m96.941 67.054-1.447-1.326c.269-.295.94-1.084 1.369-2.023.448-.977.302-1.398.302-1.401l1.78-.818c.204.441.437 1.425-.302 3.04-.524 1.146-1.29 2.076-1.702 2.528" fill="#7BB9E2"/>
  <path d="M108.989 47.827a7 7 0 0 1-.347-2.121c-.014-1.767.661-3.47 1.761-4.438l1.293 1.477c-.675.596-1.106 1.753-1.097 2.947.002.517.086 1.03.249 1.522z" fill="#39B54A"/>
  <path d="m33.554 45.345-1.405-1.37a3.3 3.3 0 0 0 .76-1.223c.379-1.087.146-2.331-.6-3.25l1.516-1.244c1.178 1.444 1.536 3.415.935 5.143a5.3 5.3 0 0 1-1.206 1.944" fill="#7BB9E2"/>
  <path d="m96.664 53.352-1.704-.97a27 27 0 0 1 2.977-4.255l1.492 1.275a25.3 25.3 0 0 0-2.765 3.95" fill="#FFC000"/>
  <path d="m87.733 43.244-1.819-.728c.333-.84.725-1.635 1.164-2.368a13.8 13.8 0 0 1 1.917-2.511l1.408 1.368a12 12 0 0 0-1.643 2.157c-.389.64-.733 1.343-1.027 2.081" fill="#C1272D"/>
  <path d="m105.457 37.932-1.894-.503c.095-.357.24-.924.406-1.612.31-1.292.576-2.556.677-3.22l1.937.301c-.112.725-.384 2.02-.711 3.38a93 93 0 0 1-.415 1.654" fill="#7BB9E2"/>
  <path d="m112.373 58.264-1.727-.927a17 17 0 0 1 1.461-2.281 14 14 0 0 1 2.245-2.318l1.231 1.531a12 12 0 0 0-1.925 1.989c-.468.607-.902 1.28-1.285 2.006" fill="#FFC000"/>
  <path d="m7.137 37.826-1.82-.728c.334-.837.725-1.635 1.165-2.368.557-.927 1.2-1.772 1.917-2.511l1.408 1.368a12 12 0 0 0-1.643 2.157 14 14 0 0 0-1.027 2.081" fill="#C1272D"/>
  <path d="m104.386 69.374-.876-1.758a24.6 24.6 0 0 1 5.325-1.938l.454 1.913c-.952.227-1.892.517-2.796.856-.722.273-1.43.585-2.107.927" fill="#662D91"/>
  <path d="m61.706 18.403 1.365-1.68 1.926-2.365a36 36 0 0 0 5.816-.2l.237 1.082.689 3.12c-2.603.388-6.003.565-10.033.043m12.832 12.603.344 1.562.806 3.652s-10.18 2.244-23.686-5.905l.395-.483c10.52 3.565 18.469 2.225 22.14 1.174" fill="#71D1C8"/>
  <path d="m65.182 14.133 4.424-5.436 1.207 5.46a35 35 0 0 1-5.816.2zm-3.476 4.269c4.032.523 7.43.346 10.038-.045l.056.259.79 3.573.095.435c-3.283.627-8.17.992-14.22-.244l2.308-2.834zm11.964 8.677.436 1.975.431 1.952c-3.669 1.05-11.617 2.39-22.137-1.174l1.674-2.056 1.2-1.475c8.228 2.309 14.668 1.635 18.396.778" fill="#FCA9BB"/>
  <path d="m72.685 22.627.671 3.045.311 1.41c-3.728.857-10.168 1.529-18.396-.778l.938-1.151 2.188-2.688.062-.076c6.06 1.227 10.943.865 14.226.238" fill="#71D1C8"/>
  <path d="M73.838 36.945c-2.203 0-6.09-.163-10.739-1.062-8.765-1.697-11.827-5.006-11.953-5.146a.84.84 0 0 1-.022-1.101L68.957 8.004a.84.84 0 0 1 .842-.281c.31.076.554.323.624.635l6.127 27.511a.85.85 0 0 1-.146.688.84.84 0 0 1-.616.337c-.08.006-.778.05-1.95.05m-20.906-6.863c1.158.919 4.298 2.95 10.483 4.146 5.158.998 9.426 1.057 11.27 1.02l-5.532-24.845z" fill="#449C93"/>
  <path d="M71.856 11.233a2.794 2.794 0 0 1-3.68 1.461A2.81 2.81 0 0 1 66.721 9a2.79 2.79 0 0 1 3.68-1.46 2.814 2.814 0 0 1 1.455 3.693" fill="#71D1C8"/>
  <path d="M69.287 13.77c-.49 0-.98-.101-1.444-.304a3.62 3.62 0 0 1-1.937-2.008 3.64 3.64 0 0 1 .045-2.795 3.632 3.632 0 0 1 6.72.11 3.64 3.64 0 0 1-.045 2.795 3.62 3.62 0 0 1-2.001 1.943 3.6 3.6 0 0 1-1.338.259m.003-5.618a1.97 1.97 0 0 0-1.8 1.188 1.97 1.97 0 0 0 1.02 2.584 1.96 1.96 0 0 0 2.575-1.02 1.98 1.98 0 0 0 .024-1.505 1.95 1.95 0 0 0-1.044-1.082 1.9 1.9 0 0 0-.775-.165" fill="#449C93"/>
</svg>
