<svg width="256" height="218.758" viewBox="0 0 256 218.758" fill="none" xmlns="http://www.w3.org/2000/svg">
  <path d="M6.068 151.313H41.64l-6.068 52.784H0z" fill="#F74A44"/>
  <path d="m23.166 151.459-3.812 52.637" stroke="#FFC000" stroke-width="3.519"/>
  <path d="M126.809 184.59h-24.403v25.453a6.826 6.826 0 0 0 6.826 6.826h10.75a6.827 6.827 0 0 0 6.827-6.826z" fill="#C77B57"/>
  <path d="M207.49 175.239a6.5 6.5 0 0 0-1.445-2.095c-4.968-4.919-33.422-33.537-41.553-51.635H64.464c-8.131 18.099-36.586 46.717-41.552 51.635a6.5 6.5 0 0 0-1.445 2.095c-.75 1.783-.765 3.381-.463 4.709.581 2.55 2.68 4.46 5.234 5.026 6.916 1.532 11.322-2.524 17.072-2.524 9.376 0 6.153 11.961 15.529 11.961 9.378 0 8.749-6.945 18.126-6.945s9.378 9.496 18.757 9.496 9.378-8.486 18.757-8.486 9.378 8.486 18.757 8.486 9.379-9.496 18.757-9.496 8.748 6.945 18.125 6.945 6.154-11.961 15.53-11.961c5.75 0 10.156 4.056 17.072 2.524 2.554-.566 4.654-2.475 5.234-5.026.301-1.328.286-2.926-.464-4.709" fill="#36B27B"/>
  <mask id="a" style="mask-type:alpha" maskUnits="userSpaceOnUse" x="71" y="414" width="639" height="258">
    <path d="M207.49 175.238a6.5 6.5 0 0 0-1.445-2.095c-4.968-4.919-33.422-33.537-41.553-51.635H64.464c-8.131 18.099-36.586 46.717-41.552 51.635a6.5 6.5 0 0 0-1.445 2.095c-.75 1.783-.765 3.381-.463 4.709.581 2.55 2.68 4.46 5.234 5.026 6.916 1.532 11.322-2.524 17.072-2.524 9.376 0 6.153 11.961 15.529 11.961 9.378 0 8.749-6.945 18.126-6.945s9.378 9.496 18.757 9.496 9.378-8.486 18.757-8.486 9.378 8.486 18.757 8.486 9.379-9.496 18.757-9.496 8.748 6.945 18.125 6.945 6.154-11.961 15.53-11.961c5.75 0 10.156 4.056 17.072 2.524 2.554-.566 4.654-2.475 5.234-5.026.301-1.328.286-2.926-.464-4.709" fill="#36B27B"/>
  </mask>
  <g mask="url(#a)">
    <path d="M179.104 135.871c-6.192-6.63-29.601-32.389-33.314-46.748H83.166c-3.713 14.359-27.122 40.118-33.314 46.748-1.562 1.672-2.16 4.084-1.374 6.233.907 2.481 3.016 3.404 3.016 3.404 6.947 3.054 10.383-2.667 16.704-.752 6.302 1.909 4.227 8.628 11.915 10.336 6.51 1.447 10.365-4.942 17.72-4.039 8.689 1.067 7.267 8.066 16.645 8.066s7.956-6.999 16.646-8.066c7.355-.903 11.21 5.487 17.72 4.039 7.688-1.708 5.613-8.427 11.915-10.336 6.321-1.915 9.758 3.806 16.704.752 0 0 2.11-.923 3.016-3.404.786-2.149.188-4.56-1.374-6.233" fill="#0B7C3B"/>
  </g>
  <path d="M164.133 158.828c5.697 0 10.314-4.618 10.314-10.314s-4.618-10.314-10.314-10.314-10.314 4.618-10.314 10.314 4.618 10.314 10.314 10.314" fill="#F74A44"/>
  <path d="M161.625 149.774a3.766 3.766 0 1 0 0-7.532 3.766 3.766 0 0 0 0 7.532" fill="#FFB6B6"/>
  <path d="M153.906 170.811c-26.584 0-48.679-4.44-64.594-9.127-21.2-6.243-35.145-13.821-40.33-16.903a2.515 2.515 0 0 1-.804-3.556 2.53 2.53 0 0 1 3.388-.785c4.982 2.929 18.884 10.462 39.375 16.473 23.612 6.927 61.163 13.292 106.867 4.764a2.52 2.52 0 0 1 2.944 1.984v.001a2.516 2.516 0 0 1-1.999 2.962c-16.002 2.986-31.031 4.186-44.847 4.186" fill="#fff"/>
  <path d="M179.104 120.064c-6.192-6.63-29.601-32.389-33.314-46.748H83.166c-3.713 14.359-27.122 40.118-33.314 46.748-1.562 1.672-2.16 4.084-1.374 6.233.907 2.481 3.016 3.404 3.016 3.404 6.947 3.054 10.383-2.668 16.704-.752 6.302 1.909 4.227 8.628 11.915 10.336 6.51 1.447 10.365-4.942 17.72-4.039 8.689 1.067 7.267 8.066 16.645 8.066s7.956-6.999 16.646-8.066c7.355-.903 11.21 5.487 17.72 4.039 7.688-1.708 5.613-8.427 11.915-10.336 6.321-1.915 9.758 3.806 16.704.752 0 0 2.11-.923 3.016-3.404.786-2.149.188-4.56-1.374-6.233" fill="#36B27B"/>
  <mask id="b" style="mask-type:alpha" maskUnits="userSpaceOnUse" x="164" y="250" width="453" height="239">
    <path d="M179.104 120.064c-6.192-6.63-29.601-32.389-33.314-46.748H83.166c-3.713 14.359-27.122 40.118-33.314 46.748-1.562 1.672-2.16 4.084-1.374 6.233.907 2.481 3.016 3.404 3.016 3.404 6.947 3.054 10.383-2.668 16.704-.752 6.302 1.909 4.227 8.628 11.915 10.336 6.51 1.447 10.365-4.942 17.72-4.039 8.689 1.067 7.267 8.066 16.645 8.066s7.956-6.999 16.646-8.066c7.355-.903 11.21 5.487 17.72 4.039 7.688-1.708 5.613-8.427 11.915-10.336 6.321-1.915 9.758 3.806 16.704.752 0 0 2.11-.923 3.016-3.404.786-2.149.188-4.56-1.374-6.233" fill="#36B27B"/>
  </mask>
  <g mask="url(#b)">
    <path d="M160.236 84.197c-6.143-4.829-33.615-27.417-45.759-54.29-12.143 26.873-39.615 49.461-45.759 54.29-2.031 1.597-2.281 4.639-.45 6.462.263.261.457.396.457.396 9.322 3.858 11.482-4.097 17.931-2.314 7.786 2.153 4.996 8.921 12.609 10.19 5.786.964 8.198-7.118 15.21-6.778 7.013-.34 9.424 7.742 15.211 6.778 7.612-1.269 4.821-8.037 12.609-10.19 6.449-1.783 8.608 6.172 17.931 2.314 0 0 .194-.135.457-.396 1.833-1.823 1.584-4.865-.449-6.462" fill="#0B7C3B"/>
  </g>
  <path d="M77.689 119.921c-7.75 0-15.951-.736-24.509-2.48a2.526 2.526 0 0 1-1.965-3.027 2.514 2.514 0 0 1 2.95-1.913c30.424 6.202 56.169-.866 72.574-8.011 14.044-6.116 23.784-13.306 27.618-16.377a2.51 2.51 0 0 1 3.437.282l.006.006a2.514 2.514 0 0 1-.288 3.647c-4.058 3.269-14.003 10.605-28.584 16.98-12.501 5.466-30.211 10.89-51.239 10.89" fill="#fff"/>
  <path d="M83.612 107.906a9.026 9.026 0 1 0 0-18.051 9.026 9.026 0 0 0 0 18.051" fill="#F74A44"/>
  <path d="M81.419 99.982a3.296 3.296 0 1 0 0-6.591 3.296 3.296 0 0 0 0 6.591" fill="#FFB6B6"/>
  <path d="M160.236 73.658c-6.143-4.829-33.615-27.417-45.759-54.29-12.143 26.873-39.615 49.461-45.759 54.29-2.031 1.597-2.281 4.639-.45 6.462.263.261.457.396.457.396 9.322 3.858 11.482-4.097 17.931-2.314 7.786 2.153 4.996 8.921 12.609 10.19 5.786.964 8.198-7.118 15.21-6.778 7.013-.34 9.424 7.742 15.211 6.778 7.612-1.269 4.821-8.037 12.609-10.19 6.449-1.783 8.608 6.172 17.931 2.314 0 0 .194-.135.457-.396 1.833-1.823 1.584-4.865-.449-6.462" fill="#36B27B"/>
  <path d="M138.997 64.061c-24.853 0-40.337-9.087-45.812-12.963a2.52 2.52 0 0 1-.442-3.713l-.106.122.118-.135a2.516 2.516 0 0 1 3.338-.414c5.422 3.772 22.949 13.987 51.054 11.733a2.514 2.514 0 0 1 2.7 2.246v.001a2.53 2.53 0 0 1-2.313 2.776 106 106 0 0 1-8.537.348" fill="#fff"/>
  <path d="M121.044 86.67a9.026 9.026 0 1 0-.001-18.049 9.026 9.026 0 0 0 .001 18.048" fill="#F74A44"/>
  <path d="M118.85 78.746a3.295 3.295 0 1 0 0-6.59 3.295 3.295 0 0 0 0 6.59" fill="#FFB6B6"/>
  <path d="M129.317 11.34c-2.158-.684-5.864-1.748-8.888-2.05 0 0-2.497-4.663-5.039-8.782a1.07 1.07 0 0 0-1.822 0c-2.542 4.119-5.039 8.782-5.039 8.782-3.025.302-6.731 1.366-8.889 2.05-.8.253-.987 1.302-.319 1.811 3.105 2.362 7.654 4.999 7.654 4.999-.688 1.834-1.735 5.933-2.42 8.733-.233.954.867 1.664 1.642 1.063l8.28-6.417 8.279 6.416c.776.601 1.876-.109 1.643-1.063-.685-2.8-1.732-6.899-2.42-8.733 0 0 4.55-2.637 7.654-4.999.669-.508.482-1.557-.318-1.81" fill="#FFC000"/>
  <path d="m41.054 29.031 2.639 1.759 1.173-3.519.44 3.519c1.124-.147 3.402-.44 3.519-.44s-1.808 1.466-2.786 2.199l1.32 3.666-2.786-2.199-1.466 2.932.147-3.226h-3.373l2.786-1.759zm154.831 31.377 2.639 1.759 1.173-3.519.44 3.519c1.124-.147 3.402-.44 3.519-.44s-1.808 1.466-2.786 2.199l1.32 3.666-2.786-2.199-1.466 2.932.147-3.226h-3.373l2.786-1.759z" fill="#A9DCFF"/>
  <path d="m15.348 75.39 4.843 3.252 2.153-6.505.807 6.505c2.063-.271 6.242-.813 6.457-.813s-3.318 2.71-5.112 4.066l2.422 6.776-5.112-4.066-2.691 5.42.269-5.962h-6.188l5.112-3.252zm200.578 18.767 4.843 3.252 2.152-6.505.807 6.505c2.063-.271 6.242-.813 6.457-.813s-3.318 2.71-5.112 4.066l2.422 6.776-5.112-4.066-2.691 5.421.269-5.962h-6.188l5.112-3.252zm-67.153-62.753 4.843 3.252 2.153-6.505.807 6.505c2.063-.271 6.242-.813 6.457-.813s-3.318 2.71-5.112 4.066l2.422 6.776-5.112-4.066-2.691 5.42.269-5.962h-6.188l5.112-3.252z" fill="#fff"/>
  <path fill="#36B27B" d="M48.092 72.724a4.105 4.105 0 0 1-4.106 4.105 4.105 4.105 0 0 1-4.105-4.105 4.105 4.105 0 0 1 8.211 0"/>
  <path fill="#BF77FB" d="M29.031 118.763a4.105 4.105 0 0 1-4.105 4.105 4.105 4.105 0 0 1-4.106-4.105 4.105 4.105 0 0 1 8.211 0"/>
  <path fill="#4CB4FA" d="M217.292 80.348a4.105 4.105 0 0 1-4.105 4.106 4.105 4.105 0 0 1-4.106-4.106 4.105 4.105 0 0 1 8.211 0"/>
  <path fill="#EC99AB" d="M187.675 88.559a4.105 4.105 0 0 1-4.106 4.105 4.105 4.105 0 0 1-4.105-4.105 4.105 4.105 0 0 1 8.211 0"/>
  <path d="M19.354 177.118h42.26l6.711 41.64H26.066z" fill="#FCA9BB"/>
  <path d="M214.387 178.584H256l-9.998 39.294h-41.613z" fill="#FF9C42"/>
  <path d="m232.834 177.851-7.478 39.734m7.478-39.936c-2.836-4.175-10.187-12.481-13.446-8.627-3.293 3.894 2.47 10.576 13.446 8.627Zm0 0c2.836-4.175 10.187-12.481 13.446-8.627 3.293 3.894-2.47 10.576-13.446 8.627Z" stroke="#FFC000" stroke-width="3.519"/>
  <path d="M137.349 144.352c3.539-3.608 4.516-8.06 3.59-12.541-.908-4.395-3.623-8.765-7.355-12.567-3.719-3.789-10.441-8.879-16.999-12.284-3.276-1.701-6.62-3.039-9.598-3.541-2.924-.494-5.937-.246-7.998 1.855-2.058 2.098-2.313 5.174-1.843 8.164.479 3.048 1.772 6.473 3.423 9.831 3.305 6.72 8.266 13.61 11.991 17.405 3.742 3.812 8.076 6.537 12.428 7.419 4.429.898 8.826-.138 12.361-3.741Z" fill="#FFC000" stroke="#D39C28" stroke-width="3.519"/>
  <path d="M107.434 136.707c.649 2.376 2.337 4.767 4.485 6.818a26.2 26.2 0 0 0 7.985 5.181c6.043 2.493 13.509 2.707 19.025-3.183 5.521-5.897 4.914-13.456 2.152-19.457-1.386-3.012-3.349-5.735-5.489-7.84-2.115-2.081-4.531-3.681-6.863-4.246-.597-.145-1.179-.076-1.655.041-.489.12-.981.321-1.455.558-.948.473-1.996 1.177-3.068 2.004-2.155 1.661-4.607 3.971-6.881 6.401s-4.423 5.037-5.952 7.311c-.761 1.132-1.403 2.232-1.825 3.22a7.5 7.5 0 0 0-.483 1.507c-.094.489-.138 1.083.027 1.684Z" fill="#fff" stroke="#CCC" stroke-width="3.519"/>
  <path d="M181.113 155.695c1.355 4.869 4.722 7.941 9.066 9.379 4.261 1.41 9.403 1.245 14.561-.086 5.141-1.326 12.91-4.602 19.138-8.579 3.111-1.987 5.941-4.214 7.866-6.542 1.889-2.285 3.181-5.019 2.392-7.854-.788-2.831-3.325-4.59-6.149-5.678-2.878-1.109-6.491-1.702-10.225-1.951-7.472-.498-15.92.353-21.069 1.682-5.173 1.335-9.699 3.725-12.639 7.053-2.991 3.387-4.294 7.713-2.941 12.576Z" fill="#FFC000" stroke="#D39C28" stroke-width="3.519"/>
  <path d="M202.692 133.61c-2.382-.626-5.297-.36-8.147.475a26.3 26.3 0 0 0-8.479 4.325c-5.18 3.987-9.099 10.346-6.756 18.067 2.346 7.73 9.196 10.984 15.775 11.592 3.302.306 6.641-.033 9.534-.834 2.86-.792 5.453-2.083 7.109-3.821.424-.445.656-.984.792-1.454.14-.483.212-1.01.244-1.54.064-1.058-.022-2.317-.201-3.659-.361-2.696-1.135-5.975-2.103-9.16s-2.151-6.349-3.356-8.81c-.6-1.225-1.232-2.332-1.876-3.191a7.5 7.5 0 0 0-1.064-1.172c-.376-.326-.869-.661-1.472-.819Z" fill="#fff" stroke="#CCC" stroke-width="3.519"/>
  <path d="M191.454 178.877c-4.481 16.723-23.756 21.954-44.327 16.442s-34.648-19.68-30.167-36.403c7.74-28.888 29.709-44.17 50.28-38.658s31.253 32.352 24.214 58.619Z" fill="#fff" stroke="#CCC" stroke-width="3.519"/>
  <path d="M134.485 180.832c-4.486-1.202-8.927-.808-12.515 1.518-3.597 2.332-6.06 6.425-6.94 12.062-.643 4.118.492 8.869 2.359 12.709.942 1.939 2.106 3.719 3.404 5.127 1.279 1.387 2.798 2.531 4.476 2.981 1.657.444 3.469.251 5.202-.278 1.749-.533 3.54-1.445 5.23-2.596 3.363-2.291 6.536-5.674 8.298-9.383 2.396-5.041 2.42-9.962.558-13.982-1.856-4.006-5.498-6.932-10.072-8.157Zm38.883.336c4.545-1.218 9.038-.866 12.662 1.405 3.643 2.284 6.125 6.33 6.979 11.922.625 4.09-.571 8.81-2.496 12.623-.973 1.927-2.168 3.696-3.495 5.096-1.308 1.38-2.851 2.513-4.537 2.965-3.254.872-7.223-.579-10.535-2.763-3.4-2.241-6.605-5.57-8.374-9.24-2.407-4.992-2.391-9.881-.464-13.881 1.916-3.978 5.63-6.886 10.26-8.127Z" fill="#FFC000" stroke="#D39C28" stroke-width="3.519"/>
  <path d="M128.547 154.097a1.184 1.184 0 0 1-1.613.656l-7.917-3.733a1.16 1.16 0 0 1-.596-1.461c.99-2.609 3.8-9.861 6.874-16.381s6.881-13.302 8.264-15.725a1.16 1.16 0 0 1 1.506-.469l7.917 3.733a1.185 1.185 0 0 1 .52 1.662c-1.412 2.452-4.904 8.656-8.15 15.542s-5.811 13.527-6.805 16.176Zm57.924-20.132a1.184 1.184 0 0 1 1.271-1.189l8.728.657a1.16 1.16 0 0 1 1.079 1.151c.008 2.79-.025 10.568-.566 17.755s-1.672 14.883-2.098 17.64a1.16 1.16 0 0 1-1.239.977l-8.728-.657a1.185 1.185 0 0 1-1.079-1.366c.443-2.795 1.486-9.837 2.058-17.428s.593-14.71.574-17.54Z" fill="#45566A" stroke="#394457" stroke-width="3.519"/>
  <path d="M146.681 197.043c10.536 2.823 20.874 2.942 29.241.103 8.422-2.858 14.854-8.732 17.265-17.731 1.77-6.606 2.195-11.394 1.123-14.869-1.145-3.713-3.874-5.599-7.328-6.658-2.935-.9-6.652-1.281-10.738-1.699q-.806-.082-1.629-.168c-4.812-.505-10.27-1.169-16.204-2.759-5.903-1.581-10.897-3.884-15.246-6.049-.765-.381-1.517-.762-2.256-1.135-3.372-1.706-6.468-3.273-9.202-4.053-1.711-.489-3.424-.718-5.102-.44-1.712.284-3.263 1.075-4.655 2.423-2.684 2.597-4.792 7.279-6.732 14.517-2.411 8.999.222 17.303 6.087 23.989 5.827 6.643 14.839 11.708 25.375 14.531Z" fill="#45566A" stroke="#394457" stroke-width="3.519"/>
  <path d="m124.79 151.258-.549-.563a1.17 1.17 0 0 0-.305 1.175l.827-.247-.827.247q.432 1.446.868 2.885a1.17 1.17 0 0 0 .816.793l3.006.815a1.17 1.17 0 0 0 1.138-.305l-.624-.62.624.62q1.04-1.044 2.078-2.098a1.17 1.17 0 0 0 .284-1.169q-.445-1.436-.875-2.872l-.82.246.82-.246a1.17 1.17 0 0 0-.827-.798q-1.478-.387-2.959-.784a1.17 1.17 0 0 0-1.125.296l.616.628-.616-.628-.54.531a477 477 0 0 1-1.558 1.529zm0 0 .013.014zm57.55 15.42-.549-.563a1.17 1.17 0 0 0-.305 1.175l.827-.247-.827.247q.432 1.446.868 2.885a1.17 1.17 0 0 0 .816.793l3.006.815a1.17 1.17 0 0 0 1.138-.305l-.624-.62.624.62q1.04-1.044 2.078-2.098a1.17 1.17 0 0 0 .284-1.169q-.445-1.436-.875-2.872l-.82.246.82-.246a1.17 1.17 0 0 0-.827-.798 499 499 0 0 1-2.959-.784 1.17 1.17 0 0 0-1.125.296l.617.628-.617-.628-.54.531a477 477 0 0 1-1.558 1.529zm0 0 .013.014z" fill="#fff" stroke="#CCC" stroke-width="1.759"/>
  <path d="m148.374 179.19-5.121-1.372a.73.73 0 0 1-.514-.513l-1.372-5.114a.72.72 0 0 1 .188-.701l3.745-3.743a.73.73 0 0 1 .702-.187l5.121 1.372a.73.73 0 0 1 .514.513l1.372 5.114a.72.72 0 0 1-.188.701l-3.745 3.743a.72.72 0 0 1-.702.187m-4.339-2.665 4.308 1.154 3.155-3.15-1.157-4.305-4.308-1.154-3.155 3.15z" fill="#4CB4FA"/>
  <path d="m157.234 176.843-5.121-1.372a.73.73 0 0 1-.514-.513l-1.372-5.114a.72.72 0 0 1 .188-.701l3.745-3.743a.73.73 0 0 1 .702-.187l5.121 1.372a.73.73 0 0 1 .514.513l1.372 5.114a.72.72 0 0 1-.188.701l-3.745 3.743a.72.72 0 0 1-.702.187m-4.339-2.665 4.308 1.154 3.155-3.15-1.157-4.305-4.308-1.154-3.155 3.15z" fill="#FFC000"/>
  <path d="m154.869 185.67-5.122-1.372a.73.73 0 0 1-.514-.513l-1.372-5.114a.72.72 0 0 1 .188-.701l3.745-3.743a.73.73 0 0 1 .702-.187l5.122 1.372a.73.73 0 0 1 .514.513l1.372 5.114a.72.72 0 0 1-.188.701l-3.745 3.743a.72.72 0 0 1-.702.187m-4.339-2.664 4.308 1.154 3.155-3.15-1.157-4.305-4.308-1.154-3.155 3.15z" fill="#fff"/>
  <path d="M111.812 192.872c1.831-17.875 8.954-18.08 22.125-14.551s21.022 7.422 12.973 23.956c-3.27 6.717-13.574 3.528-19.884 1.837s-15.966-3.896-15.214-11.242" fill="#45566A"/>
  <path d="M117.883 177.705c-2.944 2.2-5.263 7.266-6.072 15.169-.752 7.346 8.905 9.551 15.214 11.242s16.614 4.88 19.884-1.837c.73-1.498 1.435-3.48 1.911-4.78" stroke="#394457" stroke-width="3.519" stroke-linecap="round"/>
  <path d="M145.546 202.338a1.18 1.18 0 0 1 .773 1.743l-2.087 3.621a1.16 1.16 0 0 1-1.241.561 282 282 0 0 1-14.813-3.51c-6.548-1.754-12.839-3.767-15.099-4.503a1.16 1.16 0 0 1-.794-1.217l.383-4.087a1.182 1.182 0 0 1 1.54-1.012c2.689.864 8.905 2.817 15.632 4.62 6.614 1.772 12.874 3.172 15.706 3.785Z" fill="#fff" stroke="#CCC" stroke-width="3.519"/>
  <path d="M196.322 192.932c-1.723-17.675-8.961-17.824-22.372-14.231s-21.419 7.506-13.366 23.807c3.271 6.622 13.767 3.388 20.192 1.666s16.255-3.978 15.547-11.242" fill="#45566A"/>
  <path d="M159.084 198.965c.41 1.025.938 2.4 1.503 3.544 3.271 6.622 13.767 3.387 20.192 1.666s16.255-3.978 15.547-11.242c-.571-5.854-2.004-9.932-3.808-12.442" stroke="#394457" stroke-width="3.519" stroke-linecap="round"/>
  <path d="M161.952 202.561a1.18 1.18 0 0 0-.766 1.751l2.074 3.532a1.16 1.16 0 0 0 1.239.552 296 296 0 0 0 15.099-3.592c6.685-1.791 13.111-3.837 15.397-4.578a1.16 1.16 0 0 0 .796-1.211l-.353-4.003a1.182 1.182 0 0 0-1.537-1.019c-2.728.872-9.075 2.858-15.941 4.698-6.749 1.808-13.133 3.244-16.007 3.87Z" fill="#fff" stroke="#CCC" stroke-width="3.519"/>
  <path d="M160.725 146.245c8.99 2.409 16.639 1.786 22.717-1.036s10.424-7.766 12.931-13.702c1.764-4.176 2.584-10.214 2.693-16.819.11-6.651-.499-14.056-1.71-21.071-1.209-7.004-3.032-13.7-5.388-18.901-1.178-2.6-2.515-4.886-4.021-6.659-1.5-1.766-3.257-3.127-5.289-3.672-2.01-.538-4.18-.283-6.337.445-2.163.73-4.426 1.971-6.702 3.56-4.553 3.177-9.364 7.888-13.825 13.235-4.469 5.357-8.636 11.415-11.882 17.333-3.233 5.894-5.611 11.759-6.4 16.715-1.045 6.561.171 13.024 4.027 18.47 3.85 5.436 10.215 9.697 19.185 12.1Z" fill="#FFC000" stroke="#D39C28" stroke-width="3.519"/>
  <path d="M158.68 111.481c3.506.94 7.185-1.421 8.218-5.273s-.974-7.736-4.48-8.675-7.185 1.421-8.218 5.273.974 7.736 4.48 8.676" fill="#fff"/>
  <path d="M158.397 112.538c-4.084-1.094-6.442-5.586-5.255-10.016s5.474-7.141 9.559-6.046 6.442 5.586 5.255 10.016-5.475 7.141-9.559 6.046m3.737-13.948c-2.916-.781-6.002 1.237-6.876 4.5s.789 6.554 3.705 7.335 6.002-1.237 6.876-4.5-.789-6.554-3.705-7.335" fill="#534741"/>
  <path d="M179.533 116.615c3.506.939 7.185-1.422 8.217-5.273s-.974-7.736-4.48-8.675-7.185 1.421-8.218 5.273.974 7.736 4.48 8.676" fill="#fff"/>
  <path d="M179.25 117.672c-4.084-1.094-6.442-5.586-5.255-10.016s5.475-7.141 9.559-6.046 6.442 5.586 5.255 10.016-5.475 7.141-9.559 6.046m3.738-13.949c-2.916-.781-6.002 1.237-6.876 4.5s.789 6.554 3.705 7.335 6.002-1.237 6.876-4.5-.789-6.554-3.705-7.335m-23.574 8.408c2.805.752 5.713-1.004 6.495-3.922s-.858-5.893-3.663-6.645-5.713 1.005-6.495 3.923.858 5.893 3.663 6.644" fill="#534741"/>
  <path d="M179.577 116.926c2.74.734 5.594-1.036 6.376-3.954s-.805-5.879-3.545-6.613-5.594 1.036-6.376 3.954.805 5.879 3.545 6.613" fill="#534741"/>
  <path d="M160.442 104.908c.818.219 1.622-.127 1.795-.774s-.35-1.349-1.168-1.568-1.622.127-1.795.774.35 1.349 1.168 1.568" fill="#fff"/>
  <path d="M148.176 118.519c3.74 1.002 7.33-.267 8.018-2.835s-1.786-5.462-5.526-6.464-7.33.267-8.018 2.835 1.786 5.462 5.526 6.464m37.457 10.037c3.74 1.002 7.33-.267 8.018-2.835s-1.786-5.462-5.526-6.464-7.33.267-8.018 2.835 1.786 5.462 5.526 6.464" fill="#E4A92D"/>
  <path d="M180.842 109.581c.818.219 1.622-.127 1.795-.774s-.35-1.349-1.168-1.568-1.622.127-1.795.774.35 1.349 1.168 1.568" fill="#fff"/>
  <path d="M189.7 98.762c-1.914-2.486-5.361-4.716-8.879-5.385m-22.56-3.047c2.39-1.028 6.848-1.199 9.822-.402" stroke="#534741" stroke-width="2.346" stroke-linecap="round"/>
  <path d="M178.657 128.469c-.681 2.705-2.435 4.645-4.963 6.311-2.653 1.749-6.157 2.533-10.162 1.525-4.408-1.109-6.671-3.165-8.436-6.205-1.412-2.431-2.139-4.644-1.357-7.749.179-.711 1.104-1.385 1.846-.727 1.464 1.432 4.334 4.096 10.237 5.582 5.625 1.415 9.625.607 11.024.051s1.991.501 1.812 1.212" fill="#534741"/>
  <path d="M23.166 151.257c-2.836-4.175-10.187-12.481-13.446-8.627-3.293 3.894 2.47 10.576 13.446 8.627Zm0 0c2.836-4.175 10.187-12.481 13.446-8.627 3.293 3.894-2.47 10.576-13.446 8.627Z" stroke="#FFC000" stroke-width="3.519"/>
  <path d="M41.64 179.115c-2.836-4.175-10.187-12.481-13.446-8.627-3.293 3.894 2.47 10.576 13.446 8.627Zm0 0c2.836-4.175 10.187-12.481 13.446-8.627 3.293 3.894-2.47 10.576-13.446 8.627Zm.294.202 3.372 39.148" stroke="#005A9E" stroke-width="3.519"/>
  <path fill="#FFEBB2" d="M51.904 186.502h30.79v32.256h-30.79z"/>
  <path d="M66.273 186.502v32.257m0-32.401c-1.168-1.719-4.195-5.139-5.537-3.552-1.356 1.603 1.017 4.355 5.537 3.552Z" stroke="#F74A44" stroke-width="3.519"/>
  <path d="M66.272 186.358c1.168-1.719 4.195-5.139 5.537-3.552 1.356 1.603-1.017 4.355-5.537 3.552Z" stroke="#F74A44" stroke-width="3.519"/>
  <path d="M94.475 181.913c5.697 0 10.315-4.618 10.315-10.315s-4.618-10.315-10.315-10.315-10.315 4.618-10.315 10.315 4.618 10.315 10.315 10.315" fill="#F74A44"/>
  <path d="M91.968 172.856a3.766 3.766 0 1 0 0-7.532 3.766 3.766 0 0 0 0 7.532" fill="#FFB6B6"/>
</svg>
