<svg width="1058" height="1304" viewBox="0 0 1058 1304" fill="none" xmlns="http://www.w3.org/2000/svg">
<path d="M13.0986 175.434C58.8759 241.303 186.806 368.302 332.308 349.345C514.185 325.649 412.891 142.434 323.275 223.812C229.75 308.74 386.873 460.189 507.824 474.137" stroke="url(#paint0_linear_88_2986)" stroke-width="30"/>
<path d="M938.829 722.058C972.856 783.492 1015.25 920.826 912.619 978.69C784.328 1051.02 684.914 852.102 712.491 778.563C728.346 736.282 798.585 733.924 815.085 845.802C831.586 957.679 767.305 1034 691.631 1040.55C615.957 1047.09 489.399 892.053 568.73 861.734C618.294 842.792 705.402 1019.12 586.937 1113.45C500.005 1182.67 414.734 1111.45 397.183 1105.95" stroke="url(#paint1_linear_88_2986)" stroke-width="30"/>
<path d="M426.459 698.034C435.577 685.026 436.471 670.907 431.427 657.767C426.489 644.902 415.999 633.229 402.715 623.917C389.489 614.647 366.488 603.241 344.796 596.825C333.958 593.619 323.044 591.536 313.624 591.774C304.357 592.009 295.128 594.562 289.762 602.218C284.403 609.862 285.116 619.431 288.013 628.263C290.96 637.247 296.587 646.863 303.249 656.029C316.579 674.367 335.056 692.25 348.307 701.539C361.635 710.88 376.302 716.611 390.178 716.712C404.318 716.814 417.352 711.026 426.459 698.034Z" fill="#FFC000" stroke="#D39C28" stroke-width="12"/>
<path d="M430.841 703.719C446.378 682.321 442.431 658.938 431.806 641.395C426.505 632.642 419.45 625.125 411.991 619.656C404.624 614.255 396.379 610.503 388.66 610.032C386.595 609.906 384.714 610.485 383.266 611.113C381.758 611.766 380.271 612.67 378.855 613.673C376.023 615.678 372.944 618.458 369.819 621.64C363.54 628.032 356.512 636.622 350.075 645.493C343.638 654.365 337.648 663.713 333.511 671.669C331.451 675.629 329.758 679.418 328.724 682.732C328.206 684.389 327.804 686.081 327.645 687.714C327.491 689.281 327.514 691.242 328.256 693.164C331.068 700.443 337.23 707.123 344.695 712.412C352.254 717.768 361.653 722.064 371.678 724.303C391.759 728.786 415.321 725.095 430.841 703.719Z" fill="white" stroke="#CCCCCC" stroke-width="12"/>
<path d="M586.978 701.623C596.045 714.666 608.99 720.372 623.065 720.167C636.843 719.966 651.417 714.143 664.736 704.883C677.998 695.663 696.633 678.004 710.133 659.854C716.879 650.785 722.597 641.258 725.62 632.333C728.594 623.553 729.379 614.01 724.042 606.333C718.713 598.668 709.485 596.039 700.196 595.714C690.747 595.383 679.781 597.35 668.88 600.444C647.071 606.636 623.914 617.816 610.628 627.054C597.264 636.344 586.829 648.137 581.951 661.127C576.981 674.366 577.921 688.596 586.978 701.623Z" fill="#FFC000" stroke="#D39C28" stroke-width="12"/>
<path d="M580.127 703.775C594.858 725.736 618.167 730.091 638.298 726.164C648.341 724.205 657.83 720.174 665.535 715.057C673.145 710.004 679.508 703.558 682.612 696.475C683.442 694.579 683.546 692.614 683.456 691.038C683.363 689.398 683.027 687.69 682.574 686.015C681.668 682.665 680.119 678.817 678.21 674.787C674.373 666.689 668.732 657.131 662.624 648.03C656.516 638.929 649.805 630.085 643.763 623.458C640.756 620.16 637.782 617.265 635.028 615.151C633.651 614.094 632.201 613.134 630.724 612.421C629.306 611.737 627.456 611.082 625.397 611.116C617.595 611.247 609.2 614.728 601.662 619.912C594.028 625.162 586.755 632.504 581.199 641.143C570.068 658.447 565.411 681.838 580.127 703.775Z" fill="white" stroke="#CCCCCC" stroke-width="12"/>
<path d="M642.15 761.063C642.15 820.102 583.276 854.347 510.65 854.347C438.025 854.347 379.15 820.102 379.15 761.063C379.15 659.076 438.025 589.347 510.65 589.347C583.276 589.347 642.15 668.328 642.15 761.063Z" fill="white" stroke="#CCCCCC" stroke-width="12"/>
<path d="M410.751 734.433C410.522 736.781 408.339 738.438 406.018 738.019L376.646 732.711C374.605 732.342 373.185 730.49 373.393 728.425C374.35 718.959 377.207 692.589 381.578 668.401C385.949 644.214 392.503 618.512 394.92 609.309C395.447 607.303 397.425 606.065 399.467 606.434L428.838 611.741C431.16 612.161 432.625 614.477 432.017 616.757C429.529 626.079 423.504 649.596 418.887 675.144C414.27 700.691 411.684 724.83 410.751 734.433Z" fill="#45566A" stroke="#394457" stroke-width="12"/>
<path d="M583.781 616.998C583.155 614.723 584.602 612.395 586.92 611.957L616.248 606.417C618.287 606.032 620.275 607.255 620.818 609.257C623.307 618.44 630.065 644.09 634.627 668.242C639.189 692.394 642.254 718.741 643.286 728.199C643.511 730.262 642.105 732.125 640.067 732.51L610.738 738.05C608.42 738.488 606.224 736.848 605.977 734.502C604.968 724.907 602.191 700.789 597.372 675.279C592.553 649.769 586.342 626.3 583.781 616.998Z" fill="#45566A" stroke="#394457" stroke-width="12"/>
<path d="M508.388 859.89C545.583 859.89 579.741 851.159 604.797 834.421C630.017 817.574 646.018 792.547 646.018 760.776C646.018 737.452 643.191 721.307 636.591 710.805C629.542 699.587 618.89 695.78 606.579 695.34C596.117 694.966 583.536 696.994 569.71 699.222C567.893 699.515 566.054 699.811 564.197 700.106C547.902 702.69 529.337 705.321 508.388 705.321C487.549 705.321 469.066 702.144 452.831 698.852C449.976 698.274 447.162 697.684 444.397 697.104C431.783 694.46 420.203 692.032 410.509 691.874C404.441 691.775 398.595 692.531 393.313 694.928C387.924 697.373 383.515 701.349 380.118 707.016C373.568 717.941 370.757 735.224 370.757 760.776C370.757 792.547 386.759 817.574 411.978 834.421C437.034 851.159 471.192 859.89 508.388 859.89Z" fill="#45566A" stroke="#394457" stroke-width="12"/>
<path d="M421.387 726.978C419.567 724.088 417.758 721.189 415.969 718.291C415.236 717.104 413.938 716.384 412.542 716.392C409.066 716.412 405.589 716.422 402.103 716.423C400.688 716.423 399.377 717.172 398.658 718.393C398.22 719.136 397.784 719.878 397.348 720.619C396.087 722.762 394.831 724.897 393.564 727.029C392.806 728.306 392.816 729.9 393.596 731.169C395.393 734.09 397.199 737.001 399.002 739.908C399.729 741.08 401.01 741.795 402.389 741.799L413.009 741.83C414.446 741.834 415.775 741.067 416.49 739.821C418.158 736.916 419.829 734.002 421.483 731.078C422.209 729.796 422.169 728.222 421.387 726.978Z" fill="white" stroke="#CCCCCC" stroke-width="6"/>
<path d="M624.564 726.978C622.745 724.088 620.936 721.189 619.146 718.291C618.414 717.104 617.115 716.384 615.72 716.392C612.244 716.412 608.767 716.422 605.281 716.423C603.866 716.423 602.555 717.172 601.836 718.393C601.398 719.136 600.962 719.878 600.526 720.619C599.265 722.762 598.009 724.897 596.742 727.029C595.984 728.306 595.994 729.9 596.774 731.169C598.571 734.09 600.377 737.001 602.18 739.908C602.907 741.08 604.187 741.795 605.567 741.799L616.187 741.83C617.624 741.834 618.952 741.067 619.668 739.821C621.335 736.916 623.007 734.002 624.661 731.078C625.386 729.796 625.347 728.222 624.564 726.978Z" fill="white" stroke="#CCCCCC" stroke-width="6"/>
<path d="M500.371 785.345H482.29C481.398 785.345 480.589 784.866 480.143 784.108L471.111 768.474C470.665 767.716 470.665 766.759 471.111 766.001L480.143 750.367C480.589 749.609 481.398 749.131 482.29 749.131H500.371C501.263 749.131 502.072 749.609 502.518 750.367L511.551 766.001C511.996 766.759 511.996 767.716 511.551 768.474L502.518 784.108C502.089 784.866 501.263 785.345 500.371 785.345ZM483.727 780.397H498.935L506.547 767.238L498.935 754.078H483.727L476.114 767.238L483.727 780.397Z" fill="#4CB4FA"/>
<path d="M527.486 769.792H509.404C508.512 769.792 507.703 769.314 507.258 768.555L498.225 752.922C497.779 752.163 497.779 751.207 498.225 750.448L507.258 734.815C507.703 734.056 508.512 733.578 509.404 733.578H527.486C528.377 733.578 529.187 734.056 529.632 734.815L538.665 750.448C539.111 751.207 539.111 752.163 538.665 752.922L529.632 768.555C529.187 769.33 528.377 769.792 527.486 769.792ZM510.841 764.845H526.049L533.662 751.685L526.049 738.525H510.841L503.228 751.685L510.841 764.845Z" fill="#FFC000"/>
<path d="M527.486 800.959H509.404C508.512 800.959 507.703 800.481 507.258 799.722L498.225 784.089C497.779 783.33 497.779 782.374 498.225 781.615L507.258 765.982C507.703 765.223 508.512 764.745 509.404 764.745H527.486C528.377 764.745 529.187 765.223 529.632 765.982L538.665 781.615C539.111 782.374 539.111 783.33 538.665 784.089L529.632 799.722C529.187 800.497 528.377 800.959 527.486 800.959ZM510.841 796.012H526.049L533.662 782.852L526.049 769.692H510.841L503.228 782.852L510.841 796.012Z" fill="white"/>
<path d="M444.391 800.241C429.093 796.141 413.947 797.487 401.712 805.417C389.444 813.369 381.049 827.326 378.047 846.55C375.854 860.591 379.726 876.795 386.091 889.889C389.304 896.5 393.272 902.571 397.699 907.372C402.059 912.101 407.242 916.003 412.962 917.536C418.61 919.049 424.791 918.392 430.702 916.589C436.668 914.77 442.773 911.661 448.537 907.735C460.004 899.924 470.824 888.386 476.836 875.739C485.008 858.547 485.088 841.768 478.737 828.058C472.409 814.397 459.987 804.42 444.391 800.241Z" fill="#FFC000" stroke="#D39C28" stroke-width="12"/>
<path d="M367.073 841.303C373.316 780.348 397.608 779.647 442.524 791.682C487.44 803.717 514.213 816.992 486.764 873.375C475.613 896.281 440.473 885.406 418.956 879.64C397.439 873.875 364.508 866.353 367.073 841.303Z" fill="#45566A"/>
<path d="M492.91 857.512C491.46 861.221 488.79 869.213 486.764 873.375C475.612 896.281 440.473 885.406 418.956 879.64C397.439 873.875 364.508 866.353 367.073 841.303C369.161 820.91 373.27 807.261 379.496 798.577" stroke="#394457" stroke-width="12" stroke-linecap="round"/>
<path d="M482.109 873.581C484.773 874.157 486.104 877.163 484.743 879.525L477.628 891.873C476.771 893.359 475.076 894.135 473.397 893.787C466.062 892.265 445.294 887.822 422.883 881.817C400.554 875.834 379.1 868.972 371.392 866.46C369.624 865.883 368.513 864.162 368.686 862.31L369.993 848.372C370.233 845.811 372.793 844.134 375.242 844.921C384.412 847.868 405.61 854.528 428.548 860.675C451.104 866.718 472.451 871.491 482.109 873.581Z" fill="white" stroke="#CCCCCC" stroke-width="12"/>
<path d="M585.938 799.826C601.438 795.673 616.76 796.872 629.119 804.618C641.544 812.406 650.007 826.203 652.921 845.275C655.051 859.221 650.973 875.32 644.407 888.323C641.09 894.893 637.014 900.925 632.489 905.7C628.027 910.408 622.767 914.27 617.017 915.811C605.919 918.785 592.386 913.835 581.09 906.389C569.497 898.746 558.565 887.395 552.532 874.879C544.324 857.855 544.38 841.182 550.95 827.541C557.484 813.975 570.149 804.057 585.938 799.826Z" fill="#FFC000" stroke="#D39C28" stroke-width="12"/>
<path d="M664.213 839.944C658.337 779.667 633.656 779.159 587.921 791.414C542.186 803.668 514.879 817.011 542.34 872.6C553.497 895.183 589.288 884.152 611.197 878.281C633.107 872.411 666.628 864.715 664.213 839.944Z" fill="#45566A"/>
<path d="M639.909 790.009C652.409 801.509 661.931 816.533 664.214 839.944C666.629 864.715 633.107 872.411 611.198 878.281C589.288 884.152 553.497 895.184 542.34 872.6C539.664 867.183 538.079 861.662 536.41 857.009" stroke="#394457" stroke-width="12" stroke-linecap="round"/>
<path d="M547.007 872.78C544.333 873.363 543.009 876.39 544.395 878.75L551.467 890.795C552.331 892.267 554.022 893.03 555.692 892.68C563.096 891.131 584.293 886.565 607.18 880.432C629.979 874.323 651.891 867.347 659.687 864.82C661.452 864.248 662.566 862.536 662.403 860.689L661.197 847.037C660.971 844.469 658.412 842.777 655.956 843.562C646.655 846.537 625.011 853.308 601.594 859.582C578.579 865.749 556.808 870.644 547.007 872.78Z" fill="white" stroke="#CCCCCC" stroke-width="12"/>
<path d="M508.99 673C540.729 673 565.373 664.197 582.906 649.538C600.436 634.881 610.388 614.757 613.408 592.992C615.533 577.679 612.904 557.067 607.435 535.215C601.927 513.211 593.386 489.357 583.205 467.317C573.041 445.314 561.127 424.867 548.775 409.814C542.601 402.289 536.177 395.939 529.651 391.427C523.154 386.935 516.163 384 508.991 384C501.896 384 494.972 386.758 488.508 391.06C482.027 395.374 475.67 401.459 469.575 408.701C457.384 423.185 445.691 442.949 435.717 464.501C425.725 486.091 417.344 509.723 411.876 532.083C406.431 554.351 403.773 575.77 405.548 592.79C407.898 615.323 417.605 635.54 435.116 650.075C452.596 664.584 477.323 673 508.99 673Z" fill="#FFC000" stroke="#D39C28" stroke-width="12"/>
<path d="M443.182 592.75C456.386 592.75 467.09 585.401 467.09 576.335C467.09 567.269 456.386 559.92 443.182 559.92C429.978 559.92 419.274 567.269 419.274 576.335C419.274 585.401 429.978 592.75 443.182 592.75Z" fill="#E4A92D"/>
<path d="M575.424 592.75C588.628 592.75 599.332 585.401 599.332 576.335C599.332 567.269 588.628 559.92 575.424 559.92C562.22 559.92 551.516 567.269 551.516 576.335C551.516 585.401 562.22 592.75 575.424 592.75Z" fill="#E4A92D"/>
<path d="M544.792 558.803C557.171 558.803 567.206 547.779 567.206 534.181C567.206 520.582 557.171 509.558 544.792 509.558C532.413 509.558 522.378 520.582 522.378 534.181C522.378 547.779 532.413 558.803 544.792 558.803Z" fill="white"/>
<path d="M544.792 562.534C530.372 562.534 518.642 549.82 518.642 534.181C518.642 518.542 530.372 505.828 544.792 505.828C559.211 505.828 570.941 518.542 570.941 534.181C570.941 549.82 559.211 562.534 544.792 562.534ZM544.792 513.289C534.496 513.289 526.113 522.66 526.113 534.181C526.113 545.701 534.496 555.073 544.792 555.073C555.087 555.073 563.47 545.701 563.47 534.181C563.47 522.66 555.087 513.289 544.792 513.289Z" fill="#534741"/>
<path d="M545.209 559.787C554.881 559.787 562.722 551.435 562.722 541.133C562.722 530.831 554.881 522.48 545.209 522.48C535.537 522.48 527.697 530.831 527.697 541.133C527.697 551.435 535.537 559.787 545.209 559.787Z" fill="#534741"/>
<path d="M542.893 534.478C545.782 534.478 548.123 532.627 548.123 530.344C548.123 528.061 545.782 526.211 542.893 526.211C540.005 526.211 537.664 528.061 537.664 530.344C537.664 532.627 540.005 534.478 542.893 534.478Z" fill="white"/>
<path d="M473.15 558.803C485.529 558.803 495.564 547.779 495.564 534.181C495.564 520.582 485.529 509.558 473.15 509.558C460.771 509.558 450.736 520.582 450.736 534.181C450.736 547.779 460.771 558.803 473.15 558.803Z" fill="white"/>
<path d="M473.15 562.534C458.73 562.534 447 549.82 447 534.181C447 518.542 458.73 505.828 473.15 505.828C487.569 505.828 499.299 518.542 499.299 534.181C499.299 549.82 487.569 562.534 473.15 562.534ZM473.15 513.289C462.855 513.289 454.472 522.66 454.472 534.181C454.472 545.701 462.855 555.073 473.15 555.073C483.445 555.073 491.828 545.701 491.828 534.181C491.828 522.66 483.445 513.289 473.15 513.289Z" fill="#534741"/>
<path d="M473.568 559.787C483.24 559.787 491.08 551.435 491.08 541.133C491.08 530.831 483.24 522.48 473.568 522.48C463.896 522.48 456.055 530.831 456.055 541.133C456.055 551.435 463.896 559.787 473.568 559.787Z" fill="#534741"/>
<path d="M471.252 534.478C474.14 534.478 476.482 532.627 476.482 530.344C476.482 528.061 474.14 526.211 471.252 526.211C468.363 526.211 466.022 528.061 466.022 530.344C466.022 532.627 468.363 534.478 471.252 534.478Z" fill="white"/>
<path d="M562.523 491.02C554.023 484.519 540.703 480.218 528.523 481.118" stroke="#534741" stroke-width="8" stroke-linecap="round"/>
<path d="M451.523 490.992C458.487 485.496 473.023 481 483.523 481" stroke="#534741" stroke-width="8" stroke-linecap="round"/>
<path d="M552.37 598.621C552.515 608.133 548.447 616.07 541.591 623.79C534.395 631.894 523.545 637.568 509.464 637.783C493.966 638.021 484.697 633.246 476.199 624.791C469.403 618.028 465.055 611.382 464.888 600.462C464.849 597.963 467.303 594.924 470.327 596.439C476.413 599.862 488.217 606.106 508.974 605.788C528.754 605.485 541.216 599.292 545.332 596.228C549.448 593.163 552.331 596.119 552.37 598.621Z" fill="#534741"/>
<path d="M838.851 541L849.683 522.279C850.985 520.027 851.339 517.349 850.667 514.836C849.996 512.323 848.354 510.179 846.102 508.876L827.362 498.044V476.458C827.362 473.856 826.328 471.36 824.488 469.52C822.648 467.68 820.153 466.646 817.551 466.646H795.975L785.153 447.915C783.846 445.668 781.706 444.025 779.197 443.343C777.953 443.006 776.654 442.919 775.376 443.087C774.097 443.256 772.865 443.676 771.751 444.324L753.011 455.157L734.271 444.315C732.017 443.013 729.339 442.661 726.826 443.334C724.312 444.008 722.169 445.652 720.868 447.906L710.036 466.646H688.461C685.859 466.646 683.363 467.68 681.523 469.52C679.683 471.36 678.649 473.856 678.649 476.458V498.034L659.91 508.866C658.791 509.509 657.811 510.367 657.026 511.39C656.24 512.414 655.664 513.582 655.331 514.828C654.999 516.075 654.915 517.374 655.087 518.653C655.258 519.932 655.68 521.164 656.328 522.279L667.16 541L656.328 559.721C655.033 561.975 654.682 564.65 655.351 567.163C656.02 569.675 657.655 571.822 659.9 573.133L678.64 583.966V605.542C678.64 608.144 679.673 610.64 681.513 612.48C683.353 614.32 685.849 615.354 688.451 615.354H710.036L720.868 634.094C721.737 635.579 722.977 636.812 724.467 637.672C725.957 638.533 727.645 638.99 729.365 639C731.072 639 732.77 638.549 734.281 637.675L753.001 626.843L771.741 637.675C773.994 638.975 776.67 639.327 779.182 638.656C781.695 637.984 783.839 636.344 785.143 634.094L795.965 615.354H817.541C820.143 615.354 822.638 614.32 824.478 612.48C826.318 610.64 827.352 608.144 827.352 605.542V583.966L846.092 573.133C847.208 572.488 848.187 571.63 848.971 570.606C849.755 569.583 850.33 568.415 850.662 567.169C850.995 565.924 851.079 564.625 850.909 563.347C850.739 562.069 850.319 560.836 849.673 559.721L838.851 541Z" fill="#B6DEFC"/>
<path d="M366.851 541L377.683 522.279C378.985 520.027 379.339 517.349 378.667 514.836C377.996 512.323 376.354 510.179 374.102 508.876L355.362 498.044V476.458C355.362 473.856 354.328 471.36 352.488 469.52C350.648 467.68 348.153 466.646 345.551 466.646H323.975L313.153 447.915C311.846 445.668 309.706 444.025 307.197 443.343C305.953 443.006 304.654 442.919 303.376 443.087C302.097 443.256 300.865 443.676 299.751 444.324L281.011 455.157L262.271 444.315C260.017 443.013 257.339 442.661 254.826 443.334C252.312 444.008 250.169 445.652 248.868 447.906L238.036 466.646H216.461C213.859 466.646 211.363 467.68 209.523 469.52C207.683 471.36 206.649 473.856 206.649 476.458V498.034L187.91 508.866C186.791 509.509 185.811 510.367 185.026 511.39C184.24 512.414 183.664 513.582 183.331 514.828C182.999 516.075 182.915 517.374 183.087 518.653C183.258 519.932 183.68 521.164 184.328 522.279L195.16 541L184.328 559.721C183.033 561.975 182.682 564.65 183.351 567.163C184.02 569.675 185.655 571.822 187.9 573.133L206.64 583.966V605.542C206.64 608.144 207.673 610.64 209.513 612.48C211.353 614.32 213.849 615.354 216.451 615.354H238.036L248.868 634.094C249.737 635.579 250.977 636.812 252.467 637.672C253.957 638.533 255.645 638.99 257.365 639C259.072 639 260.77 638.549 262.281 637.675L281.001 626.843L299.741 637.675C301.994 638.975 304.67 639.327 307.182 638.656C309.695 637.984 311.839 636.344 313.143 634.094L323.965 615.354H345.541C348.143 615.354 350.638 614.32 352.478 612.48C354.318 610.64 355.352 608.144 355.352 605.542V583.966L374.092 573.133C375.208 572.488 376.187 571.63 376.971 570.606C377.755 569.583 378.33 568.415 378.662 567.169C378.995 565.924 379.079 564.625 378.909 563.347C378.739 562.069 378.319 560.836 377.673 559.721L366.851 541Z" fill="#FFEBB2"/>
<path d="M638.968 359.108C635.942 360.937 632.206 358.229 633.001 354.785L637.077 337.134C637.409 335.692 636.919 334.184 635.802 333.214L622.123 321.332C619.457 319.016 620.881 314.633 624.4 314.327L642.478 312.755C643.956 312.626 645.241 311.691 645.817 310.325L652.815 293.737C654.19 290.476 658.81 290.476 660.186 293.737L667.183 310.325C667.759 311.691 669.044 312.626 670.522 312.755L688.6 314.327C692.119 314.633 693.543 319.016 690.877 321.332L677.198 333.214C676.081 334.184 675.591 335.692 675.923 337.134L679.999 354.785C680.794 358.229 677.058 360.937 674.032 359.108L658.569 349.762C657.297 348.993 655.703 348.993 654.431 349.762L638.968 359.108Z" fill="#7BFAC4"/>
<path d="M105.968 724.108C102.942 725.937 99.2061 723.229 100.001 719.785L104.077 702.134C104.409 700.692 103.919 699.184 102.802 698.214L89.1231 686.332C86.4568 684.016 87.8812 679.633 91.3996 679.327L109.478 677.755C110.956 677.626 112.241 676.691 112.817 675.325L119.815 658.737C121.19 655.476 125.81 655.476 127.186 658.737L134.183 675.325C134.759 676.691 136.044 677.626 137.522 677.755L155.6 679.327C159.119 679.633 160.543 684.016 157.877 686.332L144.198 698.214C143.081 699.184 142.591 700.692 142.923 702.134L146.999 719.785C147.794 723.229 144.058 725.937 141.032 724.108L125.569 714.762C124.297 713.993 122.703 713.993 121.431 714.762L105.968 724.108Z" fill="#FF9C42"/>
<path d="M256.851 786.06C253.83 787.903 250.08 785.203 250.869 781.753L252.365 775.209C252.693 773.776 252.209 772.279 251.103 771.31L246.041 766.871C243.393 764.549 244.82 760.186 248.328 759.878L254.951 759.297C256.432 759.167 257.719 758.226 258.292 756.855L260.809 750.832C262.179 747.555 266.821 747.555 268.191 750.832L270.708 756.855C271.281 758.226 272.568 759.167 274.049 759.297L280.672 759.878C284.18 760.186 285.607 764.549 282.959 766.871L277.897 771.31C276.791 772.279 276.307 773.776 276.635 775.209L278.131 781.753C278.92 785.203 275.17 787.903 272.149 786.06L266.583 782.664C265.304 781.884 263.696 781.884 262.417 782.664L256.851 786.06Z" fill="#7BFAC4"/>
<path d="M73.8512 439.06C70.83 440.903 67.0796 438.203 67.8687 434.753L69.3654 428.209C69.6932 426.776 69.2085 425.279 68.1032 424.31L63.0407 419.871C60.393 417.549 61.8202 413.186 65.328 412.878L71.9514 412.297C73.4324 412.167 74.7191 411.226 75.2923 409.855L77.8093 403.832C79.1787 400.555 83.8213 400.555 85.1907 403.832L87.7077 409.855C88.2809 411.226 89.5676 412.167 91.0486 412.297L97.672 412.878C101.18 413.186 102.607 417.549 99.9593 419.871L94.8968 424.31C93.7915 425.279 93.3068 426.776 93.6346 428.209L95.1313 434.753C95.9204 438.203 92.17 440.903 89.1488 439.06L83.5832 435.664C82.304 434.884 80.6959 434.884 79.4167 435.664L73.8512 439.06Z" fill="#FD7BAC"/>
<path d="M89.8512 880.06C86.83 881.903 83.0796 879.203 83.8687 875.753L85.3654 869.209C85.6932 867.776 85.2085 866.279 84.1032 865.31L79.0407 860.871C76.393 858.549 77.8202 854.186 81.328 853.878L87.9514 853.297C89.4324 853.167 90.7191 852.226 91.2923 850.855L93.8093 844.832C95.1787 841.555 99.8213 841.555 101.191 844.832L103.708 850.855C104.281 852.226 105.568 853.167 107.049 853.297L113.672 853.878C117.18 854.186 118.607 858.549 115.959 860.871L110.897 865.31C109.791 866.279 109.307 867.776 109.635 869.209L111.131 875.753C111.92 879.203 108.17 881.903 105.149 880.06L99.5832 876.664C98.304 875.884 96.6959 875.884 95.4167 876.664L89.8512 880.06Z" fill="#FFEBB2"/>
<path d="M709.851 238.06C706.83 239.903 703.08 237.203 703.869 233.753L705.365 227.209C705.693 225.776 705.209 224.279 704.103 223.31L699.041 218.871C696.393 216.549 697.82 212.186 701.328 211.878L707.951 211.297C709.432 211.167 710.719 210.226 711.292 208.855L713.809 202.832C715.179 199.555 719.821 199.555 721.191 202.832L723.708 208.855C724.281 210.226 725.568 211.167 727.049 211.297L733.672 211.878C737.18 212.186 738.607 216.549 735.959 218.871L730.897 223.31C729.791 224.279 729.307 225.776 729.635 227.209L731.131 233.753C731.92 237.203 728.17 239.903 725.149 238.06L719.583 234.664C718.304 233.884 716.696 233.884 715.417 234.664L709.851 238.06Z" fill="#FFEBB2"/>
<path d="M907.851 347.06C904.83 348.903 901.08 346.203 901.869 342.753L903.365 336.209C903.693 334.776 903.209 333.279 902.103 332.31L897.041 327.871C894.393 325.549 895.82 321.186 899.328 320.878L905.951 320.297C907.432 320.167 908.719 319.226 909.292 317.855L911.809 311.832C913.179 308.555 917.821 308.555 919.191 311.832L921.708 317.855C922.281 319.226 923.568 320.167 925.049 320.297L931.672 320.878C935.18 321.186 936.607 325.549 933.959 327.871L928.897 332.31C927.791 333.279 927.307 334.776 927.635 336.209L929.131 342.753C929.92 346.203 926.17 348.903 923.149 347.06L917.583 343.664C916.304 342.884 914.696 342.884 913.417 343.664L907.851 347.06Z" fill="#E87461"/>
<rect x="69" y="962" width="853" height="144" rx="25" fill="#CB3B34"/>
<rect x="69" y="954" width="853" height="144" rx="25" fill="#F54F47"/>
<rect x="91" y="977" width="807" height="98" rx="12" fill="#FFB7AB"/>
<mask id="path-50-outside-1_88_2986" maskUnits="userSpaceOnUse" x="128.515" y="996" width="732" height="59" fill="black">
<rect fill="white" x="128.515" y="996" width="732" height="59"/>
<path d="M133.15 1025.36C133.15 1020.51 134.2 1016.19 136.3 1012.41C138.4 1008.58 141.317 1005.62 145.05 1003.52C148.83 1001.37 153.1 1000.3 157.86 1000.3C163.694 1000.3 168.687 1001.84 172.84 1004.92C176.994 1008 179.77 1012.2 181.17 1017.52H168.01C167.03 1015.47 165.63 1013.9 163.81 1012.83C162.037 1011.76 160.007 1011.22 157.72 1011.22C154.034 1011.22 151.047 1012.5 148.76 1015.07C146.474 1017.64 145.33 1021.07 145.33 1025.36C145.33 1029.65 146.474 1033.08 148.76 1035.65C151.047 1038.22 154.034 1039.5 157.72 1039.5C160.007 1039.5 162.037 1038.96 163.81 1037.89C165.63 1036.82 167.03 1035.25 168.01 1033.2H181.17C179.77 1038.52 176.994 1042.72 172.84 1045.8C168.687 1048.83 163.694 1050.35 157.86 1050.35C153.1 1050.35 148.83 1049.3 145.05 1047.2C141.317 1045.05 138.4 1042.09 136.3 1038.31C134.2 1034.53 133.15 1030.21 133.15 1025.36ZM213.741 1050.49C209.121 1050.49 204.874 1049.42 201.001 1047.27C197.174 1045.12 194.117 1042.14 191.831 1038.31C189.591 1034.44 188.471 1030.1 188.471 1025.29C188.471 1020.48 189.591 1016.17 191.831 1012.34C194.117 1008.51 197.174 1005.53 201.001 1003.38C204.874 1001.23 209.121 1000.16 213.741 1000.16C218.361 1000.16 222.584 1001.23 226.411 1003.38C230.284 1005.53 233.317 1008.51 235.511 1012.34C237.751 1016.17 238.871 1020.48 238.871 1025.29C238.871 1030.1 237.751 1034.44 235.511 1038.31C233.271 1042.14 230.237 1045.12 226.411 1047.27C222.584 1049.42 218.361 1050.49 213.741 1050.49ZM213.741 1039.57C217.661 1039.57 220.787 1038.26 223.121 1035.65C225.501 1033.04 226.691 1029.58 226.691 1025.29C226.691 1020.95 225.501 1017.5 223.121 1014.93C220.787 1012.32 217.661 1011.01 213.741 1011.01C209.774 1011.01 206.601 1012.29 204.221 1014.86C201.887 1017.43 200.721 1020.9 200.721 1025.29C200.721 1029.63 201.887 1033.11 204.221 1035.72C206.601 1038.29 209.774 1039.57 213.741 1039.57ZM291.49 1050H279.52L259.5 1019.69V1050H247.53V1000.86H259.5L279.52 1031.31V1000.86H291.49V1050ZM334.787 1016.4C333.9 1014.77 332.617 1013.53 330.937 1012.69C329.303 1011.8 327.367 1011.36 325.127 1011.36C321.253 1011.36 318.15 1012.64 315.817 1015.21C313.483 1017.73 312.317 1021.11 312.317 1025.36C312.317 1029.89 313.53 1033.43 315.957 1036C318.43 1038.52 321.813 1039.78 326.107 1039.78C329.047 1039.78 331.52 1039.03 333.527 1037.54C335.58 1036.05 337.073 1033.9 338.007 1031.1H322.817V1022.28H348.857V1033.41C347.97 1036.4 346.453 1039.17 344.307 1041.74C342.207 1044.31 339.523 1046.38 336.257 1047.97C332.99 1049.56 329.303 1050.35 325.197 1050.35C320.343 1050.35 316.003 1049.3 312.177 1047.2C308.397 1045.05 305.433 1042.09 303.287 1038.31C301.187 1034.53 300.137 1030.21 300.137 1025.36C300.137 1020.51 301.187 1016.19 303.287 1012.41C305.433 1008.58 308.397 1005.62 312.177 1003.52C315.957 1001.37 320.273 1000.3 325.127 1000.3C331.007 1000.3 335.953 1001.72 339.967 1004.57C344.027 1007.42 346.71 1011.36 348.017 1016.4H334.787ZM382.547 1050L372.327 1031.45H369.457V1050H357.487V1000.86H377.577C381.45 1000.86 384.74 1001.54 387.447 1002.89C390.2 1004.24 392.254 1006.11 393.607 1008.49C394.96 1010.82 395.637 1013.44 395.637 1016.33C395.637 1019.6 394.704 1022.51 392.837 1025.08C391.017 1027.65 388.31 1029.47 384.717 1030.54L396.057 1050H382.547ZM369.457 1022.98H376.877C379.07 1022.98 380.704 1022.44 381.777 1021.37C382.897 1020.3 383.457 1018.78 383.457 1016.82C383.457 1014.95 382.897 1013.48 381.777 1012.41C380.704 1011.34 379.07 1010.8 376.877 1010.8H369.457V1022.98ZM435.741 1041.32H417.401L414.461 1050H401.931L419.711 1000.86H433.571L451.351 1050H438.681L435.741 1041.32ZM432.661 1032.08L426.571 1014.09L420.551 1032.08H432.661ZM494.112 1000.86V1010.45H481.092V1050H469.122V1010.45H456.102V1000.86H494.112ZM513.88 1000.86V1030.26C513.88 1033.2 514.603 1035.46 516.05 1037.05C517.496 1038.64 519.62 1039.43 522.42 1039.43C525.22 1039.43 527.366 1038.64 528.86 1037.05C530.353 1035.46 531.1 1033.2 531.1 1030.26V1000.86H543.07V1030.19C543.07 1034.58 542.136 1038.29 540.27 1041.32C538.403 1044.35 535.883 1046.64 532.71 1048.18C529.583 1049.72 526.083 1050.49 522.21 1050.49C518.336 1050.49 514.86 1049.74 511.78 1048.25C508.746 1046.71 506.343 1044.42 504.57 1041.39C502.796 1038.31 501.91 1034.58 501.91 1030.19V1000.86H513.88ZM565.445 1040.76H581.125V1050H553.475V1000.86H565.445V1040.76ZM619.425 1041.32H601.085L598.145 1050H585.615L603.395 1000.86H617.255L635.035 1050H622.365L619.425 1041.32ZM616.345 1032.08L610.255 1014.09L604.235 1032.08H616.345ZM677.796 1000.86V1010.45H664.776V1050H652.806V1010.45H639.786V1000.86H677.796ZM697.773 1000.86V1050H685.803V1000.86H697.773ZM731.688 1050.49C727.068 1050.49 722.821 1049.42 718.948 1047.27C715.121 1045.12 712.064 1042.14 709.778 1038.31C707.538 1034.44 706.418 1030.1 706.418 1025.29C706.418 1020.48 707.538 1016.17 709.778 1012.34C712.064 1008.51 715.121 1005.53 718.948 1003.38C722.821 1001.23 727.068 1000.16 731.688 1000.16C736.308 1000.16 740.531 1001.23 744.358 1003.38C748.231 1005.53 751.264 1008.51 753.458 1012.34C755.698 1016.17 756.818 1020.48 756.818 1025.29C756.818 1030.1 755.698 1034.44 753.458 1038.31C751.218 1042.14 748.184 1045.12 744.358 1047.27C740.531 1049.42 736.308 1050.49 731.688 1050.49ZM731.688 1039.57C735.608 1039.57 738.734 1038.26 741.068 1035.65C743.448 1033.04 744.638 1029.58 744.638 1025.29C744.638 1020.95 743.448 1017.5 741.068 1014.93C738.734 1012.32 735.608 1011.01 731.688 1011.01C727.721 1011.01 724.548 1012.29 722.168 1014.86C719.834 1017.43 718.668 1020.9 718.668 1025.29C718.668 1029.63 719.834 1033.11 722.168 1035.72C724.548 1038.29 727.721 1039.57 731.688 1039.57ZM809.437 1050H797.467L777.447 1019.69V1050H765.477V1000.86H777.447L797.467 1031.31V1000.86H809.437V1050ZM837.894 1050.49C834.3 1050.49 831.08 1049.91 828.234 1048.74C825.387 1047.57 823.1 1045.85 821.374 1043.56C819.694 1041.27 818.807 1038.52 818.714 1035.3H831.454C831.64 1037.12 832.27 1038.52 833.344 1039.5C834.417 1040.43 835.817 1040.9 837.544 1040.9C839.317 1040.9 840.717 1040.5 841.744 1039.71C842.77 1038.87 843.284 1037.73 843.284 1036.28C843.284 1035.07 842.864 1034.06 842.024 1033.27C841.23 1032.48 840.227 1031.82 839.014 1031.31C837.847 1030.8 836.167 1030.21 833.974 1029.56C830.8 1028.58 828.21 1027.6 826.204 1026.62C824.197 1025.64 822.47 1024.19 821.024 1022.28C819.577 1020.37 818.854 1017.87 818.854 1014.79C818.854 1010.22 820.51 1006.65 823.824 1004.08C827.137 1001.47 831.454 1000.16 836.774 1000.16C842.187 1000.16 846.55 1001.47 849.864 1004.08C853.177 1006.65 854.95 1010.24 855.184 1014.86H842.234C842.14 1013.27 841.557 1012.04 840.484 1011.15C839.41 1010.22 838.034 1009.75 836.354 1009.75C834.907 1009.75 833.74 1010.15 832.854 1010.94C831.967 1011.69 831.524 1012.78 831.524 1014.23C831.524 1015.82 832.27 1017.05 833.764 1017.94C835.257 1018.83 837.59 1019.78 840.764 1020.81C843.937 1021.88 846.504 1022.91 848.464 1023.89C850.47 1024.87 852.197 1026.29 853.644 1028.16C855.09 1030.03 855.814 1032.43 855.814 1035.37C855.814 1038.17 855.09 1040.71 853.644 1043C852.244 1045.29 850.19 1047.11 847.484 1048.46C844.777 1049.81 841.58 1050.49 837.894 1050.49Z"/>
</mask>
<path d="M133.15 1025.36C133.15 1020.51 134.2 1016.19 136.3 1012.41C138.4 1008.58 141.317 1005.62 145.05 1003.52C148.83 1001.37 153.1 1000.3 157.86 1000.3C163.694 1000.3 168.687 1001.84 172.84 1004.92C176.994 1008 179.77 1012.2 181.17 1017.52H168.01C167.03 1015.47 165.63 1013.9 163.81 1012.83C162.037 1011.76 160.007 1011.22 157.72 1011.22C154.034 1011.22 151.047 1012.5 148.76 1015.07C146.474 1017.64 145.33 1021.07 145.33 1025.36C145.33 1029.65 146.474 1033.08 148.76 1035.65C151.047 1038.22 154.034 1039.5 157.72 1039.5C160.007 1039.5 162.037 1038.96 163.81 1037.89C165.63 1036.82 167.03 1035.25 168.01 1033.2H181.17C179.77 1038.52 176.994 1042.72 172.84 1045.8C168.687 1048.83 163.694 1050.35 157.86 1050.35C153.1 1050.35 148.83 1049.3 145.05 1047.2C141.317 1045.05 138.4 1042.09 136.3 1038.31C134.2 1034.53 133.15 1030.21 133.15 1025.36ZM213.741 1050.49C209.121 1050.49 204.874 1049.42 201.001 1047.27C197.174 1045.12 194.117 1042.14 191.831 1038.31C189.591 1034.44 188.471 1030.1 188.471 1025.29C188.471 1020.48 189.591 1016.17 191.831 1012.34C194.117 1008.51 197.174 1005.53 201.001 1003.38C204.874 1001.23 209.121 1000.16 213.741 1000.16C218.361 1000.16 222.584 1001.23 226.411 1003.38C230.284 1005.53 233.317 1008.51 235.511 1012.34C237.751 1016.17 238.871 1020.48 238.871 1025.29C238.871 1030.1 237.751 1034.44 235.511 1038.31C233.271 1042.14 230.237 1045.12 226.411 1047.27C222.584 1049.42 218.361 1050.49 213.741 1050.49ZM213.741 1039.57C217.661 1039.57 220.787 1038.26 223.121 1035.65C225.501 1033.04 226.691 1029.58 226.691 1025.29C226.691 1020.95 225.501 1017.5 223.121 1014.93C220.787 1012.32 217.661 1011.01 213.741 1011.01C209.774 1011.01 206.601 1012.29 204.221 1014.86C201.887 1017.43 200.721 1020.9 200.721 1025.29C200.721 1029.63 201.887 1033.11 204.221 1035.72C206.601 1038.29 209.774 1039.57 213.741 1039.57ZM291.49 1050H279.52L259.5 1019.69V1050H247.53V1000.86H259.5L279.52 1031.31V1000.86H291.49V1050ZM334.787 1016.4C333.9 1014.77 332.617 1013.53 330.937 1012.69C329.303 1011.8 327.367 1011.36 325.127 1011.36C321.253 1011.36 318.15 1012.64 315.817 1015.21C313.483 1017.73 312.317 1021.11 312.317 1025.36C312.317 1029.89 313.53 1033.43 315.957 1036C318.43 1038.52 321.813 1039.78 326.107 1039.78C329.047 1039.78 331.52 1039.03 333.527 1037.54C335.58 1036.05 337.073 1033.9 338.007 1031.1H322.817V1022.28H348.857V1033.41C347.97 1036.4 346.453 1039.17 344.307 1041.74C342.207 1044.31 339.523 1046.38 336.257 1047.97C332.99 1049.56 329.303 1050.35 325.197 1050.35C320.343 1050.35 316.003 1049.3 312.177 1047.2C308.397 1045.05 305.433 1042.09 303.287 1038.31C301.187 1034.53 300.137 1030.21 300.137 1025.36C300.137 1020.51 301.187 1016.19 303.287 1012.41C305.433 1008.58 308.397 1005.62 312.177 1003.52C315.957 1001.37 320.273 1000.3 325.127 1000.3C331.007 1000.3 335.953 1001.72 339.967 1004.57C344.027 1007.42 346.71 1011.36 348.017 1016.4H334.787ZM382.547 1050L372.327 1031.45H369.457V1050H357.487V1000.86H377.577C381.45 1000.86 384.74 1001.54 387.447 1002.89C390.2 1004.24 392.254 1006.11 393.607 1008.49C394.96 1010.82 395.637 1013.44 395.637 1016.33C395.637 1019.6 394.704 1022.51 392.837 1025.08C391.017 1027.65 388.31 1029.47 384.717 1030.54L396.057 1050H382.547ZM369.457 1022.98H376.877C379.07 1022.98 380.704 1022.44 381.777 1021.37C382.897 1020.3 383.457 1018.78 383.457 1016.82C383.457 1014.95 382.897 1013.48 381.777 1012.41C380.704 1011.34 379.07 1010.8 376.877 1010.8H369.457V1022.98ZM435.741 1041.32H417.401L414.461 1050H401.931L419.711 1000.86H433.571L451.351 1050H438.681L435.741 1041.32ZM432.661 1032.08L426.571 1014.09L420.551 1032.08H432.661ZM494.112 1000.86V1010.45H481.092V1050H469.122V1010.45H456.102V1000.86H494.112ZM513.88 1000.86V1030.26C513.88 1033.2 514.603 1035.46 516.05 1037.05C517.496 1038.64 519.62 1039.43 522.42 1039.43C525.22 1039.43 527.366 1038.64 528.86 1037.05C530.353 1035.46 531.1 1033.2 531.1 1030.26V1000.86H543.07V1030.19C543.07 1034.58 542.136 1038.29 540.27 1041.32C538.403 1044.35 535.883 1046.64 532.71 1048.18C529.583 1049.72 526.083 1050.49 522.21 1050.49C518.336 1050.49 514.86 1049.74 511.78 1048.25C508.746 1046.71 506.343 1044.42 504.57 1041.39C502.796 1038.31 501.91 1034.58 501.91 1030.19V1000.86H513.88ZM565.445 1040.76H581.125V1050H553.475V1000.86H565.445V1040.76ZM619.425 1041.32H601.085L598.145 1050H585.615L603.395 1000.86H617.255L635.035 1050H622.365L619.425 1041.32ZM616.345 1032.08L610.255 1014.09L604.235 1032.08H616.345ZM677.796 1000.86V1010.45H664.776V1050H652.806V1010.45H639.786V1000.86H677.796ZM697.773 1000.86V1050H685.803V1000.86H697.773ZM731.688 1050.49C727.068 1050.49 722.821 1049.42 718.948 1047.27C715.121 1045.12 712.064 1042.14 709.778 1038.31C707.538 1034.44 706.418 1030.1 706.418 1025.29C706.418 1020.48 707.538 1016.17 709.778 1012.34C712.064 1008.51 715.121 1005.53 718.948 1003.38C722.821 1001.23 727.068 1000.16 731.688 1000.16C736.308 1000.16 740.531 1001.23 744.358 1003.38C748.231 1005.53 751.264 1008.51 753.458 1012.34C755.698 1016.17 756.818 1020.48 756.818 1025.29C756.818 1030.1 755.698 1034.44 753.458 1038.31C751.218 1042.14 748.184 1045.12 744.358 1047.27C740.531 1049.42 736.308 1050.49 731.688 1050.49ZM731.688 1039.57C735.608 1039.57 738.734 1038.26 741.068 1035.65C743.448 1033.04 744.638 1029.58 744.638 1025.29C744.638 1020.95 743.448 1017.5 741.068 1014.93C738.734 1012.32 735.608 1011.01 731.688 1011.01C727.721 1011.01 724.548 1012.29 722.168 1014.86C719.834 1017.43 718.668 1020.9 718.668 1025.29C718.668 1029.63 719.834 1033.11 722.168 1035.72C724.548 1038.29 727.721 1039.57 731.688 1039.57ZM809.437 1050H797.467L777.447 1019.69V1050H765.477V1000.86H777.447L797.467 1031.31V1000.86H809.437V1050ZM837.894 1050.49C834.3 1050.49 831.08 1049.91 828.234 1048.74C825.387 1047.57 823.1 1045.85 821.374 1043.56C819.694 1041.27 818.807 1038.52 818.714 1035.3H831.454C831.64 1037.12 832.27 1038.52 833.344 1039.5C834.417 1040.43 835.817 1040.9 837.544 1040.9C839.317 1040.9 840.717 1040.5 841.744 1039.71C842.77 1038.87 843.284 1037.73 843.284 1036.28C843.284 1035.07 842.864 1034.06 842.024 1033.27C841.23 1032.48 840.227 1031.82 839.014 1031.31C837.847 1030.8 836.167 1030.21 833.974 1029.56C830.8 1028.58 828.21 1027.6 826.204 1026.62C824.197 1025.64 822.47 1024.19 821.024 1022.28C819.577 1020.37 818.854 1017.87 818.854 1014.79C818.854 1010.22 820.51 1006.65 823.824 1004.08C827.137 1001.47 831.454 1000.16 836.774 1000.16C842.187 1000.16 846.55 1001.47 849.864 1004.08C853.177 1006.65 854.95 1010.24 855.184 1014.86H842.234C842.14 1013.27 841.557 1012.04 840.484 1011.15C839.41 1010.22 838.034 1009.75 836.354 1009.75C834.907 1009.75 833.74 1010.15 832.854 1010.94C831.967 1011.69 831.524 1012.78 831.524 1014.23C831.524 1015.82 832.27 1017.05 833.764 1017.94C835.257 1018.83 837.59 1019.78 840.764 1020.81C843.937 1021.88 846.504 1022.91 848.464 1023.89C850.47 1024.87 852.197 1026.29 853.644 1028.16C855.09 1030.03 855.814 1032.43 855.814 1035.37C855.814 1038.17 855.09 1040.71 853.644 1043C852.244 1045.29 850.19 1047.11 847.484 1048.46C844.777 1049.81 841.58 1050.49 837.894 1050.49Z" fill="white"/>
<path d="M136.3 1012.41L139.797 1014.35L139.802 1014.34L139.807 1014.33L136.3 1012.41ZM145.05 1003.52L147.011 1007.01L147.018 1007L147.026 1007L145.05 1003.52ZM172.84 1004.92L175.223 1001.71L175.223 1001.71L172.84 1004.92ZM181.17 1017.52V1021.52H186.359L185.039 1016.5L181.17 1017.52ZM168.01 1017.52L164.4 1019.24L165.487 1021.52H168.01V1017.52ZM163.81 1012.83L161.739 1016.25L161.759 1016.26L161.778 1016.28L163.81 1012.83ZM148.76 1015.07L151.747 1017.73L151.747 1017.73L148.76 1015.07ZM163.81 1037.89L161.778 1034.44L161.759 1034.46L161.739 1034.47L163.81 1037.89ZM168.01 1033.2V1029.2H165.487L164.4 1031.48L168.01 1033.2ZM181.17 1033.2L185.039 1034.22L186.359 1029.2H181.17V1033.2ZM172.84 1045.8L175.199 1049.03L175.211 1049.02L175.223 1049.01L172.84 1045.8ZM145.05 1047.2L143.056 1050.67L143.082 1050.68L143.108 1050.7L145.05 1047.2ZM136.3 1038.31L139.797 1036.37L139.797 1036.37L136.3 1038.31ZM137.15 1025.36C137.15 1021.1 138.066 1017.47 139.797 1014.35L132.804 1010.47C130.335 1014.91 129.15 1019.91 129.15 1025.36H137.15ZM139.807 1014.33C141.555 1011.15 143.942 1008.73 147.011 1007.01L143.089 1000.03C138.692 1002.51 135.246 1006.02 132.794 1010.49L139.807 1014.33ZM147.026 1007C150.147 1005.23 153.725 1004.3 157.86 1004.3V996.3C152.475 996.3 147.513 997.521 143.075 1000.04L147.026 1007ZM157.86 1004.3C162.951 1004.3 167.08 1005.63 170.458 1008.13L175.223 1001.71C170.293 998.051 164.437 996.3 157.86 996.3V1004.3ZM170.458 1008.13C173.832 1010.64 176.117 1014.04 177.302 1018.54L185.039 1016.5C183.423 1010.36 180.155 1005.36 175.223 1001.71L170.458 1008.13ZM181.17 1013.52H168.01V1021.52H181.17V1013.52ZM171.62 1015.8C170.325 1013.08 168.401 1010.89 165.842 1009.38L161.778 1016.28C162.859 1016.91 163.736 1017.85 164.4 1019.24L171.62 1015.8ZM165.881 1009.41C163.42 1007.92 160.659 1007.22 157.72 1007.22V1015.22C159.354 1015.22 160.654 1015.6 161.739 1016.25L165.881 1009.41ZM157.72 1007.22C152.986 1007.22 148.879 1008.92 145.774 1012.41L151.747 1017.73C153.215 1016.08 155.081 1015.22 157.72 1015.22V1007.22ZM145.774 1012.41C142.683 1015.88 141.33 1020.34 141.33 1025.36H149.33C149.33 1021.79 150.264 1019.4 151.747 1017.73L145.774 1012.41ZM141.33 1025.36C141.33 1030.38 142.683 1034.84 145.774 1038.31L151.747 1032.99C150.264 1031.32 149.33 1028.93 149.33 1025.36H141.33ZM145.774 1038.31C148.879 1041.8 152.986 1043.5 157.72 1043.5V1035.5C155.081 1035.5 153.215 1034.64 151.747 1032.99L145.774 1038.31ZM157.72 1043.5C160.659 1043.5 163.42 1042.8 165.881 1041.31L161.739 1034.47C160.654 1035.12 159.354 1035.5 157.72 1035.5V1043.5ZM165.842 1041.34C168.401 1039.83 170.325 1037.64 171.62 1034.92L164.4 1031.48C163.736 1032.87 162.859 1033.81 161.778 1034.44L165.842 1041.34ZM168.01 1037.2H181.17V1029.2H168.01V1037.2ZM177.302 1032.18C176.117 1036.68 173.832 1040.08 170.458 1042.59L175.223 1049.01C180.155 1045.36 183.423 1040.36 185.039 1034.22L177.302 1032.18ZM170.481 1042.57C167.103 1045.04 162.964 1046.35 157.86 1046.35V1054.35C164.423 1054.35 170.271 1052.63 175.199 1049.03L170.481 1042.57ZM157.86 1046.35C153.71 1046.35 150.12 1045.44 146.993 1043.7L143.108 1050.7C147.54 1053.16 152.491 1054.35 157.86 1054.35V1046.35ZM147.044 1043.73C143.944 1041.95 141.545 1039.51 139.797 1036.37L132.804 1040.25C135.255 1044.67 138.69 1048.16 143.056 1050.67L147.044 1043.73ZM139.797 1036.37C138.066 1033.25 137.15 1029.62 137.15 1025.36H129.15C129.15 1030.81 130.335 1035.81 132.804 1040.25L139.797 1036.37ZM201.001 1047.27L199.044 1050.76L199.053 1050.76L199.062 1050.77L201.001 1047.27ZM191.831 1038.31L188.368 1040.31L188.382 1040.34L188.397 1040.36L191.831 1038.31ZM191.831 1012.34L188.397 1010.29L188.388 1010.3L188.378 1010.32L191.831 1012.34ZM201.001 1003.38L199.062 999.881L199.053 999.886L199.044 999.891L201.001 1003.38ZM226.411 1003.38L224.454 1006.87L224.463 1006.87L224.472 1006.88L226.411 1003.38ZM235.511 1012.34L232.04 1014.33L232.049 1014.34L232.058 1014.36L235.511 1012.34ZM235.511 1038.31L238.963 1040.33L238.968 1040.32L238.973 1040.31L235.511 1038.31ZM226.411 1047.27L228.368 1050.76L228.368 1050.76L226.411 1047.27ZM223.121 1035.65L220.163 1032.96L220.15 1032.97L220.137 1032.99L223.121 1035.65ZM223.121 1014.93L220.137 1017.59L220.162 1017.62L220.187 1017.65L223.121 1014.93ZM204.221 1014.86L201.287 1012.14L201.274 1012.15L201.261 1012.17L204.221 1014.86ZM204.221 1035.72L201.237 1038.38L201.262 1038.41L201.287 1038.44L204.221 1035.72ZM213.741 1046.49C209.768 1046.49 206.193 1045.57 202.94 1043.77L199.062 1050.77C203.554 1053.26 208.473 1054.49 213.741 1054.49V1046.49ZM202.958 1043.78C199.75 1041.98 197.199 1039.5 195.264 1036.26L188.397 1040.36C191.036 1044.78 194.597 1048.26 199.044 1050.76L202.958 1043.78ZM195.293 1036.31C193.431 1033.09 192.471 1029.45 192.471 1025.29H184.471C184.471 1030.75 185.75 1035.79 188.368 1040.31L195.293 1036.31ZM192.471 1025.29C192.471 1021.13 193.431 1017.52 195.283 1014.36L188.378 1010.32C185.75 1014.81 184.471 1019.83 184.471 1025.29H192.471ZM195.264 1014.39C197.199 1011.15 199.75 1008.67 202.958 1006.87L199.044 999.891C194.597 1002.39 191.036 1005.87 188.397 1010.29L195.264 1014.39ZM202.94 1006.88C206.193 1005.08 209.768 1004.16 213.741 1004.16V996.16C208.473 996.16 203.554 997.391 199.062 999.881L202.94 1006.88ZM213.741 1004.16C217.713 1004.16 221.257 1005.08 224.454 1006.87L228.368 999.891C223.911 997.391 219.008 996.16 213.741 996.16V1004.16ZM224.472 1006.88C227.709 1008.67 230.211 1011.14 232.04 1014.33L238.981 1010.35C236.423 1005.89 232.859 1002.38 228.35 999.881L224.472 1006.88ZM232.058 1014.36C233.91 1017.52 234.871 1021.13 234.871 1025.29H242.871C242.871 1019.83 241.591 1014.81 238.963 1010.32L232.058 1014.36ZM234.871 1025.29C234.871 1029.45 233.91 1033.09 232.048 1036.31L238.973 1040.31C241.591 1035.79 242.871 1030.75 242.871 1025.29H234.871ZM232.058 1036.29C230.174 1039.51 227.653 1041.99 224.454 1043.78L228.368 1050.76C232.821 1048.26 236.367 1044.76 238.963 1040.33L232.058 1036.29ZM224.454 1043.78C221.257 1045.57 217.713 1046.49 213.741 1046.49V1054.49C219.008 1054.49 223.911 1053.26 228.368 1050.76L224.454 1043.78ZM213.741 1043.57C218.649 1043.57 222.917 1041.88 226.104 1038.31L220.137 1032.99C218.657 1034.64 216.672 1035.57 213.741 1035.57V1043.57ZM226.078 1038.34C229.266 1034.84 230.691 1030.35 230.691 1025.29H222.691C222.691 1028.81 221.735 1031.23 220.163 1032.96L226.078 1038.34ZM230.691 1025.29C230.691 1020.19 229.274 1015.68 226.054 1012.21L220.187 1017.65C221.727 1019.31 222.691 1021.71 222.691 1025.29H230.691ZM226.104 1012.27C222.917 1008.7 218.649 1007.01 213.741 1007.01V1015.01C216.672 1015.01 218.657 1015.94 220.137 1017.59L226.104 1012.27ZM213.741 1007.01C208.824 1007.01 204.529 1008.64 201.287 1012.14L207.154 1017.58C208.672 1015.94 210.724 1015.01 213.741 1015.01V1007.01ZM201.261 1012.17C198.095 1015.65 196.721 1020.18 196.721 1025.29H204.721C204.721 1021.63 205.68 1019.2 207.18 1017.55L201.261 1012.17ZM196.721 1025.29C196.721 1030.37 198.103 1034.87 201.237 1038.38L207.204 1033.06C205.672 1031.34 204.721 1028.89 204.721 1025.29H196.721ZM201.287 1038.44C204.529 1041.94 208.824 1043.57 213.741 1043.57V1035.57C210.724 1035.57 208.672 1034.64 207.154 1033L201.287 1038.44ZM291.49 1050V1054H295.49V1050H291.49ZM279.52 1050L276.182 1052.2L277.368 1054H279.52V1050ZM259.5 1019.69L262.837 1017.49L255.5 1006.38V1019.69H259.5ZM259.5 1050V1054H263.5V1050H259.5ZM247.53 1050H243.53V1054H247.53V1050ZM247.53 1000.86V996.86H243.53V1000.86H247.53ZM259.5 1000.86L262.842 998.663L261.657 996.86H259.5V1000.86ZM279.52 1031.31L276.178 1033.51L283.52 1044.67V1031.31H279.52ZM279.52 1000.86V996.86H275.52V1000.86H279.52ZM291.49 1000.86H295.49V996.86H291.49V1000.86ZM291.49 1046H279.52V1054H291.49V1046ZM282.857 1047.8L262.837 1017.49L256.162 1021.89L276.182 1052.2L282.857 1047.8ZM255.5 1019.69V1050H263.5V1019.69H255.5ZM259.5 1046H247.53V1054H259.5V1046ZM251.53 1050V1000.86H243.53V1050H251.53ZM247.53 1004.86H259.5V996.86H247.53V1004.86ZM256.158 1003.06L276.178 1033.51L282.862 1029.11L262.842 998.663L256.158 1003.06ZM283.52 1031.31V1000.86H275.52V1031.31H283.52ZM279.52 1004.86H291.49V996.86H279.52V1004.86ZM287.49 1000.86V1050H295.49V1000.86H287.49ZM334.787 1016.4L331.271 1018.31L332.407 1020.4H334.787V1016.4ZM330.937 1012.69L329.028 1016.21L329.087 1016.24L329.148 1016.27L330.937 1012.69ZM315.817 1015.21L318.752 1017.93L318.764 1017.91L318.776 1017.9L315.817 1015.21ZM315.957 1036L313.05 1038.75L313.076 1038.78L313.102 1038.8L315.957 1036ZM333.527 1037.54L331.174 1034.31L331.156 1034.32L331.139 1034.33L333.527 1037.54ZM338.007 1031.1L341.801 1032.36L343.556 1027.1H338.007V1031.1ZM322.817 1031.1H318.817V1035.1H322.817V1031.1ZM322.817 1022.28V1018.28H318.817V1022.28H322.817ZM348.857 1022.28H352.857V1018.28H348.857V1022.28ZM348.857 1033.41L352.691 1034.55L352.857 1033.99V1033.41H348.857ZM344.307 1041.74L341.238 1039.17L341.224 1039.19L341.211 1039.21L344.307 1041.74ZM336.257 1047.97L334.509 1044.37L334.509 1044.37L336.257 1047.97ZM312.177 1047.2L310.201 1050.68L310.227 1050.69L310.252 1050.71L312.177 1047.2ZM303.287 1038.31L299.79 1040.25L299.799 1040.27L299.808 1040.29L303.287 1038.31ZM303.287 1012.41L299.798 1010.45L299.794 1010.46L299.79 1010.47L303.287 1012.41ZM312.177 1003.52L314.119 1007.02L314.136 1007.01L314.152 1007L312.177 1003.52ZM339.967 1004.57L337.652 1007.83L337.661 1007.84L337.67 1007.85L339.967 1004.57ZM348.017 1016.4V1020.4H353.186L351.889 1015.4L348.017 1016.4ZM338.302 1014.49C337.02 1012.13 335.13 1010.31 332.725 1009.11L329.148 1016.27C330.103 1016.75 330.78 1017.4 331.271 1018.31L338.302 1014.49ZM332.845 1009.17C330.517 1007.91 327.897 1007.36 325.127 1007.36V1015.36C326.836 1015.36 328.09 1015.7 329.028 1016.21L332.845 1009.17ZM325.127 1007.36C320.272 1007.36 316.041 1009.02 312.857 1012.52L318.776 1017.9C320.259 1016.27 322.234 1015.36 325.127 1015.36V1007.36ZM312.881 1012.49C309.711 1015.92 308.317 1020.36 308.317 1025.36H316.317C316.317 1021.87 317.256 1019.54 318.752 1017.93L312.881 1012.49ZM308.317 1025.36C308.317 1030.61 309.74 1035.25 313.05 1038.75L318.863 1033.25C317.32 1031.62 316.317 1029.16 316.317 1025.36H308.317ZM313.102 1038.8C316.485 1042.25 320.987 1043.78 326.107 1043.78V1035.78C322.639 1035.78 320.375 1034.79 318.811 1033.2L313.102 1038.8ZM326.107 1043.78C329.751 1043.78 333.102 1042.84 335.915 1040.75L331.139 1034.33C329.938 1035.22 328.342 1035.78 326.107 1035.78V1043.78ZM335.879 1040.77C338.712 1038.71 340.649 1035.82 341.801 1032.36L334.212 1029.84C333.498 1031.98 332.448 1033.38 331.174 1034.31L335.879 1040.77ZM338.007 1027.1H322.817V1035.1H338.007V1027.1ZM326.817 1031.1V1022.28H318.817V1031.1H326.817ZM322.817 1026.28H348.857V1018.28H322.817V1026.28ZM344.857 1022.28V1033.41H352.857V1022.28H344.857ZM345.022 1032.27C344.302 1034.7 343.061 1036.99 341.238 1039.17L347.375 1044.31C349.845 1041.35 351.638 1038.1 352.691 1034.55L345.022 1032.27ZM341.211 1039.21C339.511 1041.28 337.304 1043.01 334.509 1044.37L338.004 1051.57C341.742 1049.75 344.902 1047.33 347.402 1044.27L341.211 1039.21ZM334.509 1044.37C331.854 1045.66 328.777 1046.35 325.197 1046.35V1054.35C329.829 1054.35 334.126 1053.45 338.004 1051.57L334.509 1044.37ZM325.197 1046.35C320.939 1046.35 317.274 1045.43 314.101 1043.69L310.252 1050.71C314.732 1053.17 319.747 1054.35 325.197 1054.35V1046.35ZM314.152 1043.72C310.999 1041.93 308.555 1039.49 306.765 1036.33L299.808 1040.29C302.311 1044.69 305.794 1048.18 310.201 1050.68L314.152 1043.72ZM306.783 1036.37C305.052 1033.25 304.137 1029.62 304.137 1025.36H296.137C296.137 1030.81 297.321 1035.81 299.79 1040.25L306.783 1036.37ZM304.137 1025.36C304.137 1021.1 305.052 1017.47 306.783 1014.35L299.79 1010.47C297.321 1014.91 296.137 1019.91 296.137 1025.36H304.137ZM306.775 1014.37C308.565 1011.18 310.997 1008.75 314.119 1007.02L310.234 1000.02C305.796 1002.49 302.302 1005.99 299.798 1010.45L306.775 1014.37ZM314.152 1007C317.262 1005.23 320.883 1004.3 325.127 1004.3V996.3C319.663 996.3 314.651 997.515 310.201 1000.04L314.152 1007ZM325.127 1004.3C330.343 1004.3 334.439 1005.55 337.652 1007.83L342.281 1001.31C337.468 997.893 331.67 996.3 325.127 996.3V1004.3ZM337.67 1007.85C340.91 1010.12 343.064 1013.23 344.145 1017.4L351.889 1015.4C350.356 1009.49 347.143 1004.72 342.263 1001.29L337.67 1007.85ZM348.017 1012.4H334.787V1020.4H348.017V1012.4ZM382.547 1050L379.043 1051.93L380.184 1054H382.547V1050ZM372.327 1031.45L375.83 1029.52L374.69 1027.45H372.327V1031.45ZM369.457 1031.45V1027.45H365.457V1031.45H369.457ZM369.457 1050V1054H373.457V1050H369.457ZM357.487 1050H353.487V1054H357.487V1050ZM357.487 1000.86V996.86H353.487V1000.86H357.487ZM387.447 1002.89L385.658 1006.47L385.67 1006.47L385.682 1006.48L387.447 1002.89ZM393.607 1008.49L390.13 1010.47L390.138 1010.48L390.147 1010.5L393.607 1008.49ZM392.837 1025.08L389.602 1022.73L389.588 1022.75L389.574 1022.77L392.837 1025.08ZM384.717 1030.54L383.572 1026.71L378.702 1028.16L381.261 1032.55L384.717 1030.54ZM396.057 1050V1054H403.017L399.513 1047.99L396.057 1050ZM369.457 1022.98H365.457V1026.98H369.457V1022.98ZM381.777 1021.37L379.009 1018.48L378.979 1018.51L378.948 1018.54L381.777 1021.37ZM381.777 1012.41L378.948 1015.24L378.979 1015.27L379.009 1015.3L381.777 1012.41ZM369.457 1010.8V1006.8H365.457V1010.8H369.457ZM386.05 1048.07L375.83 1029.52L368.823 1033.38L379.043 1051.93L386.05 1048.07ZM372.327 1027.45H369.457V1035.45H372.327V1027.45ZM365.457 1031.45V1050H373.457V1031.45H365.457ZM369.457 1046H357.487V1054H369.457V1046ZM361.487 1050V1000.86H353.487V1050H361.487ZM357.487 1004.86H377.577V996.86H357.487V1004.86ZM377.577 1004.86C380.998 1004.86 383.64 1005.46 385.658 1006.47L389.236 999.312C385.84 997.615 381.903 996.86 377.577 996.86V1004.86ZM385.682 1006.48C387.806 1007.52 389.22 1008.87 390.13 1010.47L397.084 1006.51C395.287 1003.35 392.594 1000.96 389.211 999.3L385.682 1006.48ZM390.147 1010.5C391.121 1012.18 391.637 1014.09 391.637 1016.33H399.637C399.637 1012.78 398.8 1009.47 397.067 1006.48L390.147 1010.5ZM391.637 1016.33C391.637 1018.78 390.956 1020.87 389.602 1022.73L396.072 1027.43C398.451 1024.16 399.637 1020.42 399.637 1016.33H391.637ZM389.574 1022.77C388.365 1024.47 386.48 1025.84 383.572 1026.71L385.862 1034.37C390.141 1033.09 393.669 1030.82 396.1 1027.39L389.574 1022.77ZM381.261 1032.55L392.601 1052.01L399.513 1047.99L388.173 1028.53L381.261 1032.55ZM396.057 1046H382.547V1054H396.057V1046ZM369.457 1026.98H376.877V1018.98H369.457V1026.98ZM376.877 1026.98C379.658 1026.98 382.503 1026.3 384.605 1024.2L378.948 1018.54C378.904 1018.59 378.483 1018.98 376.877 1018.98V1026.98ZM384.544 1024.26C386.647 1022.24 387.457 1019.57 387.457 1016.82H379.457C379.457 1017.99 379.146 1018.35 379.009 1018.48L384.544 1024.26ZM387.457 1016.82C387.457 1014.1 386.609 1011.5 384.544 1009.52L379.009 1015.3C379.185 1015.47 379.457 1015.81 379.457 1016.82H387.457ZM384.605 1009.58C382.503 1007.48 379.658 1006.8 376.877 1006.8V1014.8C378.483 1014.8 378.904 1015.19 378.948 1015.24L384.605 1009.58ZM376.877 1006.8H369.457V1014.8H376.877V1006.8ZM365.457 1010.8V1022.98H373.457V1010.8H365.457ZM435.741 1041.32L439.529 1040.04L438.609 1037.32H435.741V1041.32ZM417.401 1041.32V1037.32H414.533L413.612 1040.04L417.401 1041.32ZM414.461 1050V1054H417.329L418.249 1051.28L414.461 1050ZM401.931 1050L398.17 1048.64L396.23 1054H401.931V1050ZM419.711 1000.86V996.86H416.904L415.95 999.499L419.711 1000.86ZM433.571 1000.86L437.332 999.499L436.377 996.86H433.571V1000.86ZM451.351 1050V1054H457.052L455.112 1048.64L451.351 1050ZM438.681 1050L434.892 1051.28L435.813 1054H438.681V1050ZM432.661 1032.08V1036.08H438.238L436.45 1030.8L432.661 1032.08ZM426.571 1014.09L430.36 1012.81L426.549 1001.55L422.778 1012.82L426.571 1014.09ZM420.551 1032.08L416.758 1030.81L414.994 1036.08H420.551V1032.08ZM435.741 1037.32H417.401V1045.32H435.741V1037.32ZM413.612 1040.04L410.672 1048.72L418.249 1051.28L421.189 1042.6L413.612 1040.04ZM414.461 1046H401.931V1054H414.461V1046ZM405.692 1051.36L423.472 1002.22L415.95 999.499L398.17 1048.64L405.692 1051.36ZM419.711 1004.86H433.571V996.86H419.711V1004.86ZM429.81 1002.22L447.59 1051.36L455.112 1048.64L437.332 999.499L429.81 1002.22ZM451.351 1046H438.681V1054H451.351V1046ZM442.469 1048.72L439.529 1040.04L431.952 1042.6L434.892 1051.28L442.469 1048.72ZM436.45 1030.8L430.36 1012.81L422.782 1015.37L428.872 1033.36L436.45 1030.8ZM422.778 1012.82L416.758 1030.81L424.344 1033.35L430.364 1015.36L422.778 1012.82ZM420.551 1036.08H432.661V1028.08H420.551V1036.08ZM494.112 1000.86H498.112V996.86H494.112V1000.86ZM494.112 1010.45V1014.45H498.112V1010.45H494.112ZM481.092 1010.45V1006.45H477.092V1010.45H481.092ZM481.092 1050V1054H485.092V1050H481.092ZM469.122 1050H465.122V1054H469.122V1050ZM469.122 1010.45H473.122V1006.45H469.122V1010.45ZM456.102 1010.45H452.102V1014.45H456.102V1010.45ZM456.102 1000.86V996.86H452.102V1000.86H456.102ZM490.112 1000.86V1010.45H498.112V1000.86H490.112ZM494.112 1006.45H481.092V1014.45H494.112V1006.45ZM477.092 1010.45V1050H485.092V1010.45H477.092ZM481.092 1046H469.122V1054H481.092V1046ZM473.122 1050V1010.45H465.122V1050H473.122ZM469.122 1006.45H456.102V1014.45H469.122V1006.45ZM460.102 1010.45V1000.86H452.102V1010.45H460.102ZM456.102 1004.86H494.112V996.86H456.102V1004.86ZM513.88 1000.86H517.88V996.86H513.88V1000.86ZM516.05 1037.05L513.094 1039.75L513.094 1039.75L516.05 1037.05ZM528.86 1037.05L531.772 1039.79L531.772 1039.79L528.86 1037.05ZM531.1 1000.86V996.86H527.1V1000.86H531.1ZM543.07 1000.86H547.07V996.86H543.07V1000.86ZM540.27 1041.32L543.676 1043.42L543.676 1043.42L540.27 1041.32ZM532.71 1048.18L530.963 1044.58L530.953 1044.59L530.942 1044.59L532.71 1048.18ZM511.78 1048.25L509.969 1051.82L510.002 1051.83L510.035 1051.85L511.78 1048.25ZM504.57 1041.39L501.103 1043.39L501.11 1043.4L501.116 1043.41L504.57 1041.39ZM501.91 1000.86V996.86H497.91V1000.86H501.91ZM509.88 1000.86V1030.26H517.88V1000.86H509.88ZM509.88 1030.26C509.88 1033.83 510.761 1037.19 513.094 1039.75L519.005 1034.35C518.445 1033.74 517.88 1032.57 517.88 1030.26H509.88ZM513.094 1039.75C515.512 1042.4 518.856 1043.43 522.42 1043.43V1035.43C520.383 1035.43 519.481 1034.88 519.005 1034.35L513.094 1039.75ZM522.42 1043.43C525.99 1043.43 529.322 1042.39 531.772 1039.79L525.947 1034.31C525.41 1034.88 524.449 1035.43 522.42 1035.43V1043.43ZM531.772 1039.79C534.178 1037.24 535.1 1033.86 535.1 1030.26H527.1C527.1 1032.54 526.528 1033.69 525.947 1034.31L531.772 1039.79ZM535.1 1030.26V1000.86H527.1V1030.26H535.1ZM531.1 1004.86H543.07V996.86H531.1V1004.86ZM539.07 1000.86V1030.19H547.07V1000.86H539.07ZM539.07 1030.19C539.07 1034.01 538.261 1036.95 536.863 1039.22L543.676 1043.42C546.012 1039.62 547.07 1035.15 547.07 1030.19H539.07ZM536.863 1039.22C535.391 1041.62 533.444 1043.38 530.963 1044.58L534.456 1051.78C538.322 1049.9 541.415 1047.09 543.676 1043.42L536.863 1039.22ZM530.942 1044.59C528.424 1045.83 525.539 1046.49 522.21 1046.49V1054.49C526.627 1054.49 530.742 1053.61 534.477 1051.77L530.942 1044.59ZM522.21 1046.49C518.861 1046.49 515.993 1045.85 513.525 1044.65L510.035 1051.85C513.726 1053.64 517.812 1054.49 522.21 1054.49V1046.49ZM513.59 1044.68C511.265 1043.5 509.422 1041.76 508.023 1039.37L501.116 1043.41C503.264 1047.08 506.227 1049.92 509.969 1051.82L513.59 1044.68ZM508.036 1039.39C506.685 1037.05 505.91 1034.04 505.91 1030.19H497.91C497.91 1035.11 498.907 1039.57 501.103 1043.39L508.036 1039.39ZM505.91 1030.19V1000.86H497.91V1030.19H505.91ZM501.91 1004.86H513.88V996.86H501.91V1004.86ZM565.445 1040.76H561.445V1044.76H565.445V1040.76ZM581.125 1040.76H585.125V1036.76H581.125V1040.76ZM581.125 1050V1054H585.125V1050H581.125ZM553.475 1050H549.475V1054H553.475V1050ZM553.475 1000.86V996.86H549.475V1000.86H553.475ZM565.445 1000.86H569.445V996.86H565.445V1000.86ZM565.445 1044.76H581.125V1036.76H565.445V1044.76ZM577.125 1040.76V1050H585.125V1040.76H577.125ZM581.125 1046H553.475V1054H581.125V1046ZM557.475 1050V1000.86H549.475V1050H557.475ZM553.475 1004.86H565.445V996.86H553.475V1004.86ZM561.445 1000.86V1040.76H569.445V1000.86H561.445ZM619.425 1041.32L623.213 1040.04L622.293 1037.32H619.425V1041.32ZM601.085 1041.32V1037.32H598.216L597.296 1040.04L601.085 1041.32ZM598.145 1050V1054H601.013L601.933 1051.28L598.145 1050ZM585.615 1050L581.853 1048.64L579.913 1054H585.615V1050ZM603.395 1000.86V996.86H600.588L599.633 999.499L603.395 1000.86ZM617.255 1000.86L621.016 999.499L620.061 996.86H617.255V1000.86ZM635.035 1050V1054H640.736L638.796 1048.64L635.035 1050ZM622.365 1050L618.576 1051.28L619.496 1054H622.365V1050ZM616.345 1032.08V1036.08H621.922L620.133 1030.8L616.345 1032.08ZM610.255 1014.09L614.043 1012.81L610.233 1001.55L606.461 1012.82L610.255 1014.09ZM604.235 1032.08L600.441 1030.81L598.678 1036.08H604.235V1032.08ZM619.425 1037.32H601.085V1045.32H619.425V1037.32ZM597.296 1040.04L594.356 1048.72L601.933 1051.28L604.873 1042.6L597.296 1040.04ZM598.145 1046H585.615V1054H598.145V1046ZM589.376 1051.36L607.156 1002.22L599.633 999.499L581.853 1048.64L589.376 1051.36ZM603.395 1004.86H617.255V996.86H603.395V1004.86ZM613.493 1002.22L631.273 1051.36L638.796 1048.64L621.016 999.499L613.493 1002.22ZM635.035 1046H622.365V1054H635.035V1046ZM626.153 1048.72L623.213 1040.04L615.636 1042.6L618.576 1051.28L626.153 1048.72ZM620.133 1030.8L614.043 1012.81L606.466 1015.37L612.556 1033.36L620.133 1030.8ZM606.461 1012.82L600.441 1030.81L608.028 1033.35L614.048 1015.36L606.461 1012.82ZM604.235 1036.08H616.345V1028.08H604.235V1036.08ZM677.796 1000.86H681.796V996.86H677.796V1000.86ZM677.796 1010.45V1014.45H681.796V1010.45H677.796ZM664.776 1010.45V1006.45H660.776V1010.45H664.776ZM664.776 1050V1054H668.776V1050H664.776ZM652.806 1050H648.806V1054H652.806V1050ZM652.806 1010.45H656.806V1006.45H652.806V1010.45ZM639.786 1010.45H635.786V1014.45H639.786V1010.45ZM639.786 1000.86V996.86H635.786V1000.86H639.786ZM673.796 1000.86V1010.45H681.796V1000.86H673.796ZM677.796 1006.45H664.776V1014.45H677.796V1006.45ZM660.776 1010.45V1050H668.776V1010.45H660.776ZM664.776 1046H652.806V1054H664.776V1046ZM656.806 1050V1010.45H648.806V1050H656.806ZM652.806 1006.45H639.786V1014.45H652.806V1006.45ZM643.786 1010.45V1000.86H635.786V1010.45H643.786ZM639.786 1004.86H677.796V996.86H639.786V1004.86ZM697.773 1000.86H701.773V996.86H697.773V1000.86ZM697.773 1050V1054H701.773V1050H697.773ZM685.803 1050H681.803V1054H685.803V1050ZM685.803 1000.86V996.86H681.803V1000.86H685.803ZM693.773 1000.86V1050H701.773V1000.86H693.773ZM697.773 1046H685.803V1054H697.773V1046ZM689.803 1050V1000.86H681.803V1050H689.803ZM685.803 1004.86H697.773V996.86H685.803V1004.86ZM718.948 1047.27L716.991 1050.76L717 1050.76L717.009 1050.77L718.948 1047.27ZM709.778 1038.31L706.315 1040.31L706.329 1040.34L706.344 1040.36L709.778 1038.31ZM709.778 1012.34L706.344 1010.29L706.335 1010.3L706.326 1010.32L709.778 1012.34ZM718.948 1003.38L717.009 999.881L717 999.886L716.991 999.891L718.948 1003.38ZM744.358 1003.38L742.401 1006.87L742.41 1006.87L742.419 1006.88L744.358 1003.38ZM753.458 1012.34L749.987 1014.33L749.997 1014.34L750.006 1014.36L753.458 1012.34ZM753.458 1038.31L756.91 1040.33L756.915 1040.32L756.92 1040.31L753.458 1038.31ZM744.358 1047.27L746.315 1050.76L746.315 1050.76L744.358 1047.27ZM741.068 1035.65L738.11 1032.96L738.097 1032.97L738.084 1032.99L741.068 1035.65ZM741.068 1014.93L738.084 1017.59L738.109 1017.62L738.135 1017.65L741.068 1014.93ZM722.168 1014.86L719.235 1012.14L719.221 1012.15L719.208 1012.17L722.168 1014.86ZM722.168 1035.72L719.184 1038.38L719.209 1038.41L719.235 1038.44L722.168 1035.72ZM731.688 1046.49C727.716 1046.49 724.141 1045.57 720.887 1043.77L717.009 1050.77C721.502 1053.26 726.42 1054.49 731.688 1054.49V1046.49ZM720.905 1043.78C717.697 1041.98 715.146 1039.5 713.211 1036.26L706.344 1040.36C708.983 1044.78 712.545 1048.26 716.991 1050.76L720.905 1043.78ZM713.24 1036.31C711.379 1033.09 710.418 1029.45 710.418 1025.29H702.418C702.418 1030.75 703.697 1035.79 706.315 1040.31L713.24 1036.31ZM710.418 1025.29C710.418 1021.13 711.379 1017.52 713.23 1014.36L706.326 1010.32C703.697 1014.81 702.418 1019.83 702.418 1025.29H710.418ZM713.211 1014.39C715.146 1011.15 717.697 1008.67 720.905 1006.87L716.991 999.891C712.545 1002.39 708.983 1005.87 706.344 1010.29L713.211 1014.39ZM720.887 1006.88C724.141 1005.08 727.716 1004.16 731.688 1004.16V996.16C726.42 996.16 721.502 997.391 717.009 999.881L720.887 1006.88ZM731.688 1004.16C735.66 1004.16 739.204 1005.08 742.401 1006.87L746.315 999.891C741.858 997.391 736.956 996.16 731.688 996.16V1004.16ZM742.419 1006.88C745.656 1008.67 748.159 1011.14 749.987 1014.33L756.928 1010.35C754.37 1005.89 750.806 1002.38 746.297 999.881L742.419 1006.88ZM750.006 1014.36C751.857 1017.52 752.818 1021.13 752.818 1025.29H760.818C760.818 1019.83 759.539 1014.81 756.91 1010.32L750.006 1014.36ZM752.818 1025.29C752.818 1029.45 751.857 1033.09 749.995 1036.31L756.92 1040.31C759.539 1035.79 760.818 1030.75 760.818 1025.29H752.818ZM750.006 1036.29C748.121 1039.51 745.601 1041.99 742.401 1043.78L746.315 1050.76C750.768 1048.26 754.315 1044.76 756.91 1040.33L750.006 1036.29ZM742.401 1043.78C739.204 1045.57 735.66 1046.49 731.688 1046.49V1054.49C736.956 1054.49 741.858 1053.26 746.315 1050.76L742.401 1043.78ZM731.688 1043.57C736.596 1043.57 740.864 1041.88 744.052 1038.31L738.084 1032.99C736.605 1034.64 734.619 1035.57 731.688 1035.57V1043.57ZM744.025 1038.34C747.213 1034.84 748.638 1030.35 748.638 1025.29H740.638C740.638 1028.81 739.682 1031.23 738.11 1032.96L744.025 1038.34ZM748.638 1025.29C748.638 1020.19 747.221 1015.68 744.001 1012.21L738.135 1017.65C739.674 1019.31 740.638 1021.71 740.638 1025.29H748.638ZM744.052 1012.27C740.864 1008.7 736.596 1007.01 731.688 1007.01V1015.01C734.619 1015.01 736.605 1015.94 738.084 1017.59L744.052 1012.27ZM731.688 1007.01C726.771 1007.01 722.476 1008.64 719.235 1012.14L725.101 1017.58C726.619 1015.94 728.671 1015.01 731.688 1015.01V1007.01ZM719.208 1012.17C716.042 1015.65 714.668 1020.18 714.668 1025.29H722.668C722.668 1021.63 723.627 1019.2 725.128 1017.55L719.208 1012.17ZM714.668 1025.29C714.668 1030.37 716.05 1034.87 719.184 1038.38L725.152 1033.06C723.619 1031.34 722.668 1028.89 722.668 1025.29H714.668ZM719.235 1038.44C722.476 1041.94 726.771 1043.57 731.688 1043.57V1035.57C728.671 1035.57 726.619 1034.64 725.101 1033L719.235 1038.44ZM809.437 1050V1054H813.437V1050H809.437ZM797.467 1050L794.129 1052.2L795.315 1054H797.467V1050ZM777.447 1019.69L780.785 1017.49L773.447 1006.38V1019.69H777.447ZM777.447 1050V1054H781.447V1050H777.447ZM765.477 1050H761.477V1054H765.477V1050ZM765.477 1000.86V996.86H761.477V1000.86H765.477ZM777.447 1000.86L780.789 998.663L779.604 996.86H777.447V1000.86ZM797.467 1031.31L794.125 1033.51L801.467 1044.67V1031.31H797.467ZM797.467 1000.86V996.86H793.467V1000.86H797.467ZM809.437 1000.86H813.437V996.86H809.437V1000.86ZM809.437 1046H797.467V1054H809.437V1046ZM800.805 1047.8L780.785 1017.49L774.109 1021.89L794.129 1052.2L800.805 1047.8ZM773.447 1019.69V1050H781.447V1019.69H773.447ZM777.447 1046H765.477V1054H777.447V1046ZM769.477 1050V1000.86H761.477V1050H769.477ZM765.477 1004.86H777.447V996.86H765.477V1004.86ZM774.105 1003.06L794.125 1033.51L800.809 1029.11L780.789 998.663L774.105 1003.06ZM801.467 1031.31V1000.86H793.467V1031.31H801.467ZM797.467 1004.86H809.437V996.86H797.467V1004.86ZM805.437 1000.86V1050H813.437V1000.86H805.437ZM828.234 1048.74L826.717 1052.44L826.717 1052.44L828.234 1048.74ZM821.374 1043.56L818.15 1045.93L818.166 1045.95L818.182 1045.97L821.374 1043.56ZM818.714 1035.3V1031.3H814.596L814.715 1035.42L818.714 1035.3ZM831.454 1035.3L835.433 1034.89L835.065 1031.3H831.454V1035.3ZM833.344 1039.5L830.647 1042.45L830.683 1042.49L830.719 1042.52L833.344 1039.5ZM841.744 1039.71L844.19 1042.88L844.234 1042.84L844.277 1042.81L841.744 1039.71ZM842.024 1033.27L839.195 1036.1L839.236 1036.14L839.277 1036.18L842.024 1033.27ZM839.014 1031.31L837.403 1034.97L837.429 1034.98L837.455 1034.99L839.014 1031.31ZM833.974 1029.56L832.794 1033.38L832.813 1033.39L832.832 1033.39L833.974 1029.56ZM826.204 1026.62L824.448 1030.21L826.204 1026.62ZM821.024 1022.28L824.214 1019.87L824.214 1019.87L821.024 1022.28ZM823.824 1004.08L826.273 1007.24L826.287 1007.23L826.301 1007.22L823.824 1004.08ZM849.864 1004.08L847.387 1007.22L847.4 1007.23L847.414 1007.24L849.864 1004.08ZM855.184 1014.86V1018.86H859.391L859.179 1014.66L855.184 1014.86ZM842.234 1014.86L838.241 1015.09L838.462 1018.86H842.234V1014.86ZM840.484 1011.15L837.859 1014.17L837.897 1014.2L837.936 1014.23L840.484 1011.15ZM832.854 1010.94L835.43 1014L835.476 1013.96L835.521 1013.92L832.854 1010.94ZM833.764 1017.94L835.806 1014.5L835.806 1014.5L833.764 1017.94ZM840.764 1020.81L842.045 1017.02L842.02 1017.01L841.995 1017L840.764 1020.81ZM848.464 1023.89L846.675 1027.47L846.692 1027.48L846.708 1027.48L848.464 1023.89ZM853.644 1028.16L850.482 1030.61L850.482 1030.61L853.644 1028.16ZM853.644 1043L850.263 1040.86L850.248 1040.89L850.232 1040.91L853.644 1043ZM847.484 1048.46L845.695 1044.88L845.695 1044.88L847.484 1048.46ZM837.894 1046.49C834.735 1046.49 832.042 1045.98 829.751 1045.04L826.717 1052.44C830.119 1053.84 833.866 1054.49 837.894 1054.49V1046.49ZM829.751 1045.04C827.517 1044.12 825.828 1042.82 824.566 1041.15L818.182 1045.97C820.373 1048.87 823.257 1051.02 826.717 1052.44L829.751 1045.04ZM824.597 1041.19C823.462 1039.65 822.785 1037.71 822.712 1035.18L814.715 1035.42C814.829 1039.33 815.926 1042.9 818.15 1045.93L824.597 1041.19ZM818.714 1039.3H831.454V1031.3H818.714V1039.3ZM827.475 1035.71C827.735 1038.24 828.674 1040.65 830.647 1042.45L836.041 1036.55C835.866 1036.39 835.546 1036 835.433 1034.89L827.475 1035.71ZM830.719 1042.52C832.668 1044.21 835.068 1044.9 837.544 1044.9V1036.9C836.566 1036.9 836.166 1036.65 835.969 1036.48L830.719 1042.52ZM837.544 1044.9C839.882 1044.9 842.245 1044.38 844.19 1042.88L839.298 1036.54C839.189 1036.63 838.753 1036.9 837.544 1036.9V1044.9ZM844.277 1042.81C846.324 1041.13 847.284 1038.8 847.284 1036.28H839.284C839.284 1036.53 839.242 1036.6 839.25 1036.58C839.252 1036.58 839.256 1036.57 839.258 1036.57C839.26 1036.57 839.248 1036.58 839.211 1036.61L844.277 1042.81ZM847.284 1036.28C847.284 1034.03 846.454 1031.95 844.77 1030.36L839.277 1036.18C839.301 1036.2 839.306 1036.21 839.3 1036.2C839.294 1036.19 839.286 1036.18 839.279 1036.16C839.272 1036.15 839.273 1036.14 839.275 1036.15C839.278 1036.17 839.284 1036.21 839.284 1036.28H847.284ZM844.852 1030.44C843.637 1029.23 842.179 1028.31 840.572 1027.63L837.455 1034.99C838.275 1035.34 838.824 1035.73 839.195 1036.1L844.852 1030.44ZM840.625 1027.65C839.231 1027.04 837.365 1026.4 835.116 1025.73L832.832 1033.39C834.97 1034.03 836.463 1034.56 837.403 1034.97L840.625 1027.65ZM835.154 1025.74C832.093 1024.79 829.714 1023.88 827.959 1023.03L824.448 1030.21C826.707 1031.32 829.508 1032.37 832.794 1033.38L835.154 1025.74ZM827.959 1023.03C826.558 1022.34 825.311 1021.32 824.214 1019.87L817.833 1024.69C819.63 1027.07 821.836 1028.94 824.448 1030.21L827.959 1023.03ZM824.214 1019.87C823.426 1018.82 822.854 1017.25 822.854 1014.79H814.854C814.854 1018.49 815.729 1021.91 817.833 1024.69L824.214 1019.87ZM822.854 1014.79C822.854 1011.32 824.036 1008.98 826.273 1007.24L821.374 1000.92C816.985 1004.32 814.854 1009.11 814.854 1014.79H822.854ZM826.301 1007.22C828.742 1005.3 832.114 1004.16 836.774 1004.16V996.16C830.794 996.16 825.533 997.638 821.347 1000.94L826.301 1007.22ZM836.774 1004.16C841.546 1004.16 844.958 1005.3 847.387 1007.22L852.341 1000.94C848.143 997.629 842.829 996.16 836.774 996.16V1004.16ZM847.414 1007.24C849.703 1009.02 851.008 1011.47 851.189 1015.06L859.179 1014.66C858.893 1009.01 856.651 1004.28 852.313 1000.92L847.414 1007.24ZM855.184 1010.86H842.234V1018.86H855.184V1010.86ZM846.227 1014.63C846.078 1012.1 845.086 1009.76 843.031 1008.07L837.936 1014.23C838.028 1014.31 838.202 1014.44 838.241 1015.09L846.227 1014.63ZM843.109 1008.13C841.179 1006.45 838.814 1005.75 836.354 1005.75V1013.75C837.253 1013.75 837.642 1013.98 837.859 1014.17L843.109 1008.13ZM836.354 1005.75C834.146 1005.75 831.957 1006.37 830.187 1007.96L835.521 1013.92C835.524 1013.92 835.669 1013.75 836.354 1013.75V1005.75ZM830.277 1007.88C828.27 1009.57 827.524 1011.92 827.524 1014.23H835.524C835.524 1013.91 835.573 1013.8 835.565 1013.82C835.56 1013.83 835.545 1013.87 835.516 1013.91C835.486 1013.95 835.455 1013.98 835.43 1014L830.277 1007.88ZM827.524 1014.23C827.524 1017.38 829.153 1019.85 831.722 1021.38L835.806 1014.5C835.512 1014.33 835.478 1014.23 835.508 1014.28C835.52 1014.3 835.528 1014.32 835.531 1014.33C835.533 1014.34 835.524 1014.31 835.524 1014.23H827.524ZM831.722 1021.38C833.608 1022.5 836.284 1023.56 839.533 1024.62L841.995 1017C838.896 1016 836.906 1015.15 835.806 1014.5L831.722 1021.38ZM839.482 1024.6C842.562 1025.64 844.941 1026.6 846.675 1027.47L850.253 1020.31C848.067 1019.22 845.312 1018.13 842.045 1017.02L839.482 1024.6ZM846.708 1027.48C848.133 1028.18 849.388 1029.2 850.482 1030.61L856.805 1025.71C855.006 1023.39 852.808 1021.56 850.219 1020.3L846.708 1027.48ZM850.482 1030.61C851.264 1031.62 851.814 1033.1 851.814 1035.37H859.814C859.814 1031.76 858.917 1028.43 856.805 1025.71L850.482 1030.61ZM851.814 1035.37C851.814 1037.44 851.291 1039.24 850.263 1040.86L857.024 1045.14C858.89 1042.19 859.814 1038.9 859.814 1035.37H851.814ZM850.232 1040.91C849.272 1042.48 847.821 1043.82 845.695 1044.88L849.273 1052.04C852.56 1050.39 855.216 1048.09 857.055 1045.09L850.232 1040.91ZM845.695 1044.88C843.652 1045.9 841.093 1046.49 837.894 1046.49V1054.49C842.068 1054.49 845.902 1053.72 849.273 1052.04L845.695 1044.88Z" fill="#CB3B34" mask="url(#path-50-outside-1_88_2986)"/>
<path d="M502 966C502 969.314 499.314 972 496 972C492.686 972 490 969.314 490 966C490 962.686 492.686 960 496 960C499.314 960 502 962.686 502 966Z" fill="#D9D9D9"/>
<path d="M462 966C462 969.314 459.314 972 456 972C452.686 972 450 969.314 450 966C450 962.686 452.686 960 456 960C459.314 960 462 962.686 462 966Z" fill="#D9D9D9"/>
<path d="M902 966C902 969.314 899.314 972 896 972C892.686 972 890 969.314 890 966C890 962.686 892.686 960 896 960C899.314 960 902 962.686 902 966Z" fill="#D9D9D9"/>
<path d="M422 966C422 969.314 419.314 972 416 972C412.686 972 410 969.314 410 966C410 962.686 412.686 960 416 960C419.314 960 422 962.686 422 966Z" fill="#D9D9D9"/>
<path d="M862 966C862 969.314 859.314 972 856 972C852.686 972 850 969.314 850 966C850 962.686 852.686 960 856 960C859.314 960 862 962.686 862 966Z" fill="#D9D9D9"/>
<path d="M382 966C382 969.314 379.314 972 376 972C372.686 972 370 969.314 370 966C370 962.686 372.686 960 376 960C379.314 960 382 962.686 382 966Z" fill="#D9D9D9"/>
<path d="M822 966C822 969.314 819.314 972 816 972C812.686 972 810 969.314 810 966C810 962.686 812.686 960 816 960C819.314 960 822 962.686 822 966Z" fill="#D9D9D9"/>
<path d="M342 966C342 969.314 339.314 972 336 972C332.686 972 330 969.314 330 966C330 962.686 332.686 960 336 960C339.314 960 342 962.686 342 966Z" fill="#D9D9D9"/>
<path d="M782 966C782 969.314 779.314 972 776 972C772.686 972 770 969.314 770 966C770 962.686 772.686 960 776 960C779.314 960 782 962.686 782 966Z" fill="#D9D9D9"/>
<path d="M302 966C302 969.314 299.314 972 296 972C292.686 972 290 969.314 290 966C290 962.686 292.686 960 296 960C299.314 960 302 962.686 302 966Z" fill="#D9D9D9"/>
<path d="M742 966C742 969.314 739.314 972 736 972C732.686 972 730 969.314 730 966C730 962.686 732.686 960 736 960C739.314 960 742 962.686 742 966Z" fill="#D9D9D9"/>
<path d="M262 966C262 969.314 259.314 972 256 972C252.686 972 250 969.314 250 966C250 962.686 252.686 960 256 960C259.314 960 262 962.686 262 966Z" fill="#D9D9D9"/>
<path d="M702 966C702 969.314 699.314 972 696 972C692.686 972 690 969.314 690 966C690 962.686 692.686 960 696 960C699.314 960 702 962.686 702 966Z" fill="#D9D9D9"/>
<path d="M222 966C222 969.314 219.314 972 216 972C212.686 972 210 969.314 210 966C210 962.686 212.686 960 216 960C219.314 960 222 962.686 222 966Z" fill="#D9D9D9"/>
<path d="M662 966C662 969.314 659.314 972 656 972C652.686 972 650 969.314 650 966C650 962.686 652.686 960 656 960C659.314 960 662 962.686 662 966Z" fill="#D9D9D9"/>
<path d="M182 966C182 969.314 179.314 972 176 972C172.686 972 170 969.314 170 966C170 962.686 172.686 960 176 960C179.314 960 182 962.686 182 966Z" fill="#D9D9D9"/>
<path d="M622 966C622 969.314 619.314 972 616 972C612.686 972 610 969.314 610 966C610 962.686 612.686 960 616 960C619.314 960 622 962.686 622 966Z" fill="#D9D9D9"/>
<path d="M142 966C142 969.314 139.314 972 136 972C132.686 972 130 969.314 130 966C130 962.686 132.686 960 136 960C139.314 960 142 962.686 142 966Z" fill="#D9D9D9"/>
<path d="M582 966C582 969.314 579.314 972 576 972C572.686 972 570 969.314 570 966C570 962.686 572.686 960 576 960C579.314 960 582 962.686 582 966Z" fill="#D9D9D9"/>
<path d="M102 966C102 969.314 99.3137 972 96 972C92.6863 972 90 969.314 90 966C90 962.686 92.6863 960 96 960C99.3137 960 102 962.686 102 966Z" fill="#D9D9D9"/>
<path d="M542 966C542 969.314 539.314 972 536 972C532.686 972 530 969.314 530 966C530 962.686 532.686 960 536 960C539.314 960 542 962.686 542 966Z" fill="#D9D9D9"/>
<path d="M502 1086C502 1089.31 499.314 1092 496 1092C492.686 1092 490 1089.31 490 1086C490 1082.69 492.686 1080 496 1080C499.314 1080 502 1082.69 502 1086Z" fill="#D9D9D9"/>
<path d="M462 1086C462 1089.31 459.314 1092 456 1092C452.686 1092 450 1089.31 450 1086C450 1082.69 452.686 1080 456 1080C459.314 1080 462 1082.69 462 1086Z" fill="#D9D9D9"/>
<path d="M902 1086C902 1089.31 899.314 1092 896 1092C892.686 1092 890 1089.31 890 1086C890 1082.69 892.686 1080 896 1080C899.314 1080 902 1082.69 902 1086Z" fill="#D9D9D9"/>
<path d="M422 1086C422 1089.31 419.314 1092 416 1092C412.686 1092 410 1089.31 410 1086C410 1082.69 412.686 1080 416 1080C419.314 1080 422 1082.69 422 1086Z" fill="#D9D9D9"/>
<path d="M862 1086C862 1089.31 859.314 1092 856 1092C852.686 1092 850 1089.31 850 1086C850 1082.69 852.686 1080 856 1080C859.314 1080 862 1082.69 862 1086Z" fill="#D9D9D9"/>
<path d="M382 1086C382 1089.31 379.314 1092 376 1092C372.686 1092 370 1089.31 370 1086C370 1082.69 372.686 1080 376 1080C379.314 1080 382 1082.69 382 1086Z" fill="#D9D9D9"/>
<path d="M822 1086C822 1089.31 819.314 1092 816 1092C812.686 1092 810 1089.31 810 1086C810 1082.69 812.686 1080 816 1080C819.314 1080 822 1082.69 822 1086Z" fill="#D9D9D9"/>
<path d="M342 1086C342 1089.31 339.314 1092 336 1092C332.686 1092 330 1089.31 330 1086C330 1082.69 332.686 1080 336 1080C339.314 1080 342 1082.69 342 1086Z" fill="#D9D9D9"/>
<path d="M782 1086C782 1089.31 779.314 1092 776 1092C772.686 1092 770 1089.31 770 1086C770 1082.69 772.686 1080 776 1080C779.314 1080 782 1082.69 782 1086Z" fill="#D9D9D9"/>
<path d="M302 1086C302 1089.31 299.314 1092 296 1092C292.686 1092 290 1089.31 290 1086C290 1082.69 292.686 1080 296 1080C299.314 1080 302 1082.69 302 1086Z" fill="#D9D9D9"/>
<path d="M742 1086C742 1089.31 739.314 1092 736 1092C732.686 1092 730 1089.31 730 1086C730 1082.69 732.686 1080 736 1080C739.314 1080 742 1082.69 742 1086Z" fill="#D9D9D9"/>
<path d="M262 1086C262 1089.31 259.314 1092 256 1092C252.686 1092 250 1089.31 250 1086C250 1082.69 252.686 1080 256 1080C259.314 1080 262 1082.69 262 1086Z" fill="#D9D9D9"/>
<path d="M702 1086C702 1089.31 699.314 1092 696 1092C692.686 1092 690 1089.31 690 1086C690 1082.69 692.686 1080 696 1080C699.314 1080 702 1082.69 702 1086Z" fill="#D9D9D9"/>
<path d="M222 1086C222 1089.31 219.314 1092 216 1092C212.686 1092 210 1089.31 210 1086C210 1082.69 212.686 1080 216 1080C219.314 1080 222 1082.69 222 1086Z" fill="#D9D9D9"/>
<path d="M662 1086C662 1089.31 659.314 1092 656 1092C652.686 1092 650 1089.31 650 1086C650 1082.69 652.686 1080 656 1080C659.314 1080 662 1082.69 662 1086Z" fill="#D9D9D9"/>
<path d="M182 1086C182 1089.31 179.314 1092 176 1092C172.686 1092 170 1089.31 170 1086C170 1082.69 172.686 1080 176 1080C179.314 1080 182 1082.69 182 1086Z" fill="#D9D9D9"/>
<path d="M622 1086C622 1089.31 619.314 1092 616 1092C612.686 1092 610 1089.31 610 1086C610 1082.69 612.686 1080 616 1080C619.314 1080 622 1082.69 622 1086Z" fill="#D9D9D9"/>
<path d="M142 1086C142 1089.31 139.314 1092 136 1092C132.686 1092 130 1089.31 130 1086C130 1082.69 132.686 1080 136 1080C139.314 1080 142 1082.69 142 1086Z" fill="#D9D9D9"/>
<path d="M582 1086C582 1089.31 579.314 1092 576 1092C572.686 1092 570 1089.31 570 1086C570 1082.69 572.686 1080 576 1080C579.314 1080 582 1082.69 582 1086Z" fill="#D9D9D9"/>
<path d="M102 1086C102 1089.31 99.3137 1092 96 1092C92.6863 1092 90 1089.31 90 1086C90 1082.69 92.6863 1080 96 1080C99.3137 1080 102 1082.69 102 1086Z" fill="#D9D9D9"/>
<path d="M86 991C86 994.314 83.3137 997 80 997C76.6863 997 74 994.314 74 991C74 987.686 76.6863 985 80 985C83.3137 985 86 987.686 86 991Z" fill="#D9D9D9"/>
<path d="M916 991C916 994.314 913.314 997 910 997C906.686 997 904 994.314 904 991C904 987.686 906.686 985 910 985C913.314 985 916 987.686 916 991Z" fill="#D9D9D9"/>
<path d="M86 1065C86 1068.31 83.3137 1071 80 1071C76.6863 1071 74 1068.31 74 1065C74 1061.69 76.6863 1059 80 1059C83.3137 1059 86 1061.69 86 1065Z" fill="#D9D9D9"/>
<path d="M916 1065C916 1068.31 913.314 1071 910 1071C906.686 1071 904 1068.31 904 1065C904 1061.69 906.686 1059 910 1059C913.314 1059 916 1061.69 916 1065Z" fill="#D9D9D9"/>
<path d="M86 1026C86 1029.31 83.3137 1032 80 1032C76.6863 1032 74 1029.31 74 1026C74 1022.69 76.6863 1020 80 1020C83.3137 1020 86 1022.69 86 1026Z" fill="#D9D9D9"/>
<path d="M916 1026C916 1029.31 913.314 1032 910 1032C906.686 1032 904 1029.31 904 1026C904 1022.69 906.686 1020 910 1020C913.314 1020 916 1022.69 916 1026Z" fill="#D9D9D9"/>
<path d="M542 1086C542 1089.31 539.314 1092 536 1092C532.686 1092 530 1089.31 530 1086C530 1082.69 532.686 1080 536 1080C539.314 1080 542 1082.69 542 1086Z" fill="#D9D9D9"/>
<path d="M167.648 432.878C165.305 430.534 165.305 426.735 167.648 424.392V424.392C169.991 422.049 173.79 422.049 176.134 424.392L197.422 445.68C199.765 448.023 199.765 451.822 197.422 454.166V454.166C195.078 456.509 191.279 456.509 188.936 454.166L167.648 432.878Z" fill="white"/>
<path d="M197.334 404.469C196.15 401.696 197.223 398.476 199.834 396.969V396.969C202.927 395.183 206.887 396.502 208.29 399.787L220.508 428.379C221.692 431.151 220.619 434.371 218.008 435.878V435.878C214.915 437.664 210.956 436.345 209.552 433.06L197.334 404.469Z" fill="white"/>
<path d="M142.787 465.29C139.502 463.887 138.183 459.927 139.969 456.834V456.834C141.476 454.223 144.696 453.15 147.469 454.334L176.06 466.552C179.345 467.956 180.664 471.915 178.878 475.008V475.008C177.371 477.619 174.151 478.692 171.379 477.508L142.787 465.29Z" fill="white"/>
<path d="M859.053 424.648C861.396 422.305 865.195 422.305 867.538 424.648V424.648C869.881 426.991 869.881 430.79 867.538 433.134L846.25 454.422C843.907 456.765 840.108 456.765 837.765 454.422V454.422C835.421 452.078 835.421 448.279 837.765 445.936L859.053 424.648Z" fill="white"/>
<path d="M887.462 454.334C890.234 453.15 893.454 454.223 894.961 456.834V456.834C896.747 459.927 895.428 463.887 892.143 465.29L863.552 477.508C860.779 478.692 857.559 477.619 856.052 475.008V475.008C854.266 471.915 855.585 467.956 858.87 466.552L887.462 454.334Z" fill="white"/>
<path d="M826.64 399.787C828.044 396.502 832.003 395.183 835.096 396.969V396.969C837.707 398.476 838.78 401.696 837.596 404.469L825.378 433.06C823.975 436.345 820.015 437.664 816.922 435.878V435.878C814.311 434.371 813.238 431.151 814.422 428.379L826.64 399.787Z" fill="white"/>
<defs>
<linearGradient id="paint0_linear_88_2986" x1="13" y1="208.5" x2="516.5" y2="520" gradientUnits="userSpaceOnUse">
<stop stop-color="#FFEBB2"/>
<stop offset="1" stop-color="#F74A44"/>
</linearGradient>
<linearGradient id="paint1_linear_88_2986" x1="516.5" y1="1091.5" x2="891" y2="772" gradientUnits="userSpaceOnUse">
<stop stop-color="#4CB4FA"/>
<stop offset="1" stop-color="#FFEBB2"/>
</linearGradient>
</defs>
</svg>
