<svg width="1058" height="1037" viewBox="0 0 1058 1037" fill="none" xmlns="http://www.w3.org/2000/svg">
  <path d="M13.099 33.434c45.777 65.869 173.707 192.868 319.209 173.911C514.185 183.649 412.891.434 323.275 81.812c-93.525 84.928 63.598 236.377 184.549 250.325" stroke="url(#a)" stroke-width="30"/>
  <path d="M938.829 580.058c34.027 61.434 76.421 198.768-26.21 256.632-128.291 72.33-227.705-126.588-200.128-200.127 15.855-42.281 86.094-44.639 102.594 67.239C831.586 815.679 767.305 892 691.631 898.55c-75.674 6.54-202.232-148.497-122.901-178.816 49.564-18.942 136.672 157.386 18.207 251.716-86.932 69.22-172.203-2-189.754-7.5" stroke="url(#b)" stroke-width="30"/>
  <path d="M426.459 556.034c9.118-13.008 10.012-27.127 4.968-40.267-4.938-12.865-15.428-24.538-28.712-33.85-13.226-9.27-36.227-20.676-57.919-27.092-10.838-3.206-21.752-5.289-31.172-5.051-9.267.235-18.496 2.788-23.862 10.444-5.359 7.644-4.646 17.213-1.749 26.045 2.947 8.984 8.574 18.6 15.236 27.766 13.33 18.338 31.807 36.221 45.058 45.51 13.328 9.341 27.995 15.072 41.871 15.173 14.14.102 27.174-5.686 36.281-18.678Z" fill="#FFC000" stroke="#D39C28" stroke-width="12"/>
  <path d="M430.841 561.719c15.537-21.398 11.59-44.781.965-62.324-5.301-8.753-12.356-16.27-19.815-21.739-7.367-5.401-15.612-9.153-23.331-9.624-2.065-.126-3.946.453-5.394 1.081-1.508.653-2.995 1.557-4.411 2.56-2.832 2.005-5.911 4.785-9.036 7.967-6.279 6.392-13.307 14.982-19.744 23.853s-12.427 18.22-16.564 26.176c-2.06 3.96-3.753 7.749-4.787 11.063-.518 1.657-.92 3.349-1.079 4.982-.154 1.567-.131 3.528.611 5.45 2.812 7.279 8.974 13.959 16.439 19.248 7.559 5.356 16.958 9.652 26.983 11.891 20.081 4.483 43.643.792 59.163-20.584Z" fill="#fff" stroke="#CCC" stroke-width="12"/>
  <path d="M586.978 559.623c9.067 13.043 22.012 18.749 36.087 18.544 13.778-.201 28.352-6.024 41.671-15.284 13.262-9.22 31.897-26.879 45.397-45.029 6.746-9.069 12.464-18.596 15.487-27.521 2.974-8.78 3.759-18.323-1.578-26-5.329-7.665-14.557-10.294-23.846-10.619-9.449-.331-20.415 1.636-31.316 4.73-21.809 6.192-44.966 17.372-58.252 26.61-13.364 9.29-23.799 21.083-28.677 34.073-4.97 13.239-4.03 27.469 5.027 40.496Z" fill="#FFC000" stroke="#D39C28" stroke-width="12"/>
  <path d="M580.127 561.775c14.731 21.961 38.04 26.316 58.171 22.389 10.043-1.959 19.532-5.99 27.237-11.107 7.61-5.053 13.973-11.499 17.077-18.582.83-1.896.934-3.861.844-5.437-.093-1.64-.429-3.348-.882-5.023-.906-3.35-2.455-7.198-4.364-11.228-3.837-8.098-9.478-17.656-15.586-26.757s-12.819-17.945-18.861-24.572c-3.007-3.298-5.981-6.193-8.735-8.307-1.377-1.057-2.827-2.017-4.304-2.73-1.418-.684-3.268-1.339-5.327-1.305-7.802.131-16.197 3.612-23.735 8.796-7.634 5.25-14.907 12.592-20.463 21.231-11.131 17.304-15.788 40.695-1.072 62.632Z" fill="#fff" stroke="#CCC" stroke-width="12"/>
  <path d="M642.15 619.063c0 59.039-58.874 93.284-131.5 93.284-72.625 0-131.5-34.245-131.5-93.284 0-101.987 58.875-171.716 131.5-171.716 72.626 0 131.5 78.981 131.5 171.716Z" fill="#fff" stroke="#CCC" stroke-width="12"/>
  <path d="M410.751 592.433a4.04 4.04 0 0 1-4.733 3.586l-29.372-5.308a3.954 3.954 0 0 1-3.253-4.286c.957-9.466 3.814-35.836 8.185-60.024 4.371-24.187 10.925-49.889 13.342-59.092.527-2.006 2.505-3.244 4.547-2.875l29.371 5.307a4.04 4.04 0 0 1 3.179 5.016c-2.488 9.322-8.513 32.839-13.13 58.387-4.617 25.547-7.203 49.686-8.136 59.289Zm173.03-117.435a4.04 4.04 0 0 1 3.139-5.041l29.328-5.54c2.039-.385 4.027.838 4.57 2.84 2.489 9.183 9.247 34.833 13.809 58.985s7.627 50.499 8.659 59.957c.225 2.063-1.181 3.926-3.219 4.311l-29.329 5.54a4.037 4.037 0 0 1-4.761-3.548c-1.009-9.595-3.786-33.713-8.605-59.223s-11.03-48.979-13.591-58.281Z" fill="#45566A" stroke="#394457" stroke-width="12"/>
  <path d="M508.388 717.89c37.195 0 71.353-8.731 96.409-25.469 25.22-16.847 41.221-41.874 41.221-73.645 0-23.324-2.827-39.469-9.427-49.971-7.049-11.218-17.701-15.025-30.012-15.465-10.462-.374-23.043 1.654-36.869 3.882q-2.726.44-5.513.884c-16.295 2.584-34.86 5.215-55.809 5.215-20.839 0-39.322-3.177-55.557-6.469-2.855-.578-5.669-1.168-8.434-1.748-12.614-2.644-24.194-5.072-33.888-5.23-6.068-.099-11.914.657-17.196 3.054-5.389 2.445-9.798 6.421-13.195 12.088-6.55 10.925-9.361 28.208-9.361 53.76 0 31.771 16.002 56.798 41.221 73.645 25.056 16.738 59.214 25.469 96.41 25.469Z" fill="#45566A" stroke="#394457" stroke-width="12"/>
  <path d="M421.387 584.978c-1.82-2.89-3.629-5.789-5.418-8.687a4 4 0 0 0-3.427-1.899c-3.476.02-6.953.03-10.439.031a4 4 0 0 0-3.445 1.97l-1.31 2.226c-1.261 2.143-2.517 4.278-3.784 6.41a4 4 0 0 0 .032 4.14c1.797 2.921 3.603 5.832 5.406 8.739a4 4 0 0 0 3.387 1.891l10.62.031a4 4 0 0 0 3.481-2.009c1.668-2.905 3.339-5.819 4.993-8.743a4 4 0 0 0-.096-4.1Zm203.177 0a1212 1212 0 0 1-5.418-8.687 4 4 0 0 0-3.426-1.899c-3.476.02-6.953.03-10.439.031a4 4 0 0 0-3.445 1.97l-1.31 2.226c-1.261 2.143-2.517 4.278-3.784 6.41a4 4 0 0 0 .032 4.14c1.797 2.921 3.603 5.832 5.406 8.739a4 4 0 0 0 3.387 1.891l10.62.031a4 4 0 0 0 3.481-2.009c1.667-2.905 3.339-5.819 4.993-8.743a4 4 0 0 0-.097-4.1Z" fill="#fff" stroke="#CCC" stroke-width="6"/>
  <path d="M500.371 643.345H482.29a2.49 2.49 0 0 1-2.147-1.237l-9.032-15.634a2.45 2.45 0 0 1 0-2.473l9.032-15.634a2.49 2.49 0 0 1 2.147-1.236h18.081c.892 0 1.701.478 2.147 1.236l9.033 15.634a2.46 2.46 0 0 1 0 2.473l-9.033 15.634a2.47 2.47 0 0 1-2.147 1.237m-16.644-4.948h15.208l7.612-13.159-7.612-13.16h-15.208l-7.613 13.16z" fill="#4CB4FA"/>
  <path d="M527.486 627.792h-18.082a2.49 2.49 0 0 1-2.146-1.237l-9.033-15.633a2.45 2.45 0 0 1 0-2.474l9.033-15.633a2.49 2.49 0 0 1 2.146-1.237h18.082c.891 0 1.701.478 2.146 1.237l9.033 15.633a2.45 2.45 0 0 1 0 2.474l-9.033 15.633a2.46 2.46 0 0 1-2.146 1.237m-16.645-4.947h15.208l7.613-13.16-7.613-13.16h-15.208l-7.613 13.16z" fill="#FFC000"/>
  <path d="M527.486 658.959h-18.082a2.49 2.49 0 0 1-2.146-1.237l-9.033-15.633a2.45 2.45 0 0 1 0-2.474l9.033-15.633a2.49 2.49 0 0 1 2.146-1.237h18.082c.891 0 1.701.478 2.146 1.237l9.033 15.633a2.45 2.45 0 0 1 0 2.474l-9.033 15.633a2.46 2.46 0 0 1-2.146 1.237m-16.645-4.947h15.208l7.613-13.16-7.613-13.16h-15.208l-7.613 13.16z" fill="#fff"/>
  <path d="M444.391 658.241c-15.298-4.1-30.444-2.754-42.679 5.176-12.268 7.952-20.663 21.909-23.665 41.133-2.193 14.041 1.679 30.245 8.044 43.339 3.213 6.611 7.181 12.682 11.608 17.483 4.36 4.729 9.543 8.631 15.263 10.164 5.648 1.513 11.829.856 17.74-.947 5.966-1.819 12.071-4.928 17.835-8.854 11.467-7.811 22.287-19.349 28.299-31.996 8.172-17.192 8.252-33.971 1.901-47.681-6.328-13.661-18.75-23.638-34.346-27.817Z" fill="#FFC000" stroke="#D39C28" stroke-width="12"/>
  <path d="M367.073 699.303c6.243-60.955 30.535-61.656 75.451-49.621s71.689 25.31 44.24 81.693c-11.151 22.906-46.291 12.031-67.808 6.265-21.517-5.765-54.448-13.287-51.883-38.337" fill="#45566A"/>
  <path d="M492.91 715.512c-1.45 3.709-4.12 11.701-6.146 15.863-11.152 22.906-46.291 12.031-67.808 6.265-21.517-5.765-54.448-13.287-51.883-38.337 2.088-20.393 6.197-34.042 12.423-42.726" stroke="#394457" stroke-width="12" stroke-linecap="round"/>
  <path d="M482.109 731.581c2.664.576 3.995 3.582 2.634 5.944l-7.115 12.348a3.95 3.95 0 0 1-4.231 1.914c-7.335-1.522-28.103-5.965-50.514-11.97-22.329-5.983-43.783-12.845-51.491-15.357a3.96 3.96 0 0 1-2.706-4.15l1.307-13.938c.24-2.561 2.8-4.238 5.249-3.451 9.17 2.947 30.368 9.607 53.306 15.754 22.556 6.043 43.903 10.816 53.561 12.906Z" fill="#fff" stroke="#CCC" stroke-width="12"/>
  <path d="M585.938 657.826c15.5-4.153 30.822-2.954 43.181 4.792 12.425 7.788 20.888 21.585 23.802 40.657 2.13 13.946-1.948 30.045-8.514 43.048-3.317 6.57-7.393 12.602-11.918 17.377-4.462 4.708-9.722 8.57-15.472 10.111-11.098 2.974-24.631-1.976-35.927-9.422-11.593-7.643-22.525-18.994-28.558-31.51-8.208-17.024-8.152-33.697-1.582-47.338 6.534-13.566 19.199-23.484 34.988-27.715Z" fill="#FFC000" stroke="#D39C28" stroke-width="12"/>
  <path d="M664.213 697.944c-5.876-60.277-30.557-60.785-76.292-48.53s-73.042 25.597-45.581 81.186c11.157 22.583 46.948 11.552 68.857 5.681 21.91-5.87 55.431-13.566 53.016-38.337" fill="#45566A"/>
  <path d="M639.909 648.009c12.5 11.5 22.022 26.524 24.305 49.935 2.415 24.771-31.107 32.467-53.016 38.337-21.91 5.871-57.701 16.903-68.858-5.681-2.676-5.417-4.261-10.938-5.93-15.591" stroke="#394457" stroke-width="12" stroke-linecap="round"/>
  <path d="M547.007 730.78c-2.674.583-3.998 3.61-2.612 5.97l7.072 12.045a3.955 3.955 0 0 0 4.225 1.885c7.404-1.549 28.601-6.115 51.488-12.248 22.799-6.109 44.711-13.085 52.507-15.612a3.96 3.96 0 0 0 2.716-4.131l-1.206-13.652c-.226-2.568-2.785-4.26-5.241-3.475-9.301 2.975-30.945 9.746-54.362 16.02-23.015 6.167-44.786 11.062-54.587 13.198Z" fill="#fff" stroke="#CCC" stroke-width="12"/>
  <path d="M508.99 531c31.739 0 56.383-8.803 73.916-23.462 17.53-14.657 27.482-34.781 30.502-56.546 2.125-15.313-.504-35.925-5.973-57.777-5.508-22.004-14.049-45.858-24.23-67.898-10.164-22.003-22.078-42.45-34.43-57.503-6.174-7.525-12.598-13.875-19.124-18.387-6.497-4.492-13.488-7.427-20.66-7.427-7.095 0-14.019 2.758-20.483 7.06-6.481 4.314-12.838 10.399-18.933 17.641-12.191 14.484-23.884 34.248-33.858 55.8-9.992 21.59-18.373 45.222-23.841 67.582-5.445 22.268-8.103 43.687-6.328 60.707 2.35 22.533 12.057 42.75 29.568 57.285C452.596 522.584 477.323 531 508.99 531Z" fill="#FFC000" stroke="#D39C28" stroke-width="12"/>
  <path d="M443.182 450.75c13.204 0 23.908-7.349 23.908-16.415s-10.704-16.415-23.908-16.415-23.908 7.349-23.908 16.415 10.704 16.415 23.908 16.415m132.242 0c13.204 0 23.908-7.349 23.908-16.415s-10.704-16.415-23.908-16.415-23.908 7.349-23.908 16.415 10.704 16.415 23.908 16.415" fill="#E4A92D"/>
  <path d="M544.792 416.803c12.379 0 22.414-11.024 22.414-24.622s-10.035-24.623-22.414-24.623-22.414 11.024-22.414 24.623c0 13.598 10.035 24.622 22.414 24.622" fill="#fff"/>
  <path d="M544.792 420.534c-14.42 0-26.15-12.714-26.15-28.353s11.73-28.353 26.15-28.353 26.149 12.714 26.149 28.353-11.73 28.353-26.149 28.353m0-49.245c-10.296 0-18.679 9.371-18.679 20.892s8.383 20.892 18.679 20.892 18.678-9.372 18.678-20.892c0-11.521-8.383-20.892-18.678-20.892" fill="#534741"/>
  <path d="M545.209 417.787c9.672 0 17.513-8.352 17.513-18.654s-7.841-18.653-17.513-18.653-17.512 8.351-17.512 18.653 7.84 18.654 17.512 18.654" fill="#534741"/>
  <path d="M542.893 392.478c2.889 0 5.23-1.851 5.23-4.134s-2.341-4.133-5.23-4.133c-2.888 0-5.229 1.85-5.229 4.133s2.341 4.134 5.229 4.134m-69.743 24.325c12.379 0 22.414-11.024 22.414-24.622s-10.035-24.623-22.414-24.623-22.414 11.024-22.414 24.623c0 13.598 10.035 24.622 22.414 24.622" fill="#fff"/>
  <path d="M473.15 420.534c-14.42 0-26.15-12.714-26.15-28.353s11.73-28.353 26.15-28.353 26.149 12.714 26.149 28.353-11.73 28.353-26.149 28.353m0-49.245c-10.295 0-18.678 9.371-18.678 20.892s8.383 20.892 18.678 20.892 18.678-9.372 18.678-20.892c0-11.521-8.383-20.892-18.678-20.892" fill="#534741"/>
  <path d="M473.568 417.787c9.672 0 17.512-8.352 17.512-18.654s-7.84-18.653-17.512-18.653-17.513 8.351-17.513 18.653 7.841 18.654 17.513 18.654" fill="#534741"/>
  <path d="M471.252 392.478c2.888 0 5.23-1.851 5.23-4.134s-2.342-4.133-5.23-4.133-5.23 1.85-5.23 4.133 2.341 4.134 5.23 4.134" fill="#fff"/>
  <path d="M562.523 349.02c-8.5-6.501-21.82-10.802-34-9.902m-77 9.874c6.964-5.496 21.5-9.992 32-9.992" stroke="#534741" stroke-width="8" stroke-linecap="round"/>
  <path d="M552.37 456.621c.145 9.512-3.923 17.449-10.779 25.169-7.196 8.104-18.046 13.778-32.127 13.993-15.498.238-24.767-4.537-33.265-12.992-6.796-6.763-11.144-13.409-11.311-24.329-.039-2.499 2.415-5.538 5.439-4.023 6.086 3.423 17.89 9.667 38.647 9.349 19.78-.303 32.242-6.496 36.358-9.56s6.999-.109 7.038 2.393" fill="#534741"/>
  <path d="m838.851 399 10.832-18.721a9.81 9.81 0 0 0-3.581-13.403l-18.74-10.832v-21.586a9.813 9.813 0 0 0-9.811-9.812h-21.576l-10.822-18.731a9.9 9.9 0 0 0-5.956-4.572 9.75 9.75 0 0 0-7.446.981l-18.74 10.833-18.74-10.842a9.81 9.81 0 0 0-13.403 3.591l-10.832 18.74h-21.575a9.813 9.813 0 0 0-9.812 9.812v21.576l-18.739 10.832a9.8 9.8 0 0 0-4.579 5.962 9.8 9.8 0 0 0 .997 7.451L667.16 399l-10.832 18.721a9.85 9.85 0 0 0 3.572 13.412l18.74 10.833v21.576a9.81 9.81 0 0 0 9.811 9.812h21.585l10.832 18.74a9.91 9.91 0 0 0 8.497 4.906 9.8 9.8 0 0 0 4.916-1.325l18.72-10.832 18.74 10.832a9.82 9.82 0 0 0 13.402-3.581l10.822-18.74h21.576a9.81 9.81 0 0 0 9.811-9.812v-21.576l18.74-10.833a9.8 9.8 0 0 0 4.57-5.964 9.8 9.8 0 0 0-.989-7.448z" fill="#B6DEFC"/>
  <path d="m366.851 399 10.832-18.721a9.81 9.81 0 0 0-3.581-13.403l-18.74-10.832v-21.586a9.813 9.813 0 0 0-9.811-9.812h-21.576l-10.822-18.731a9.9 9.9 0 0 0-5.956-4.572 9.75 9.75 0 0 0-7.446.981l-18.74 10.833-18.74-10.842a9.81 9.81 0 0 0-13.403 3.591l-10.832 18.74h-21.575a9.813 9.813 0 0 0-9.812 9.812v21.576l-18.739 10.832a9.8 9.8 0 0 0-4.579 5.962 9.8 9.8 0 0 0 .997 7.451L195.16 399l-10.832 18.721a9.85 9.85 0 0 0 3.572 13.412l18.74 10.833v21.576a9.81 9.81 0 0 0 9.811 9.812h21.585l10.832 18.74a9.91 9.91 0 0 0 8.497 4.906 9.8 9.8 0 0 0 4.916-1.325l18.72-10.832 18.74 10.832a9.82 9.82 0 0 0 13.402-3.581l10.822-18.74h21.576a9.81 9.81 0 0 0 9.811-9.812v-21.576l18.74-10.833a9.8 9.8 0 0 0 4.57-5.964 9.8 9.8 0 0 0-.989-7.448z" fill="#FFEBB2"/>
  <path d="M638.968 217.108c-3.026 1.829-6.762-.879-5.967-4.323l4.076-17.651a4 4 0 0 0-1.275-3.92l-13.679-11.882c-2.666-2.316-1.242-6.699 2.277-7.005l18.078-1.572a4 4 0 0 0 3.339-2.43l6.998-16.588c1.375-3.261 5.995-3.261 7.371 0l6.997 16.588a4 4 0 0 0 3.339 2.43l18.078 1.572c3.519.306 4.943 4.689 2.277 7.005l-13.679 11.882a4 4 0 0 0-1.275 3.92l4.076 17.651c.795 3.444-2.941 6.152-5.967 4.323l-15.463-9.346a4 4 0 0 0-4.138 0z" fill="#7BFAC4"/>
  <path d="M105.968 582.108c-3.026 1.829-6.762-.879-5.967-4.323l4.076-17.651a4 4 0 0 0-1.275-3.92l-13.679-11.882c-2.666-2.316-1.242-6.699 2.277-7.005l18.078-1.572a4 4 0 0 0 3.339-2.43l6.998-16.588c1.375-3.261 5.995-3.261 7.371 0l6.997 16.588a4 4 0 0 0 3.339 2.43l18.078 1.572c3.519.306 4.943 4.689 2.277 7.005l-13.679 11.882a4 4 0 0 0-1.275 3.92l4.076 17.651c.795 3.444-2.941 6.152-5.967 4.323l-15.463-9.346a4 4 0 0 0-4.138 0z" fill="#FF9C42"/>
  <path d="M256.851 644.06c-3.021 1.843-6.771-.857-5.982-4.307l1.496-6.544a4 4 0 0 0-1.262-3.899l-5.062-4.439c-2.648-2.322-1.221-6.685 2.287-6.993l6.623-.581a4 4 0 0 0 3.341-2.442l2.517-6.023c1.37-3.277 6.012-3.277 7.382 0l2.517 6.023a4 4 0 0 0 3.341 2.442l6.623.581c3.508.308 4.935 4.671 2.287 6.993l-5.062 4.439a4 4 0 0 0-1.262 3.899l1.496 6.544c.789 3.45-2.961 6.15-5.982 4.307l-5.566-3.396a4 4 0 0 0-4.166 0z" fill="#7BFAC4"/>
  <path d="M73.851 297.06c-3.021 1.843-6.771-.857-5.982-4.307l1.496-6.544a4 4 0 0 0-1.262-3.899l-5.062-4.439c-2.648-2.322-1.22-6.685 2.287-6.993l6.623-.581a4 4 0 0 0 3.341-2.442l2.517-6.023c1.37-3.277 6.012-3.277 7.382 0l2.517 6.023a4 4 0 0 0 3.34 2.442l6.624.581c3.508.308 4.935 4.671 2.287 6.993l-5.062 4.439a4 4 0 0 0-1.262 3.899l1.496 6.544c.79 3.45-2.961 6.15-5.982 4.307l-5.566-3.396a4 4 0 0 0-4.166 0z" fill="#FD7BAC"/>
  <path d="M89.851 738.06c-3.021 1.843-6.771-.857-5.982-4.307l1.496-6.544a4 4 0 0 0-1.262-3.899l-5.062-4.439c-2.648-2.322-1.22-6.685 2.287-6.993l6.623-.581a4 4 0 0 0 3.341-2.442l2.517-6.023c1.37-3.277 6.012-3.277 7.382 0l2.517 6.023a4 4 0 0 0 3.341 2.442l6.623.581c3.508.308 4.935 4.671 2.287 6.993l-5.062 4.439a4 4 0 0 0-1.262 3.899l1.496 6.544c.789 3.45-2.961 6.15-5.982 4.307l-5.566-3.396a4 4 0 0 0-4.166 0zm620-642c-3.021 1.843-6.771-.857-5.982-4.307l1.496-6.544a4 4 0 0 0-1.262-3.899l-5.062-4.439c-2.648-2.322-1.221-6.685 2.287-6.993l6.623-.581a4 4 0 0 0 3.341-2.442l2.517-6.023c1.37-3.277 6.012-3.277 7.382 0l2.517 6.023a4 4 0 0 0 3.341 2.442l6.623.581c3.508.308 4.935 4.671 2.287 6.993l-5.062 4.439a4 4 0 0 0-1.262 3.899l1.496 6.544c.789 3.45-2.961 6.15-5.982 4.307l-5.566-3.396a4 4 0 0 0-4.166 0z" fill="#FFEBB2"/>
  <path d="M907.851 205.06c-3.021 1.843-6.771-.857-5.982-4.307l1.496-6.544a4 4 0 0 0-1.262-3.899l-5.062-4.439c-2.648-2.322-1.221-6.685 2.287-6.993l6.623-.581a4 4 0 0 0 3.341-2.442l2.517-6.023c1.37-3.277 6.012-3.277 7.382 0l2.517 6.023a4 4 0 0 0 3.341 2.442l6.623.581c3.508.308 4.935 4.671 2.287 6.993l-5.062 4.439a4 4 0 0 0-1.262 3.899l1.496 6.544c.789 3.45-2.961 6.15-5.982 4.307l-5.566-3.396a4 4 0 0 0-4.166 0z" fill="#E87461"/>
  <path d="M897 820H94c-13.807 0-25 11.193-25 25v94c0 13.807 11.193 25 25 25h803c13.807 0 25-11.193 25-25v-94c0-13.807-11.193-25-25-25" fill="#CB3B34"/>
  <path d="M897 812H94c-13.807 0-25 11.193-25 25v94c0 13.807 11.193 25 25 25h803c13.807 0 25-11.193 25-25v-94c0-13.807-11.193-25-25-25" fill="#F54F47"/>
  <path d="M886 835H103c-6.627 0-12 5.373-12 12v74c0 6.627 5.373 12 12 12h783c6.627 0 12-5.373 12-12v-74c0-6.627-5.373-12-12-12" fill="#FFB7AB"/>
  <path d="M133.15 883.36c0-4.85 1.05-9.17 3.15-12.95 2.1-3.83 5.017-6.79 8.75-8.89 3.78-2.15 8.05-3.22 12.81-3.22q8.75 0 14.98 4.62t8.33 12.6h-13.16c-.98-2.05-2.38-3.62-4.2-4.69-1.773-1.07-3.803-1.61-6.09-1.61-3.686 0-6.673 1.28-8.96 3.85q-3.43 3.855-3.43 10.29t3.43 10.29c2.287 2.57 5.274 3.85 8.96 3.85 2.287 0 4.317-.54 6.09-1.61 1.82-1.07 3.22-2.64 4.2-4.69h13.16q-2.1 7.98-8.33 12.6c-4.153 3.03-9.146 4.55-14.98 4.55q-7.14 0-12.81-3.15c-3.733-2.15-6.65-5.11-8.75-8.89s-3.15-8.1-3.15-12.95m80.591 25.13c-4.62 0-8.867-1.07-12.74-3.22-3.827-2.15-6.884-5.13-9.17-8.96q-3.36-5.805-3.36-13.02c0-4.81 1.12-9.12 3.36-12.95 2.286-3.83 5.343-6.81 9.17-8.96 3.873-2.15 8.12-3.22 12.74-3.22s8.843 1.07 12.67 3.22c3.873 2.15 6.906 5.13 9.1 8.96 2.24 3.83 3.36 8.14 3.36 12.95q0 7.215-3.36 13.02c-2.24 3.83-5.274 6.81-9.1 8.96-3.827 2.15-8.05 3.22-12.67 3.22m0-10.92c3.92 0 7.046-1.31 9.38-3.92 2.38-2.61 3.57-6.07 3.57-10.36 0-4.34-1.19-7.79-3.57-10.36-2.334-2.61-5.46-3.92-9.38-3.92-3.967 0-7.14 1.28-9.52 3.85-2.334 2.57-3.5 6.04-3.5 10.43 0 4.34 1.166 7.82 3.5 10.43 2.38 2.57 5.553 3.85 9.52 3.85M291.49 908h-11.97l-20.02-30.31V908h-11.97v-49.14h11.97l20.02 30.45v-30.45h11.97zm43.297-33.6a8.72 8.72 0 0 0-3.85-3.71c-1.634-.89-3.57-1.33-5.81-1.33-3.874 0-6.977 1.28-9.31 3.85-2.334 2.52-3.5 5.9-3.5 10.15 0 4.53 1.213 8.07 3.64 10.64q3.71 3.78 10.15 3.78c2.94 0 5.413-.75 7.42-2.24 2.053-1.49 3.546-3.64 4.48-6.44h-15.19v-8.82h26.04v11.13c-.887 2.99-2.404 5.76-4.55 8.33-2.1 2.57-4.784 4.64-8.05 6.23s-6.954 2.38-11.06 2.38q-7.281 0-13.02-3.15c-3.78-2.15-6.744-5.11-8.89-8.89-2.1-3.78-3.15-8.1-3.15-12.95s1.05-9.17 3.15-12.95c2.146-3.83 5.11-6.79 8.89-8.89 3.78-2.15 8.096-3.22 12.95-3.22 5.88 0 10.826 1.42 14.84 4.27 4.06 2.85 6.743 6.79 8.05 11.83zm47.76 33.6-10.22-18.55h-2.87V908h-11.97v-49.14h20.09c3.873 0 7.163.68 9.87 2.03 2.753 1.35 4.807 3.22 6.16 5.6 1.353 2.33 2.03 4.95 2.03 7.84 0 3.27-.933 6.18-2.8 8.75q-2.73 3.855-8.12 5.46l11.34 19.46zm-13.09-27.02h7.42c2.193 0 3.827-.54 4.9-1.61 1.12-1.07 1.68-2.59 1.68-4.55q0-2.805-1.68-4.41c-1.073-1.07-2.707-1.61-4.9-1.61h-7.42zm66.284 18.34h-18.34l-2.94 8.68h-12.53l17.78-49.14h13.86l17.78 49.14h-12.67zm-3.08-9.24-6.09-17.99-6.02 17.99zm61.451-31.22v9.59h-13.02V908h-11.97v-39.55h-13.02v-9.59zm19.768 0v29.4c0 2.94.723 5.2 2.17 6.79 1.446 1.59 3.57 2.38 6.37 2.38s4.946-.79 6.44-2.38c1.493-1.59 2.24-3.85 2.24-6.79v-29.4h11.97v29.33q0 6.585-2.8 11.13c-1.867 3.03-4.387 5.32-7.56 6.86q-4.69 2.31-10.5 2.31c-3.874 0-7.35-.75-10.43-2.24-3.034-1.54-5.437-3.83-7.21-6.86-1.774-3.08-2.66-6.81-2.66-11.2v-29.33zm51.565 39.9h15.68V908h-27.65v-49.14h11.97zm53.98.56h-18.34l-2.94 8.68h-12.53l17.78-49.14h13.86l17.78 49.14h-12.67zm-3.08-9.24-6.09-17.99-6.02 17.99zm61.451-31.22v9.59h-13.02V908h-11.97v-39.55h-13.02v-9.59zm19.977 0V908h-11.97v-49.14zm33.915 49.63c-4.62 0-8.867-1.07-12.74-3.22-3.827-2.15-6.884-5.13-9.17-8.96q-3.36-5.805-3.36-13.02c0-4.81 1.12-9.12 3.36-12.95 2.286-3.83 5.343-6.81 9.17-8.96 3.873-2.15 8.12-3.22 12.74-3.22s8.843 1.07 12.67 3.22c3.873 2.15 6.906 5.13 9.1 8.96 2.24 3.83 3.36 8.14 3.36 12.95q0 7.215-3.36 13.02c-2.24 3.83-5.274 6.81-9.1 8.96-3.827 2.15-8.05 3.22-12.67 3.22m0-10.92c3.92 0 7.046-1.31 9.38-3.92 2.38-2.61 3.57-6.07 3.57-10.36 0-4.34-1.19-7.79-3.57-10.36-2.334-2.61-5.46-3.92-9.38-3.92-3.967 0-7.14 1.28-9.52 3.85-2.334 2.57-3.5 6.04-3.5 10.43 0 4.34 1.166 7.82 3.5 10.43 2.38 2.57 5.553 3.85 9.52 3.85M809.437 908h-11.97l-20.02-30.31V908h-11.97v-49.14h11.97l20.02 30.45v-30.45h11.97zm28.457.49c-3.594 0-6.814-.58-9.66-1.75s-5.134-2.89-6.86-5.18c-1.68-2.29-2.567-5.04-2.66-8.26h12.74q.279 2.73 1.89 4.2c1.073.93 2.473 1.4 4.2 1.4 1.773 0 3.173-.4 4.2-1.19 1.026-.84 1.54-1.98 1.54-3.43 0-1.21-.42-2.22-1.26-3.01-.794-.79-1.797-1.45-3.01-1.96-1.167-.51-2.847-1.1-5.04-1.75q-4.761-1.47-7.77-2.94c-2.007-.98-3.734-2.43-5.18-4.34-1.447-1.91-2.17-4.41-2.17-7.49q0-6.855 4.97-10.71c3.313-2.61 7.63-3.92 12.95-3.92 5.413 0 9.776 1.31 13.09 3.92 3.313 2.57 5.086 6.16 5.32 10.78h-12.95c-.094-1.59-.677-2.82-1.75-3.71-1.074-.93-2.45-1.4-4.13-1.4-1.447 0-2.614.4-3.5 1.19-.887.75-1.33 1.84-1.33 3.29 0 1.59.746 2.82 2.24 3.71 1.493.89 3.826 1.84 7 2.87 3.173 1.07 5.74 2.1 7.7 3.08 2.006.98 3.733 2.4 5.18 4.27s2.17 4.27 2.17 7.21c0 2.8-.724 5.34-2.17 7.63q-2.1 3.435-6.16 5.46c-2.707 1.35-5.904 2.03-9.59 2.03" fill="#fff"/>
  <mask id="c" style="mask-type:luminance" maskUnits="userSpaceOnUse" x="128" y="854" width="733" height="59">
    <path d="M860.515 854h-732v59h732z" fill="#fff"/>
    <path d="M133.15 883.36c0-4.85 1.05-9.17 3.15-12.95 2.1-3.83 5.017-6.79 8.75-8.89 3.78-2.15 8.05-3.22 12.81-3.22q8.75 0 14.98 4.62t8.33 12.6h-13.16c-.98-2.05-2.38-3.62-4.2-4.69-1.773-1.07-3.803-1.61-6.09-1.61-3.686 0-6.673 1.28-8.96 3.85q-3.43 3.855-3.43 10.29t3.43 10.29c2.287 2.57 5.274 3.85 8.96 3.85 2.287 0 4.317-.54 6.09-1.61 1.82-1.07 3.22-2.64 4.2-4.69h13.16q-2.1 7.98-8.33 12.6c-4.153 3.03-9.146 4.55-14.98 4.55q-7.14 0-12.81-3.15c-3.733-2.15-6.65-5.11-8.75-8.89s-3.15-8.1-3.15-12.95m80.591 25.13c-4.62 0-8.867-1.07-12.74-3.22-3.827-2.15-6.884-5.13-9.17-8.96q-3.36-5.805-3.36-13.02c0-4.81 1.12-9.12 3.36-12.95 2.286-3.83 5.343-6.81 9.17-8.96 3.873-2.15 8.12-3.22 12.74-3.22s8.843 1.07 12.67 3.22c3.873 2.15 6.906 5.13 9.1 8.96 2.24 3.83 3.36 8.14 3.36 12.95q0 7.215-3.36 13.02c-2.24 3.83-5.274 6.81-9.1 8.96-3.827 2.15-8.05 3.22-12.67 3.22m0-10.92c3.92 0 7.046-1.31 9.38-3.92 2.38-2.61 3.57-6.07 3.57-10.36 0-4.34-1.19-7.79-3.57-10.36-2.334-2.61-5.46-3.92-9.38-3.92-3.967 0-7.14 1.28-9.52 3.85-2.334 2.57-3.5 6.04-3.5 10.43 0 4.34 1.166 7.82 3.5 10.43 2.38 2.57 5.553 3.85 9.52 3.85M291.49 908h-11.97l-20.02-30.31V908h-11.97v-49.14h11.97l20.02 30.45v-30.45h11.97zm43.297-33.6a8.72 8.72 0 0 0-3.85-3.71c-1.634-.89-3.57-1.33-5.81-1.33-3.874 0-6.977 1.28-9.31 3.85-2.334 2.52-3.5 5.9-3.5 10.15 0 4.53 1.213 8.07 3.64 10.64q3.71 3.78 10.15 3.78c2.94 0 5.413-.75 7.42-2.24 2.053-1.49 3.546-3.64 4.48-6.44h-15.19v-8.82h26.04v11.13c-.887 2.99-2.404 5.76-4.55 8.33-2.1 2.57-4.784 4.64-8.05 6.23s-6.954 2.38-11.06 2.38q-7.281 0-13.02-3.15c-3.78-2.15-6.744-5.11-8.89-8.89-2.1-3.78-3.15-8.1-3.15-12.95s1.05-9.17 3.15-12.95c2.146-3.83 5.11-6.79 8.89-8.89 3.78-2.15 8.096-3.22 12.95-3.22 5.88 0 10.826 1.42 14.84 4.27 4.06 2.85 6.743 6.79 8.05 11.83zm47.76 33.6-10.22-18.55h-2.87V908h-11.97v-49.14h20.09c3.873 0 7.163.68 9.87 2.03 2.753 1.35 4.807 3.22 6.16 5.6 1.353 2.33 2.03 4.95 2.03 7.84 0 3.27-.933 6.18-2.8 8.75q-2.73 3.855-8.12 5.46l11.34 19.46zm-13.09-27.02h7.42c2.193 0 3.827-.54 4.9-1.61 1.12-1.07 1.68-2.59 1.68-4.55q0-2.805-1.68-4.41c-1.073-1.07-2.707-1.61-4.9-1.61h-7.42zm66.284 18.34h-18.34l-2.94 8.68h-12.53l17.78-49.14h13.86l17.78 49.14h-12.67zm-3.08-9.24-6.09-17.99-6.02 17.99zm61.451-31.22v9.59h-13.02V908h-11.97v-39.55h-13.02v-9.59zm19.768 0v29.4c0 2.94.723 5.2 2.17 6.79 1.446 1.59 3.57 2.38 6.37 2.38s4.946-.79 6.44-2.38c1.493-1.59 2.24-3.85 2.24-6.79v-29.4h11.97v29.33q0 6.585-2.8 11.13c-1.867 3.03-4.387 5.32-7.56 6.86q-4.69 2.31-10.5 2.31c-3.874 0-7.35-.75-10.43-2.24-3.034-1.54-5.437-3.83-7.21-6.86-1.774-3.08-2.66-6.81-2.66-11.2v-29.33zm51.565 39.9h15.68V908h-27.65v-49.14h11.97zm53.98.56h-18.34l-2.94 8.68h-12.53l17.78-49.14h13.86l17.78 49.14h-12.67zm-3.08-9.24-6.09-17.99-6.02 17.99zm61.451-31.22v9.59h-13.02V908h-11.97v-39.55h-13.02v-9.59zm19.977 0V908h-11.97v-49.14zm33.915 49.63c-4.62 0-8.867-1.07-12.74-3.22-3.827-2.15-6.884-5.13-9.17-8.96q-3.36-5.805-3.36-13.02c0-4.81 1.12-9.12 3.36-12.95 2.286-3.83 5.343-6.81 9.17-8.96 3.873-2.15 8.12-3.22 12.74-3.22s8.843 1.07 12.67 3.22c3.873 2.15 6.906 5.13 9.1 8.96 2.24 3.83 3.36 8.14 3.36 12.95q0 7.215-3.36 13.02c-2.24 3.83-5.274 6.81-9.1 8.96-3.827 2.15-8.05 3.22-12.67 3.22m0-10.92c3.92 0 7.046-1.31 9.38-3.92 2.38-2.61 3.57-6.07 3.57-10.36 0-4.34-1.19-7.79-3.57-10.36-2.334-2.61-5.46-3.92-9.38-3.92-3.967 0-7.14 1.28-9.52 3.85-2.334 2.57-3.5 6.04-3.5 10.43 0 4.34 1.166 7.82 3.5 10.43 2.38 2.57 5.553 3.85 9.52 3.85M809.437 908h-11.97l-20.02-30.31V908h-11.97v-49.14h11.97l20.02 30.45v-30.45h11.97zm28.457.49c-3.594 0-6.814-.58-9.66-1.75s-5.134-2.89-6.86-5.18c-1.68-2.29-2.567-5.04-2.66-8.26h12.74q.279 2.73 1.89 4.2c1.073.93 2.473 1.4 4.2 1.4 1.773 0 3.173-.4 4.2-1.19 1.026-.84 1.54-1.98 1.54-3.43 0-1.21-.42-2.22-1.26-3.01-.794-.79-1.797-1.45-3.01-1.96-1.167-.51-2.847-1.1-5.04-1.75q-4.761-1.47-7.77-2.94c-2.007-.98-3.734-2.43-5.18-4.34-1.447-1.91-2.17-4.41-2.17-7.49q0-6.855 4.97-10.71c3.313-2.61 7.63-3.92 12.95-3.92 5.413 0 9.776 1.31 13.09 3.92 3.313 2.57 5.086 6.16 5.32 10.78h-12.95c-.094-1.59-.677-2.82-1.75-3.71-1.074-.93-2.45-1.4-4.13-1.4-1.447 0-2.614.4-3.5 1.19-.887.75-1.33 1.84-1.33 3.29 0 1.59.746 2.82 2.24 3.71 1.493.89 3.826 1.84 7 2.87 3.173 1.07 5.74 2.1 7.7 3.08 2.006.98 3.733 2.4 5.18 4.27s2.17 4.27 2.17 7.21c0 2.8-.724 5.34-2.17 7.63q-2.1 3.435-6.16 5.46c-2.707 1.35-5.904 2.03-9.59 2.03" fill="#000"/>
  </mask>
  <g mask="url(#c)">
    <path d="m136.3 870.41 3.497 1.94.005-.01.005-.01zm8.75-8.89 1.961 3.49.007-.01h.008zm36.12 14v4h5.189l-1.32-5.02zm-13.16 0-3.61 1.72 1.087 2.28h2.523zm-4.2-4.69-2.071 3.42.02.01.019.02zm0 25.06-2.032-3.45-.019.02-.02.01zm4.2-4.69v-4h-2.523l-1.087 2.28zm13.16 0 3.869 1.02 1.32-5.02h-5.189zm-8.33 12.6 2.359 3.23.012-.01.012-.01zm-27.79 1.4-1.994 3.47.026.01.026.02zm-7.9-21.84c0-4.26.916-7.89 2.647-11.01l-6.993-3.88c-2.469 4.44-3.654 9.44-3.654 14.89zm2.657-11.03c1.748-3.18 4.135-5.6 7.204-7.32l-3.922-6.98c-4.397 2.48-7.843 5.99-10.295 10.46zm7.219-7.33c3.121-1.77 6.699-2.7 10.834-2.7v-8c-5.385 0-10.347 1.221-14.785 3.74zm10.834-2.7c5.091 0 9.22 1.33 12.598 3.83l4.765-6.42c-4.93-3.659-10.786-5.41-17.363-5.41zm12.598 3.83c3.374 2.51 5.659 5.91 6.844 10.41l7.737-2.04c-1.616-6.14-4.884-11.14-9.816-14.79zm10.712 5.39h-13.16v8h13.16zm-9.55 2.28c-1.295-2.72-3.219-4.91-5.778-6.42l-4.064 6.9c1.081.63 1.958 1.57 2.622 2.96zm-5.739-6.39c-2.461-1.49-5.222-2.19-8.161-2.19v8c1.634 0 2.934.38 4.019 1.03zm-8.161-2.19c-4.734 0-8.841 1.7-11.946 5.19l5.973 5.32c1.468-1.65 3.334-2.51 5.973-2.51zm-11.946 5.19c-3.091 3.47-4.444 7.93-4.444 12.95h8c0-3.57.934-5.96 2.417-7.63zm-4.444 12.95c0 5.02 1.353 9.48 4.444 12.95l5.973-5.32c-1.483-1.67-2.417-4.06-2.417-7.63zm4.444 12.95c3.105 3.49 7.212 5.19 11.946 5.19v-8c-2.639 0-4.505-.86-5.973-2.51zm11.946 5.19c2.939 0 5.7-.7 8.161-2.19l-4.142-6.84c-1.085.65-2.385 1.03-4.019 1.03zm8.122-2.16c2.559-1.51 4.483-3.7 5.778-6.42l-7.22-3.44c-.664 1.39-1.541 2.33-2.622 2.96zm2.168-4.14h13.16v-8h-13.16zm9.292-5.02c-1.185 4.5-3.47 7.9-6.844 10.41l4.765 6.42c4.932-3.65 8.2-8.65 9.816-14.79zm-6.821 10.39c-3.378 2.47-7.517 3.78-12.621 3.78v8c6.563 0 12.411-1.72 17.339-5.32zm-12.621 3.78c-4.15 0-7.74-.91-10.867-2.65l-3.885 7c4.432 2.46 9.383 3.65 14.752 3.65zm-10.816-2.62c-3.1-1.78-5.499-4.22-7.247-7.36l-6.993 3.88c2.451 4.42 5.886 7.91 10.252 10.42zm-7.247-7.36c-1.731-3.12-2.647-6.75-2.647-11.01h-8c0 5.45 1.185 10.45 3.654 14.89zm61.204 10.9-1.957 3.49h.009l.009.01zm-9.17-8.96-3.463 2 .014.03.015.02zm0-25.97-3.434-2.05-.009.01-.01.02zm9.17-8.96-1.939-3.499-.009.005-.009.005zm25.41 0-1.957 3.49h.009l.009.01zm9.1 8.96-3.471 1.99.009.01.009.02zm0 25.97 3.452 2.02.005-.01.005-.01zm-12.39-2.66-2.958-2.69-.013.01-.013.02zm0-20.72-2.984 2.66.025.03.025.03zm-18.9-.07-2.934-2.72-.013.01-.013.02zm0 20.86-2.984 2.66.025.03.025.03zm9.52 10.77c-3.973 0-7.548-.92-10.801-2.72l-3.878 7c4.492 2.49 9.411 3.72 14.679 3.72zm-10.783-2.71c-3.208-1.8-5.759-4.28-7.694-7.52l-6.867 4.1c2.639 4.42 6.2 7.9 10.647 10.4zm-7.665-7.47c-1.862-3.22-2.822-6.86-2.822-11.02h-8c0 5.46 1.279 10.5 3.897 15.02zm-2.822-11.02c0-4.16.96-7.77 2.812-10.93l-6.905-4.04c-2.628 4.49-3.907 9.51-3.907 14.97zm2.793-10.9c1.935-3.24 4.486-5.72 7.694-7.52l-3.914-6.979c-4.447 2.499-8.008 5.979-10.647 10.399zm7.676-7.51c3.253-1.8 6.828-2.72 10.801-2.72v-8c-5.268 0-10.187 1.231-14.679 3.721zm10.801-2.72c3.972 0 7.516.92 10.713 2.71l3.914-6.979c-4.457-2.5-9.36-3.731-14.627-3.731zm10.731 2.72c3.237 1.79 5.739 4.26 7.568 7.45l6.941-3.98c-2.558-4.46-6.122-7.97-10.631-10.469zm7.586 7.48c1.852 3.16 2.813 6.77 2.813 10.93h8c0-5.46-1.28-10.48-3.908-14.97zm2.813 10.93c0 4.16-.961 7.8-2.823 11.02l6.925 4c2.618-4.52 3.898-9.56 3.898-15.02zm-2.813 11c-1.884 3.22-4.405 5.7-7.604 7.49l3.914 6.98c4.453-2.5 7.999-6 10.595-10.43zm-7.604 7.49c-3.197 1.79-6.741 2.71-10.713 2.71v8c5.267 0 10.17-1.23 14.627-3.73zm-10.713-.21c4.908 0 9.176-1.69 12.363-5.26l-5.967-5.32c-1.48 1.65-3.465 2.58-6.396 2.58zm12.337-5.23c3.188-3.5 4.613-7.99 4.613-13.05h-8c0 3.52-.956 5.94-2.528 7.67zm4.613-13.05c0-5.1-1.417-9.61-4.637-13.08l-5.867 5.44c1.54 1.66 2.504 4.06 2.504 7.64zm-4.587-13.02c-3.187-3.57-7.455-5.26-12.363-5.26v8c2.931 0 4.916.93 6.396 2.58zm-12.363-5.26c-4.917 0-9.212 1.63-12.454 5.13l5.867 5.44c1.518-1.64 3.57-2.57 6.587-2.57zm-12.48 5.16c-3.166 3.48-4.54 8.01-4.54 13.12h8c0-3.66.959-6.09 2.459-7.74zm-4.54 13.12c0 5.08 1.382 9.58 4.516 13.09l5.967-5.32c-1.532-1.72-2.483-4.17-2.483-7.77zm4.566 13.15c3.242 3.5 7.537 5.13 12.454 5.13v-8c-3.017 0-5.069-.93-6.587-2.57zM291.49 908v4h4v-4zm-11.97 0-3.338 2.2 1.186 1.8h2.152zm-20.02-30.31 3.337-2.2-7.337-11.11v13.31zm0 30.31v4h4v-4zm-11.97 0h-4v4h4zm0-49.14v-4h-4v4zm11.97 0 3.342-2.197-1.185-1.803H259.5zm20.02 30.45-3.342 2.2 7.342 11.16v-13.36zm0-30.45v-4h-4v4zm11.97 0h4v-4h-4zm0 45.14h-11.97v8h11.97zm-8.633 1.8-20.02-30.31-6.675 4.4 20.02 30.31zM255.5 877.69V908h8v-30.31zm4 26.31h-11.97v8h11.97zm-7.97 4v-49.14h-8V908zm-4-45.14h11.97v-8h-11.97zm8.628-1.8 20.02 30.45 6.684-4.4-20.02-30.447zm27.362 28.25v-30.45h-8v30.45zm-4-26.45h11.97v-8h-11.97zm7.97-4V908h8v-49.14zm47.297 15.54-3.516 1.91 1.136 2.09h2.38zm-3.85-3.71-1.909 3.52.059.03.061.03zm-15.12 2.52 2.935 2.72.012-.02.012-.01zm.14 20.79-2.907 2.75.026.03.026.02zm17.57 1.54-2.353-3.23-.018.01-.017.01zm4.48-6.44 3.794 1.26 1.755-5.26h-5.549zm-15.19 0h-4v4h4zm0-8.82v-4h-4v4zm26.04 0h4v-4h-4zm0 11.13 3.834 1.14.166-.56v-.58zm-4.55 8.33-3.069-2.57-.014.02-.013.02zm-32.13 5.46-1.976 3.48.026.01.025.02zm-8.89-8.89-3.497 1.94.009.02.009.02zm0-25.9-3.489-1.96-.004.01-.004.01zm8.89-8.89 1.942 3.5.017-.01.016-.01zm27.79 1.05-2.315 3.26.009.01.009.01zm8.05 11.83v4h5.169l-1.297-5zm-9.715-1.91a12.7 12.7 0 0 0-5.577-5.38l-3.577 7.16c.955.48 1.632 1.13 2.123 2.04zm-5.457-5.32c-2.328-1.26-4.948-1.81-7.718-1.81v8c1.709 0 2.963.34 3.901.85zm-7.718-1.81c-4.855 0-9.086 1.66-12.27 5.16l5.919 5.38c1.483-1.63 3.458-2.54 6.351-2.54zm-12.246 5.13c-3.17 3.43-4.564 7.87-4.564 12.87h8c0-3.49.939-5.82 2.435-7.43zm-4.564 12.87c0 5.25 1.423 9.89 4.733 13.39l5.813-5.5c-1.543-1.63-2.546-4.09-2.546-7.89zm4.785 13.44c3.383 3.45 7.885 4.98 13.005 4.98v-8c-3.468 0-5.732-.99-7.296-2.58zm13.005 4.98c3.644 0 6.995-.94 9.808-3.03l-4.776-6.42c-1.201.89-2.797 1.45-5.032 1.45zm9.772-3.01c2.833-2.06 4.77-4.95 5.922-8.41l-7.589-2.52c-.714 2.14-1.764 3.54-3.038 4.47zm2.128-13.67h-15.19v8h15.19zm-11.19 4v-8.82h-8v8.82zm-4-4.82h26.04v-8h-26.04zm22.04-4v11.13h8v-11.13zm.165 9.99c-.72 2.43-1.961 4.72-3.784 6.9l6.137 5.14c2.47-2.96 4.263-6.21 5.316-9.76zm-3.811 6.94c-1.7 2.07-3.907 3.8-6.702 5.16l3.495 7.2c3.738-1.82 6.898-4.24 9.398-7.3zm-6.702 5.16c-2.655 1.29-5.732 1.98-9.312 1.98v8c4.632 0 8.929-.9 12.807-2.78zm-9.312 1.98c-4.258 0-7.923-.92-11.096-2.66l-3.849 7.02c4.48 2.46 9.495 3.64 14.945 3.64zm-11.045-2.63c-3.153-1.79-5.597-4.23-7.387-7.39l-6.957 3.96c2.503 4.4 5.986 7.89 10.393 10.39zm-7.369-7.35c-1.731-3.12-2.646-6.75-2.646-11.01h-8c0 5.45 1.184 10.45 3.653 14.89zm-2.646-11.01c0-4.26.915-7.89 2.646-11.01l-6.993-3.88c-2.469 4.44-3.653 9.44-3.653 14.89zm2.638-10.99c1.79-3.19 4.222-5.62 7.344-7.35l-3.885-7c-4.438 2.47-7.932 5.97-10.436 10.43zm7.377-7.37c3.11-1.77 6.731-2.7 10.975-2.7v-8c-5.464 0-10.476 1.215-14.926 3.74zm10.975-2.7c5.216 0 9.312 1.25 12.525 3.53l4.629-6.52c-4.813-3.417-10.611-5.01-17.154-5.01zm12.543 3.55c3.24 2.27 5.394 5.38 6.475 9.55l7.744-2c-1.533-5.91-4.746-10.68-9.626-14.11zm10.347 4.55h-13.23v8h13.23zm34.53 37.6-3.504 1.93 1.141 2.07h2.363zm-10.22-18.55 3.503-1.93-1.14-2.07h-2.363zm-2.87 0v-4h-4v4zm0 18.55v4h4v-4zm-11.97 0h-4v4h4zm0-49.14v-4h-4v4zm29.96 2.03-1.789 3.58h.012l.012.01zm6.16 5.6-3.477 1.98.008.01.009.02zm-.77 16.59-3.235-2.35-.014.02-.014.02zm-8.12 5.46-1.145-3.83-4.87 1.45 2.559 4.39zm11.34 19.46v4h6.96l-3.504-6.01zm-26.6-27.02h-4v4h4zm12.32-1.61-2.768-2.89-.03.03-.031.03zm0-8.96-2.829 2.83.031.03.03.03zm-12.32-1.61v-4h-4v4zm16.593 37.27-10.22-18.55-7.007 3.86 10.22 18.55zm-13.723-20.62h-2.87v8h2.87zm-6.87 4V908h8v-18.55zm4 14.55h-11.97v8h11.97zm-7.97 4v-49.14h-8V908zm-4-45.14h20.09v-8h-20.09zm20.09 0c3.421 0 6.063.6 8.081 1.61l3.578-7.158c-3.396-1.697-7.333-2.452-11.659-2.452zm8.105 1.62c2.124 1.04 3.538 2.39 4.448 3.99l6.954-3.96c-1.797-3.16-4.49-5.55-7.873-7.21zm4.465 4.02c.974 1.68 1.49 3.59 1.49 5.83h8c0-3.55-.837-6.86-2.57-9.85zm1.49 5.83c0 2.45-.681 4.54-2.035 6.4l6.47 4.7c2.379-3.27 3.565-7.01 3.565-11.1zm-2.063 6.44c-1.209 1.7-3.094 3.07-6.002 3.94l2.29 7.66c4.279-1.28 7.807-3.55 10.238-6.98zm-8.313 9.78 11.34 19.46 6.912-4.02-11.34-19.46zM396.057 904h-13.51v8h13.51zm-26.6-19.02h7.42v-8h-7.42zm7.42 0c2.781 0 5.626-.68 7.728-2.78l-5.657-5.66c-.044.05-.465.44-2.071.44zm7.667-2.72c2.103-2.02 2.913-4.69 2.913-7.44h-8c0 1.17-.311 1.53-.448 1.66zm2.913-7.44c0-2.72-.848-5.32-2.913-7.3l-5.535 5.78c.176.17.448.51.448 1.52zm-2.852-7.24c-2.102-2.1-4.947-2.78-7.728-2.78v8c1.606 0 2.027.39 2.071.44zm-7.728-2.78h-7.42v8h7.42zm-11.42 4v12.18h8V868.8zm70.284 30.52 3.788-1.28-.92-2.72h-2.868zm-18.34 0v-4h-2.868l-.921 2.72zm-2.94 8.68v4h2.868l.92-2.72zm-12.53 0-3.761-1.36-1.94 5.36h5.701zm17.78-49.14v-4h-2.807l-.954 2.639zm13.86 0 3.761-1.361-.955-2.639h-2.806zm17.78 49.14v4h5.701l-1.94-5.36zm-12.67 0-3.789 1.28.921 2.72h2.868zm-6.02-17.92v4h5.577l-1.788-5.28zm-6.09-17.99 3.789-1.28-3.811-11.26-3.771 11.27zm-6.02 17.99-3.793-1.27-1.764 5.27h5.557zm15.19 5.24h-18.34v8h18.34zm-22.129 2.72-2.94 8.68 7.577 2.56 2.94-8.68zm.849 5.96h-12.53v8h12.53zm-8.769 5.36 17.78-49.14-7.522-2.721-17.78 49.141zm14.019-46.5h13.86v-8h-13.86zm10.099-2.64 17.78 49.14 7.522-2.72-17.78-49.141zM451.351 904h-12.67v8h12.67zm-8.882 2.72-2.94-8.68-7.577 2.56 2.94 8.68zm-6.019-17.92-6.09-17.99-7.578 2.56 6.09 17.99zm-13.672-17.98-6.02 17.99 7.586 2.54 6.02-17.99zm-2.227 23.26h12.11v-8h-12.11zm73.561-35.22h4v-4h-4zm0 9.59v4h4v-4zm-13.02 0v-4h-4v4zm0 39.55v4h4v-4zm-11.97 0h-4v4h4zm0-39.55h4v-4h-4zm-13.02 0h-4v4h4zm0-9.59v-4h-4v4zm34.01 0v9.59h8v-9.59zm4 5.59h-13.02v8h13.02zm-17.02 4V908h8v-39.55zm4 35.55h-11.97v8h11.97zm-7.97 4v-39.55h-8V908zm-4-43.55h-13.02v8h13.02zm-9.02 4v-9.59h-8v9.59zm-4-5.59h38.01v-8h-38.01zm57.778-4h4v-4h-4zm17.22 0v-4h-4v4zm11.97 0h4v-4h-4zm-10.36 47.32-1.747-3.6-.01.01h-.011zm-20.93.07-1.811 3.57.033.01.033.02zm-7.21-6.86-3.467 2 .007.01.006.01zm-2.66-40.53v-4h-4v4zm7.97 0v29.4h8v-29.4zm0 29.4c0 3.57.881 6.93 3.214 9.49l5.911-5.4c-.56-.61-1.125-1.78-1.125-4.09zm3.214 9.49c2.418 2.65 5.762 3.68 9.326 3.68v-8c-2.037 0-2.939-.55-3.415-1.08zm9.326 3.68c3.57 0 6.902-1.04 9.352-3.64l-5.825-5.48c-.537.57-1.498 1.12-3.527 1.12zm9.352-3.64c2.406-2.55 3.328-5.93 3.328-9.53h-8c0 2.28-.572 3.43-1.153 4.05zm3.328-9.53v-29.4h-8v29.4zm-4-25.4h11.97v-8H531.1zm7.97-4v29.33h8v-29.33zm0 29.33c0 3.82-.809 6.76-2.207 9.03l6.813 4.2c2.336-3.8 3.394-8.27 3.394-13.23zm-2.207 9.03c-1.472 2.4-3.419 4.16-5.9 5.36l3.493 7.2c3.866-1.88 6.959-4.69 9.22-8.36zm-5.921 5.37c-2.518 1.24-5.403 1.9-8.732 1.9v8c4.417 0 8.532-.88 12.267-2.72zm-8.732 1.9c-3.349 0-6.217-.64-8.685-1.84l-3.49 7.2c3.691 1.79 7.777 2.64 12.175 2.64zm-8.62-1.81c-2.325-1.18-4.168-2.92-5.567-5.31l-6.907 4.04c2.148 3.67 5.111 6.51 8.853 8.41zm-5.554-5.29c-1.351-2.34-2.126-5.35-2.126-9.2h-8c0 4.92.997 9.38 3.193 13.2zm-2.126-9.2v-29.33h-8v29.33zm-4-25.33h11.97v-8h-11.97zm63.535 35.9h-4v4h4zm15.68 0h4v-4h-4zm0 9.24v4h4v-4zm-27.65 0h-4v4h4zm0-49.14v-4h-4v4zm11.97 0h4v-4h-4zm0 43.9h15.68v-8h-15.68zm11.68-4V908h8v-9.24zm4 5.24h-27.65v8h27.65zm-23.65 4v-49.14h-8V908zm-4-45.14h11.97v-8h-11.97zm7.97-4v39.9h8v-39.9zm57.98 40.46 3.788-1.28-.92-2.72h-2.868zm-18.34 0v-4h-2.869l-.92 2.72zm-2.94 8.68v4h2.868l.92-2.72zm-12.53 0-3.762-1.36-1.94 5.36h5.702zm17.78-49.14v-4h-2.807l-.955 2.639zm13.86 0 3.761-1.361-.955-2.639h-2.806zm17.78 49.14v4h5.701l-1.94-5.36zm-12.67 0-3.789 1.28.92 2.72h2.869zm-6.02-17.92v4h5.577l-1.789-5.28zm-6.09-17.99 3.788-1.28-3.81-11.26-3.772 11.27zm-6.02 17.99-3.794-1.27-1.763 5.27h5.557zm15.19 5.24h-18.34v8h18.34zm-22.129 2.72-2.94 8.68 7.577 2.56 2.94-8.68zm.849 5.96h-12.53v8h12.53zm-8.769 5.36 17.78-49.14-7.523-2.721-17.78 49.141zm14.019-46.5h13.86v-8h-13.86zm10.098-2.64 17.78 49.14 7.523-2.72-17.78-49.141zM635.035 904h-12.67v8h12.67zm-8.882 2.72-2.94-8.68-7.577 2.56 2.94 8.68zm-6.02-17.92-6.09-17.99-7.577 2.56 6.09 17.99zm-13.672-17.98-6.02 17.99 7.587 2.54 6.02-17.99zm-2.226 23.26h12.11v-8h-12.11zm73.561-35.22h4v-4h-4zm0 9.59v4h4v-4zm-13.02 0v-4h-4v4zm0 39.55v4h4v-4zm-11.97 0h-4v4h4zm0-39.55h4v-4h-4zm-13.02 0h-4v4h4zm0-9.59v-4h-4v4zm34.01 0v9.59h8v-9.59zm4 5.59h-13.02v8h13.02zm-17.02 4V908h8v-39.55zm4 35.55h-11.97v8h11.97zm-7.97 4v-39.55h-8V908zm-4-43.55h-13.02v8h13.02zm-9.02 4v-9.59h-8v9.59zm-4-5.59h38.01v-8h-38.01zm57.987-4h4v-4h-4zm0 49.14v4h4v-4zm-11.97 0h-4v4h4zm0-49.14v-4h-4v4zm7.97 0V908h8v-49.14zm4 45.14h-11.97v8h11.97zm-7.97 4v-49.14h-8V908zm-4-45.14h11.97v-8h-11.97zm33.145 42.41-1.957 3.49H717l.009.01zm-9.17-8.96-3.463 2 .014.03.015.02zm0-25.97-3.434-2.05-.009.01-.009.02zm9.17-8.96-1.939-3.499-.009.005-.009.005zm25.41 0-1.957 3.49h.009l.009.01zm9.1 8.96-3.471 1.99.01.01.009.02zm0 25.97 3.452 2.02.005-.01.005-.01zm-12.39-2.66-2.958-2.69-.013.01-.013.02zm0-20.72-2.984 2.66.025.03.026.03zm-18.9-.07-2.933-2.72-.014.01-.013.02zm0 20.86-2.984 2.66.025.03.026.03zm9.52 10.77c-3.972 0-7.547-.92-10.801-2.72l-3.878 7c4.493 2.49 9.411 3.72 14.679 3.72zm-10.783-2.71c-3.208-1.8-5.759-4.28-7.694-7.52l-6.867 4.1c2.639 4.42 6.201 7.9 10.647 10.4zm-7.665-7.47c-1.861-3.22-2.822-6.86-2.822-11.02h-8c0 5.46 1.279 10.5 3.897 15.02zm-2.822-11.02c0-4.16.961-7.77 2.812-10.93l-6.904-4.04c-2.629 4.49-3.908 9.51-3.908 14.97zm2.793-10.9c1.935-3.24 4.486-5.72 7.694-7.52l-3.914-6.979c-4.446 2.499-8.008 5.979-10.647 10.399zm7.676-7.51c3.254-1.8 6.829-2.72 10.801-2.72v-8c-5.268 0-10.186 1.231-14.679 3.721zm10.801-2.72c3.972 0 7.516.92 10.713 2.71l3.914-6.979c-4.457-2.5-9.359-3.731-14.627-3.731zm10.731 2.72c3.237 1.79 5.74 4.26 7.568 7.45l6.941-3.98c-2.558-4.46-6.122-7.97-10.631-10.469zm7.587 7.48c1.851 3.16 2.812 6.77 2.812 10.93h8c0-5.46-1.279-10.48-3.908-14.97zm2.812 10.93c0 4.16-.961 7.8-2.823 11.02l6.925 4c2.619-4.52 3.898-9.56 3.898-15.02zm-2.812 11c-1.885 3.22-4.405 5.7-7.605 7.49l3.914 6.98c4.453-2.5 8-6 10.595-10.43zm-7.605 7.49c-3.197 1.79-6.741 2.71-10.713 2.71v8c5.268 0 10.17-1.23 14.627-3.73zm-10.713-.21c4.908 0 9.176-1.69 12.364-5.26l-5.968-5.32c-1.479 1.65-3.465 2.58-6.396 2.58zm12.337-5.23c3.188-3.5 4.613-7.99 4.613-13.05h-8c0 3.52-.956 5.94-2.528 7.67zm4.613-13.05c0-5.1-1.417-9.61-4.637-13.08l-5.866 5.44c1.539 1.66 2.503 4.06 2.503 7.64zm-4.586-13.02c-3.188-3.57-7.456-5.26-12.364-5.26v8c2.931 0 4.917.93 6.396 2.58zm-12.364-5.26c-4.917 0-9.212 1.63-12.453 5.13l5.866 5.44c1.518-1.64 3.57-2.57 6.587-2.57zm-12.48 5.16c-3.166 3.48-4.54 8.01-4.54 13.12h8c0-3.66.959-6.09 2.46-7.74zm-4.54 13.12c0 5.08 1.382 9.58 4.516 13.09l5.968-5.32c-1.533-1.72-2.484-4.17-2.484-7.77zm4.567 13.15c3.241 3.5 7.536 5.13 12.453 5.13v-8c-3.017 0-5.069-.93-6.587-2.57zM809.437 908v4h4v-4zm-11.97 0-3.338 2.2 1.186 1.8h2.152zm-20.02-30.31 3.338-2.2-7.338-11.11v13.31zm0 30.31v4h4v-4zm-11.97 0h-4v4h4zm0-49.14v-4h-4v4zm11.97 0 3.342-2.197-1.185-1.803h-2.157zm20.02 30.45-3.342 2.2 7.342 11.16v-13.36zm0-30.45v-4h-4v4zm11.97 0h4v-4h-4zm0 45.14h-11.97v8h11.97zm-8.632 1.8-20.02-30.31-6.676 4.4 20.02 30.31zm-27.358-28.11V908h8v-30.31zm4 26.31h-11.97v8h11.97zm-7.97 4v-49.14h-8V908zm-4-45.14h11.97v-8h-11.97zm8.628-1.8 20.02 30.45 6.684-4.4-20.02-30.447zm27.362 28.25v-30.45h-8v30.45zm-4-26.45h11.97v-8h-11.97zm7.97-4V908h8v-49.14zm15.937 42.7-3.224 2.37.016.02.016.02zm-2.66-8.26v-4h-4.118l.119 4.12zm12.74 0 3.979-.41-.368-3.59h-3.611zm1.89 4.2-2.697 2.95.036.04.036.03zm8.4.21 2.446 3.17.044-.04.043-.03zm.28-6.44-2.829 2.83.041.04.041.04zm-3.01-1.96-1.611 3.66.026.01.026.01zm-5.04-1.75-1.18 3.82.019.01h.019zm-10.15-25.48 2.449 3.16.014-.01.014-.01zm26.04 0-2.477 3.14.013.01.014.01zm5.32 10.78v4h4.207l-.212-4.2zm-12.95 0-3.993.23.221 3.77h3.772zm-1.75-3.71-2.625 3.02.038.03.039.03zm-7.63-.21 2.576 3.06.046-.04.045-.04zm7.91 9.87 1.281-3.79-.025-.01-.025-.01zm7.7 3.08-1.789 3.58.017.01h.016zm5.18 19.11-3.381-2.14-.015.03-.016.02zm-15.75 3.49c-3.159 0-5.852-.51-8.143-1.45l-3.034 7.4c3.402 1.4 7.149 2.05 11.177 2.05zm-8.143-1.45c-2.234-.92-3.923-2.22-5.185-3.89l-6.384 4.82c2.191 2.9 5.075 5.05 8.535 6.47zm-5.154-3.85c-1.135-1.54-1.812-3.48-1.885-6.01l-7.997.24c.114 3.91 1.211 7.48 3.435 10.51zm-5.883-1.89h12.74v-8h-12.74zm8.761-3.59c.26 2.53 1.199 4.94 3.172 6.74l5.394-5.9c-.175-.16-.495-.55-.608-1.66zm3.244 6.81c1.949 1.69 4.349 2.38 6.825 2.38v-8c-.978 0-1.378-.25-1.575-.42zm6.825 2.38c2.338 0 4.701-.52 6.646-2.02l-4.892-6.34c-.109.09-.545.36-1.754.36zm6.733-2.09c2.047-1.68 3.007-4.01 3.007-6.53h-8c0 .25-.042.32-.034.3.002 0 .006-.01.008-.01s-.01.01-.047.04zm3.007-6.53c0-2.25-.83-4.33-2.514-5.92l-5.493 5.82c.024.02.029.03.023.02s-.014-.02-.021-.04c-.007-.01-.006-.02-.004-.01.003.02.009.06.009.13zm-2.432-5.84c-1.215-1.21-2.673-2.13-4.28-2.81l-3.117 7.36c.82.35 1.369.74 1.74 1.11zm-4.227-2.79c-1.394-.61-3.26-1.25-5.509-1.92l-2.284 7.66c2.138.64 3.631 1.17 4.571 1.58zm-5.471-1.91c-3.061-.95-5.44-1.86-7.195-2.71l-3.511 7.18c2.259 1.11 5.06 2.16 8.346 3.17zm-7.195-2.71c-1.401-.69-2.648-1.71-3.745-3.16l-6.381 4.82c1.797 2.38 4.003 4.25 6.615 5.52zm-3.745-3.16c-.788-1.05-1.36-2.62-1.36-5.08h-8c0 3.7.875 7.12 2.979 9.9zm-1.36-5.08c0-3.47 1.182-5.81 3.419-7.55l-4.899-6.32c-4.389 3.4-6.52 8.19-6.52 13.87zm3.447-7.57c2.441-1.92 5.813-3.06 10.473-3.06v-8c-5.98 0-11.241 1.478-15.427 4.78zm10.473-3.06c4.772 0 8.184 1.14 10.613 3.06l4.954-6.28c-4.198-3.311-9.512-4.78-15.567-4.78zm10.64 3.08c2.289 1.78 3.594 4.23 3.775 7.82l7.99-.4c-.286-5.65-2.528-10.38-6.866-13.74zm7.77 3.62h-12.95v8h12.95zm-8.957 3.77c-.149-2.53-1.141-4.87-3.196-6.56l-5.095 6.16c.092.08.266.21.305.86zm-3.118-6.5c-1.93-1.68-4.295-2.38-6.755-2.38v8c.899 0 1.288.23 1.505.42zm-6.755-2.38c-2.208 0-4.397.62-6.167 2.21l5.334 5.96c.003 0 .148-.17.833-.17zm-6.077 2.13c-2.007 1.69-2.753 4.04-2.753 6.35h8c0-.32.049-.43.041-.41-.005.01-.02.05-.049.09a.5.5 0 0 1-.086.09zm-2.753 6.35c0 3.15 1.629 5.62 4.198 7.15l4.084-6.88c-.294-.17-.328-.27-.298-.22.012.02.02.04.023.05s-.007-.02-.007-.1zm4.198 7.15c1.886 1.12 4.562 2.18 7.811 3.24l2.462-7.62c-3.099-1-5.089-1.85-6.189-2.5zm7.76 3.22c3.08 1.04 5.459 2 7.193 2.87l3.578-7.16c-2.186-1.09-4.941-2.18-8.208-3.29zm7.226 2.88c1.425.7 2.68 1.72 3.774 3.13l6.323-4.9c-1.799-2.32-3.997-4.15-6.586-5.41zm3.774 3.13c.782 1.01 1.332 2.49 1.332 4.76h8c0-3.61-.897-6.94-3.009-9.66zm1.332 4.76c0 2.07-.523 3.87-1.551 5.49l6.761 4.28c1.866-2.95 2.79-6.24 2.79-9.77zm-1.582 5.54c-.96 1.57-2.411 2.91-4.537 3.97l3.578 7.16c3.287-1.65 5.943-3.95 7.782-6.95zm-4.537 3.97c-2.043 1.02-4.602 1.61-7.801 1.61v8c4.174 0 8.008-.77 11.379-2.45z" fill="#CB3B34"/>
  </g>
  <path d="M502 824a6 6 0 1 1-12 0 6 6 0 0 1 12 0m-40 0a6 6 0 1 1-12 0 6 6 0 0 1 12 0m440 0a6 6 0 1 1-12 0 6 6 0 0 1 12 0m-480 0a6 6 0 1 1-12 0 6 6 0 0 1 12 0m440 0a6 6 0 1 1-12 0 6 6 0 0 1 12 0m-480 0a6 6 0 1 1-12 0 6 6 0 0 1 12 0m440 0a6 6 0 1 1-12 0 6 6 0 0 1 12 0m-480 0a6 6 0 1 1-12 0 6 6 0 0 1 12 0m440 0a6 6 0 1 1-12 0 6 6 0 0 1 12 0m-480 0a6 6 0 1 1-12 0 6 6 0 0 1 12 0m440 0a6 6 0 1 1-12 0 6 6 0 0 1 12 0m-480 0a6 6 0 1 1-12 0 6 6 0 0 1 12 0m440 0a6 6 0 1 1-12 0 6 6 0 0 1 12 0m-480 0a6 6 0 1 1-12 0 6 6 0 0 1 12 0m440 0a6 6 0 1 1-12 0 6 6 0 0 1 12 0m-480 0a6 6 0 1 1-12 0 6 6 0 0 1 12 0m440 0a6 6 0 1 1-12 0 6 6 0 0 1 12 0m-480 0a6 6 0 1 1-12 0 6 6 0 0 1 12 0m440 0a6 6 0 1 1-12 0 6 6 0 0 1 12 0m-480 0a6 6 0 1 1-12 0 6 6 0 0 1 12 0m440 0a6 6 0 1 1-12 0 6 6 0 0 1 12 0m-40 120c0 3.31-2.686 6-6 6s-6-2.69-6-6 2.686-6 6-6 6 2.69 6 6m-40 0c0 3.31-2.686 6-6 6s-6-2.69-6-6 2.686-6 6-6 6 2.69 6 6m440 0c0 3.31-2.686 6-6 6s-6-2.69-6-6 2.686-6 6-6 6 2.69 6 6m-480 0c0 3.31-2.686 6-6 6s-6-2.69-6-6 2.686-6 6-6 6 2.69 6 6m440 0c0 3.31-2.686 6-6 6s-6-2.69-6-6 2.686-6 6-6 6 2.69 6 6m-480 0c0 3.31-2.686 6-6 6s-6-2.69-6-6 2.686-6 6-6 6 2.69 6 6m440 0c0 3.31-2.686 6-6 6s-6-2.69-6-6 2.686-6 6-6 6 2.69 6 6m-480 0c0 3.31-2.686 6-6 6s-6-2.69-6-6 2.686-6 6-6 6 2.69 6 6m440 0c0 3.31-2.686 6-6 6s-6-2.69-6-6 2.686-6 6-6 6 2.69 6 6m-480 0c0 3.31-2.686 6-6 6s-6-2.69-6-6 2.686-6 6-6 6 2.69 6 6m440 0c0 3.31-2.686 6-6 6s-6-2.69-6-6 2.686-6 6-6 6 2.69 6 6m-480 0c0 3.31-2.686 6-6 6s-6-2.69-6-6 2.686-6 6-6 6 2.69 6 6m440 0c0 3.31-2.686 6-6 6s-6-2.69-6-6 2.686-6 6-6 6 2.69 6 6m-480 0c0 3.31-2.686 6-6 6s-6-2.69-6-6 2.686-6 6-6 6 2.69 6 6m440 0c0 3.31-2.686 6-6 6s-6-2.69-6-6 2.686-6 6-6 6 2.69 6 6m-480 0c0 3.31-2.686 6-6 6s-6-2.69-6-6 2.686-6 6-6 6 2.69 6 6m440 0c0 3.31-2.686 6-6 6s-6-2.69-6-6 2.686-6 6-6 6 2.69 6 6m-480 0c0 3.31-2.686 6-6 6s-6-2.69-6-6 2.686-6 6-6 6 2.69 6 6m440 0c0 3.31-2.686 6-6 6s-6-2.69-6-6 2.686-6 6-6 6 2.69 6 6m-480 0c0 3.31-2.686 6-6 6s-6-2.69-6-6 2.686-6 6-6 6 2.69 6 6m-16-95a6 6 0 1 1-12 0 6 6 0 0 1 12 0m830 0a6 6 0 1 1-12 0 6 6 0 0 1 12 0M86 923c0 3.31-2.686 6-6 6s-6-2.69-6-6 2.686-6 6-6 6 2.69 6 6m830 0c0 3.31-2.686 6-6 6s-6-2.69-6-6 2.686-6 6-6 6 2.69 6 6M86 884c0 3.31-2.686 6-6 6s-6-2.69-6-6 2.686-6 6-6 6 2.69 6 6m830 0c0 3.31-2.686 6-6 6s-6-2.69-6-6 2.686-6 6-6 6 2.69 6 6m-374 60c0 3.31-2.686 6-6 6s-6-2.69-6-6 2.686-6 6-6 6 2.69 6 6" fill="#D9D9D9"/>
  <path d="M167.648 290.878a6.001 6.001 0 0 1 8.486-8.486l21.288 21.288a6.001 6.001 0 0 1-8.486 8.486zm29.686-28.409a5.958 5.958 0 0 1 10.956-4.682l12.218 28.592a5.957 5.957 0 0 1-10.956 4.681zm-54.547 60.821a5.958 5.958 0 0 1 4.682-10.956l28.591 12.218a5.957 5.957 0 0 1-4.681 10.956zm716.266-40.642a6 6 0 1 1 8.485 8.486l-21.288 21.288a6 6 0 1 1-8.485-8.486zm28.409 29.686a5.957 5.957 0 0 1 7.499 2.5c1.786 3.093.467 7.053-2.818 8.456l-28.591 12.218a5.958 5.958 0 0 1-4.682-10.956zm-60.822-54.547a5.957 5.957 0 1 1 10.956 4.682l-12.218 28.591c-1.403 3.285-5.363 4.604-8.456 2.818a5.957 5.957 0 0 1-2.5-7.499z" fill="#fff"/>
  <defs>
    <linearGradient id="a" x1="13" y1="66.5" x2="516.5" y2="378" gradientUnits="userSpaceOnUse">
      <stop stop-color="#FFEBB2"/>
      <stop offset="1" stop-color="#F74A44"/>
    </linearGradient>
    <linearGradient id="b" x1="516.5" y1="949.5" x2="891" y2="630" gradientUnits="userSpaceOnUse">
      <stop stop-color="#4CB4FA"/>
      <stop offset="1" stop-color="#FFEBB2"/>
    </linearGradient>
  </defs>
</svg>
