<svg width="256" height="237.903" viewBox="0 0 256 237.903" fill="none" xmlns="http://www.w3.org/2000/svg">
  <path d="M22.43 81.201c0 .985-1.792 6.351-1.792 6.351s-1.792-5.356-1.792-6.351a1.792 1.792 0 1 1 3.584 0" fill="url(#a)"/>
  <path d="M18.846 103.995c0-.985 1.792-6.351 1.792-6.351s1.792 5.356 1.792 6.351a1.792 1.792 0 1 1-3.584 0" fill="url(#b)"/>
  <path d="M32.266 83.505c-.699.699-7.483 4.953-7.483 4.953s4.254-6.784 4.953-7.483a1.792 1.792 0 1 1 2.53 2.53" fill="url(#c)"/>
  <path d="M9.009 101.691c.699-.699 7.71-5.179 7.71-5.179s-4.48 7.01-5.179 7.71a1.792 1.792 0 0 1-2.53-2.53" fill="url(#d)"/>
  <path d="M29.735 104.231c-.699-.699-4.953-7.483-4.953-7.483s6.784 4.254 7.483 4.953a1.792 1.792 0 0 1-2.53 2.53" fill="url(#e)"/>
  <path d="M11.54 80.965c.699.699 5.179 7.71 5.179 7.71s-7.011-4.481-7.71-5.18a1.792 1.792 0 0 1 2.53-2.53" fill="url(#f)"/>
  <path d="M11.097 111.478c.384-.916 5.061-7.414 5.061-7.414s-1.378 7.887-1.762 8.802a1.792 1.792 0 0 1-3.298-1.388" fill="url(#g)"/>
  <path d="M30.178 75.343c-.384.916-5.189 7.71-5.189 7.71s1.497-8.192 1.881-9.098a1.792 1.792 0 0 1 3.298 1.388" fill="url(#h)"/>
  <path d="M14.612 73.886c.374.916 1.664 8.822 1.664 8.822s-4.608-6.548-4.982-7.463a1.792 1.792 0 0 1 3.318-1.349" fill="url(#i)"/>
  <path d="M26.663 112.935c-.374-.916-1.782-9.118-1.782-9.118s4.726 6.853 5.1 7.769a1.792 1.792 0 0 1-3.318 1.349" fill="url(#j)"/>
  <path d="M1.113 99.436c.916-.374 8.822-1.664 8.822-1.664s-6.548 4.608-7.463 4.982a1.792 1.792 0 1 1-1.349-3.318" fill="url(#k)"/>
  <path d="M40.162 87.385c-.916.374-9.118 1.782-9.118 1.782s6.853-4.726 7.769-5.1a1.792 1.792 0 0 1 1.349 3.318" fill="url(#l)"/>
  <path d="M2.57 83.87c.916.384 7.414 5.061 7.414 5.061s-7.887-1.378-8.802-1.762a1.792 1.792 0 1 1 1.388-3.298" fill="url(#m)"/>
  <path d="M38.705 102.951c-.916-.384-7.71-5.189-7.71-5.189s8.192 1.497 9.098 1.881a1.792 1.792 0 1 1-1.388 3.298" fill="url(#n)"/>
  <path d="M32.039 94.385c-.985 0-6.351-1.792-6.351-1.792s5.356-1.792 6.351-1.792a1.792 1.792 0 0 1 0 3.584" fill="url(#o)"/>
  <path d="M9.236 90.811c.985 0 6.351 1.792 6.351 1.792s-5.356 1.792-6.351 1.792a1.792 1.792 0 1 1 0-3.584" fill="url(#p)"/>
  <path d="M206.178 52.913c0 1.044-1.89 6.705-1.89 6.705s-1.89-5.662-1.89-6.705a1.89 1.89 0 0 1 3.781 0" fill="url(#q)"/>
  <path d="M202.388 76.987c0-1.044 1.89-6.705 1.89-6.705s1.89 5.662 1.89 6.705a1.89 1.89 0 1 1-3.781 0" fill="url(#r)"/>
  <path d="M216.566 55.345c-.738.738-7.906 5.228-7.906 5.228s4.49-7.168 5.228-7.906a1.9 1.9 0 0 1 2.678 2.678" fill="url(#s)"/>
  <path d="M192 74.555c.738-.738 8.143-5.474 8.143-5.474s-4.736 7.404-5.474 8.143a1.89 1.89 0 0 1-2.678-2.678" fill="url(#t)"/>
  <path d="M213.888 77.233c-.738-.738-5.228-7.906-5.228-7.906s7.168 4.49 7.906 5.228a1.87 1.87 0 0 1 0 2.678 1.87 1.87 0 0 1-2.678 0" fill="url(#u)"/>
  <path d="M194.678 52.667c.738.738 5.474 8.143 5.474 8.143s-7.404-4.736-8.143-5.474a1.87 1.87 0 0 1 0-2.678 1.87 1.87 0 0 1 2.678 0" fill="url(#v)"/>
  <path d="M194.206 84.884c.404-.965 5.346-7.828 5.346-7.828s-1.447 8.33-1.861 9.295a1.89 1.89 0 0 1-3.486-1.467" fill="url(#w)"/>
  <path d="M214.361 46.73c-.404.965-5.474 8.143-5.474 8.143s1.585-8.645 1.989-9.61a1.89 1.89 0 1 1 3.486 1.467" fill="url(#x)"/>
  <path d="M197.918 45.194c.394.965 1.753 9.314 1.753 9.314s-4.864-6.912-5.258-7.887a1.89 1.89 0 0 1 3.505-1.428" fill="url(#y)"/>
  <path d="M210.649 86.42c-.394-.965-1.881-9.63-1.881-9.63s4.992 7.237 5.386 8.202a1.89 1.89 0 0 1-3.505 1.428" fill="url(#z)"/>
  <path d="M183.67 72.172c.965-.394 9.314-1.753 9.314-1.753s-6.912 4.864-7.887 5.258a1.89 1.89 0 1 1-1.428-3.505" fill="url(#A)"/>
  <path d="M224.896 59.441c-.965.394-9.63 1.881-9.63 1.881s7.237-4.992 8.202-5.386a1.89 1.89 0 1 1 1.428 3.505" fill="url(#B)"/>
  <path d="M185.206 55.729c.965.404 7.828 5.346 7.828 5.346s-8.33-1.447-9.295-1.861a1.89 1.89 0 1 1 1.467-3.486" fill="url(#C)"/>
  <path d="M223.36 75.884c-.965-.404-8.143-5.474-8.143-5.474s8.645 1.585 9.61 1.989a1.89 1.89 0 0 1-1.467 3.486" fill="url(#D)"/>
  <path d="M216.32 66.836c-1.044 0-6.705-1.89-6.705-1.89s5.662-1.89 6.705-1.89a1.89 1.89 0 0 1 0 3.781" fill="url(#E)"/>
  <path d="M192.246 63.055c1.044 0 6.705 1.89 6.705 1.89s-5.662 1.89-6.705 1.89a1.89 1.89 0 0 1 0-3.781" fill="url(#F)"/>
  <path d="M71.001 18.186c0 1.329-2.402 27.057-2.402 27.057s-2.402-25.738-2.402-27.057a2.402 2.402 0 1 1 4.805 0" fill="url(#G)"/>
  <path d="M66.206 73.393c0-1.329 2.402-27.057 2.402-27.057s2.402 25.738 2.402 27.057a2.402 2.402 0 1 1-4.805 0" fill="url(#H)"/>
  <path d="M96.207 48.187c-1.329 0-27.057-2.402-27.057-2.402s25.738-2.402 27.057-2.402a2.402 2.402 0 1 1 0 4.805" fill="url(#I)"/>
  <path d="M40.999 43.392c1.329 0 27.057 2.402 27.057 2.402s-25.738 2.402-27.057 2.402a2.402 2.402 0 1 1 0-4.805" fill="url(#J)"/>
  <path d="M85.278 31.793c-.738.738-16.364 13.696-16.364 13.696s12.967-15.626 13.695-16.364a1.89 1.89 0 1 1 2.668 2.668" fill="url(#K)"/>
  <path d="M51.938 59.796c.738-.738 16.364-13.696 16.364-13.696S55.335 61.726 54.607 62.464a1.89 1.89 0 1 1-2.668-2.668" fill="url(#L)"/>
  <path d="M82.609 62.464C81.871 61.726 68.913 46.1 68.913 46.1s15.626 12.967 16.364 13.696a1.89 1.89 0 1 1-2.668 2.668" fill="url(#M)"/>
  <path d="M53.858 75.156c.404-.955 10.004-18.855 10.004-18.855s-6.124 19.358-6.528 20.322a1.89 1.89 0 0 1-3.476-1.467" fill="url(#N)"/>
  <path d="M54.597 29.125c.738.738 13.696 16.364 13.696 16.364S52.667 32.522 51.929 31.793a1.89 1.89 0 1 1 2.668-2.668" fill="url(#O)"/>
  <path d="M83.19 15.35c-.404.955-10.004 18.855-10.004 18.855s6.124-19.358 6.528-20.322a1.89 1.89 0 1 1 3.476 1.467" fill="url(#P)"/>
  <path d="M37.012 56.025c.965-.394 20.401-6.262 20.401-6.262s-18.018 9.364-18.983 9.758a1.89 1.89 0 1 1-1.418-3.495" fill="url(#Q)"/>
  <path d="M100.037 34.481c-.965.394-20.401 6.262-20.401 6.262s18.018-9.364 18.983-9.758a1.89 1.89 0 0 1 1.418 3.495" fill="url(#R)"/>
  <path d="M38.617 30.582c.955.404 18.855 10.004 18.855 10.004s-19.358-6.124-20.322-6.528a1.89 1.89 0 0 1 1.467-3.476" fill="url(#S)"/>
  <path d="M98.432 59.924c-.955-.404-18.855-10.004-18.855-10.004s19.358 6.124 20.322 6.528a1.89 1.89 0 1 1-1.467 3.476" fill="url(#T)"/>
  <path d="M57.748 13.735c.394.965 6.262 20.401 6.262 20.401s-9.364-18.018-9.758-18.983a1.89 1.89 0 1 1 3.495-1.418" fill="url(#U)"/>
  <path d="M79.301 76.77c-.394-.965-6.262-20.401-6.262-20.401s9.364 18.018 9.758 18.983a1.89 1.89 0 1 1-3.495 1.418" fill="url(#V)"/>
  <path d="M23.276 53.002c-6.607 0-8.133-1.556-8.133-8.3q0-.158-.108-.266a.4.4 0 0 0-.256-.108.4.4 0 0 0-.256.108.4.4 0 0 0-.108.266c0 6.754-1.516 8.3-8.133 8.3a.4.4 0 0 0-.256.108.394.394 0 0 0 0 .532.4.4 0 0 0 .256.108c6.607 0 8.133 1.556 8.133 8.3q0 .158.108.266a.364.364 0 0 0 .522 0 .4.4 0 0 0 .108-.266c0-6.745 1.516-8.3 8.133-8.3a.4.4 0 0 0 .256-.108.394.394 0 0 0 0-.532.4.4 0 0 0-.256-.108m37.297 117.11c-6.607 0-8.133-1.556-8.133-8.3q0-.158-.108-.266a.4.4 0 0 0-.256-.118.4.4 0 0 0-.256.108.4.4 0 0 0-.108.266c0 6.754-1.516 8.3-8.133 8.3a.4.4 0 0 0-.256.108.394.394 0 0 0 0 .532.4.4 0 0 0 .256.108c6.607 0 8.133 1.556 8.133 8.3q0 .158.108.266a.4.4 0 0 0 .256.108.4.4 0 0 0 .256-.108.4.4 0 0 0 .108-.266c0-6.745 1.516-8.3 8.133-8.3a.4.4 0 0 0 .256-.108.394.394 0 0 0 0-.532.4.4 0 0 0-.256-.108m195.013-80.01c-7.296 0-8.98-1.713-8.98-9.147a.4.4 0 0 0-.118-.295.4.4 0 0 0-.286-.118.4.4 0 0 0-.286.118.4.4 0 0 0-.118.295c0 7.434-1.674 9.147-8.98 9.147a.4.4 0 0 0-.286.118.394.394 0 0 0 0 .581.4.4 0 0 0 .286.118c7.296 0 8.98 1.713 8.98 9.147q0 .167.118.295t.286.118c.167 0 .207-.039.286-.118a.4.4 0 0 0 .118-.295c0-7.434 1.674-9.147 8.98-9.147a.4.4 0 0 0 .286-.118.394.394 0 0 0 0-.581.4.4 0 0 0-.286-.118" fill="#fff"/>
  <path fill="#FF9C42" d="M38.784 156.258a2.954 2.954 0 0 1-2.954 2.954 2.954 2.954 0 0 1-2.954-2.954 2.954 2.954 0 0 1 5.908 0"/>
  <path fill="#36B27B" d="M239.38 37.681a2.954 2.954 0 0 1-2.954 2.954 2.954 2.954 0 0 1-2.964-2.954 2.954 2.954 0 0 1 5.918 0"/>
  <path fill="#4CB4FA" d="M226.078 171.038a2.954 2.954 0 0 1-2.954 2.954 2.954 2.954 0 0 1-2.954-2.954 2.954 2.954 0 0 1 5.908 0"/>
  <path d="M103.828 153.108c3.131-5.543 2.865-11.284.276-16.433-2.54-5.051-7.266-9.482-13.046-12.898-5.76-3.397-15.596-7.404-24.694-9.403-4.539-1.004-9.049-1.536-12.83-1.182-3.722.354-7.306 1.634-9.127 4.864s-1.122 7.05.423 10.535c1.575 3.554 4.263 7.296 7.375 10.85 6.213 7.099 14.494 13.863 20.263 17.27 5.799 3.417 11.953 5.317 17.546 4.972 5.681-.354 10.693-3.042 13.824-8.586Z" fill="#FFC000" stroke="#D39C28" stroke-width="4.433"/>
  <path d="M64.935 153.561c1.566 2.678 4.401 5.041 7.68 6.833 3.318 1.822 7.306 3.17 11.402 3.702 8.162 1.063 17.319-1.113 22.114-10.073 4.795-8.98 1.595-17.979-3.722-24.379a34.5 34.5 0 0 0-9.236-7.749c-3.249-1.841-6.715-3.003-9.738-2.924a4.4 4.4 0 0 0-1.999.591 10 10 0 0 0-1.585 1.152c-.994.886-2.048 2.087-3.082 3.436-2.078 2.727-4.313 6.331-6.282 10.033s-3.751 7.562-4.874 10.831a25.6 25.6 0 0 0-1.172 4.51 10 10 0 0 0-.098 1.989 4.9 4.9 0 0 0 .581 2.038Z" fill="#fff" stroke="#CCC" stroke-width="4.433"/>
  <path d="M160.778 152.645c3.239 5.484 8.34 8.123 14.09 8.458 5.642.325 11.845-1.556 17.694-4.854 5.819-3.289 14.208-9.807 20.49-16.679 3.141-3.436 5.858-7.06 7.434-10.526 1.556-3.397 2.235-7.148.354-10.338s-5.543-4.5-9.334-4.903c-3.86-.414-8.458.049-13.076.965-9.255 1.831-19.259 5.622-25.088 8.911-5.858 3.308-10.585 7.7-13.076 12.702-2.54 5.1-2.708 10.782.522 16.266Z" fill="#FFC000" stroke="#D39C28" stroke-width="4.433"/>
  <path d="M179.83 118.735c-3.102.02-6.567 1.29-9.758 3.23-3.23 1.969-6.4 4.746-8.911 8.025-5.002 6.538-7.7 15.557-2.334 24.192 5.376 8.645 14.769 10.368 22.971 8.96 4.116-.709 8.074-2.206 11.333-4.126 3.22-1.9 5.957-4.313 7.404-6.971a4.4 4.4 0 0 0 .492-2.028 10 10 0 0 0-.207-1.95 24.6 24.6 0 0 0-1.438-4.391 79 79 0 0 0-5.543-10.457 79 79 0 0 0-6.951-9.63 25.6 25.6 0 0 0-3.328-3.269 10 10 0 0 0-1.674-1.083 4.9 4.9 0 0 0-2.058-.522Z" fill="#fff" stroke="#CCC" stroke-width="4.433"/>
  <path d="M178.009 189.509c-5.642 21.071-29.922 27.658-55.838 20.716s-43.648-24.793-38.006-45.863c9.748-36.391 37.425-55.641 63.34-48.699s39.375 40.753 30.503 73.846Z" fill="#fff" stroke="#CCC" stroke-width="4.433"/>
  <path d="M106.25 191.97c-5.652-1.516-11.244-1.014-15.764 1.91-4.529 2.934-7.631 8.094-8.743 15.193-.807 5.189.62 11.175 2.974 16.01 1.191 2.442 2.649 4.687 4.293 6.459 1.615 1.743 3.525 3.19 5.642 3.751 2.087.561 4.372.315 6.558-.354 2.206-.67 4.46-1.822 6.587-3.269 4.234-2.885 8.231-7.148 10.457-11.815 3.023-6.351 3.052-12.554.699-17.615-2.334-5.041-6.922-8.734-12.692-10.279Zm48.984.424c5.73-1.536 11.382-1.093 15.951 1.772 4.588 2.875 7.719 7.975 8.793 15.015.788 5.15-.719 11.097-3.141 15.902a27.6 27.6 0 0 1-4.401 6.42c-1.644 1.743-3.594 3.17-5.711 3.732-4.096 1.103-9.098-.729-13.273-3.486-4.283-2.826-8.32-7.02-10.545-11.638-3.033-6.292-3.013-12.446-.581-17.487 2.412-5.012 7.089-8.674 12.928-10.24Z" fill="#FFC000" stroke="#D39C28" stroke-width="4.433"/>
  <path d="M96.295 167.838a1.477 1.477 0 0 1-1.753 1.329l-10.85-1.96a1.477 1.477 0 0 1-1.201-1.585c.354-3.495 1.408-13.243 3.023-22.174s4.037-18.432 4.933-21.829a1.477 1.477 0 0 1 1.684-1.063l10.85 1.959a1.477 1.477 0 0 1 1.172 1.851 295 295 0 0 0-4.854 21.573 286 286 0 0 0-3.003 21.898Zm63.912-43.383a1.477 1.477 0 0 1 1.162-1.861l10.831-2.048a1.477 1.477 0 0 1 1.684 1.054c.916 3.397 3.417 12.869 5.1 21.79s2.816 18.658 3.2 22.144a1.477 1.477 0 0 1-1.191 1.595l-10.831 2.048a1.477 1.477 0 0 1-1.762-1.31c-.374-3.545-1.398-12.455-3.18-21.878s-4.076-18.097-5.022-21.534Z" fill="#45566A" stroke="#394457" stroke-width="4.433"/>
  <path d="M132.362 214.183c13.735 0 26.358-3.23 35.614-9.413 9.314-6.223 15.222-15.468 15.222-27.205 0-8.615-1.044-14.582-3.486-18.462-2.609-4.145-6.538-5.553-11.087-5.711-3.87-.138-8.507.61-13.617 1.438l-2.038.325c-6.016.955-12.879 1.93-20.618 1.93-7.7 0-14.523-1.172-20.519-2.393l-3.111-.65c-4.657-.975-8.94-1.871-12.514-1.93a14.8 14.8 0 0 0-6.351 1.132 10.83 10.83 0 0 0-4.874 4.47c-2.422 4.037-3.456 10.417-3.456 19.86 0 11.737 5.908 20.982 15.232 27.205 9.255 6.183 21.878 9.413 35.614 9.413Z" fill="#45566A" stroke="#394457" stroke-width="4.433"/>
  <path d="m90.791 165.602-.847-.502a1.48 1.48 0 0 0 .01 1.526l.926-.571-.926.571 1.999 3.23a1.48 1.48 0 0 0 1.25.699l3.919.01a1.48 1.48 0 0 0 1.29-.738l-.965-.551.965.551 1.841-3.23a1.48 1.48 0 0 0-.039-1.516l-1.999-3.21-.916.571.916-.571a1.48 1.48 0 0 0-1.27-.699l-3.86.01a1.48 1.48 0 0 0-1.27.729l.955.561-.955-.561-.482.827-1.398 2.373zm0 0 .02.01zm75.058 0-.847-.502a1.48 1.48 0 0 0 .01 1.526l.926-.571-.926.571 1.999 3.23a1.48 1.48 0 0 0 1.25.699l3.919.01a1.48 1.48 0 0 0 1.29-.738l-.965-.551.965.551 1.841-3.23a1.48 1.48 0 0 0-.039-1.516l-1.999-3.21-.916.571.916-.571a1.48 1.48 0 0 0-1.27-.699l-3.86.01a1.48 1.48 0 0 0-1.27.729l.955.561-.955-.561-.482.827-1.398 2.373zm0 0 .02.01z" fill="#fff" stroke="#CCC" stroke-width="2.216"/>
  <path d="m123.746 189.903-6.449-1.733a.99.99 0 0 1-.65-.65l-1.733-6.439a.89.89 0 0 1 .236-.886l4.716-4.716a.99.99 0 0 1 .886-.236l6.449 1.733a.99.99 0 0 1 .65.65l1.733 6.439a.89.89 0 0 1-.236.886l-4.716 4.716a.99.99 0 0 1-.886.236m-5.465-3.358 5.425 1.457 3.978-3.968-1.457-5.425-5.425-1.457-3.978 3.968z" fill="#4CB4FA"/>
  <path d="m134.902 186.949-6.449-1.733a.99.99 0 0 1-.65-.65l-1.733-6.439a.89.89 0 0 1 .236-.886l4.716-4.716a.99.99 0 0 1 .886-.236l6.449 1.733a.99.99 0 0 1 .65.65l1.733 6.439a.89.89 0 0 1-.236.886l-4.716 4.716a.89.89 0 0 1-.886.236m-5.465-3.358 5.425 1.457 3.978-3.968-1.457-5.425-5.425-1.457-3.978 3.968z" fill="#FFC000"/>
  <path d="m131.929 198.065-6.449-1.733a.99.99 0 0 1-.65-.65l-1.733-6.439a.89.89 0 0 1 .236-.886l4.716-4.716a.99.99 0 0 1 .886-.236l6.449 1.733a.99.99 0 0 1 .65.65l1.733 6.439a.89.89 0 0 1-.236.886l-4.716 4.716a.89.89 0 0 1-.886.236m-5.465-3.358 5.425 1.457 3.978-3.968-1.457-5.425-5.425-1.457-3.978 3.968z" fill="#fff"/>
  <path d="M77.686 207.143c2.304-22.518 11.284-22.774 27.874-18.334s26.486 9.354 16.345 30.178c-4.116 8.458-17.103 4.441-25.049 2.314s-20.116-4.913-19.17-14.159" fill="#45566A"/>
  <path d="M85.337 188.032c-3.712 2.767-6.626 9.157-7.65 19.111-.945 9.255 11.215 12.032 19.17 14.159 7.946 2.127 20.933 6.144 25.049-2.314.916-1.89 1.812-4.382 2.412-6.026" stroke="#394457" stroke-width="4.433" stroke-linecap="round"/>
  <path d="M120.182 219.067a1.488 1.488 0 0 1 .975 2.196l-2.629 4.559a1.48 1.48 0 0 1-1.566.709 355 355 0 0 1-18.658-4.421 394 394 0 0 1-19.023-5.671 1.48 1.48 0 0 1-1.004-1.536l.482-5.15a1.497 1.497 0 0 1 1.94-1.28 437 437 0 0 0 19.692 5.819 433 433 0 0 0 19.781 4.766Z" fill="#fff" stroke="#CCC" stroke-width="4.433"/>
  <path d="M184.143 207.212c-2.166-22.262-11.284-22.449-28.18-17.93-16.896 4.529-26.978 9.452-16.837 29.991 4.126 8.34 17.339 4.263 25.433 2.097s20.48-5.012 19.584-14.159" fill="#45566A"/>
  <path d="M137.049 212.962c.522 1.29 1.369 4.874 2.078 6.311 4.126 8.34 17.339 4.263 25.433 2.097s20.48-5.012 19.584-14.159c-.719-7.375-2.521-12.514-4.795-15.675" stroke="#394457" stroke-width="4.433" stroke-linecap="round"/>
  <path d="M140.849 219.343a1.477 1.477 0 0 0-.965 2.206l2.609 4.45a1.48 1.48 0 0 0 1.566.699 364 364 0 0 0 19.023-4.529 414 414 0 0 0 19.397-5.77 1.48 1.48 0 0 0 1.004-1.526l-.443-5.041a1.477 1.477 0 0 0-1.94-1.28c-3.436 1.103-11.431 3.604-20.086 5.918-8.497 2.274-16.542 4.086-20.165 4.874Z" fill="#fff" stroke="#CCC" stroke-width="4.433"/>
  <path d="M132.884 147.791c11.727 0 20.825-3.249 27.303-8.665s10.151-12.849 11.264-20.884c.788-5.662-.187-13.273-2.206-21.346a147.7 147.7 0 0 0-8.95-25.078c-3.751-8.133-8.153-15.685-12.721-21.238a36.4 36.4 0 0 0-7.06-6.794c-2.402-1.664-4.982-2.747-7.631-2.747-2.619 0-5.179 1.014-7.562 2.609-2.393 1.595-4.746 3.84-6.991 6.518-4.5 5.346-8.822 12.652-12.505 20.608a138 138 0 0 0-8.802 24.97c-2.009 8.222-2.993 16.138-2.334 22.43.866 8.32 4.45 15.793 10.919 21.159 6.459 5.356 15.586 8.468 27.294 8.468Z" fill="#FFC000" stroke="#D39C28" stroke-width="4.433"/>
  <path d="M119.07 106.151c4.569 0 8.281-4.076 8.281-9.098s-3.702-9.098-8.281-9.098-8.281 4.076-8.281 9.098 3.702 9.098 8.281 9.098" fill="#fff"/>
  <path d="M119.07 107.53c-5.327 0-9.659-4.697-9.659-10.476s4.332-10.476 9.659-10.476 9.659 4.697 9.659 10.476-4.332 10.476-9.659 10.476m0-18.196c-3.801 0-6.902 3.466-6.902 7.719s3.102 7.719 6.902 7.719 6.902-3.466 6.902-7.719-3.102-7.719-6.902-7.719" fill="#534741"/>
  <path d="M146.117 105.6c4.569 0 8.281-4.076 8.281-9.098s-3.702-9.098-8.281-9.098-8.281 4.076-8.281 9.098 3.702 9.098 8.281 9.098" fill="#fff"/>
  <path d="M146.117 106.978c-5.327 0-9.659-4.697-9.659-10.476s4.332-10.476 9.659-10.476 9.659 4.697 9.659 10.476-4.332 10.476-9.659 10.476m0-18.196c-3.801 0-6.902 3.466-6.902 7.719s3.102 7.719 6.902 7.719 6.902-3.466 6.902-7.719-3.092-7.719-6.902-7.719m-25.945 17.921c3.663 0 6.626-3.082 6.626-6.892s-2.964-6.892-6.626-6.892-6.626 3.082-6.626 6.892 2.964 6.892 6.626 6.892" fill="#534741"/>
  <path d="M146.265 105.964c3.574 0 6.469-3.082 6.469-6.892s-2.895-6.892-6.469-6.892-6.469 3.082-6.469 6.892 2.895 6.892 6.469 6.892" fill="#534741"/>
  <path d="M119.07 97.585c1.063 0 1.93-.679 1.93-1.526s-.866-1.526-1.93-1.526-1.93.679-1.93 1.526.866 1.526 1.93 1.526" fill="#fff"/>
  <path d="M108.574 118.144c4.874 0 8.832-2.718 8.832-6.065s-3.958-6.065-8.832-6.065-8.832 2.718-8.832 6.065 3.958 6.065 8.832 6.065m48.856 0c4.874 0 8.832-2.718 8.832-6.065s-3.958-6.065-8.832-6.065-8.832 2.718-8.832 6.065 3.958 6.065 8.832 6.065" fill="#E4A92D"/>
  <path d="M145.408 96.62c1.063 0 1.93-.679 1.93-1.526s-.866-1.526-1.93-1.526-1.93.679-1.93 1.526.866 1.526 1.93 1.526" fill="#fff"/>
  <path d="M152.665 80.561a19.5 19.5 0 0 0-12.564-3.653m-28.446 3.643c2.57-2.028 7.946-3.692 11.825-3.692" stroke="#534741" stroke-width="2.955" stroke-linecap="round"/>
  <path d="M148.913 120.31c.049 3.515-1.447 6.449-3.978 9.295-2.658 2.993-6.666 5.09-11.865 5.169-5.721.089-9.147-1.674-12.288-4.795-2.511-2.501-4.116-4.953-4.175-8.99-.01-.926.896-2.048 2.009-1.487 2.245 1.26 6.607 3.574 14.277 3.456 7.306-.108 11.914-2.402 13.43-3.535s2.59-.039 2.599.886" fill="#534741"/>
  <path d="m103.582 63.498 29.588-51.239 29.588 51.239s-12.642 6.498-29.588 6.498-29.588-6.498-29.588-6.498" fill="#4CB4FA"/>
  <mask id="W" style="mask-type:alpha" maskUnits="userSpaceOnUse" x="280" y="33" width="161" height="157">
    <path d="m103.582 63.498 29.588-51.239 29.588 51.239s-12.642 6.498-29.588 6.498-29.588-6.498-29.588-6.498" fill="#4CB4FA"/>
  </mask>
  <g mask="url(#W)" fill="#F54F47">
    <path d="m91.796 57.738 67.82-39.158 2.402 4.155-67.82 39.158zm-4.982-8.645 67.82-39.158 2.59 4.48-67.83 39.158zm9.787 16.955 67.82-39.158 2.402 4.155-67.82 39.158zm4.805 8.32 67.82-39.158 2.402 4.155-67.82 39.158zm4.795 8.32 67.82-39.158 2.402 4.155-67.82 39.158z"/>
  </g>
  <path d="M131.348 0h2.914v25.492h-2.914z" fill="#F54F47"/>
  <path d="M145.546 11.284v2.914h-25.492v-2.914z" fill="#F54F47"/>
  <path d="m143.114 5.11 1.457 2.521-22.075 12.741-1.457-2.521z" fill="#F54F47"/>
  <path d="m140.436 23.05-2.521 1.457-12.741-22.075 2.521-1.457z" fill="#F54F47"/>
  <path d="m137.915.975 2.521 1.457-12.741 22.075-2.521-1.457z" fill="#F54F47"/>
  <path d="m144.571 17.861-1.457 2.521-22.075-12.741 1.457-2.521z" fill="#F54F47"/>
  <defs>
    <radialGradient id="a" cx="0" cy="0" r="1" gradientUnits="userSpaceOnUse" gradientTransform="matrix(0 55.8684 -55.8676 0 55.868 252.868)">
      <stop stop-color="#BAE4FF"/>
      <stop offset="1" stop-color="#4CB4FA"/>
    </radialGradient>
    <radialGradient id="b" cx="0" cy="0" r="1" gradientUnits="userSpaceOnUse" gradientTransform="matrix(0 55.8684 -55.8676 0 55.868 252.868)">
      <stop stop-color="#BAE4FF"/>
      <stop offset="1" stop-color="#4CB4FA"/>
    </radialGradient>
    <radialGradient id="c" cx="0" cy="0" r="1" gradientUnits="userSpaceOnUse" gradientTransform="matrix(0 55.8684 -55.8676 0 55.868 252.868)">
      <stop stop-color="#BAE4FF"/>
      <stop offset="1" stop-color="#4CB4FA"/>
    </radialGradient>
    <radialGradient id="d" cx="0" cy="0" r="1" gradientUnits="userSpaceOnUse" gradientTransform="matrix(0 55.8684 -55.8676 0 55.868 252.868)">
      <stop stop-color="#BAE4FF"/>
      <stop offset="1" stop-color="#4CB4FA"/>
    </radialGradient>
    <radialGradient id="e" cx="0" cy="0" r="1" gradientUnits="userSpaceOnUse" gradientTransform="matrix(0 55.8684 -55.8676 0 55.868 252.868)">
      <stop stop-color="#BAE4FF"/>
      <stop offset="1" stop-color="#4CB4FA"/>
    </radialGradient>
    <radialGradient id="f" cx="0" cy="0" r="1" gradientUnits="userSpaceOnUse" gradientTransform="matrix(0 55.8684 -55.8676 0 55.868 252.868)">
      <stop stop-color="#BAE4FF"/>
      <stop offset="1" stop-color="#4CB4FA"/>
    </radialGradient>
    <radialGradient id="g" cx="0" cy="0" r="1" gradientUnits="userSpaceOnUse" gradientTransform="matrix(0 55.8684 -55.8676 0 55.868 252.868)">
      <stop stop-color="#BAE4FF"/>
      <stop offset="1" stop-color="#4CB4FA"/>
    </radialGradient>
    <radialGradient id="h" cx="0" cy="0" r="1" gradientUnits="userSpaceOnUse" gradientTransform="matrix(0 55.8684 -55.8676 0 55.868 252.868)">
      <stop stop-color="#BAE4FF"/>
      <stop offset="1" stop-color="#4CB4FA"/>
    </radialGradient>
    <radialGradient id="i" cx="0" cy="0" r="1" gradientUnits="userSpaceOnUse" gradientTransform="matrix(0 55.8684 -55.8676 0 55.868 252.868)">
      <stop stop-color="#BAE4FF"/>
      <stop offset="1" stop-color="#4CB4FA"/>
    </radialGradient>
    <radialGradient id="j" cx="0" cy="0" r="1" gradientUnits="userSpaceOnUse" gradientTransform="matrix(0 55.8684 -55.8676 0 55.868 252.868)">
      <stop stop-color="#BAE4FF"/>
      <stop offset="1" stop-color="#4CB4FA"/>
    </radialGradient>
    <radialGradient id="k" cx="0" cy="0" r="1" gradientUnits="userSpaceOnUse" gradientTransform="matrix(0 55.8684 -55.8676 0 55.868 252.868)">
      <stop stop-color="#BAE4FF"/>
      <stop offset="1" stop-color="#4CB4FA"/>
    </radialGradient>
    <radialGradient id="l" cx="0" cy="0" r="1" gradientUnits="userSpaceOnUse" gradientTransform="matrix(0 55.8684 -55.8676 0 55.868 252.868)">
      <stop stop-color="#BAE4FF"/>
      <stop offset="1" stop-color="#4CB4FA"/>
    </radialGradient>
    <radialGradient id="m" cx="0" cy="0" r="1" gradientUnits="userSpaceOnUse" gradientTransform="matrix(0 55.8684 -55.8676 0 55.868 252.868)">
      <stop stop-color="#BAE4FF"/>
      <stop offset="1" stop-color="#4CB4FA"/>
    </radialGradient>
    <radialGradient id="n" cx="0" cy="0" r="1" gradientUnits="userSpaceOnUse" gradientTransform="matrix(0 55.8684 -55.8676 0 55.868 252.868)">
      <stop stop-color="#BAE4FF"/>
      <stop offset="1" stop-color="#4CB4FA"/>
    </radialGradient>
    <radialGradient id="o" cx="0" cy="0" r="1" gradientUnits="userSpaceOnUse" gradientTransform="matrix(0 55.8684 -55.8676 0 55.868 252.868)">
      <stop stop-color="#BAE4FF"/>
      <stop offset="1" stop-color="#4CB4FA"/>
    </radialGradient>
    <radialGradient id="p" cx="0" cy="0" r="1" gradientUnits="userSpaceOnUse" gradientTransform="matrix(0 55.8684 -55.8676 0 55.868 252.868)">
      <stop stop-color="#BAE4FF"/>
      <stop offset="1" stop-color="#4CB4FA"/>
    </radialGradient>
    <radialGradient id="q" cx="0" cy="0" r="1" gradientUnits="userSpaceOnUse" gradientTransform="matrix(0 59.0008 -59 0 553 178.141)">
      <stop stop-color="#FFE3FD"/>
      <stop offset="1" stop-color="#C563CA"/>
    </radialGradient>
    <radialGradient id="r" cx="0" cy="0" r="1" gradientUnits="userSpaceOnUse" gradientTransform="matrix(0 59.0008 -59 0 553 178.141)">
      <stop stop-color="#FFE3FD"/>
      <stop offset="1" stop-color="#C563CA"/>
    </radialGradient>
    <radialGradient id="s" cx="0" cy="0" r="1" gradientUnits="userSpaceOnUse" gradientTransform="matrix(0 59.0008 -59 0 553 178.141)">
      <stop stop-color="#FFE3FD"/>
      <stop offset="1" stop-color="#C563CA"/>
    </radialGradient>
    <radialGradient id="t" cx="0" cy="0" r="1" gradientUnits="userSpaceOnUse" gradientTransform="matrix(0 59.0008 -59 0 553 178.141)">
      <stop stop-color="#FFE3FD"/>
      <stop offset="1" stop-color="#C563CA"/>
    </radialGradient>
    <radialGradient id="u" cx="0" cy="0" r="1" gradientUnits="userSpaceOnUse" gradientTransform="matrix(0 59.0008 -59 0 553 178.141)">
      <stop stop-color="#FFE3FD"/>
      <stop offset="1" stop-color="#C563CA"/>
    </radialGradient>
    <radialGradient id="v" cx="0" cy="0" r="1" gradientUnits="userSpaceOnUse" gradientTransform="matrix(0 59.0008 -59 0 553 178.141)">
      <stop stop-color="#FFE3FD"/>
      <stop offset="1" stop-color="#C563CA"/>
    </radialGradient>
    <radialGradient id="w" cx="0" cy="0" r="1" gradientUnits="userSpaceOnUse" gradientTransform="matrix(0 59.0008 -59 0 553 178.141)">
      <stop stop-color="#FFE3FD"/>
      <stop offset="1" stop-color="#C563CA"/>
    </radialGradient>
    <radialGradient id="x" cx="0" cy="0" r="1" gradientUnits="userSpaceOnUse" gradientTransform="matrix(0 59.0008 -59 0 553 178.141)">
      <stop stop-color="#FFE3FD"/>
      <stop offset="1" stop-color="#C563CA"/>
    </radialGradient>
    <radialGradient id="y" cx="0" cy="0" r="1" gradientUnits="userSpaceOnUse" gradientTransform="matrix(0 59.0008 -59 0 553 178.141)">
      <stop stop-color="#FFE3FD"/>
      <stop offset="1" stop-color="#C563CA"/>
    </radialGradient>
    <radialGradient id="z" cx="0" cy="0" r="1" gradientUnits="userSpaceOnUse" gradientTransform="matrix(0 59.0008 -59 0 553 178.141)">
      <stop stop-color="#FFE3FD"/>
      <stop offset="1" stop-color="#C563CA"/>
    </radialGradient>
    <radialGradient id="A" cx="0" cy="0" r="1" gradientUnits="userSpaceOnUse" gradientTransform="matrix(0 59.0008 -59 0 553 178.141)">
      <stop stop-color="#FFE3FD"/>
      <stop offset="1" stop-color="#C563CA"/>
    </radialGradient>
    <radialGradient id="B" cx="0" cy="0" r="1" gradientUnits="userSpaceOnUse" gradientTransform="matrix(0 59.0008 -59 0 553 178.141)">
      <stop stop-color="#FFE3FD"/>
      <stop offset="1" stop-color="#C563CA"/>
    </radialGradient>
    <radialGradient id="C" cx="0" cy="0" r="1" gradientUnits="userSpaceOnUse" gradientTransform="matrix(0 59.0008 -59 0 553 178.141)">
      <stop stop-color="#FFE3FD"/>
      <stop offset="1" stop-color="#C563CA"/>
    </radialGradient>
    <radialGradient id="D" cx="0" cy="0" r="1" gradientUnits="userSpaceOnUse" gradientTransform="matrix(0 59.0008 -59 0 553 178.141)">
      <stop stop-color="#FFE3FD"/>
      <stop offset="1" stop-color="#C563CA"/>
    </radialGradient>
    <radialGradient id="E" cx="0" cy="0" r="1" gradientUnits="userSpaceOnUse" gradientTransform="matrix(0 59.0008 -59 0 553 178.141)">
      <stop stop-color="#FFE3FD"/>
      <stop offset="1" stop-color="#C563CA"/>
    </radialGradient>
    <radialGradient id="F" cx="0" cy="0" r="1" gradientUnits="userSpaceOnUse" gradientTransform="matrix(0 59.0008 -59 0 553 178.141)">
      <stop stop-color="#FFE3FD"/>
      <stop offset="1" stop-color="#C563CA"/>
    </radialGradient>
    <radialGradient id="G" cx="0" cy="0" r="1" gradientUnits="userSpaceOnUse" gradientTransform="rotate(90 31.5 154)scale(88.5)">
      <stop stop-color="#FEFFFF"/>
      <stop offset="1" stop-color="#FFC000"/>
    </radialGradient>
    <radialGradient id="H" cx="0" cy="0" r="1" gradientUnits="userSpaceOnUse" gradientTransform="rotate(90 31.5 154)scale(88.5)">
      <stop stop-color="#FEFFFF"/>
      <stop offset="1" stop-color="#FFC000"/>
    </radialGradient>
    <radialGradient id="I" cx="0" cy="0" r="1" gradientUnits="userSpaceOnUse" gradientTransform="rotate(90 31.5 154)scale(88.5)">
      <stop stop-color="#FEFFFF"/>
      <stop offset="1" stop-color="#FFC000"/>
    </radialGradient>
    <radialGradient id="J" cx="0" cy="0" r="1" gradientUnits="userSpaceOnUse" gradientTransform="rotate(90 31.5 154)scale(88.5)">
      <stop stop-color="#FEFFFF"/>
      <stop offset="1" stop-color="#FFC000"/>
    </radialGradient>
    <radialGradient id="K" cx="0" cy="0" r="1" gradientUnits="userSpaceOnUse" gradientTransform="rotate(90 31.5 154)scale(88.5)">
      <stop stop-color="#FEFFFF"/>
      <stop offset="1" stop-color="#FFC000"/>
    </radialGradient>
    <radialGradient id="L" cx="0" cy="0" r="1" gradientUnits="userSpaceOnUse" gradientTransform="rotate(90 31.5 154)scale(88.5)">
      <stop stop-color="#FEFFFF"/>
      <stop offset="1" stop-color="#FFC000"/>
    </radialGradient>
    <radialGradient id="M" cx="0" cy="0" r="1" gradientUnits="userSpaceOnUse" gradientTransform="rotate(90 31.5 154)scale(88.5)">
      <stop stop-color="#FEFFFF"/>
      <stop offset="1" stop-color="#FFC000"/>
    </radialGradient>
    <radialGradient id="N" cx="0" cy="0" r="1" gradientUnits="userSpaceOnUse" gradientTransform="rotate(90 31.5 154)scale(88.5)">
      <stop stop-color="#FEFFFF"/>
      <stop offset="1" stop-color="#FFC000"/>
    </radialGradient>
    <radialGradient id="O" cx="0" cy="0" r="1" gradientUnits="userSpaceOnUse" gradientTransform="rotate(90 31.5 154)scale(88.5)">
      <stop stop-color="#FEFFFF"/>
      <stop offset="1" stop-color="#FFC000"/>
    </radialGradient>
    <radialGradient id="P" cx="0" cy="0" r="1" gradientUnits="userSpaceOnUse" gradientTransform="rotate(90 31.5 154)scale(88.5)">
      <stop stop-color="#FEFFFF"/>
      <stop offset="1" stop-color="#FFC000"/>
    </radialGradient>
    <radialGradient id="Q" cx="0" cy="0" r="1" gradientUnits="userSpaceOnUse" gradientTransform="rotate(90 31.5 154)scale(88.5)">
      <stop stop-color="#FEFFFF"/>
      <stop offset="1" stop-color="#FFC000"/>
    </radialGradient>
    <radialGradient id="R" cx="0" cy="0" r="1" gradientUnits="userSpaceOnUse" gradientTransform="rotate(90 31.5 154)scale(88.5)">
      <stop stop-color="#FEFFFF"/>
      <stop offset="1" stop-color="#FFC000"/>
    </radialGradient>
    <radialGradient id="S" cx="0" cy="0" r="1" gradientUnits="userSpaceOnUse" gradientTransform="rotate(90 31.5 154)scale(88.5)">
      <stop stop-color="#FEFFFF"/>
      <stop offset="1" stop-color="#FFC000"/>
    </radialGradient>
    <radialGradient id="T" cx="0" cy="0" r="1" gradientUnits="userSpaceOnUse" gradientTransform="rotate(90 31.5 154)scale(88.5)">
      <stop stop-color="#FEFFFF"/>
      <stop offset="1" stop-color="#FFC000"/>
    </radialGradient>
    <radialGradient id="U" cx="0" cy="0" r="1" gradientUnits="userSpaceOnUse" gradientTransform="rotate(90 31.5 154)scale(88.5)">
      <stop stop-color="#FEFFFF"/>
      <stop offset="1" stop-color="#FFC000"/>
    </radialGradient>
    <radialGradient id="V" cx="0" cy="0" r="1" gradientUnits="userSpaceOnUse" gradientTransform="rotate(90 31.5 154)scale(88.5)">
      <stop stop-color="#FEFFFF"/>
      <stop offset="1" stop-color="#FFC000"/>
    </radialGradient>
  </defs>
</svg>
