<svg width="103" height="125" viewBox="0 0 103 125" fill="none" xmlns="http://www.w3.org/2000/svg">
  <ellipse cx="52.335" cy="112.981" rx="45.116" ry="7.512" fill="#000" fill-opacity=".1"/>
  <path d="M62.347 13.037c-9.868.325-20.45 16.235-25.322 27.813-1.104 2.62-2.893 7.067-3.182 10.012-.412 4.206-.259 3.425-5.694 4.75-6.289 1.533-18.08-6.493-17.832 2.686.162 6.037 5.335 16.9 9.314 21.683 5.414 6.506 3.426 14.402 6.037 22.753 1.745 5.583 1.546 13.389 10.46 10.174 6.047-2.179 13.127-12.368 14.345-18.756-.042-.075-.024-.231 0 0 4.933 8.795 16.034 17.485 26.02 17.229 9.985-.255 5.083-5.468 3.429-10.099-2.19-6.132-5.995-9.573-1.336-14.61 3.423-3.701 14.753.923 14.48-4.077-.584-10.643-9.941-15.552-14.483-19.708-3.925-3.59-5.715-2.752-4.259-6.917.716-2.047.915-6.44.933-8.85.087-10.757-3.228-31.051-12.91-34.083" fill="#FEBD33"/>
  <path d="M32.472 114.567c-1.044 0-1.962-.216-2.765-.652-2.59-1.403-3.371-4.718-4.123-7.921-.238-1.006-.481-2.046-.776-2.986-1.008-3.225-1.345-6.338-1.67-9.348-.514-4.754-.998-9.246-4.201-13.098C14.759 75.54 9.58 64.5 9.414 58.326c-.057-2.088.454-3.543 1.561-4.441 2.046-1.665 5.495-.85 9.147.012 2.815.664 5.727 1.352 7.814.844.845-.207 1.567-.363 2.15-.492 1.279-.28 2.12-.463 2.367-.749.256-.294.343-1.187.476-2.542l.018-.183c.294-2.99 1.994-7.296 3.248-10.273 4.72-11.211 15.571-28.017 26.125-28.363a1 1 0 0 1 .301.04c10.049 3.142 13.64 23.11 13.54 34.954-.008 1.082-.098 6.605-.983 9.138-.812 2.322-.667 2.425 1.095 3.66.78.547 1.75 1.223 2.92 2.295.855.782 1.91 1.61 3.03 2.491 4.749 3.732 11.254 8.843 11.745 17.837.05.925-.208 1.683-.764 2.256-1.297 1.334-3.796 1.274-6.686 1.202-2.789-.066-5.95-.144-7.267 1.277-3.137 3.393-2.036 5.742-.21 9.637.562 1.199 1.2 2.557 1.732 4.056.3.845.73 1.737 1.146 2.602 1.094 2.278 2.225 4.637 1.116 6.452-.885 1.442-2.954 2.157-6.518 2.247-9.718.244-20.275-7.584-25.713-15.856-2.163 6.568-8.632 15.261-14.368 17.329-1.49.541-2.806.811-3.965.811M14.235 54.723c-.888 0-1.628.157-2.124.56-.64.522-.935 1.502-.893 2.992.153 5.667 5.134 16.355 9.107 21.13 3.552 4.27 4.064 9.023 4.608 14.056.316 2.924.64 5.95 1.597 9.003.313 1.003.566 2.073.81 3.11.694 2.947 1.35 5.733 3.227 6.748 1.218.658 2.935.574 5.254-.264 5.655-2.04 12.464-11.743 13.727-17.903a.93.93 0 0 1 .193-.69.91.91 0 0 1 .962-.304c.232.069.515.243.626.673 4.767 8.398 15.427 16.884 25.136 16.643 3.504-.09 4.668-.805 5.023-1.388.598-.979-.316-2.884-1.204-4.729-.436-.908-.884-1.845-1.218-2.777-.505-1.418-1.097-2.68-1.669-3.897-1.847-3.94-3.44-7.344.52-11.626 1.871-2.022 5.465-1.935 8.636-1.857 2.156.054 4.602.112 5.347-.655.124-.129.29-.363.259-.904-.448-8.176-6.331-12.8-11.06-16.518-1.145-.9-2.228-1.751-3.13-2.578-1.086-.991-2-1.634-2.737-2.148-2.1-1.47-2.975-2.263-1.766-5.73.614-1.758.86-5.71.884-8.56.042-4.917-.662-12.67-2.752-19.68-1.57-5.26-4.466-11.847-9.378-13.494-4.12.21-8.858 3.44-13.712 9.351-4.007 4.877-7.989 11.572-10.654 17.903-.697 1.652-2.815 6.688-3.116 9.75l-.018.18c-.37 3.769-.646 4.087-4.253 4.877-.601.133-1.284.283-2.108.481-2.505.613-5.633-.126-8.656-.838-1.943-.448-3.928-.917-5.468-.917" fill="#E4A92D"/>
  <path d="M72.282 99.86q-1.305-.006-2.608-.019l-1.182-.009a.46.46 0 0 1-.334-.15 118 118 0 0 1-2.737-3.188.45.45 0 0 1-.078-.439 76 76 0 0 1 1.188-3.083.45.45 0 0 1 .451-.28c1.513.115 2.674.193 3.772.26a.47.47 0 0 1 .325.164c.902 1.115 1.666 2.05 2.454 2.987.1.12.132.28.084.43-.316.97-.616 1.977-.899 2.996a.46.46 0 0 1-.436.33m-3.585-.93.983.01q1.127.01 2.259.015a79 79 0 0 1 .74-2.464c-.7-.835-1.387-1.68-2.178-2.653-.962-.06-1.985-.13-3.257-.226-.358.887-.677 1.71-.963 2.503.776.938 1.588 1.881 2.416 2.816m7.42 9.705q-.031.002-.064-.006a137 137 0 0 1-3.215-.511.45.45 0 0 1-.316-.219 200 200 0 0 0-1.717-2.933.45.45 0 0 1 .024-.496 90 90 0 0 0 1.606-2.283.45.45 0 0 1 .46-.19c.987.199 2.16.43 3.366.655.12.024.229.093.295.196a60 60 0 0 1 1.768 2.866.45.45 0 0 1-.036.505c-.61.769-1.209 1.52-1.822 2.254a.46.46 0 0 1-.35.162m-2.92-1.37c1.064.18 1.927.318 2.733.435.487-.586.969-1.187 1.456-1.8a61 61 0 0 0-1.483-2.397 204 204 0 0 1-2.896-.565 86 86 0 0 1-1.279 1.818c.58.982 1.044 1.772 1.468 2.509m-7.28-2.344a.5.5 0 0 1-.112-.015q-1.348-.345-2.689-.709a.45.45 0 0 1-.282-.228l-.175-.343q-.525-1.02-1.043-2.043a.46.46 0 0 1 .048-.484c.445-.562.884-1.124 1.302-1.67a.46.46 0 0 1 .475-.163q1.277.338 2.554.67a.45.45 0 0 1 .276.214c.452.793.92 1.601 1.393 2.398a.45.45 0 0 1-.033.507 79 79 0 0 1-1.363 1.701.47.47 0 0 1-.351.165m-2.377-1.541q1.102.295 2.208.583c.304-.37.62-.766.978-1.22-.388-.661-.773-1.325-1.15-1.98q-1.04-.272-2.08-.547-.464.605-.951 1.22l.911 1.782zm-30.543-1.857a.46.46 0 0 1-.337-.15 143 143 0 0 1-2.945-3.398.45.45 0 0 1-.099-.37c.223-1.208.472-2.434.74-3.648a.45.45 0 0 1 .427-.351q1.663-.051 3.327-.084a.47.47 0 0 1 .379.192 130 130 0 0 0 2.3 3.152c.073.096.106.22.088.34a60 60 0 0 0-.41 3.398.45.45 0 0 1-.37.402q-1.511.266-3.028.517c-.024-.003-.048 0-.072 0m-2.454-3.966a144 144 0 0 0 2.622 3.029q1.22-.203 2.434-.415a58 58 0 0 1 .355-2.92c-.695-.926-1.39-1.876-2.067-2.828q-1.364.03-2.728.069c-.22 1.022-.427 2.05-.616 3.065m2.969 14.348a.44.44 0 0 1-.244-.072l-2.765-1.776a.45.45 0 0 1-.207-.36 69 69 0 0 0-.196-3.143.45.45 0 0 1 .274-.454c.923-.391 1.84-.796 2.719-1.205a.46.46 0 0 1 .427.024q1.544.95 3.092 1.887c.135.084.22.232.217.391a25 25 0 0 1-.229 2.972.45.45 0 0 1-.24.342c-.89.463-1.784.914-2.65 1.343a.4.4 0 0 1-.199.051m-2.326-2.476 2.352 1.509c.722-.358 1.459-.733 2.196-1.115.105-.847.165-1.629.186-2.38q-1.336-.81-2.667-1.628a84 84 0 0 1-2.23.988c.07.857.127 1.737.163 2.626m8.766-.526a.45.45 0 0 1-.265-.084 85 85 0 0 0-1.651-1.163.45.45 0 0 1-.187-.279q-.258-1.212-.52-2.419a.45.45 0 0 1 .16-.448c.469-.372.956-.751 1.452-1.124a.45.45 0 0 1 .523-.012q.959.646 1.907 1.304a.46.46 0 0 1 .19.307q.168 1.154.319 2.314a.45.45 0 0 1-.18.42l-.948.703-.536.397a.46.46 0 0 1-.264.084m-1.255-1.89c.406.28.825.577 1.252.881l.267-.199.737-.547c-.08-.616-.168-1.229-.255-1.845q-.732-.505-1.471-1.006a66 66 0 0 0-.957.739q.222.986.427 1.977" fill="#E4A92D"/>
  <path d="M40.325 89.012c-6.614.303-12.96 3.26-19.148.03-2.956-1.541-1.579-5.92-2.974-7.957-2.21-3.218-6.768-6.196-5.625-9.955s3.697-5.4 5.348-8.575c1.651-3.176.232-5.776 3.907-8.176 2.773-1.812 5.366-1.797 9.562.64 4.67 2.713 11.198 7.665 17.475 8.903 1.083.213 4.517.83 5.645.565 7.291-1.71 15.033-5.424 22.215-3.765 3.998.922 8.915 3.735 9.505 6.745.8 4.084-2.202 5.316-1.883 8.775.307 3.302 1.856 6.652.8 9.78-1.02 3.026-4.085-.051-6.109 1.542-1.281 1.006 1.36 3.287-1.305 3.873-5.573 1.229-12.248-.923-17.676-1.608-6.828-.856-13.123-1.12-19.737-.817" fill="#fff"/>
  <path d="M74.005 92.716c-3.052 0-6.22-.601-9.311-1.187-1.673-.315-3.252-.616-4.744-.805-6.794-.857-13.02-1.115-19.586-.815-1.961.09-3.946.427-5.868.755-4.509.766-9.17 1.56-13.74-.824-2.22-1.157-2.463-3.551-2.661-5.477-.115-1.11-.22-2.155-.641-2.768-.596-.868-1.378-1.725-2.205-2.629-2.111-2.308-4.502-4.922-3.537-8.098.728-2.395 1.982-3.981 3.197-5.514.816-1.027 1.582-1.998 2.214-3.215.541-1.043.722-2.05.893-3.023.328-1.848.668-3.759 3.32-5.493 3.201-2.09 6.149-1.92 10.51.616 1.089.631 2.268 1.38 3.519 2.173 4.012 2.542 9.008 5.706 13.68 6.626 2.078.408 4.556.739 5.266.57 1.9-.444 3.883-1.045 5.802-1.625 5.558-1.68 11.303-3.417 16.822-2.14 3.796.878 9.465 3.768 10.187 7.452.49 2.506-.295 4.096-.99 5.5-.538 1.09-1.004 2.03-.88 3.367.093 1.022.324 2.092.544 3.125.493 2.302 1.004 4.682.213 7.029-.82 2.437-2.809 2.073-4.12 1.83-1.068-.196-1.754-.286-2.283.132-.07.13.042.577.1.817.162.65.363 1.46-.1 2.203-.319.51-.863.847-1.67 1.024-1.278.28-2.592.394-3.93.394m-28.45-4.727c4.807 0 9.559.313 14.624.95 1.546.195 3.152.499 4.851.82 4.268.809 8.684 1.647 12.519.8.436-.097.523-.214.526-.214.06-.096-.066-.6-.12-.817-.175-.703-.467-1.881.535-2.671 1.21-.95 2.605-.695 3.727-.487 1.473.27 1.79.246 2.084-.634.632-1.878.195-3.915-.268-6.076-.231-1.085-.472-2.208-.577-3.335-.172-1.842.484-3.167 1.061-4.333.65-1.313 1.21-2.446.837-4.354-.49-2.51-4.96-5.147-8.825-6.043-5.05-1.166-10.563.499-15.896 2.11-1.946.588-3.958 1.195-5.913 1.652-1.357.319-4.957-.345-6.028-.556-5.002-.985-10.154-4.248-14.295-6.872-1.234-.78-2.4-1.52-3.46-2.136-4.261-2.48-6.388-2.118-8.614-.664-2 1.307-2.222 2.563-2.529 4.3-.186 1.054-.4 2.25-1.068 3.536-.713 1.368-1.57 2.452-2.4 3.504-1.16 1.466-2.256 2.852-2.884 4.919-.668 2.193 1.185 4.216 3.143 6.358.833.91 1.693 1.851 2.36 2.825.683.994.819 2.322.948 3.605.175 1.725.343 3.354 1.703 4.063 4.03 2.103 8.193 1.394 12.602.646 1.973-.337 4.015-.682 6.088-.778 1.774-.079 3.525-.118 5.27-.118" fill="#CCC"/>
  <path d="M50.716 98.87c-1.816 1.746-3.031 3.78-4.078 6.027-.463.992-.84 2.284-1.988 2.473-1.435.238-2.118-.315-3.348-.958-6.036-3.164-12.043-3.894-18.882-4.895-1.219-.177-1.411-3.353-1.655-4.973-.418-2.75-2.367-6.178-1.883-9.345.4-2.62 2.115-2.767 3.15-5.811.911-2.687 2.03-6.773 2.866-10.415 1.176-5.12 2.668-11.418 3.33-16.995.039-.33-.476-1.178.403-1.334 1.32-.238 2.809-.827 4.027.234 1.218 1.064 1.149 3.182.698 4.586-1.267 3.92-5.137 10.363-.704 13.2 10.963 7.019 23.824 5.952 35.56 1.673 4.004-1.46 3.709-6.845 4.873-10.375.418-1.262.773-3.228 2.475-3.546 1.703-.319 3.252.953 4.527 1.779.848.55.024 1.063-.09 1.364-1.859 4.87-3.546 10.246-4.4 15.087-.65 3.678.18 6.84 1.272 9.802.836 2.272 2.89 2.05 3.73 3.759 1.013 2.067.823 4.234 1.392 6.18.337 1.149 1.305 2.756-.072 3.393-5.507 2.545-10.585 4.441-15.806 7.593-1.293.782-2.057 1.545-3.769 1.301-1.371-.195-2.752-1.343-3.744-2.44-2.247-2.484-4.638-5.045-7.11-7.25-.343-.304-.52-.355-.774-.114" fill="#45566A"/>
  <path d="M62.952 109.621q-.348 0-.74-.055c-1.726-.246-3.284-1.619-4.286-2.728-2.036-2.251-4.436-4.838-6.876-7.034-1.374 1.397-2.493 3.104-3.594 5.472q-.094.208-.19.429c-.423.977-1.001 2.311-2.469 2.554-1.53.253-2.445-.249-3.414-.781a23 23 0 0 0-.499-.27c-5.55-2.909-11.044-3.705-17.409-4.628l-1.188-.174c-1.708-.249-2.027-2.731-2.307-4.922a31 31 0 0 0-.108-.808c-.138-.914-.472-1.944-.824-3.035-.656-2.034-1.402-4.339-1.059-6.58.247-1.611.942-2.462 1.612-3.282.557-.679 1.134-1.385 1.573-2.683.879-2.581 1.995-6.635 2.843-10.328l.207-.898c1.104-4.79 2.476-10.742 3.098-15.935l-.024-.105c-.072-.321-.207-.92.142-1.448.153-.231.457-.526 1.028-.631.208-.036.421-.084.638-.132 1.242-.274 2.785-.61 4.145.574 1.482 1.292 1.552 3.714.962 5.54-.25.77-.587 1.614-.944 2.51-1.757 4.393-2.882 7.896-.133 9.657 9.417 6.03 21.115 6.563 34.764 1.587 2.466-.899 3.004-3.678 3.573-6.617.21-1.085.427-2.206.752-3.191q.076-.235.153-.493c.394-1.304.99-3.275 3.014-3.654 1.844-.345 3.414.718 4.677 1.572q.26.176.508.34c.445.288.707.651.773 1.078.1.64-.28 1.106-.484 1.358l-.054.066c-1.459 3.828-3.384 9.496-4.331 14.862-.629 3.56.22 6.593 1.23 9.336.349.947.941 1.304 1.69 1.755.707.427 1.507.907 2.003 1.917.68 1.388.864 2.755 1.038 4.08.105.794.205 1.545.41 2.245.053.186.134.403.219.634.382 1.037 1.094 2.963-.78 3.828-1.54.712-3.055 1.376-4.52 2.019-3.844 1.689-7.477 3.282-11.198 5.526q-.31.191-.59.373c-.842.541-1.708 1.1-3.031 1.1m-11.953-11.81c.316 0 .68.136 1.089.5 2.56 2.283 5.065 4.981 7.18 7.319 1.118 1.238 2.285 2.022 3.2 2.152 1.088.156 1.636-.196 2.538-.779q.301-.195.638-.399c3.82-2.305 7.504-3.922 11.405-5.634 1.459-.64 2.966-1.301 4.49-2.004.232-.109.338-.232-.156-1.569-.09-.246-.186-.505-.258-.751-.244-.832-.358-1.686-.466-2.512-.166-1.235-.32-2.401-.87-3.525-.261-.535-.728-.814-1.314-1.169-.84-.504-1.883-1.136-2.451-2.677-1.044-2.84-2.019-6.277-1.315-10.27.978-5.535 2.957-11.35 4.446-15.253a1.6 1.6 0 0 1 .246-.415l-.34-.228c-1.04-.703-2.22-1.5-3.332-1.292-.879.165-1.224 1.1-1.618 2.404-.058.186-.112.37-.169.538-.289.877-.487 1.893-.695 2.969-.61 3.149-1.302 6.718-4.725 7.968-6.484 2.365-12.662 3.525-18.39 3.456-6.643-.084-12.689-1.84-17.964-5.217-4.223-2.704-2.112-7.986-.569-11.842.346-.865.674-1.682.903-2.394.406-1.262.39-2.912-.43-3.63-.641-.559-1.396-.43-2.572-.171-.145.03-.286.063-.427.09.042.18.081.384.054.607-.629 5.306-2.021 11.343-3.14 16.196l-.208.895c-.86 3.744-1.997 7.867-2.89 10.502-.547 1.607-1.29 2.515-1.886 3.245-.61.748-1.053 1.29-1.227 2.413-.28 1.82.367 3.819.992 5.754.376 1.163.731 2.26.89 3.32.04.253.076.541.115.85.105.83.385 3.012.818 3.372l1.146.165c6.527.947 12.163 1.767 17.986 4.817q.28.149.53.286c.89.486 1.332.733 2.25.583.463-.079.74-.641 1.11-1.494q.103-.242.21-.472c1.275-2.743 2.593-4.684 4.27-6.295.223-.219.53-.408.906-.408m-.283 1.058.626.65.003-.004z" fill="#394457"/>
  <path d="M50.756 98.92c-1.805 1.746-2.993 3.774-4.04 6.019-.46.988-.809 2.323-1.99 2.473-1.475.186-2.082-.346-3.388-.989-6.063-2.996-11.973-3.891-18.831-4.723-1.224-.148-1.402-3.303-1.615-4.913-.361-2.729-2.448-6.169-1.874-9.291.475-2.584 2.018-3.01 3.221-5.856 1.062-2.51.743-7.365 3.212-9.928 3.471-3.603 2.671-1.653 7.22.231 11.251 4.66 24.196 4.33 36.065 1.163 4.048-1.082 5.88-.959 6.328 3.555.34 3.428.527 6.97 1.775 9.783.956 2.155 2.887 2.1 3.771 3.756 1.071 2.001.825 4.246 1.456 6.097.373 1.09.99 2.89-.277 3.395-5.946 2.377-10.418 4.165-15.865 7.885-.782.535-2.118 1.611-3.598 1.178-1.188-.349-2.749-1.337-3.702-2.452-2.166-2.521-4.656-5.045-7.095-7.266-.334-.31-.524-.36-.773-.117" fill="#45566A"/>
  <path d="M63.042 109.759a3.4 3.4 0 0 1-.965-.141c-1.41-.415-3.11-1.536-4.133-2.729a83 83 0 0 0-6.849-7.03c-1.353 1.384-2.43 3.043-3.555 5.459-.069.15-.138.312-.207.475-.415.979-.984 2.322-2.49 2.512-1.496.186-2.323-.25-3.282-.757q-.283-.153-.62-.319c-5.94-2.933-11.67-3.804-18.54-4.636-1.768-.214-2.072-2.864-2.318-4.994q-.044-.381-.084-.695c-.124-.919-.473-1.97-.843-3.082-.67-2.01-1.428-4.288-1.022-6.49.303-1.644.983-2.53 1.702-3.468.532-.695 1.083-1.413 1.573-2.576.34-.802.536-1.962.743-3.19.41-2.422.872-5.166 2.65-7.01 2.514-2.609 3.33-2.825 5.468-1.45.656.421 1.47.947 2.746 1.476 12.858 5.328 26.396 3.552 35.488 1.124 2.557-.682 4.295-.901 5.607.003 1.055.73 1.627 2.067 1.852 4.333l.127 1.32c.267 2.884.547 5.867 1.576 8.187.409.926 1.035 1.325 1.76 1.791.688.442 1.467.944 1.981 1.905.71 1.325.9 2.734 1.068 3.975.112.815.214 1.581.445 2.257.38 1.109 1.267 3.699-.794 4.525l-.027.012c-5.982 2.392-10.307 4.123-15.664 7.78q-.098.067-.21.147c-.722.502-1.844 1.286-3.183 1.286M51.044 97.866c.313 0 .683.13 1.095.505 2.58 2.35 5.062 4.889 7.17 7.347.795.922 2.202 1.857 3.276 2.172.932.274 1.898-.403 2.605-.898l.228-.16c5.52-3.771 10.148-5.622 16.01-7.965l.028-.012c.469-.187-.049-1.698-.244-2.266-.289-.841-.41-1.734-.526-2.596-.163-1.196-.316-2.329-.873-3.369-.294-.55-.767-.853-1.365-1.237-.803-.517-1.805-1.16-2.433-2.579-1.15-2.59-1.441-5.72-1.724-8.75l-.123-1.31c-.163-1.646-.518-2.638-1.083-3.029-.728-.504-2.171-.261-4.111.256-9.36 2.5-23.32 4.32-36.647-1.2-1.425-.591-2.355-1.189-3.032-1.625-.658-.423-.947-.592-1.137-.55-.439.106-1.329.98-2.054 1.734-1.39 1.442-1.805 3.894-2.171 6.06-.226 1.335-.44 2.597-.86 3.595-.584 1.376-1.23 2.223-1.805 2.971-.659.86-1.137 1.482-1.36 2.699-.322 1.745.331 3.702.96 5.595.4 1.196.776 2.325.92 3.416q.043.33.087.727c.097.839.352 3.038.788 3.414 6.786.823 12.906 1.758 19.078 4.804q.36.181.665.343c.854.451 1.284.679 2.21.562.443-.057.696-.577 1.053-1.427.079-.184.154-.364.232-.532 1.302-2.801 2.569-4.679 4.229-6.286.192-.193.508-.409.914-.409" fill="#394457"/>
  <path d="M71.545 79.484q-.768-1.272-1.522-2.548-1.456.009-2.917.009c-.479.847-.954 1.694-1.435 2.539q.754 1.279 1.513 2.554l2.96.009q.705-1.28 1.401-2.563" fill="#fff"/>
  <path d="m70.143 82.797-2.962-.009a.75.75 0 0 1-.644-.366q-.762-1.276-1.516-2.557a.75.75 0 0 1-.006-.752l.81-1.43.625-1.109a.75.75 0 0 1 .656-.381c.05.003.123 0 .186 0q1.363 0 2.725-.01h.003c.265 0 .511.142.647.37q.754 1.275 1.519 2.542a.75.75 0 0 1 .018.745l-1.402 2.567a.75.75 0 0 1-.659.39m-2.53-1.511q1.042.005 2.088.006l.98-1.791a362 362 0 0 1-1.085-1.815q-1.025.005-2.048.006l-.41.724-.595 1.058q.529.91 1.07 1.812" fill="#CCC"/>
  <path d="M32.748 79q-.15-1.443-.292-2.885l-2.68-1.187q-1.2.841-2.403 1.68.15 1.44.307 2.881 1.349.608 2.701 1.211 1.179-.854 2.367-1.7" fill="#fff"/>
  <path d="M30.378 81.448a.7.7 0 0 1-.307-.066q-1.353-.604-2.704-1.211a.75.75 0 0 1-.439-.604q-.157-1.443-.307-2.885a.75.75 0 0 1 .32-.694c.802-.556 1.602-1.118 2.4-1.677a.75.75 0 0 1 .736-.072l2.68 1.187a.75.75 0 0 1 .442.613q.142 1.441.292 2.882a.75.75 0 0 1-.31.688l-2.367 1.695a.73.73 0 0 1-.436.144m-2-2.47 1.91.856q.83-.599 1.666-1.193-.104-1.01-.204-2.019l-1.892-.838q-.847.594-1.694 1.184z" fill="#CCC"/>
  <path d="M65.12 29.522c-.43-.195-.875-.442-1.163-.06-.467.619-.47 1.154.141 1.8.61.646 1.6.733 2.587 1.12.55.217 1.922.9 2.481 1.2.283.15 1.092.646 1.128.372.12-.928-1.065-1.595-1.627-2.1a13.7 13.7 0 0 0-3.546-2.332m-10.579-2.131c.493-.024 1.008-.096 1.116.385.175.784-.078 1.256-.917 1.614-.84.357-1.838.075-2.933.087-.613.006-2.214.174-2.863.267-.328.045-1.312.235-1.233-.045.267-.94 1.696-1.15 2.445-1.433 1.483-.556 2.912-.802 4.385-.875" fill="#534741"/>
  <path d="M46.064 90.555a.45.45 0 0 1-.364-.186l-1.937-2.66a.44.44 0 0 1-.049-.447l1.336-3.005a.45.45 0 0 1 .364-.264l3.275-.346a.45.45 0 0 1 .412.184l1.937 2.659a.44.44 0 0 1 .048.448l-1.335 3.004a.45.45 0 0 1-.364.265l-3.275.345q-.028.004-.049.003m-1.42-3.164 1.63 2.239 2.755-.292 1.125-2.53-1.63-2.238-2.755.291z" fill="#4CB4FA"/>
  <path d="M50.674 87.22a.45.45 0 0 1-.364-.187l-1.937-2.66a.44.44 0 0 1-.048-.447l1.336-3.005a.45.45 0 0 1 .364-.264l3.275-.346a.45.45 0 0 1 .412.184l1.937 2.659c.096.13.114.3.048.448l-1.335 3.004a.45.45 0 0 1-.364.265l-3.276.345q-.026.004-.048.003m-1.42-3.165 1.63 2.239 2.756-.292 1.125-2.53-1.63-2.238-2.755.291z" fill="#FFC000"/>
  <path d="M51.273 92.868a.45.45 0 0 1-.364-.186l-1.937-2.66a.44.44 0 0 1-.048-.447l1.338-3.005a.45.45 0 0 1 .364-.265l3.276-.345a.44.44 0 0 1 .412.183l1.937 2.66c.096.129.114.3.048.447l-1.339 3.005a.45.45 0 0 1-.364.264l-3.275.346zm-1.42-3.167 1.63 2.238 2.756-.291 1.125-2.53-1.63-2.239-2.756.292zm32.92 9.436c-3.429-.31-8.83.44-13.165 2.506-5.369 2.564-9.366 6.674-9.138 7.663.184.79 2.425 1.259 3.396.772.734-.367 1.393-1.334 1.991-1.854 2.614-2.272 5.074-3.462 7.035-4.108 7.983-2.629 9.56-.727 10.44-2.211.614-1.031.77-2.647-.56-2.768" fill="#fff"/>
  <path d="M62.823 111.178c-.743 0-1.52-.171-2.082-.438-.8-.376-1.065-.878-1.146-1.229-.457-1.981 4.912-6.428 9.628-8.678 4.65-2.22 10.2-2.9 13.634-2.59.722.066 1.287.43 1.594 1.027.511 1.001.136 2.296-.34 3.098-.64 1.079-1.579 1.091-2.767 1.109-1.413.021-3.778.054-8.166 1.499-2.349.773-4.61 2.098-6.725 3.934-.175.15-.376.375-.593.61-.45.495-.965 1.06-1.585 1.37-.412.201-.923.288-1.453.288m-1.384-2.097c.442.24 1.558.427 2.024.192.319-.159.71-.589 1.056-.97.24-.265.487-.538.743-.758 2.295-1.992 4.767-3.434 7.345-4.284 4.653-1.533 7.191-1.569 8.707-1.59 1.116-.015 1.14-.057 1.24-.225.34-.571.384-1.166.285-1.359-.006-.012-.021-.042-.15-.054-3.09-.279-8.377.361-12.693 2.422-4.78 2.287-8 5.58-8.557 6.626" fill="#CCC"/>
  <path d="M21.893 100.58c3.345-.959 8.8-1.094 13.394.438 5.69 1.896 10.253 5.767 10.172 6.911-.063.914-2.268 1.506-3.3 1.139-.779-.276-1.573-1.238-2.243-1.713-2.924-2.064-5.237-3.019-7.273-3.389-8.286-1.502-9.86.971-10.951-.529-.758-1.046-1.095-2.485.201-2.857" fill="#fff"/>
  <path d="M42.926 110.078c-.39 0-.76-.051-1.067-.163-.671-.237-1.264-.775-1.787-1.25a8 8 0 0 0-.677-.574c-2.577-1.82-4.776-2.851-6.912-3.239-4.547-.823-6.99-.414-8.448-.168-1.218.204-2.271.382-3.071-.718-.746-1.025-1.02-2.14-.731-2.981.213-.622.716-1.073 1.41-1.271 3.366-.965 8.979-1.199 13.93.448 5.383 1.794 10.926 5.817 10.788 7.827-.027.376-.207.923-.923 1.391-.677.445-1.648.698-2.512.698m-15.384-7.521c1.383 0 3.104.129 5.266.522 2.407.436 4.83 1.563 7.631 3.54.286.201.571.463.848.712.397.361.845.769 1.176.887.557.195 1.694-.1 2.048-.379-.538-.977-4.28-4.225-9.507-5.968-4.56-1.517-9.862-1.286-12.858-.426-.178.051-.196.105-.202.126-.066.189.043.727.485 1.334.114.156.144.195 1.311 0 .872-.147 2.075-.348 3.802-.348" fill="#CCC"/>
  <path d="M72.832 52.062c.43-1.775-1.317-3.72-3.9-4.343-2.583-.625-5.026.308-5.455 2.082s1.316 3.719 3.9 4.343 5.025-.308 5.455-2.082M46.964 45.81c.43-1.775-1.316-3.72-3.9-4.343-2.583-.625-5.026.308-5.455 2.082s1.316 3.719 3.9 4.343 5.025-.308 5.455-2.082" fill="#E4A92D"/>
  <path d="m20.687 40.487-.207-.012c-7-.367-8.632-3.224-8.77-3.495a3.687 3.687 0 0 1 1.66-5.195 3.7 3.7 0 0 1 3.374.162 3.7 3.7 0 0 1 2.09-2.653 3.695 3.695 0 0 1 5.014 2.151c.133.316 1.252 3.39-3.034 8.88z" fill="#AD0139"/>
  <path d="M20.687 41.388h-.048l-.207-.012c-7.237-.382-9.18-3.323-9.517-3.963a4.56 4.56 0 0 1-.316-3.88 4.53 4.53 0 0 1 2.391-2.566 4.6 4.6 0 0 1 3.198-.225 4.58 4.58 0 0 1 2.267-2.263 4.57 4.57 0 0 1 3.51-.123 4.55 4.55 0 0 1 2.723 2.773c.282.695 1.266 4.075-3.168 9.754l-.126.162a.89.89 0 0 1-.707.343m-5.79-9.033c-.394 0-.788.085-1.152.25a2.76 2.76 0 0 0-1.45 1.556 2.75 2.75 0 0 0 .076 2.128q.055.12.123.243l.018.036c.012.027 1.408 2.59 7.754 2.993 3.841-5.027 2.8-7.653 2.752-7.764a4 4 0 0 0-.12-.304 2.77 2.77 0 0 0-1.561-1.451 2.77 2.77 0 0 0-2.13.072 2.8 2.8 0 0 0-1.579 2.004.91.91 0 0 1-.511.65.9.9 0 0 1-.824-.04 2.8 2.8 0 0 0-1.396-.373" fill="#79012E"/>
  <path d="m32.64 24.744-.184-.096c-6.213-3.233-6.514-6.508-6.53-6.815a3.69 3.69 0 0 1 3.666-4.039c1.204 0 2.32.59 3.003 1.548a3.69 3.69 0 0 1 3.002-1.547 3.69 3.69 0 0 1 3.669 4.035c-.009.343-.27 3.603-6.448 6.821z" fill="#AD0139"/>
  <path d="M32.64 25.645a.9.9 0 0 1-.418-.102l-.184-.096c-6.424-3.345-6.969-6.824-7.01-7.548a4.59 4.59 0 0 1 4.569-5.006c1.112 0 2.177.405 3 1.12a4.6 4.6 0 0 1 3.002-1.12 4.593 4.593 0 0 1 4.572 4.994c-.033.748-.541 4.233-6.933 7.563l-.183.096a.9.9 0 0 1-.415.099m-3.044-10.95a2.785 2.785 0 0 0-2.77 3.053l.003.042c0 .03.201 2.94 5.81 5.938 5.583-2.98 5.728-5.802 5.73-5.923l.004-.06q.013-.132.012-.264a2.787 2.787 0 0 0-2.785-2.783 2.79 2.79 0 0 0-2.268 1.17.9.9 0 0 1-1.468 0 2.8 2.8 0 0 0-2.268-1.173" fill="#79012E"/>
  <path d="M55.733 58.94c-.971 0-1.988-.12-3.025-.37-4.918-1.19-8.118-4.813-7.285-8.254a.901.901 0 1 1 1.753.424c-.574 2.374 2.154 5.157 5.956 6.076 3.801.92 7.5-.31 8.075-2.686a.902.902 0 0 1 1.754.423c-.656 2.72-3.6 4.387-7.228 4.387m-2.496-20.177a.6.6 0 0 1-.55-.358c-1.011-2.262-1.944-3.203-3.216-3.248-1.985-.069-3.898 1.905-4.168 2.272a.607.607 0 0 1-.84.132.597.597 0 0 1-.138-.832c.34-.475 2.605-2.855 5.188-2.774 2.238.078 3.417 2.043 4.271 3.96a.6.6 0 0 1-.547.848m16.076 3.947a.604.604 0 0 1-.59-.477c-.099-.445-1.049-3.026-2.887-3.768-1.179-.478-2.415.005-4.256 1.664a.6.6 0 1 1-.803-.892c1.561-1.404 3.435-2.726 5.513-1.887 2.398.967 3.498 4.068 3.616 4.64a.602.602 0 0 1-.593.72" fill="#534741"/>
</svg>
