<svg width="256" height="232.498" viewBox="0 0 256 232.498" fill="none" xmlns="http://www.w3.org/2000/svg">
  <path d="m53.298 189.972 80.717 41.687 71.204-32.595 20.285-97.503-102.26-47.004-80.997 53.998z" fill="#FFB7AB"/>
  <path d="M27.698 70.225a2.3 2.3 0 0 1-.408 1.326 2.27 2.27 0 0 1-1.093.841l-7.463 2.774-2.745 7.541a2.3 2.3 0 0 1-.839 1.093 2.27 2.27 0 0 1-1.306.414 2.27 2.27 0 0 1-1.306-.414 2.3 2.3 0 0 1-.839-1.093l-2.745-7.541-7.463-2.774a2.3 2.3 0 0 1-1.082-.847A2.3 2.3 0 0 1 0 70.225c0-.472.143-.933.41-1.32a2.3 2.3 0 0 1 1.082-.847l7.463-2.774 2.745-7.541a2.3 2.3 0 0 1 .839-1.093 2.27 2.27 0 0 1 2.612 0 2.3 2.3 0 0 1 .839 1.093l2.745 7.541 7.463 2.774a2.27 2.27 0 0 1 1.093.841 2.3 2.3 0 0 1 .407 1.326m7.834 31.476a1.16 1.16 0 0 1-.773 1.105l-3.845 1.415-1.414 3.846a1.179 1.179 0 0 1-2.21 0l-1.414-3.846-3.845-1.415a1.18 1.18 0 0 1-.768-1.105 1.18 1.18 0 0 1 .768-1.105l3.845-1.415 1.414-3.846a1.18 1.18 0 0 1 1.105-.769 1.18 1.18 0 0 1 1.105.769l1.414 3.846 3.845 1.415a1.16 1.16 0 0 1 .773 1.105M243.41 78.758a1.16 1.16 0 0 1-.773 1.105l-3.845 1.415-1.414 3.846a1.179 1.179 0 0 1-2.21 0l-1.414-3.846-3.845-1.415a1.18 1.18 0 0 1-.768-1.105 1.18 1.18 0 0 1 .768-1.105l3.845-1.415 1.414-3.846a1.179 1.179 0 0 1 2.21 0l1.414 3.846 3.845 1.415a1.16 1.16 0 0 1 .773 1.105" fill="#fff"/>
  <path d="M123.45 124.479c2.978 3.95 7.067 5.568 11.445 5.336 4.296-.228 8.79-2.221 12.866-5.293 4.06-3.06 9.719-8.851 13.753-14.734 2.016-2.939 3.693-5.999 4.531-8.825.826-2.786.939-5.726-.779-8.005-1.716-2.276-4.577-2.989-7.491-2.98-2.958.01-6.376.758-9.774 1.865-6.798 2.215-13.959 6.02-18.025 9.085-4.087 3.081-7.208 6.902-8.574 11.012-1.389 4.182-.927 8.592 2.048 12.538Z" fill="#FFC000" stroke="#D39C28" stroke-width="3.357"/>
  <path d="M121.313 125.244c4.856 6.671 12.175 7.758 18.432 6.286 3.122-.734 6.046-2.112 8.396-3.806 2.324-1.675 4.222-3.76 5.096-5.983.222-.565.233-1.149.187-1.628a7.7 7.7 0 0 0-.331-1.532c-.321-1.03-.851-2.215-1.501-3.46-1.304-2.5-3.197-5.443-5.234-8.24s-4.259-5.502-6.239-7.513c-.986-1.002-1.951-1.871-2.833-2.495a8 8 0 0 0-1.355-.789c-.44-.192-.997-.363-1.6-.33-2.406.133-4.976 1.31-7.277 3.025-2.326 1.735-4.516 4.122-6.152 6.895-3.278 5.553-4.441 12.905.41 19.57Z" fill="#fff" stroke="#CCC" stroke-width="3.357"/>
  <path d="M138.577 138.871c1.742 16.426-13.627 27.691-33.833 29.834s-37.597-5.647-39.339-22.073c-3.01-28.375 11.312-49.512 31.518-51.655s38.917 18.093 41.654 43.894Z" fill="#fff" stroke="#CCC" stroke-width="3.357"/>
  <path d="M74.072 138.369a1.13 1.13 0 0 1-1.211 1.137l-8.328-.61a1.107 1.107 0 0 1-1.032-1.096c-.013-2.662.003-10.083.506-16.941.502-6.859 1.567-14.203 1.968-16.834a1.105 1.105 0 0 1 1.18-.934l8.329.61a1.13 1.13 0 0 1 1.032 1.302c-.417 2.667-1.399 9.388-1.93 16.632s-.538 14.036-.514 16.736Zm44.675-37.78a1.13 1.13 0 0 1 .725-1.495l7.996-2.407a1.106 1.106 0 0 1 1.355.655c.964 2.482 3.601 9.418 5.583 16.003s3.612 13.825 4.179 16.426a1.11 1.11 0 0 1-.769 1.295l-7.996 2.407a1.13 1.13 0 0 1-1.429-.847c-.564-2.64-2.048-9.268-4.142-16.223s-4.514-13.301-5.501-15.814Z" fill="#45566A" stroke="#394457" stroke-width="3.357"/>
  <path d="M104.939 170.392c10.348-1.098 19.594-4.535 26.071-9.931 6.519-5.431 10.233-12.867 9.295-21.706-.689-6.489-1.951-10.897-4.097-13.625-2.293-2.913-5.368-3.658-8.807-3.417-2.922.205-6.362 1.14-10.143 2.168l-1.508.409c-4.457 1.2-9.544 2.48-15.373 3.098-5.798.615-11.034.276-15.648-.16q-1.218-.117-2.398-.238c-3.588-.363-6.881-.697-9.583-.455-1.691.151-3.295.534-4.694 1.357-1.427.839-2.536 2.076-3.315 3.753-1.5 3.233-1.772 8.124-1.018 15.233.938 8.839 6.128 15.33 13.642 19.273 7.465 3.917 17.226 5.339 27.575 4.241Z" fill="#45566A" stroke="#394457" stroke-width="3.357"/>
  <path d="M76.811 135.981a322 322 0 0 1-1.764-2.257 1.12 1.12 0 0 0-1.009-.427q-1.45.161-2.903.317a1.12 1.12 0 0 0-.901.65l-.299.658q-.43.95-.863 1.895a1.12 1.12 0 0 0 .131 1.151q.88 1.139 1.762 2.272a1.12 1.12 0 0 0 .998.426l2.956-.305a1.12 1.12 0 0 0 .909-.661q.569-1.287 1.131-2.58a1.12 1.12 0 0 0-.148-1.138Zm56.528-5.996a337 337 0 0 1-1.764-2.257 1.12 1.12 0 0 0-1.009-.427q-1.45.162-2.903.317a1.12 1.12 0 0 0-.901.65l-.299.658q-.43.95-.864 1.895a1.12 1.12 0 0 0 .131 1.151q.88 1.139 1.762 2.272a1.12 1.12 0 0 0 .998.426l2.956-.305a1.12 1.12 0 0 0 .909-.661q.568-1.287 1.131-2.58a1.12 1.12 0 0 0-.148-1.138Z" fill="#fff" stroke="#CCC" stroke-width="1.679"/>
  <path d="m100.326 153.915-5.03.534a.7.7 0 0 1-.634-.281l-2.974-4.083a.69.69 0 0 1-.073-.688l2.052-4.616a.7.7 0 0 1 .561-.407l5.03-.534a.7.7 0 0 1 .634.281l2.974 4.083a.69.69 0 0 1 .073.688l-2.052 4.616a.69.69 0 0 1-.561.407m-4.777-.885 4.231-.449 1.73-3.886-2.506-3.437-4.231.449-1.73 3.886z" fill="#4CB4FA"/>
  <path d="m107.411 148.788-5.031.534a.7.7 0 0 1-.634-.281l-2.974-4.083a.69.69 0 0 1-.073-.688l2.052-4.616a.7.7 0 0 1 .561-.407l5.031-.534a.7.7 0 0 1 .634.281l2.974 4.083a.69.69 0 0 1 .073.688l-2.052 4.616a.69.69 0 0 1-.561.408m-4.777-.885 4.231-.449 1.73-3.886-2.506-3.437-4.231.449-1.73 3.886z" fill="#FFC000"/>
  <path d="m108.33 157.459-5.031.534a.7.7 0 0 1-.634-.281l-2.974-4.083a.69.69 0 0 1-.073-.688l2.052-4.616a.7.7 0 0 1 .561-.407l5.03-.534a.7.7 0 0 1 .634.281l2.975 4.083a.69.69 0 0 1 .073.688l-2.052 4.616a.69.69 0 0 1-.561.407m-4.777-.885 4.231-.449 1.73-3.886-2.507-3.437-4.231.449-1.73 3.886z" fill="#fff"/>
  <path d="M85.098 154.938c-4.377-.689-8.552.132-11.721 2.7-3.178 2.574-5.102 6.705-5.37 12.142-.196 3.971 1.36 8.365 3.517 11.821 1.089 1.744 2.372 3.317 3.746 4.522 1.352 1.187 2.91 2.12 4.546 2.377 1.616.254 3.317-.111 4.908-.787 1.606-.682 3.213-1.727 4.701-2.989 2.96-2.512 5.63-6.041 6.929-9.737 1.766-5.025 1.293-9.695-.878-13.322-2.164-3.614-5.914-6.023-10.377-6.726Z" fill="#FFC000" stroke="#D39C28" stroke-width="3.357"/>
  <path d="M64.799 168.645c-.062-17.143 6.676-18.055 19.528-16.032s20.692 4.926 14.719 21.423c-2.427 6.702-12.524 4.713-18.681 3.744s-15.541-2.09-15.566-9.135" fill="#45566A"/>
  <path d="M100.146 170.599a45 45 0 0 1-1.1 3.436c-2.427 6.702-12.524 4.713-18.681 3.744s-15.541-2.09-15.566-9.135c-.021-5.736.72-9.654 2.195-12.254" stroke="#394457" stroke-width="3.357" stroke-linecap="round"/>
  <path d="M97.756 174.23c.758.082 1.218.879.908 1.576l-1.615 3.646a1.105 1.105 0 0 1-1.121.657 269 269 0 0 1-14.407-1.84c-6.389-1.006-12.561-2.282-14.779-2.753a1.11 1.11 0 0 1-.875-1.074l-.048-3.917a1.128 1.128 0 0 1 1.359-1.115c2.638.549 8.733 1.777 15.296 2.81a332 332 0 0 0 15.282 2.01Z" fill="#fff" stroke="#CCC" stroke-width="3.357"/>
  <path d="M122.024 151.345c4.19-1.613 8.488-1.732 12.155.059 3.686 1.8 6.448 5.389 7.822 10.609 1.004 3.817.345 8.417-1.098 12.228-.729 1.926-1.685 3.725-2.803 5.187-1.102 1.441-2.452 2.671-4.006 3.27-3 1.155-6.911.177-10.274-1.561-3.451-1.784-6.828-4.62-8.876-7.924-2.786-4.494-3.262-9.135-1.837-13.124 1.418-3.967 4.649-7.1 8.917-8.743Z" fill="#FFC000" stroke="#D39C28" stroke-width="3.357"/>
  <path d="M144.986 160.196c-3.414-16.597-10.295-16.01-22.658-11.251s-19.567 9.277-10.286 23.933c3.771 5.954 13.403 1.828 19.325-.452s15.022-5.41 13.619-12.231" fill="#45566A"/>
  <path d="M139.226 148.306c2.49 2.024 4.434 5.444 5.76 11.89 1.403 6.821-7.696 9.951-13.619 12.231s-15.555 6.406-19.325.452c-.904-1.428-1.332-2.091-1.934-3.336" stroke="#394457" stroke-width="3.357" stroke-linecap="round"/>
  <path d="M113.346 172.791a1.126 1.126 0 0 0-.551 1.738l2.323 3.143a1.11 1.11 0 0 0 1.231.4c2.014-.65 7.777-2.546 13.964-4.927 6.163-2.373 12.053-4.96 14.148-5.893a1.11 1.11 0 0 0 .634-1.229l-.738-3.763a1.127 1.127 0 0 0-1.561-.812c-2.5 1.102-8.322 3.625-14.652 6.062-6.221 2.395-12.134 4.399-14.798 5.283Z" fill="#fff" stroke="#CCC" stroke-width="3.357"/>
  <path d="m53.019 189.832 81.276 42.387 8.393-78.479-100.441-45.185z" fill="#ED6560"/>
  <path d="M82.955 205.499v-78.898l19.445 8.953-5.036 77.499z" fill="#FFEBB2"/>
  <path d="M142.549 153.6c26.159-10.632 83.235-52.179 83.235-52.179l-20.144 97.644-71.484 33.294z" fill="#40C08C"/>
  <path d="m177.997 97.364-10.84 19.874-66.048-97.765L114.158 0z" fill="#F54F47"/>
  <path d="m177.395 97.163-10.238 19.674 60.224 11.443 9.034-17.064z" fill="#FFEBB2"/>
  <path d="m177.395 19.071 59.02 92.145-59.824-12.045L114.158 0z" fill="#9B0015"/>
  <mask id="a" style="mask-type:alpha" maskUnits="userSpaceOnUse" x="408" y="0" width="437" height="398">
    <path d="m177.395 19.071 59.02 92.145-59.824-12.045L114.158 0z" fill="#9B0015"/>
  </mask>
  <g mask="url(#a)">
    <path d="m140.256 7.227 62.032 97.565 20.276 3.413-67.654-96.361z" fill="#fff"/>
    <path d="m205.5 62.634-4.818-7.629-56.009-6.625 7.829 12.848z" fill="#34A976"/>
  </g>
  <path d="M158.782 40.612c5.586 4.753 14.569 7.863 18.362 8.823l-2.599 2.719c-4.228-.224-15.022-2.178-24.373-8.198s-14.771-18.017-16.312-23.264l18.301.104c-.121 4.625 1.034 15.061 6.62 19.815m7.773 34.068c3.694-6.424 5.889-16.662 6.223-20.677l4.015 2.007c.536 4.55 2.289 16.06 1.004 22.484-1.686 8.431-5.019 15.458-6.223 18.469l-11.845-10.841c.937-1.338 3.132-5.019 6.826-11.443" fill="#40C08C"/>
  <path d="M190.644 33.325c-1.446 7.388-4.751 13.383-6.223 15.458l-10.84.803c-.937.067-4.296-1.485-10.238-8.231s-8.097-16.328-8.431-20.276c1.405-1.405 6.544-4.537 15.859-5.822s17.131-.535 19.875 0c.602 2.944 1.445 10.68 0 18.068m-10.24 42.157c-4.015-6.424-5.42-16.595-5.621-20.878l9.837-1.204c1.539.401 6.705 1.967 15.056 5.019s14.187 8.632 16.06 11.041c-.602 2.008-3.091 6.705-8.231 9.435s-12.179 5.688-15.056 6.826c-2.342-.736-8.03-3.814-12.045-10.238" fill="#FFEBB2"/>
  <path d="M185.816 46.685c1.133.853 3.967 4.948 3.589 6.484s-13.341 3.894-15.49 2.73c-1.889-1.024-3.888-8.428-3.211-9.213 1.322-1.536 13.979-.853 15.112 0" fill="#56B283"/>
  <path d="M56.991 69.106h-8.309l3.264-10.352 6.528 1.479z" fill="#36B27B"/>
  <path d="M210.031 18.186h-8.309l3.264-10.352 6.529 1.479z" fill="#4CB4FA"/>
  <path d="M224.02 48.402h-8.309l3.264-10.352 6.529 1.479z" fill="#F54F47"/>
  <path d="M71.064 32.026 56.516 38.89V25.46zm170.387 123.663-14.548 6.864v-13.43z" fill="#FFEBB2"/>
  <path d="m15.528 148.284 5.735-7.077-7.546-3.834-3.925 8.257zm230.389 40.018 8.256-3.852-5.106-6.751-7.144 5.706z" fill="#F54F47"/>
  <path d="m243.377 142.804 9.031-1.195-2.843-7.973-8.527 3.297z" fill="#F487B6"/>
  <path d="m20.336 40.289 7.362-3.025-5.89-8.167-5.301 1.815z" fill="#B572ED"/>
  <path d="m30.776 169.416 1.803-7.702h6.311v10.072z" fill="#FF9C42"/>
  <path d="m14.437 180.179 6.267 10.912-13.43-1.819z" fill="#4CB4FA"/>
  <path d="m241.339 18.186 6.267 10.911-13.43-1.819z" fill="#36B27B"/>
  <path fill="#FD7BAC" d="M43.335 40.992a2.78 2.78 0 0 1-1.968 3.406 2.78 2.78 0 0 1-3.407-1.966 2.782 2.782 0 0 1 5.375-1.44"/>
  <path fill="#FF9C42" d="M236.133 214.748a2.78 2.78 0 0 1-1.967 3.406 2.78 2.78 0 0 1-3.407-1.966 2.782 2.782 0 0 1 5.374-1.44"/>
  <path fill="#36B27B" d="M131.606 340.303a2.78 2.78 0 0 1-1.968 3.406 2.78 2.78 0 0 1-3.407-1.966 2.782 2.782 0 0 1 5.375-1.44"/>
  <path d="M99.332 119.761c8.83-.937 15.427-4.113 19.873-8.709 4.445-4.595 6.62-10.488 6.818-16.632.139-4.323-1.201-9.98-3.367-15.898-2.182-5.96-5.262-12.344-8.745-18.176-3.477-5.822-7.395-11.159-11.276-14.983-1.94-1.911-3.915-3.489-5.863-4.551-1.94-1.058-3.972-1.668-5.967-1.457-1.974.209-3.819 1.181-5.49 2.569-1.676 1.391-3.265 3.272-4.747 5.467-2.964 4.389-5.634 10.233-7.773 16.524-2.143 6.302-3.777 13.124-4.638 19.506-.858 6.356-.965 12.394.031 17.077 1.319 6.2 4.616 11.538 9.917 15.065 5.291 3.521 12.419 5.133 21.23 4.198Z" fill="#FFC000" stroke="#D39C28" stroke-width="3.357"/>
  <path d="M85.595 89.508c3.444-.365 5.911-3.728 5.509-7.512s-3.519-6.554-6.963-6.189-5.911 3.728-5.509 7.512 3.519 6.554 6.963 6.189" fill="#fff"/>
  <path d="M85.706 90.546c-4.012.426-7.651-2.766-8.112-7.117s2.427-8.235 6.439-8.66 7.651 2.766 8.112 7.117-2.427 8.235-6.439 8.66m-1.453-13.701c-2.864.304-4.92 3.158-4.58 6.364s2.949 5.565 5.813 5.261 4.92-3.158 4.58-6.364-2.949-5.565-5.813-5.261" fill="#534741"/>
  <path d="M105.922 86.932c3.444-.365 5.911-3.728 5.509-7.512s-3.519-6.554-6.962-6.189-5.911 3.729-5.509 7.512 3.519 6.554 6.963 6.189" fill="#fff"/>
  <path d="M106.032 87.97c-4.012.426-7.65-2.766-8.112-7.117s2.427-8.235 6.439-8.66 7.651 2.766 8.112 7.117-2.427 8.235-6.439 8.66m-1.453-13.701c-2.864.304-4.92 3.158-4.58 6.364s2.949 5.565 5.813 5.261 4.92-3.158 4.58-6.364-2.949-5.565-5.813-5.261M86.471 89.835c2.755-.292 4.743-2.853 4.438-5.719s-2.784-4.953-5.539-4.661-4.742 2.853-4.438 5.719 2.784 4.953 5.539 4.661" fill="#534741"/>
  <path d="M106.068 87.194c2.691-.285 4.626-2.84 4.322-5.706s-2.732-4.959-5.423-4.673-4.626 2.841-4.322 5.707 2.732 4.958 5.423 4.673" fill="#534741"/>
  <path d="M84.911 83.052c.804-.085 1.4-.669 1.333-1.304s-.773-1.081-1.577-.996-1.401.669-1.333 1.304.773 1.081 1.577.996" fill="#fff"/>
  <path d="M78.654 99.376c3.674-.39 6.435-2.75 6.167-5.273s-3.462-4.251-7.136-3.861-6.435 2.75-6.167 5.272 3.463 4.251 7.136 3.862m36.793-3.903c3.674-.39 6.435-2.75 6.167-5.272s-3.463-4.251-7.136-3.862-6.435 2.75-6.167 5.272 3.463 4.251 7.136 3.862" fill="#E4A92D"/>
  <path d="M104.677 80.22c.804-.085 1.4-.669 1.333-1.304s-.773-1.081-1.577-.996-1.401.669-1.333 1.305c.067.635.774 1.081 1.577.995" fill="#fff"/>
  <path d="M97.988 102.691c-5.978.832-11.693-3.227-11.693-3.227.616 5.809 6.127 9.846 12.326 9.189s10.741-5.758 10.124-11.57c0 0-4.306 4.71-10.756 5.608" fill="#534741"/>
  <path d="M108.855 67.551c-2.557-1.558-6.39-2.361-9.752-1.751m-21.131 5.019c1.775-1.735 5.687-3.414 8.608-3.724" stroke="#534741" stroke-width="2.238" stroke-linecap="round"/>
  <path d="M109.772 97.412c.281 2.647-.652 4.961-2.368 7.286-1.8 2.44-4.68 4.295-8.599 4.71-4.313.457-7.016-.639-9.597-2.78-2.065-1.713-3.444-3.455-3.766-6.493-.074-.696.533-1.604 1.414-1.258 1.782.8 5.229 2.242 11.005 1.629 5.504-.584 8.82-2.624 9.889-3.582 1.07-.958 1.948-.207 2.021.489" fill="#534741"/>
  <path d="M56.371 116.766c-1.399 4.323-.457 8.256 2.027 11.425 2.433 3.104 6.286 5.417 10.711 6.849 4.405 1.426 11.672 2.614 18.159 2.544 3.241-.035 6.406-.384 8.964-1.242 2.517-.844 4.818-2.317 5.638-4.85.819-2.53-.175-5.08-1.711-7.254-1.563-2.211-3.913-4.371-6.512-6.322-5.2-3.904-11.773-7.248-16.186-8.677-4.438-1.436-8.936-1.77-12.74-.63-3.875 1.161-6.951 3.838-8.348 8.156Z" fill="#FFC000" stroke="#D39C28" stroke-width="3.357"/>
  <path d="M54.69 115.575c-2.45 7.159.595 13.223 4.98 17.132 2.188 1.95 4.752 3.414 7.255 4.283 2.472.859 5.041 1.19 7.187.671.568-.137 1.029-.45 1.371-.743.355-.304.685-.675.988-1.068.605-.786 1.214-1.806 1.802-2.941 1.182-2.281 2.385-5.228 3.402-8.203s1.871-6.042 2.334-8.571c.231-1.259.375-2.439.379-3.431a7.2 7.2 0 0 0-.123-1.449c-.09-.439-.259-.968-.619-1.425-1.378-1.751-3.623-3.059-6.112-3.879-2.52-.83-5.455-1.215-8.388-.984-5.875.463-12.008 3.456-14.456 10.608Z" fill="#fff" stroke="#CCC" stroke-width="3.357"/>
  <path d="m171.226 138.072-1.399 77.639 13.01-6.155 4.756-81.696z" fill="#34A976"/>
</svg>
