<svg width="256" height="233.724" viewBox="0 0 256 233.724" fill="none" xmlns="http://www.w3.org/2000/svg">
  <path d="m128.884 223.436-16.343-14.652q-28.459-25.641-47.055-44.238T35.9 131.157q-10.989-14.793-15.356-27.191-4.368-12.398-4.368-25.359 0-26.486 17.752-44.237t44.238-17.751q14.652 0 27.895 6.199t22.823 17.47q9.58-11.271 22.823-17.47t27.895-6.199q26.486 0 44.237 17.751t17.752 44.237q0 12.962-4.368 25.359-4.367 12.398-15.356 27.191t-29.586 33.389q-18.596 18.597-47.055 44.238z" fill="#FFB7AB"/>
  <path d="M99.008 96.268c-.536-5.736-3.605-9.844-8.085-12.29-4.389-2.396-10.037-3.159-15.909-2.61-5.847.547-14.909 2.805-22.432 6.138-3.759 1.665-7.271 3.658-9.82 5.939-2.509 2.245-4.449 5.111-4.135 8.471.314 3.355 2.747 5.826 5.627 7.588 2.928 1.792 6.749 3.13 10.755 4.101 8.015 1.941 17.35 2.543 23.208 1.995 5.89-.551 11.297-2.417 15.156-5.65 3.931-3.294 6.172-7.953 5.636-13.682Z" fill="#FFC000" stroke="#D39C28" stroke-width="4.243"/>
  <path d="M101.564 96.812c-.734-9.566-7.319-15.103-14.386-17.458-3.526-1.175-7.247-1.595-10.597-1.354-3.31.238-6.468 1.14-8.707 2.82-.592.444-.971 1.038-1.223 1.549a9 9 0 0 0-.615 1.738c-.312 1.219-.509 2.712-.626 4.329-.234 3.25-.158 7.286.149 11.262.306 3.976.849 7.978 1.577 11.156.362 1.582.785 3.029 1.278 4.187.246.579.532 1.139.869 1.625.324.467.786.997 1.433 1.348 2.482 1.348 5.752 1.747 9.063 1.455 3.351-.296 6.963-1.319 10.264-3.058 6.611-3.484 12.255-10.043 11.522-19.6Z" fill="#fff" stroke="#CCC" stroke-width="4.243"/>
  <path d="M153.411 90.912c-4.045 4.767-4.907 10.257-3.407 15.592 1.472 5.234 5.176 10.223 10.094 14.396 4.899 4.157 13.608 9.53 21.98 12.874 4.184 1.671 8.421 2.891 12.138 3.141 3.664.246 7.32-.43 9.654-3.181 2.331-2.746 2.418-6.472 1.598-10.062-.833-3.644-2.702-7.652-5.009-11.534-4.616-7.767-11.292-15.543-16.199-19.707-4.932-4.185-10.508-6.975-15.956-7.519-5.541-.554-10.851 1.239-14.892 6.001Z" fill="#FFC000" stroke="#D39C28" stroke-width="4.243"/>
  <path d="M151.874 88.489c-6.879 7.838-6.19 17.163-2.641 24.47 1.771 3.646 4.28 6.869 7.02 9.297 2.711 2.402 5.807 4.164 8.791 4.625.758.117 1.48-.031 2.059-.221.6-.197 1.207-.492 1.798-.833 1.181-.682 2.495-1.664 3.85-2.81 2.721-2.302 5.826-5.451 8.71-8.738s5.603-6.777 7.534-9.776c.961-1.494 1.765-2.924 2.291-4.184.263-.63.478-1.27.597-1.889.115-.596.171-1.33-.037-2.064-.831-2.93-2.995-5.773-5.748-8.133-2.784-2.387-6.335-4.426-10.207-5.675-7.756-2.502-17.144-1.899-24.016 5.931Z" fill="#fff" stroke="#CCC" stroke-width="4.243"/>
  <path d="M174.939 133.557c0 20.875-20.818 32.984-46.497 32.984s-46.497-12.109-46.497-32.984c0-36.062 20.817-60.717 46.497-60.717s46.497 27.927 46.497 60.717Z" fill="#fff" stroke="#CCC" stroke-width="4.243"/>
  <path d="M93.938 124.327a1.43 1.43 0 0 1-1.674 1.268l-10.385-1.877a1.397 1.397 0 0 1-1.15-1.515c.338-3.347 1.348-12.672 2.894-21.224s3.863-17.64 4.718-20.894a1.4 1.4 0 0 1 1.608-1.017l10.386 1.877a1.427 1.427 0 0 1 1.124 1.773c-.879 3.297-3.01 11.612-4.643 20.645-1.632 9.034-2.547 17.569-2.877 20.964Zm61.182-41.524a1.427 1.427 0 0 1 1.11-1.782l10.37-1.959a1.4 1.4 0 0 1 1.616 1.004c.88 3.247 3.269 12.317 4.882 20.856s2.697 17.856 3.062 21.201a1.397 1.397 0 0 1-1.138 1.524l-10.37 1.959a1.427 1.427 0 0 1-1.683-1.255c-.357-3.393-1.339-11.921-3.043-20.941s-3.9-17.318-4.806-20.607Z" fill="#45566A" stroke="#394457" stroke-width="4.243"/>
  <path d="M128.462 168.687c13.152 0 25.23-3.087 34.089-9.005 8.918-5.957 14.575-14.806 14.575-26.041 0-8.247-1-13.956-3.333-17.669-2.493-3.967-6.259-5.313-10.612-5.468-3.699-.132-8.148.584-13.037 1.373l-1.949.312c-5.761.914-12.326 1.844-19.734 1.844-7.368 0-13.904-1.123-19.644-2.287q-1.516-.309-2.982-.618c-4.461-.935-8.555-1.793-11.983-1.849-2.146-.035-4.213.232-6.08 1.08-1.906.865-3.464 2.271-4.666 4.275-2.316 3.863-3.31 9.974-3.31 19.009 0 11.234 5.658 20.084 14.575 26.041 8.86 5.918 20.938 9.005 34.09 9.005Z" fill="#45566A" stroke="#394457" stroke-width="4.243"/>
  <path d="M97.699 121.691a429 429 0 0 1-1.916-3.072 1.41 1.41 0 0 0-1.211-.671 648 648 0 0 1-3.691.011 1.41 1.41 0 0 0-1.218.697l-.463.787q-.668 1.136-1.338 2.267a1.41 1.41 0 0 0 .011 1.464 920 920 0 0 0 1.911 3.09 1.41 1.41 0 0 0 1.198.669l3.755.011a1.41 1.41 0 0 0 1.23-.71q.887-1.541 1.766-3.091a1.41 1.41 0 0 0-.034-1.45Zm71.842 0q-.966-1.534-1.916-3.072a1.41 1.41 0 0 0-1.212-.671q-1.843.01-3.691.011a1.41 1.41 0 0 0-1.218.697l-.463.787q-.667 1.136-1.338 2.267a1.41 1.41 0 0 0 .011 1.464 920 920 0 0 0 1.912 3.09 1.41 1.41 0 0 0 1.198.669l3.755.011a1.41 1.41 0 0 0 1.231-.71c.59-1.027 1.181-2.058 1.765-3.091a1.41 1.41 0 0 0-.034-1.45Z" fill="#fff" stroke="#CCC" stroke-width="2.122"/>
  <path d="M124.861 147.365h-6.393a.88.88 0 0 1-.759-.437l-3.194-5.528a.87.87 0 0 1 0-.874l3.194-5.528a.88.88 0 0 1 .759-.437h6.393c.315 0 .601.169.759.437l3.194 5.528a.87.87 0 0 1 0 .874l-3.194 5.528a.87.87 0 0 1-.759.437m-5.885-1.749h5.377l2.692-4.653-2.692-4.653h-5.377l-2.692 4.653z" fill="#4CB4FA"/>
  <path d="M134.448 141.866h-6.393a.88.88 0 0 1-.759-.437l-3.194-5.528a.87.87 0 0 1 0-.875l3.194-5.528a.88.88 0 0 1 .759-.437h6.393a.88.88 0 0 1 .759.437l3.194 5.528a.87.87 0 0 1 0 .875l-3.194 5.528a.87.87 0 0 1-.759.437m-5.885-1.749h5.377l2.692-4.653-2.692-4.653h-5.377l-2.692 4.653z" fill="#FFC000"/>
  <path d="M134.448 152.886h-6.393a.88.88 0 0 1-.759-.437l-3.194-5.528a.87.87 0 0 1 0-.875l3.194-5.528a.88.88 0 0 1 .759-.437h6.393a.88.88 0 0 1 .759.437l3.194 5.528a.87.87 0 0 1 0 .875l-3.194 5.528a.87.87 0 0 1-.759.437m-5.885-1.749h5.377l2.692-4.653-2.692-4.653h-5.377l-2.692 4.653z" fill="#fff"/>
  <path d="M128.165 104.309c11.223 0 19.937-3.113 26.136-8.296s9.717-12.298 10.786-19.994c.751-5.415-.179-12.703-2.112-20.429-1.948-7.78-4.968-16.215-8.568-24.008-3.594-7.78-7.807-15.01-12.174-20.333-2.183-2.661-4.455-4.906-6.762-6.501-2.298-1.589-4.77-2.626-7.306-2.626-2.509 0-4.957.975-7.243 2.496-2.292 1.525-4.539 3.677-6.695 6.238-4.311 5.121-8.445 12.11-11.972 19.73-3.533 7.634-6.497 15.99-8.43 23.896-1.925 7.874-2.865 15.447-2.238 21.465.831 7.967 4.263 15.116 10.455 20.255 6.182 5.132 14.926 8.107 26.123 8.107Z" fill="#FFC000" stroke="#D39C28" stroke-width="4.243"/>
  <path d="M114.934 64.458c4.377 0 7.925-3.898 7.925-8.706s-3.548-8.706-7.925-8.706-7.925 3.898-7.925 8.706 3.548 8.706 7.925 8.706" fill="#fff"/>
  <path d="M114.934 65.777c-5.099 0-9.246-4.496-9.246-10.026s4.148-10.025 9.246-10.025 9.246 4.496 9.246 10.025-4.148 10.026-9.246 10.026m0-17.413c-3.641 0-6.604 3.314-6.604 7.387 0 4.074 2.964 7.387 6.604 7.387s6.604-3.314 6.604-7.387-2.964-7.387-6.604-7.387" fill="#534741"/>
  <path d="M140.824 63.93c4.377 0 7.925-3.898 7.925-8.706s-3.548-8.706-7.925-8.706-7.925 3.898-7.925 8.706 3.548 8.706 7.925 8.706" fill="#fff"/>
  <path d="M140.824 65.249c-5.098 0-9.246-4.496-9.246-10.025s4.148-10.025 9.246-10.025 9.246 4.496 9.246 10.025-4.148 10.025-9.246 10.025m0-17.412c-3.64 0-6.604 3.314-6.604 7.387 0 4.074 2.964 7.387 6.604 7.387s6.605-3.314 6.605-7.387-2.964-7.387-6.605-7.387m-24.833 17.148c3.502 0 6.341-2.953 6.341-6.596s-2.839-6.596-6.341-6.596-6.34 2.953-6.34 6.596 2.839 6.596 6.34 6.596" fill="#534741"/>
  <path d="M140.972 64.278c3.42 0 6.192-2.953 6.192-6.596s-2.772-6.596-6.192-6.596-6.192 2.953-6.192 6.596 2.773 6.596 6.192 6.596" fill="#534741"/>
  <path d="M114.934 56.252c1.021 0 1.849-.654 1.849-1.461s-.828-1.462-1.849-1.462-1.849.654-1.849 1.462.828 1.461 1.849 1.461" fill="#fff"/>
  <path d="M104.896 75.934c4.669 0 8.454-2.599 8.454-5.804s-3.785-5.804-8.454-5.804-8.454 2.599-8.454 5.804 3.785 5.804 8.454 5.804m46.759 0c4.669 0 8.454-2.599 8.454-5.804s-3.785-5.804-8.454-5.804-8.454 2.599-8.454 5.804 3.785 5.804 8.454 5.804" fill="#E4A92D"/>
  <path d="M140.153 55.329c1.021 0 1.849-.654 1.849-1.461s-.828-1.462-1.849-1.462-1.849.654-1.849 1.462.828 1.461 1.849 1.461" fill="#fff"/>
  <path d="M115.978 79.558s1.591 7.956 12.552 7.956 12.553-7.956 12.553-7.956" stroke="#534741" stroke-width="4.243" stroke-linecap="round"/>
  <path d="M147.094 39.963c-3.006-2.299-7.716-3.819-12.022-3.501m-27.227 3.491c2.462-1.943 7.602-3.533 11.315-3.533" stroke="#534741" stroke-width="2.829" stroke-linecap="round"/>
  <path d="M105.587 146.622c-5.409-1.449-10.765-.974-15.091 1.83-4.338 2.812-7.306 7.747-8.368 14.544-.775 4.965.594 10.694 2.844 15.324 1.136 2.338 2.539 4.484 4.104 6.182 1.542 1.672 3.374 3.052 5.397 3.594 1.997.535 4.183.303 6.273-.335 2.109-.643 4.268-1.742 6.306-3.131 4.055-2.762 7.881-6.842 10.006-11.314 2.89-6.079 2.918-12.011.672-16.86-2.237-4.83-6.63-8.358-12.144-9.836Z" fill="#FFC000" stroke="#D39C28" stroke-width="4.243"/>
  <path d="M78.248 161.141c2.207-21.553 10.797-21.801 26.679-17.546 15.882 4.256 25.349 8.949 15.643 28.886-3.943 8.099-16.368 4.254-23.976 2.215s-19.252-4.698-18.345-13.556" fill="#45566A"/>
  <path d="M122.411 168.309a57 57 0 0 1-1.841 4.172c-3.943 8.099-16.368 4.254-23.976 2.215s-19.252-4.698-18.345-13.556c.739-7.211 2.192-12.037 4.393-15.108" stroke="#394457" stroke-width="4.243" stroke-linecap="round"/>
  <path d="M118.924 172.554a1.424 1.424 0 0 1 .932 2.102l-2.516 4.366a1.4 1.4 0 0 1-1.496.677c-2.593-.538-9.937-2.109-17.861-4.232-7.895-2.116-15.481-4.542-18.207-5.43a1.4 1.4 0 0 1-.957-1.467l.462-4.928a1.425 1.425 0 0 1 1.856-1.22c3.243 1.042 10.738 3.397 18.849 5.57 7.976 2.137 15.523 3.824 18.938 4.563Z" fill="#fff" stroke="#CCC" stroke-width="4.243"/>
  <path d="M152.473 147.027c5.481-1.468 10.898-1.045 15.268 1.694 4.393 2.753 7.385 7.632 8.416 14.376.754 4.931-.689 10.624-3.01 15.221-1.173 2.323-2.614 4.456-4.214 6.144-1.577 1.665-3.438 3.031-5.471 3.576-3.924 1.051-8.709-.699-12.703-3.332-4.099-2.702-7.965-6.716-10.098-11.141-2.902-6.02-2.882-11.915-.559-16.739 2.31-4.796 6.788-8.303 12.371-9.799Z" fill="#FFC000" stroke="#D39C28" stroke-width="4.243"/>
  <path d="M180.151 161.212c-2.078-21.313-10.805-21.493-26.976-17.16s-25.827 9.051-16.117 28.707c3.945 7.986 16.6 4.085 24.347 2.009s19.6-4.797 18.746-13.556" fill="#45566A"/>
  <path d="M174.497 145.502c2.859 2.876 4.846 7.433 5.654 15.711.854 8.759-10.999 11.48-18.746 13.556s-20.403 5.976-24.347-2.009c-.946-1.915-1.395-2.805-1.986-4.451" stroke="#394457" stroke-width="4.243" stroke-linecap="round"/>
  <path d="M138.707 172.823a1.424 1.424 0 0 0-.924 2.111l2.501 4.259a1.4 1.4 0 0 0 1.494.667c2.618-.548 10.113-2.163 18.206-4.331 8.061-2.16 15.809-4.626 18.566-5.52a1.4 1.4 0 0 0 .96-1.461l-.426-4.827a1.424 1.424 0 0 0-1.853-1.229c-3.289 1.052-10.942 3.446-19.222 5.665-8.138 2.181-15.836 3.911-19.301 4.667Z" fill="#fff" stroke="#CCC" stroke-width="4.243"/>
  <path d="M67.103 53.88c-.092 3.539 2.096 13.9 11.583 27.027s15.812 19.352 17.788 20.823m-29.093 46.609c-.09-3.448 2.047-13.539 11.31-26.327s15.44-18.85 17.37-20.282" stroke="#D9BF75" stroke-width="2.122"/>
  <path d="M76.066 45.468c.552-5.295-2.988-9.653-4.827-11.17 2.427 8.825-4.164 13.58-11.722 16.686-10.066 4.137-24.683 9.239-28.545 23.029-3.339 11.927 2.298 22.799 5.654 26.89h5.102s-5.224-11.793-2.344-21.788c2.344-8.136 15.403-11.158 23.442-15.858 8.963-5.24 12.549-11.17 13.238-17.789m-.193 110.112c.541 5.197-2.927 9.473-4.728 10.962 2.378-8.661-4.079-13.326-11.483-16.374-9.861-4.06-24.18-9.067-27.963-22.6-3.271-11.705 2.252-22.374 5.539-26.389h4.998s-5.118 11.573-2.297 21.382c2.297 7.984 15.089 10.95 22.965 15.563 8.781 5.143 12.293 10.962 12.968 17.457" fill="#534741"/>
  <path d="m100.396 102.541 4.03 7.779h15.819l-4.03-7.779zm.354-.353 4.03-7.779h15.819l-4.03 7.779z" fill="#fff" stroke="#CCC" stroke-width="2.122"/>
  <path fill="#B5836A" d="M21.923 100.773h95.823a1.414 1.414 0 0 1 1.414 1.415 1.414 1.414 0 0 1-1.414 1.414H21.923a1.414 1.414 0 0 1-1.415-1.414 1.414 1.414 0 0 1 1.415-1.415"/>
  <path d="M22.983 107.1V97.056a2.12 2.12 0 0 0-3.03-1.917L8.84 100.408c-1.65.782-1.606 3.145.071 3.866l11.113 4.775a2.12 2.12 0 0 0 2.959-1.949" fill="#CCC"/>
  <path d="M68.422 222.323c3.665 6.109 8.654 8.781 10.69 9.354 8.4 1.718 19.09-3.818 11.645-2.672s-17.372-9.354-20.045-16.608-10.69-14.699-16.417-17.563-14.127-1.025-18.136 0c-8.209 2.1-6.3 8.209-5.727 6.3s7.254-4.963 16.799-2.482c9.545 2.482 16.608 16.035 21.19 23.672m120.736-.202c-3.618 6.025-8.542 8.661-10.552 9.226-8.291 1.695-18.843-3.766-11.494-2.636 7.348 1.13 17.146-9.226 19.784-16.381s10.552-14.498 16.204-17.323c5.653-2.824 13.944-1.011 17.9 0 8.102 2.071 6.218 8.097 5.653 6.214s-7.16-4.895-16.581-2.448c-9.421 2.448-16.393 15.816-20.915 23.348m-95.344-40.843c.763-8.247 9.354-12.218 13.554-13.172-1.222-7.331-7.636-6.618-10.69-5.345-3.5 2.545-10.881 9.011-12.409 14.508-1.909 6.872.573 13.745 4.773 23.862 3.36 8.094 5.727 8.018 8.781 8.4 3.882-.127 12.638-.535 16.609-1.146 3.97-.611 10.563-10.309 13.363-15.081-.255-1.145-1.374-3.513-3.818-3.818s-8.654 5.091-11.454 7.827H97.822c-1.654-1.909-4.772-7.789-4.009-16.036m69.762-.013c-.766-8.14-9.378-12.059-13.588-13.001 1.225-7.235 7.655-6.532 10.717-5.276 3.509 2.512 10.909 8.893 12.44 14.32 1.914 6.783-.574 13.566-4.784 23.552-3.368 7.989-5.741 7.913-8.803 8.29-3.891-.126-12.669-.528-16.65-1.131s-10.59-10.174-13.397-14.885c.255-1.13 1.378-3.467 3.828-3.768s8.676 5.025 11.483 7.725h14.736c1.659-1.884 4.784-7.687 4.019-15.827" fill="#1A6CA3"/>
  <path d="M121.736 183.669c1.833.611 3.563.891 4.2.954h4.2v12.218h-4.2c-2.863 0-7.445-5.536-7.827-7.827s1.336-6.109 3.627-5.345" fill="#51B6FA"/>
  <path d="M136.096 183.67c-1.854.615-3.604.897-4.247.961h-4.248v12.302h4.248c2.896 0 7.53-5.574 7.916-7.881s-1.351-6.151-3.669-5.382" fill="#51B6FA"/>
  <path d="M109.463 212.205c7.636-7.025 13.618-16.799 15.654-20.808 1.082 0 3.245.611 3.245 3.054s-4.665 13.936-8.018 18.708c-4.962 7.063-14.929 11.798-21.954 16.227-8.781 5.536-19.852 2.1-19.852 2.1 10.309-.382 21.379-10.5 30.924-19.281m38.493-.149c-7.607-6.91-13.566-16.525-15.594-20.468-1.078 0-3.233.601-3.233 3.004s4.648 13.708 7.987 18.403c4.943 6.948 14.872 11.605 21.87 15.961 8.748 5.446 19.776 2.066 19.776 2.066-10.27-.376-21.298-10.328-30.807-18.966m-26.651-37.84c.305 3.971 3.563 8.781 5.154 10.69l-4.009 2.291c-2.546-.763-8.59-2.902-12.409-5.345-4.772-3.055-4.581-11.836-7.445-16.418s-6.966-1.844-6.682-2.1c3.817-3.436 10.118-3.245 11.645-1.909s4.009 4.009 7.254 5.345l.068.028c3.217 1.325 6.044 2.488 6.423 7.417m15.204-.033c-.302 3.923-3.518 8.675-5.087 10.561l3.957 2.263c2.513-.755 8.479-2.867 12.248-5.281 4.711-3.017 4.522-11.693 7.349-16.219s6.875-1.822 6.595-2.075c-3.768-3.394-9.987-3.206-11.494-1.886s-3.957 3.96-7.16 5.281l-.066.027c-3.176 1.309-5.966 2.459-6.34 7.328m-96.53 41.46c-4.391-4.581-9.499-13.918-8.972-17.945-2.482 2.482-2.276 11.797.764 18.518 3.627 8.018 14.127 16.226 15.845 17.181l-.499-6.413 7.76.418s-10.507-7.177-14.897-11.758m177.206-.074c4.375-4.565 9.464-13.867 8.939-17.878 2.473 2.473 2.268 11.753-.761 18.449-3.613 7.988-14.075 16.167-15.786 17.118l.497-6.39-7.731.417s10.467-7.15 14.842-11.715" fill="#51B6FA"/>
  <path d="M14.891 189.219q-2.296 0-4.068-1.45t-2.216-3.706q-2.135.685-4.31-.081t-3.343-2.658q-1.208-1.933-.886-4.29.322-2.356 2.095-3.927-1.692-1.531-2.034-3.786-.343-2.256.745-4.189 1.087-1.933 3.283-2.799t4.37-.181q.443-2.256 2.216-3.706 1.771-1.452 4.068-1.452t4.068 1.45 2.216 3.706q2.256-.685 4.37.121t3.283 2.86q1.087 2.014.785 4.21t-2.075 3.766q1.773 1.571 2.115 3.887t-.745 4.33q-1.168 2.054-3.283 2.739t-4.37 0q-.443 2.256-2.215 3.706t-4.068 1.45m-.08-9.667q2.658 0 4.551-1.893t1.893-4.551q0-2.659-1.893-4.552t-4.552-1.893-4.551 1.893-1.893 4.552 1.893 4.551q1.893 1.893 4.551 1.893" fill="#51D2B9"/>
  <path fill="#FFEBB2" d="M22.983 173.436a8.31 8.31 0 0 1-8.309 8.31 8.31 8.31 0 0 1-8.309-8.31 8.309 8.309 0 0 1 16.618 0"/>
  <path d="M14.895 219.227q-1.588 0-2.814-1.002t-1.532-2.562q-1.476.473-2.981-.056t-2.312-1.838q-.836-1.337-.613-2.966t1.448-2.715q-1.17-1.058-1.407-2.617t.515-2.896 2.27-1.936q1.519-.598 3.023-.125.306-1.559 1.532-2.562 1.227-1.002 2.815-1.002t2.813 1.002 1.532 2.562q1.56-.473 3.022.083 1.462.557 2.27 1.977.752 1.392.543 2.91t-1.435 2.603q1.226 1.086 1.462 2.687.237 1.601-.516 2.994-.808 1.42-2.27 1.893-1.463.474-3.022 0-.307 1.559-1.532 2.562t-2.811 1.004" fill="#FFB7AB"/>
  <path d="M20.862 208.088a1.01 1.01 0 0 1-.671.959l-3.334 1.227-1.227 3.336a1.023 1.023 0 0 1-1.916 0l-1.226-3.336-3.334-1.227a1.023 1.023 0 0 1 0-1.917l3.334-1.227 1.227-3.336a1.023 1.023 0 0 1 1.916 0l1.226 3.336 3.335 1.227a1.01 1.01 0 0 1 .67.958" fill="#FFEBB2"/>
  <path d="M48.482 210.788q-2.296 0-4.068-1.45t-2.216-3.706q-2.135.685-4.31-.081-2.175-.765-3.343-2.658-1.209-1.933-.886-4.29.322-2.356 2.095-3.927-1.692-1.531-2.034-3.786-.343-2.256.745-4.189 1.087-1.933 3.283-2.799t4.37-.181q.443-2.256 2.216-3.706t4.067-1.451q2.296 0 4.068 1.45 1.773 1.45 2.216 3.706 2.255-.685 4.37.121 2.114.806 3.283 2.86 1.088 2.014.785 4.21-.302 2.195-2.075 3.766 1.773 1.571 2.115 3.887t-.745 4.33q-1.169 2.054-3.283 2.739t-4.37 0q-.443 2.256-2.215 3.706t-4.068 1.45" fill="#fff"/>
  <path fill="#66D5B8" d="M48.442 187.757a1.414 1.414 0 0 1-1.414 1.414 1.414 1.414 0 0 1-1.415-1.414 1.414 1.414 0 0 1 2.829 0m3.182 0a1.414 1.414 0 0 1-1.414 1.414 1.414 1.414 0 0 1-1.414-1.414 1.414 1.414 0 0 1 2.828 0m90.162-10.987.683.183-.733 2.732-.683-.183zm-181.067 45.834.683-.183.732 2.731-.683.183zm271.657 716.252a1.414 1.414 0 0 1 1.414-1.414 1.414 1.414 0 0 1 1.414 1.414 1.414 1.414 0 0 1-2.828 0m-14.818 0a1.414 1.414 0 0 1 1.414-1.414 1.414 1.414 0 0 1 1.415 1.414 1.415 1.415 0 0 1-2.829 0m-93.451 6.766-.683-.183.732-2.733.683.183zm201.558-46.973-.683.183-.732-2.732.683-.183zm184.477-452.677a1.414 1.414 0 0 1-1.415-1.415 1.414 1.414 0 0 1 1.415-1.414 1.415 1.415 0 0 1 0 2.829m5.817 9a1.414 1.414 0 0 1-1.414-1.415 1.414 1.414 0 0 1 1.414-1.414 1.415 1.415 0 0 1 0 2.829m10.521 93.916-.183.682-2.733-.732.183-.683zm-56.65-190.742.184.683-2.733.732-.183-.683zm-710.789 271.758a1.414 1.414 0 0 1 1.415 1.415 1.414 1.414 0 0 1-1.415 1.414 1.415 1.415 0 0 1 0-2.829m5.818-9a1.414 1.414 0 0 1 1.414 1.415 1.414 1.414 0 0 1-1.414 1.414 1.415 1.415 0 0 1 0-2.829m-7.233-89.694.184-.683 2.732.732-.183.684zm36.16 191.882-.183-.683 2.733-.733.183.684z"/>
  <path fill="#FFEBB2" d="M53.039 194.829a4.597 4.597 0 0 1-4.597 4.596 4.597 4.597 0 0 1-4.597-4.596 4.597 4.597 0 0 1 9.194 0"/>
  <path d="M241.063 189.219q2.296 0 4.068-1.45t2.216-3.706q2.135.685 4.31-.081 2.175-.765 3.343-2.658 1.209-1.933.886-4.29-.322-2.356-2.094-3.927 1.692-1.531 2.034-3.786t-.745-4.189q-1.088-1.933-3.283-2.799t-4.37-.181q-.443-2.256-2.216-3.706-1.773-1.452-4.069-1.452t-4.068 1.45-2.215 3.706q-2.256-.685-4.37.121t-3.283 2.86q-1.087 2.014-.785 4.21t2.075 3.766q-1.773 1.571-2.115 3.887t.745 4.33q1.168 2.054 3.283 2.739 2.114.685 4.37 0 .443 2.256 2.215 3.706 1.773 1.45 4.068 1.45m.081-9.667q-2.659 0-4.552-1.893t-1.893-4.551q0-2.659 1.893-4.552t4.552-1.893q2.658 0 4.551 1.893t1.893 4.552q0 2.658-1.893 4.551t-4.551 1.893" fill="#51D2B9"/>
  <path fill="#FFEBB2" d="M689.249 475.309a8.31 8.31 0 0 0 8.31 8.31 8.31 8.31 0 0 0 8.309-8.31 8.31 8.31 0 0 0-16.619 0"/>
  <path d="M241.059 219.227q1.588 0 2.814-1.002t1.532-2.562q1.476.473 2.98-.056t2.312-1.838q.836-1.337.613-2.966t-1.448-2.715q1.17-1.058 1.407-2.617t-.515-2.896-2.27-1.936q-1.518-.598-3.022-.125-.306-1.559-1.532-2.562t-2.814-1.002-2.814 1.002-1.532 2.562q-1.56-.473-3.022.083-1.462.557-2.27 1.977-.752 1.392-.543 2.91t1.435 2.603q-1.225 1.086-1.462 2.687t.516 2.994q.808 1.42 2.27 1.893t3.022 0q.307 1.559 1.532 2.562t2.814 1.002" fill="#FFB7AB"/>
  <path d="M235.091 208.088a1.01 1.01 0 0 0 .671.959l3.335 1.227 1.226 3.336a1.023 1.023 0 0 0 1.542.483 1 1 0 0 0 .374-.483l1.227-3.336 3.334-1.227a1.022 1.022 0 0 0 0-1.917l-3.334-1.227-1.227-3.336a1.022 1.022 0 0 0-1.916 0l-1.226 3.336-3.335 1.227a1.01 1.01 0 0 0-.671.959" fill="#FFEBB2"/>
  <path d="M207.471 210.788q2.296 0 4.068-1.45t2.216-3.706q2.135.685 4.31-.081 2.175-.765 3.343-2.658 1.209-1.933.886-4.29-.322-2.356-2.094-3.927 1.692-1.531 2.034-3.786t-.745-4.189q-1.088-1.933-3.283-2.799t-4.37-.181q-.443-2.256-2.216-3.706-1.772-1.451-4.068-1.451t-4.068 1.45-2.215 3.706q-2.256-.685-4.37.121t-3.283 2.86q-1.087 2.014-.785 4.21t2.075 3.766q-1.773 1.571-2.115 3.887t.745 4.33q1.168 2.054 3.283 2.739 2.114.685 4.37 0 .443 2.256 2.215 3.706 1.773 1.45 4.068 1.45" fill="#fff"/>
  <path fill="#66D5B8" d="M592.039 528.414a1.414 1.414 0 0 0 1.415 1.415 1.414 1.414 0 0 0 1.414-1.415 1.415 1.415 0 0 0-2.829 0m-9 0a1.414 1.414 0 0 0 1.415 1.415 1.414 1.414 0 0 0 1.414-1.415 1.415 1.415 0 0 0-2.829 0m.758 4.586-.683.183.732 2.733.683-.183zm7.071.395-.683-.183-.732 2.733.683.183zm-10.171 39.436a1.414 1.414 0 0 0-1.415-1.415 1.414 1.414 0 0 0-1.414 1.415 1.415 1.415 0 0 0 2.829 0m9 0a1.414 1.414 0 0 0-1.415-1.415 1.414 1.414 0 0 0-1.414 1.415 1.415 1.415 0 0 0 2.829 0m-.757-4.586.682-.183-.732-2.732-.683.183zm-7.071-.395.683.183.732-2.733-.683-.183zm-17.709-22.898a1.414 1.414 0 0 1 1.415-1.415 1.414 1.414 0 0 1-1.415-1.414 1.415 1.415 0 0 1 0 2.829m0 9a1.414 1.414 0 0 1 1.415-1.415 1.414 1.414 0 0 1-1.415-1.414 1.415 1.415 0 0 1 0 2.829m4.585-.759.183.683 2.733-.732-.183-.683zm.395-7.07-.182.683 2.732.732.183-.683zm39.437 10.171a1.414 1.414 0 0 1-1.415 1.415 1.414 1.414 0 0 1 1.415 1.414 1.415 1.415 0 0 1 0-2.829m0-9a1.414 1.414 0 0 1-1.415 1.415 1.414 1.414 0 0 1 1.415 1.414 1.415 1.415 0 0 1 0-2.829m-4.587.758-.184-.683-2.732.732.183.683zm-.394 7.071.183-.683-2.733-.732-.183.683z"/>
  <path fill="#FFEBB2" d="M590.675 542.597a4.597 4.597 0 0 0 4.596 4.596 4.597 4.597 0 0 0 4.597-4.596 4.597 4.597 0 0 0-9.193 0"/>
  <path d="M212.155 58.343a2.9 2.9 0 0 1-.516 1.675 2.86 2.86 0 0 1-1.381 1.063l-9.432 3.506-3.469 9.531a2.9 2.9 0 0 1-1.06 1.382 2.86 2.86 0 0 1-1.651.523 2.86 2.86 0 0 1-1.651-.523 2.9 2.9 0 0 1-1.06-1.382l-3.469-9.531-9.432-3.506a2.9 2.9 0 0 1-1.367-1.071 2.94 2.94 0 0 1-.518-1.667c0-.597.181-1.179.518-1.668a2.9 2.9 0 0 1 1.367-1.071l9.432-3.506 3.469-9.531a2.9 2.9 0 0 1 1.06-1.382 2.87 2.87 0 0 1 3.302 0 2.9 2.9 0 0 1 1.06 1.382l3.469 9.531 9.432 3.506a2.86 2.86 0 0 1 1.381 1.063 2.9 2.9 0 0 1 .516 1.676M59.757 21.746a1.47 1.47 0 0 1-.977 1.397l-4.859 1.788-1.787 4.861a1.489 1.489 0 0 1-2.793 0l-1.787-4.861-4.859-1.788a1.489 1.489 0 0 1 0-2.793l4.859-1.788 1.787-4.861a1.489 1.489 0 0 1 2.793 0l1.787 4.861 4.859 1.788a1.47 1.47 0 0 1 .977 1.396m166.541 3.536a1.47 1.47 0 0 1-.977 1.397l-4.859 1.788-1.787 4.861a1.489 1.489 0 0 1-2.793 0l-1.787-4.861-4.859-1.788a1.489 1.489 0 0 1 0-2.793l4.859-1.788 1.787-4.861a1.489 1.489 0 0 1 2.793 0l1.787 4.861 4.859 1.788a1.47 1.47 0 0 1 .977 1.396" fill="#fff"/>
</svg>
