<svg width="256" height="218.866" viewBox="0 0 256 218.866" fill="none" xmlns="http://www.w3.org/2000/svg">
  <path d="M117.66 93H53.749V79.535l22.95-23.234q6.942-7.139 11.131-11.899 4.252-4.822 6.128-8.768 1.939-3.945 1.939-8.454 0-5.449-3.064-8.141-3.002-2.756-8.067-2.756-5.316 0-10.318 2.442-5.003 2.442-10.443 6.952L53.499 13.214a97 97 0 0 1 8.317-6.388q4.44-3.006 10.256-4.822Q77.95.125 86.142.125q9.005 0 15.446 3.257 6.504 3.256 10.006 8.893 3.502 5.574 3.502 12.65 0 7.578-3.002 13.84-3.002 6.263-8.755 12.4-5.691 6.137-13.758 13.59L77.824 75.84v.877h39.835zm72.791-45.78q0 11.085-1.751 19.79-1.688 8.705-5.503 14.78-3.752 6.075-9.881 9.269t-14.883 3.194q-11.006 0-18.073-5.574-7.066-5.636-10.443-16.158-3.377-10.584-3.377-25.301 0-14.842 3.064-25.364 3.127-10.584 10.131-16.22T158.433 0q10.944 0 18.01 5.636 7.129 5.573 10.569 16.158 3.439 10.521 3.439 25.426m-44.713 0q0 10.459 1.126 17.473 1.188 6.951 3.94 10.459t7.629 3.507q4.815 0 7.567-3.445 2.814-3.507 4.002-10.458 1.188-7.014 1.188-17.535 0-10.458-1.188-17.473T166 19.227q-2.752-3.57-7.567-3.57-4.878 0-7.629 3.57-2.751 3.507-3.94 10.521-1.126 7.014-1.126 17.473M117.99 211.464H54.01v-13.482l22.975-23.265q6.949-7.149 11.143-11.915 4.257-4.829 6.135-8.779 1.941-3.951 1.941-8.466 0-5.456-3.068-8.152-3.005-2.759-8.076-2.759-5.321 0-10.329 2.446t-10.455 6.961l-10.517-12.479q3.944-3.386 8.326-6.396 4.445-3.01 10.267-4.829 5.885-1.881 14.086-1.881 9.015 0 15.463 3.261 6.511 3.261 10.016 8.905 3.506 5.581 3.506 12.667 0 7.588-3.005 13.859t-8.764 12.417q-5.697 6.145-13.773 13.608l-11.769 11.099v.878h39.878zm42.695-58.57q8.389 0 14.9 3.198 6.573 3.198 10.329 9.406t3.756 15.301q0 9.908-4.132 17.12-4.069 7.149-12.208 10.974-8.075 3.826-20.157 3.826-7.199 0-13.585-1.254-6.323-1.191-11.081-3.7v-16.744q4.758 2.508 11.394 4.264 6.699 1.693 12.583 1.693 5.759 0 9.703-1.505 3.944-1.568 5.947-4.766 2.066-3.261 2.066-8.278 0-6.71-4.507-10.284t-13.835-3.574q-3.568 0-7.45.69-3.819.69-6.385 1.38l-7.7-4.139 3.443-46.718h49.644v16.43h-32.679l-1.69 17.997q2.129-.439 4.633-.878t7.011-.439" fill="#D9BF75"/>
  <path d="M73.08 41.163c11.806-1.968 16.611 6.935 16.611 6.935s7.208-5.376 14.515-1.451c8.708 4.677 5.483 14.514 5.483 14.514s5.787-2.899 11.612-.484c7.418 3.076 9.031 10.16 9.031 10.16.162.323-3.225-4.354-12.418-4.354-4.677 0-8.225 3.064-10.322 8.063-1.774 5.483-6.263 10.405-14.676 11.934-7.096 1.29-14.192-2.419-14.192-2.419s-6.032 4.803-13.062.968c-6.29-3.431-3.387-11.773-3.387-11.773s-7.886-1.711-8.386-9.837c-.645-10.483 8.386-11.45 8.386-11.45s1.129-9.192 10.805-10.805" fill="#fff"/>
  <mask id="a" style="mask-type:alpha" maskUnits="userSpaceOnUse" x="219" y="166" width="311" height="187">
    <path d="M73.08 41.163c11.806-1.968 16.611 6.935 16.611 6.935s7.208-5.376 14.515-1.451c8.708 4.677 5.483 14.514 5.483 14.514s5.787-2.899 11.612-.484c7.418 3.076 9.031 10.16 9.031 10.16.162.323-3.225-4.354-12.418-4.354-4.677 0-8.225 3.064-10.322 8.063-1.774 5.483-6.263 10.405-14.676 11.934-7.096 1.29-14.192-2.419-14.192-2.419s-6.032 4.803-13.062.968c-6.29-3.431-3.387-11.773-3.387-11.773s-7.886-1.711-8.386-9.837c-.645-10.483 8.386-11.45 8.386-11.45s1.129-9.192 10.805-10.805" fill="#D9D9D9"/>
  </mask>
  <g mask="url(#a)">
    <path d="m81.466 76.159-.718.169zm-9.838-3.709.488.553zm2.903 7.58.085.733zm3.637-3.312a.738.738 0 0 0-1.468-.15zm.775 10.103c.723-.781 1.811-2.248 2.582-4.126.772-1.882 1.244-4.22.659-6.704l-1.436.338c.494 2.1.105 4.116-.588 5.805-.695 1.693-1.679 3.014-2.299 3.685zm3.241-10.83c-.708-3.008-2.685-4.745-4.895-5.36-2.169-.604-4.571-.126-6.149 1.266l.976 1.106c1.163-1.027 3.035-1.436 4.777-.951 1.701.473 3.272 1.801 3.855 4.276zM71.14 71.897c-1.941 1.713-2.348 4.059-1.601 5.93.747 1.873 2.634 3.217 5.077 2.936l-.169-1.466c-1.75.202-3.026-.733-3.537-2.016-.512-1.284-.274-2.97 1.207-4.277zm3.476 8.866c1.632-.188 2.532-1.272 2.998-2.21a6 6 0 0 0 .448-1.252c.04-.167.066-.307.082-.407l.022-.157.001-.012v-.006l-.734-.075-.734-.075v-.002.002l-.002.016-.011.076c-.011.069-.03.173-.06.3a4.4 4.4 0 0 1-.334.936c-.338.681-.89 1.291-1.846 1.401z" fill="#D39C28"/>
    <path d="M61.307 50.194c-.484 4.516.003 11.606 5.645 15.321 6.612 4.354 15.111 1.121 17.417-4.838 1.935-5 0-9.031-4.677-11.128-2.792-1.251-8.386-.645-9.193 4.032-.822 4.768 3.387 6.128 5.806 5.483s3.387-3.709 2.258-5" stroke="#D39C28" stroke-width="1.476" stroke-linecap="round"/>
    <path d="m102.593 69.708.061.735zm-3.183-8.815a.738.738 0 1 0-1.375.535zm11.476-2.325c-.024 1.462-.686 3.983-2.098 6.195-1.405 2.201-3.471 3.977-6.257 4.21l.122 1.47c3.407-.284 5.829-2.459 7.378-4.886 1.542-2.417 2.3-5.201 2.329-6.964zm-8.355 10.405c-5.303.442-9.077-3.018-9.364-6.74l-1.471.113c.359 4.665 4.971 8.596 10.957 8.097zm-9.364-6.74c-.149-1.93.373-3.454 1.324-4.509.953-1.057 2.406-1.719 4.26-1.793l-.059-1.474c-2.178.087-4.032.877-5.296 2.279-1.266 1.404-1.874 3.348-1.7 5.61zm5.584-6.302c1.853-.074 3.074.482 3.781 1.253.71.774.993 1.863.785 3.042l1.453.256c.275-1.562-.086-3.134-1.15-4.296-1.067-1.164-2.749-1.817-4.927-1.73zm4.566 4.295c-.186 1.056-.99 1.758-1.835 1.924a1.75 1.75 0 0 1-1.173-.156c-.343-.183-.675-.521-.9-1.101l-1.375.535c.339.872.894 1.501 1.58 1.867.68.363 1.441.442 2.153.302 1.413-.277 2.706-1.43 3.003-3.116z" fill="#D39C28"/>
  </g>
  <path d="M192.381 186.785c2.635 2.459 2.09 5.779.984 7.009 2.09-1.23 8.517-2.014 13.402 1.476 6.025 4.304 7.009 10.206 7.009 10.206s-3.095-3.867-9.591-4.795c-6.886-.984-9.96 1.353-10.82 2.582 0 2.131-1.131 6.787-5.656 8.361s-8.197-.656-9.468-1.967c-.697 1.066-4.063 4.579-11.435 2.582-5.902-1.598-8.771-6.599-8.361-8.976-2.295-.41-7.647-2.921-6.886-9.468.615-5.287 5.041-7.828 8.73-7.623.082-2.828 4.722-8.558 13.28-8.853s12.255 5.779 13.034 8.853c1.23-.492 3.935-1.107 5.779.615" fill="#fff"/>
  <mask id="b" style="mask-type:alpha" maskUnits="userSpaceOnUse" x="616" y="721" width="254" height="145">
    <path d="M192.381 186.785c2.635 2.459 2.09 5.779.984 7.009 2.09-1.23 8.517-2.014 13.402 1.476 6.025 4.304 7.009 10.206 7.009 10.206s-3.095-3.867-9.591-4.795c-6.886-.984-9.96 1.353-10.82 2.582 0 2.131-1.131 6.787-5.656 8.361s-8.197-.656-9.468-1.967c-.697 1.066-4.063 4.579-11.435 2.582-5.902-1.598-8.771-6.599-8.361-8.976-2.295-.41-7.647-2.921-6.886-9.468.615-5.287 5.041-7.828 8.73-7.623.082-2.828 4.722-8.558 13.28-8.853s12.255 5.779 13.034 8.853c1.23-.492 3.935-1.107 5.779.615" fill="#fff"/>
  </mask>
  <g mask="url(#b)" fill="#D39C28">
    <path d="m178.978 190.104.685.274zm5.946 2.576a.738.738 0 1 0 1.387.504zm2.214-8.231c-1.156-.071-2.943.275-4.628 1.104-1.695.834-3.39 2.208-4.217 4.277l1.37.548c.648-1.62 2.007-2.767 3.498-3.5 1.502-.739 3.034-1.008 3.887-.955zm-8.845 5.381c-1.919 4.798 1.394 9.189 5.632 9.736l.189-1.463c-3.385-.437-5.974-3.916-4.451-7.725zm5.632 9.736c2.062.266 3.816-.19 5.035-1.191 1.227-1.007 1.839-2.509 1.696-4.154l-1.47.128c.103 1.184-.33 2.202-1.162 2.886-.84.69-2.16 1.094-3.91.868zm6.731-5.345c-.076-.871-.416-1.563-.928-2.06a3.2 3.2 0 0 0-1.752-.849 3.5 3.5 0 0 0-1.779.175c-.524.203-1.051.585-1.273 1.193l1.387.504c.025-.068.127-.209.418-.321a2.03 2.03 0 0 1 1.019-.094c.369.058.704.209.953.45.24.233.438.586.486 1.129zm-13.152 6.607-.548.494zm-5.57 4.756a.738.738 0 0 0-1.063 1.023zm7.152 6.166c.631-1.109 1.16-3.056 1.158-5.142-.002-2.097-.544-4.449-2.192-6.275l-1.095.989c1.325 1.468 1.81 3.418 1.812 5.288.002 1.881-.484 3.565-.965 4.41zm-1.035-11.416c-3.826-4.239-9.792-3.09-12.397.849l1.231.814c2.131-3.222 6.959-4.122 10.071-.675zm-12.397.849c-1.271 1.922-1.667 3.881-1.27 5.568.4 1.697 1.584 3.028 3.278 3.683l.533-1.376c-1.263-.489-2.092-1.446-2.375-2.646-.285-1.21-.033-2.756 1.064-4.416zm2.009 9.251c.893.346 1.733.344 2.463.082.719-.258 1.281-.751 1.671-1.308a3.83 3.83 0 0 0 .684-1.828c.053-.61-.069-1.299-.547-1.796l-1.063 1.023c.079.082.172.283.14.645a2.36 2.36 0 0 1-.422 1.11 2.04 2.04 0 0 1-.962.766c-.373.134-.846.158-1.431-.069z"/>
  </g>
  <path d="M74.296 147.563c11.699.387 13.223 14.162 11.15 19.6 1.408-1.174 6.016-.919 7.511 1.291 2.7 3.991 0 7.512 0 7.512s3.015-3.521 7.981-3.521c7.042 0 9.607 4.517 11.972 5.751 5.399 2.817 11.033 0 11.033 0s-3.404 5.751-7.629 5.751c-5.282 0-7.549-3.627-13.263-2.934-3.873.469-4.695 4.46-10.094 5.164-4.319.563-6.807-1.252-7.511-2.23-.978 2.191-5.117 6.455-13.85 5.986-8.732-.469-10.915-6.142-10.915-8.92-3.325.43-10.858-.601-11.854-8.568-1.526-12.206 10.329-12.558 10.329-12.558s.939-12.793 15.14-12.324" fill="#fff"/>
  <mask id="c" style="mask-type:alpha" maskUnits="userSpaceOnUse" x="198" y="600" width="306" height="173">
    <path d="M74.296 147.563c11.699.387 13.223 14.162 11.15 19.6 1.408-1.174 6.016-.919 7.511 1.291 2.7 3.991 0 7.512 0 7.512s3.015-3.521 7.981-3.521c7.042 0 9.607 4.517 11.972 5.751 5.399 2.817 11.033 0 11.033 0s-3.404 5.751-7.629 5.751c-5.282 0-7.549-3.627-13.263-2.934-3.873.469-4.695 4.46-10.094 5.164-4.319.563-6.807-1.252-7.511-2.23-.978 2.191-5.117 6.455-13.85 5.986-8.732-.469-10.915-6.142-10.915-8.92-3.325.43-10.858-.601-11.854-8.568-1.526-12.206 10.329-12.558 10.329-12.558s.939-12.793 15.14-12.324" fill="#D9D9D9"/>
  </mask>
  <g mask="url(#c)" stroke="#D39C28" stroke-width="1.476">
    <path d="M88.438 162.281c-.43 1.995-2.817 6.009-8.92 6.103-7.629.117-11.502-4.929-10.68-10.563s6.807-6.925 10.68-4.929 3.286 6.807 1.291 8.45-6.103.822-5.986-1.761c.094-2.065 1.839-2.034 2.699-1.761m-18.896 24.061c2.699-.43 7.958-1.056 10.563-5.399 2.465-4.108 1.643-9.976-2.934-11.619-5.01-1.799-7.042.704-7.629 3.404-.399 1.835 1.291 4.225 4.46 3.756 2.535-.376 2.347-1.917 2.347-2.699"/>
  </g>
  <path d="M101.922 128.377c2.242-3.199 2.462-6.671 1.222-9.902-1.214-3.164-3.794-6.034-7.061-8.324-3.253-2.28-8.909-5.085-14.243-6.662-2.665-.788-5.349-1.301-7.666-1.242-2.279.058-4.548.686-5.868 2.568-1.318 1.88-1.142 4.233-.43 6.405.725 2.209 2.108 4.574 3.747 6.828 3.278 4.51 7.822 8.907 11.081 11.192 3.277 2.297 6.884 3.706 10.297 3.731 3.477.025 6.683-1.398 8.922-4.593Z" fill="#FFC000" stroke="#D39C28" stroke-width="2.951"/>
  <path d="M77.773 127.18c.692 1.79 2.207 3.433 4.042 4.733 1.859 1.317 4.171 2.374 6.636 2.924 4.938 1.102 10.733.195 14.549-5.062 3.821-5.262 2.85-11.012.237-15.327a18.8 18.8 0 0 0-4.873-5.346c-1.812-1.328-3.839-2.251-5.737-2.367-.508-.031-.971.111-1.327.266a6 6 0 0 0-1.085.63c-.696.493-1.453 1.177-2.222 1.959-1.544 1.572-3.272 3.684-4.856 5.866-1.583 2.182-3.056 4.481-4.073 6.437-.506.974-.923 1.906-1.177 2.721a6.2 6.2 0 0 0-.265 1.225c-.038.385-.032.868.151 1.34Z" fill="#fff" stroke="#CCC" stroke-width="2.951"/>
  <path d="M141.397 129.26c2.23 3.208 5.413 4.611 8.874 4.56 3.388-.049 6.972-1.481 10.248-3.759 3.261-2.267 7.844-6.61 11.164-11.073 1.659-2.23 3.065-4.573 3.809-6.768.731-2.159.924-4.506-.388-6.394-1.31-1.885-3.58-2.531-5.864-2.611-2.324-.081-5.02.402-7.701 1.163-5.363 1.523-11.058 4.272-14.325 6.544-3.286 2.285-5.853 5.185-7.052 8.379-1.222 3.256-.991 6.755 1.236 9.959Z" fill="#FFC000" stroke="#D39C28" stroke-width="2.951"/>
  <path d="M150.845 107.003c-1.919.032-3.983.888-5.837 2.163-1.877 1.291-3.666 3.097-5.032 5.221-2.737 4.255-3.883 10.008-.264 15.402 3.623 5.401 9.355 6.472 14.305 5.506a18.8 18.8 0 0 0 6.698-2.731c1.871-1.243 3.436-2.828 4.2-4.57.204-.466.23-.949.208-1.337a6 6 0 0 0-.217-1.235c-.223-.824-.604-1.77-1.073-2.761-.943-1.991-2.331-4.342-3.833-6.58s-3.153-4.413-4.638-6.043c-.739-.811-1.471-1.523-2.148-2.043a6.2 6.2 0 0 0-1.058-.671c-.349-.168-.803-.329-1.31-.321Z" fill="#fff" stroke="#CCC" stroke-width="2.951"/>
  <path d="M154.965 143.877c0 14.519-14.478 22.94-32.338 22.94s-32.338-8.421-32.338-22.94c0-25.08 14.478-42.228 32.338-42.228s32.338 19.423 32.338 42.228Z" fill="#fff" stroke="#CCC" stroke-width="2.951"/>
  <path d="M98.06 137.328a.994.994 0 0 1-1.164.882l-7.223-1.305a.973.973 0 0 1-.8-1.054c.235-2.328.938-8.813 2.013-14.761s2.687-12.269 3.281-14.532a.97.97 0 0 1 1.118-.707l7.223 1.305a.994.994 0 0 1 .782 1.234c-.612 2.292-2.093 8.076-3.229 14.358-1.135 6.282-1.771 12.219-2.001 14.58Zm42.551-28.879a.994.994 0 0 1 .772-1.24l7.213-1.362a.973.973 0 0 1 1.124.698c.612 2.258 2.274 8.566 3.396 14.505s1.876 12.419 2.129 14.744a.97.97 0 0 1-.792 1.06l-7.213 1.362a.993.993 0 0 1-1.171-.873c-.248-2.36-.931-8.291-2.116-14.564s-2.712-12.045-3.342-14.332Z" fill="#45566A" stroke="#394457" stroke-width="2.951"/>
  <path d="M122.07 168.18c9.147 0 17.547-2.147 23.709-6.263 6.202-4.143 10.137-10.298 10.137-18.111 0-5.736-.695-9.706-2.318-12.289-1.734-2.759-4.353-3.695-7.381-3.803-2.573-.092-5.667.407-9.067.955l-1.356.217c-4.007.635-8.573 1.282-13.724 1.282-5.125 0-9.67-.781-13.662-1.591q-1.053-.214-2.074-.43c-3.102-.65-5.95-1.247-8.334-1.286-1.492-.024-2.93.162-4.229.751-1.325.601-2.409 1.579-3.245 2.973-1.611 2.687-2.302 6.937-2.302 13.221 0 7.813 3.935 13.968 10.137 18.111 6.162 4.116 14.562 6.263 23.709 6.263Z" fill="#45566A" stroke="#394457" stroke-width="2.951"/>
  <path d="m94.4 135.844-.567-.337a.98.98 0 0 0 .008 1.018l.616-.379-.616.379q.664 1.077 1.329 2.149a.98.98 0 0 0 .833.465l2.611.008a.98.98 0 0 0 .856-.494l-.64-.367.64.367q.616-1.071 1.228-2.15a.98.98 0 0 0-.024-1.008 289 289 0 0 1-1.332-2.136l-.611.377.611-.377a.98.98 0 0 0-.843-.467q-1.282.007-2.567.008a.98.98 0 0 0-.847.484l.636.374-.636-.374-.322.547q-.464.79-.93 1.576zm0 0 .014.008zm49.965 0-.567-.337a.98.98 0 0 0 .008 1.018l.616-.379-.616.379q.664 1.077 1.329 2.149a.98.98 0 0 0 .833.465l2.612.008a.98.98 0 0 0 .856-.494l-.64-.367.64.367q.616-1.071 1.228-2.15a.98.98 0 0 0-.024-1.008 289 289 0 0 1-1.332-2.136l-.611.377.611-.377a.98.98 0 0 0-.843-.467q-1.282.007-2.567.008a.98.98 0 0 0-.847.484l.636.374-.636-.374-.322.547q-.464.79-.931 1.576zm0 0 .014.008z" fill="#fff" stroke="#CCC" stroke-width="1.476"/>
  <path d="M120.099 149.849h-4.447a.61.61 0 0 1-.528-.304l-2.221-3.845a.6.6 0 0 1 0-.608l2.221-3.845a.61.61 0 0 1 .528-.304h4.447c.219 0 .418.118.528.304l2.221 3.845a.6.6 0 0 1 0 .608l-2.221 3.845a.61.61 0 0 1-.528.304m-4.093-1.217h3.74l1.872-3.236-1.872-3.236h-3.74l-1.872 3.236z" fill="#4CB4FA"/>
  <path d="M126.767 146.024h-4.447a.61.61 0 0 1-.528-.304l-2.221-3.844a.6.6 0 0 1 0-.608l2.221-3.844a.61.61 0 0 1 .528-.304h4.447c.219 0 .418.118.528.304l2.221 3.844a.6.6 0 0 1 0 .608l-2.221 3.844a.6.6 0 0 1-.528.304m-4.093-1.217h3.74l1.872-3.236-1.872-3.236h-3.741l-1.872 3.236z" fill="#FFC000"/>
  <path d="M126.767 153.688h-4.447a.61.61 0 0 1-.528-.304l-2.221-3.844a.6.6 0 0 1 0-.608l2.221-3.844a.61.61 0 0 1 .528-.304h4.447c.219 0 .418.118.528.304l2.221 3.844a.6.6 0 0 1 0 .608l-2.221 3.844a.6.6 0 0 1-.528.304m-4.093-1.217h3.74l1.872-3.236-1.872-3.236h-3.741l-1.872 3.236z" fill="#fff"/>
  <path d="M106.332 153.512c-3.762-1.008-7.487-.677-10.496 1.273-3.017 1.956-5.081 5.388-5.82 10.115-.539 3.453.413 7.438 1.978 10.658.79 1.626 1.766 3.119 2.855 4.299 1.072 1.163 2.347 2.123 3.753 2.5 1.389.372 2.909.211 4.363-.233 1.467-.447 2.968-1.212 4.386-2.177 2.82-1.921 5.481-4.758 6.959-7.868 2.01-4.228 2.029-8.354.467-11.726-1.556-3.359-4.611-5.813-8.446-6.841Z" fill="#FFC000" stroke="#D39C28" stroke-width="2.951"/>
  <path d="M87.318 163.61c1.535-14.99 7.509-15.162 18.555-12.203s17.629 6.224 10.879 20.09c-2.742 5.633-11.384 2.959-16.675 1.541s-13.39-3.268-12.759-9.428" fill="#45566A"/>
  <path d="M118.264 167.596c-.357.912-1.013 2.877-1.511 3.901-2.742 5.633-11.384 2.959-16.675 1.541s-13.39-3.268-12.759-9.428c.513-5.015 1.524-8.372 3.055-10.507" stroke="#394457" stroke-width="2.951" stroke-linecap="round"/>
  <path d="M115.608 171.547a.99.99 0 0 1 .648 1.462l-1.75 3.037a.97.97 0 0 1-1.04.471 236 236 0 0 1-12.422-2.944c-5.491-1.471-10.767-3.159-12.663-3.777a.974.974 0 0 1-.665-1.021l.321-3.428a.992.992 0 0 1 1.291-.849c2.255.725 7.468 2.363 13.109 3.874a293 293 0 0 0 13.171 3.174Z" fill="#fff" stroke="#CCC" stroke-width="2.951"/>
  <path d="M141.141 153.41c3.811-1.021 7.579-.726 10.619 1.178 3.056 1.915 5.137 5.308 5.853 9.998.524 3.43-.479 7.389-2.094 10.586-.816 1.616-1.818 3.099-2.931 4.273-1.097 1.158-2.391 2.108-3.805 2.486-2.729.731-6.057-.486-8.835-2.317-2.851-1.88-5.539-4.671-7.023-7.749-2.018-4.186-2.005-8.287-.389-11.641 1.607-3.336 4.721-5.775 8.604-6.816Z" fill="#FFC000" stroke="#D39C28" stroke-width="2.951"/>
  <path d="M160.39 163.275c-1.445-14.823-7.514-14.948-18.762-11.934s-17.962 6.295-11.209 19.965c2.744 5.554 11.545 2.841 16.933 1.397s13.632-3.336 13.038-9.428" fill="#45566A"/>
  <path d="M154.413 150.995c3.074 2.828 5.416 6.523 5.977 12.28.594 6.092-7.65 7.984-13.038 9.428s-14.19 4.157-16.933-1.397c-.658-1.332-1.048-2.69-1.459-3.834" stroke="#394457" stroke-width="2.951" stroke-linecap="round"/>
  <path d="M131.567 171.35a.99.99 0 0 0-.642 1.468l1.739 2.962a.97.97 0 0 0 1.039.464 249 249 0 0 0 12.662-3.012c5.607-1.502 10.995-3.218 12.912-3.839a.974.974 0 0 0 .668-1.016l-.297-3.357a.99.99 0 0 0-1.289-.855c-2.287.732-7.61 2.397-13.369 3.94a308 308 0 0 1-13.424 3.246Z" fill="#fff" stroke="#CCC" stroke-width="2.951"/>
  <path d="M121.458 122.221c7.805 0 13.866-2.165 18.177-5.77s6.758-8.553 7.501-13.906c.523-3.766-.124-8.835-1.469-14.208-1.354-5.411-3.455-11.277-5.958-16.697-2.5-5.411-5.429-10.439-8.467-14.141-1.518-1.851-3.098-3.412-4.703-4.522-1.598-1.105-3.317-1.826-5.081-1.826-1.745 0-3.447.678-5.037 1.736-1.594 1.061-3.157 2.557-4.656 4.338-2.998 3.562-5.873 8.422-8.326 13.722-2.457 5.309-4.518 11.121-5.863 16.62-1.339 5.476-1.993 10.743-1.556 14.929.578 5.541 2.965 10.513 7.271 14.087 4.299 3.568 10.379 5.638 18.167 5.638Z" fill="#FFC000" stroke="#D39C28" stroke-width="2.951"/>
  <path d="M105.275 102.486c3.247 0 5.879-1.807 5.879-4.037s-2.632-4.037-5.879-4.037-5.879 1.807-5.879 4.037 2.632 4.037 5.879 4.037m32.52 0c3.247 0 5.879-1.807 5.879-4.037s-2.632-4.037-5.879-4.037-5.879 1.807-5.879 4.037 2.632 4.037 5.879 4.037" fill="#E4A92D"/>
  <path d="M130.262 94.138c3.044 0 5.512-2.711 5.512-6.055s-2.468-6.055-5.512-6.055-5.512 2.711-5.512 6.055 2.468 6.055 5.512 6.055" fill="#fff"/>
  <path d="M130.262 95.055c-3.546 0-6.43-3.127-6.43-6.972s2.885-6.972 6.43-6.972 6.431 3.127 6.431 6.972-2.885 6.972-6.431 6.972m0-12.11c-2.532 0-4.593 2.304-4.593 5.138s2.062 5.138 4.593 5.138 4.593-2.305 4.593-5.138-2.061-5.138-4.593-5.138" fill="#534741"/>
  <path d="M130.365 94.38c2.379 0 4.307-2.054 4.307-4.587s-1.928-4.587-4.307-4.587-4.307 2.054-4.307 4.587 1.928 4.587 4.307 4.587" fill="#534741"/>
  <path d="M129.795 88.156c.71 0 1.286-.455 1.286-1.017s-.576-1.016-1.286-1.016-1.286.455-1.286 1.016.576 1.017 1.286 1.017" fill="#fff"/>
  <path d="M134.623 77.469c-2.09-1.599-5.366-2.656-8.361-2.435m-18.936 2.428c1.713-1.352 5.287-2.457 7.869-2.457" stroke="#534741" stroke-width="1.967" stroke-linecap="round"/>
  <path d="M106.46 90.006s1.353-2.582 4.918-2.582 4.918 2.582 4.918 2.582" stroke="#534741" stroke-width="2.951" stroke-linecap="round"/>
  <path d="M132.126 103.93c.036 2.339-.965 4.291-2.65 6.189-1.77 1.993-4.438 3.388-7.901 3.441-3.811.059-6.09-1.116-8.18-3.195-1.672-1.663-2.741-3.298-2.782-5.983-.009-.615.594-1.362 1.338-.989 1.497.842 4.4 2.377 9.504 2.299 4.864-.075 7.929-1.597 8.941-2.351s1.721-.027 1.731.588" fill="#534741"/>
  <path d="m102.836 67.545 18.526-32.077 18.526 32.077s-7.916 4.066-18.526 4.066-18.526-4.066-18.526-4.066" fill="#4CB4FA"/>
  <mask id="d" style="mask-type:alpha" maskUnits="userSpaceOnUse" x="418" y="144" width="151" height="148">
    <path d="m102.836 67.545 18.526-32.077 18.526 32.077s-7.916 4.066-18.526 4.066-18.526-4.066-18.526-4.066" fill="#4CB4FA"/>
  </mask>
  <g mask="url(#d)" fill="#F54F47">
    <path d="m95.457 63.935 42.462-24.516 1.503 2.604L96.96 66.539zm-3.122-5.408 42.462-24.516 1.619 2.804-42.462 24.516zm6.129 10.616 42.462-24.516 1.503 2.604-42.462 24.516zm3.006 5.207 42.462-24.516 1.504 2.604-42.462 24.516zm3.007 5.208 42.462-24.516 1.503 2.604-42.462 24.516z"/>
  </g>
  <path d="M120.217 27.789h1.824v15.958h-1.824z" fill="#F54F47"/>
  <path d="M129.108 34.856v1.824H113.15v-1.824z" fill="#F54F47"/>
  <path d="m127.583 30.987.912 1.58-13.82 7.979-.912-1.58z" fill="#F54F47"/>
  <path d="m125.908 42.222-1.58.912-7.979-13.82 1.579-.912z" fill="#F54F47"/>
  <path d="m124.328 28.401 1.579.912-7.979 13.82-1.58-.912z" fill="#F54F47"/>
  <path d="m128.495 38.968-.912 1.58-13.82-7.979.912-1.579z" fill="#F54F47"/>
  <path d="M40.33 36.396a2 2 0 0 1-.359 1.165 2 2 0 0 1-.961.739l-6.56 2.438-2.413 6.628a2.03 2.03 0 0 1-.737.961 2 2 0 0 1-1.148.364 2 2 0 0 1-1.148-.364 2.03 2.03 0 0 1-.737-.961l-2.413-6.628-6.56-2.438a2 2 0 0 1-.951-.745 2.04 2.04 0 0 1-.358-1.159c0-.415.125-.82.36-1.16a2 2 0 0 1 .951-.745l6.56-2.438 2.413-6.628a2.03 2.03 0 0 1 .737-.961 2 2 0 0 1 2.296 0 2.03 2.03 0 0 1 .737.961l2.413 6.628 6.56 2.438a2 2 0 0 1 .961.739 2 2 0 0 1 .357 1.166m6.886 27.665a1.02 1.02 0 0 1-.68.971l-3.379 1.243-1.243 3.381a1.036 1.036 0 0 1-1.942 0l-1.243-3.381-3.379-1.243a1.035 1.035 0 0 1-.676-.971 1.04 1.04 0 0 1 .675-.971l3.379-1.243 1.243-3.381a1.036 1.036 0 0 1 1.942 0l1.243 3.381 3.379 1.243a1.02 1.02 0 0 1 .681.971m-2.951 148.535a1.02 1.02 0 0 1-.68.971l-3.379 1.243-1.243 3.381a1.036 1.036 0 0 1-1.942 0l-1.243-3.381-3.379-1.243a1.035 1.035 0 0 1-.676-.971 1.04 1.04 0 0 1 .675-.971l3.379-1.243 1.243-3.381a1.036 1.036 0 0 1 1.942 0l1.243 3.381 3.379 1.243a1.02 1.02 0 0 1 .681.971m190.094-174.11a1.02 1.02 0 0 1-.68.971L230.3 40.7l-1.243 3.381a1.036 1.036 0 0 1-1.942 0l-1.243-3.381-3.379-1.243a1.035 1.035 0 0 1-.676-.971 1.04 1.04 0 0 1 .675-.971l3.379-1.243 1.243-3.381a1.036 1.036 0 0 1 1.942 0l1.243 3.381 3.379 1.243a1.02 1.02 0 0 1 .681.971" fill="#fff"/>
  <path fill="#4CB4FA" d="M58.774 34.06a4.55 4.55 0 0 1-4.549 4.549 4.55 4.55 0 0 1-4.55-4.549 4.549 4.549 0 0 1 9.099 0"/>
  <path fill="#FD7BAC" d="M21.149 4.549a4.55 4.55 0 0 1-4.55 4.55 4.55 4.55 0 0 1-4.549-4.55 4.549 4.549 0 0 1 9.099 0"/>
  <path fill="#FF9C42" d="M21.149 72.915a4.55 4.55 0 0 1-4.55 4.549 4.55 4.55 0 0 1-4.549-4.549 4.549 4.549 0 0 1 9.099 0"/>
  <path fill="#34A976" d="M41.56 185.299a4.55 4.55 0 0 1-4.549 4.549 4.55 4.55 0 0 1-4.55-4.549 4.549 4.549 0 0 1 9.099 0"/>
  <path fill="#FF9C42" d="M226.49 183.823a4.55 4.55 0 0 1-4.55 4.55 4.55 4.55 0 0 1-4.549-4.55 4.549 4.549 0 0 1 9.099 0"/>
  <path fill="#FD7BAC" d="M240.999 208.169a4.55 4.55 0 0 1-4.549 4.55 4.55 4.55 0 0 1-4.55-4.55 4.549 4.549 0 0 1 9.099 0"/>
  <path fill="#B572ED" d="M21.149 208.169a4.55 4.55 0 0 1-4.55 4.55 4.55 4.55 0 0 1-4.549-4.55 4.549 4.549 0 0 1 9.099 0"/>
  <path fill="#4CB4FA" d="M245.671 63.816a4.55 4.55 0 0 1-4.549 4.549 4.55 4.55 0 0 1-4.549-4.549 4.549 4.549 0 0 1 9.098 0"/>
  <path fill="#B572ED" d="M207.554 18.567a4.55 4.55 0 0 1-4.549 4.549 4.55 4.55 0 0 1-4.55-4.549 4.549 4.549 0 0 1 9.099 0"/>
  <path fill="#34A976" d="M233.867 4.549a4.55 4.55 0 0 1-4.549 4.55 4.55 4.55 0 0 1-4.55-4.55 4.549 4.549 0 0 1 9.099 0"/>
  <path fill="#EC1A09" d="M23.854 153.698h6.886v17.706h-6.886z"/>
  <path fill="#FFC000" d="M23.854 153.698h6.886v3.935h-6.886z"/>
  <path fill="#FFEBB2" d="M24.95 165.256h.939v6.148h-.939zm1.877 0h1.096v6.148h-1.096zm2.035 0h.939v6.148h-.939z"/>
  <path fill="#EC1A09" d="M26.313 142.386h1.722v11.312h-1.722z"/>
  <path fill="#FFC000" d="M15.247 94.186h23.362v6.148H15.247z"/>
  <path fill="#EC1A09" d="M15.247 96.154h23.362v1.967H15.247z"/>
  <path fill="#FFC000" d="M15.247 137.96h23.362v4.426H15.247z"/>
  <path fill="#F54F47" d="M53.61 118.778a26.805 21.641 0 0 1-26.805 21.641A26.805 21.641 0 0 1 0 118.778a26.805 21.641 0 0 1 53.61 0"/>
  <path d="M29.992 110.419c0 3.125-3.3 5.658-3.3 5.658s-3.301-2.533-3.301-5.658 3.301-5.658 3.301-5.658 3.3 2.533 3.3 5.658m0 16.817c0 3.125-3.3 5.658-3.3 5.658s-3.301-2.533-3.301-5.658 3.301-5.658 3.301-5.658 3.3 2.533 3.3 5.658m5.632-9.754c-2.706 1.562-6.551-.029-6.551-.029s.543-4.125 3.25-5.688 6.551.029 6.551.029-.543 4.125-3.25 5.688m-14.564 8.409c-2.707 1.562-6.551-.03-6.551-.03s.543-4.125 3.25-5.688 6.551.029 6.551.029-.543 4.125-3.25 5.688m11.263.001c-2.706-1.562-3.25-5.688-3.25-5.688s3.844-1.592 6.551-.029c2.706 1.563 3.25 5.688 3.25 5.688s-3.844 1.592-6.551.029m-14.564-8.409c-2.706-1.563-3.25-5.688-3.25-5.688s3.844-1.592 6.551-.029c2.706 1.562 3.25 5.688 3.25 5.688s-3.844 1.592-6.551.029" fill="#fff"/>
  <path fill="#EC1A09" d="M187.635 97.137h6.886v17.706h-6.886z"/>
  <path fill="#FFC000" d="M187.635 97.137h6.886v3.935h-6.886z"/>
  <path fill="#FFEBB2" d="M188.731 108.695h.938v6.148h-.938zm1.877 0h1.096v6.148h-1.096zm2.035 0h.939v6.148h-.939z"/>
  <path fill="#EC1A09" d="M190.094 85.825h1.722v11.312h-1.722z"/>
  <path fill="#FFC000" d="M179.028 37.625h23.362v6.148h-23.362z"/>
  <path fill="#EC1A09" d="M179.028 39.593h23.362v1.967h-23.362z"/>
  <path fill="#FFC000" d="M179.028 81.399h23.362v4.426h-23.362z"/>
  <path fill="#F54F47" d="M217.391 62.217a26.805 21.641 0 0 1-26.805 21.641 26.805 21.641 0 0 1-26.805-21.641 26.805 21.641 0 0 1 53.61 0"/>
  <path d="M193.773 53.858c0 3.125-3.3 5.658-3.3 5.658s-3.301-2.533-3.301-5.658 3.301-5.658 3.301-5.658 3.3 2.533 3.3 5.658m0 16.817c0 3.125-3.3 5.658-3.3 5.658s-3.301-2.533-3.301-5.658 3.301-5.658 3.301-5.658 3.3 2.533 3.3 5.658m5.632-9.754c-2.706 1.562-6.551-.029-6.551-.029s.543-4.125 3.25-5.688 6.551.029 6.551.029-.543 4.125-3.25 5.688m-14.564 8.409c-2.706 1.563-6.551-.029-6.551-.029s.543-4.125 3.25-5.688 6.551.029 6.551.029-.543 4.125-3.25 5.688m11.263 0c-2.706-1.562-3.25-5.688-3.25-5.688s3.844-1.592 6.551-.029c2.706 1.563 3.25 5.688 3.25 5.688s-3.844 1.592-6.551.029m-14.564-8.409c-2.706-1.563-3.25-5.688-3.25-5.688s3.844-1.592 6.551-.029c2.706 1.562 3.25 5.688 3.25 5.688s-3.844 1.592-6.551.029" fill="#fff"/>
  <path fill="#EC1A09" d="M226.244 147.55h6.886v17.706h-6.886z"/>
  <path fill="#FFC000" d="M226.244 147.55h6.886v3.935h-6.886z"/>
  <path fill="#FFEBB2" d="M227.34 159.109h.939v6.147h-.939zm1.877 0h1.096v6.147h-1.096zm2.035 0h.939v6.147h-.939z"/>
  <path fill="#EC1A09" d="M228.703 136.238h1.722v11.312h-1.722z"/>
  <path fill="#FFC000" d="M217.637 88.038h23.362v6.148h-23.362z"/>
  <path fill="#EC1A09" d="M217.637 90.006h23.362v1.967h-23.362z"/>
  <path fill="#FFC000" d="M217.637 131.812h23.362v4.426h-23.362z"/>
  <path fill="#F54F47" d="M256 112.63a26.805 21.641 0 0 1-26.805 21.641 26.805 21.641 0 0 1-26.805-21.641 26.805 21.641 0 0 1 53.61 0"/>
  <path d="M232.382 104.271c0 3.125-3.3 5.658-3.3 5.658s-3.301-2.533-3.301-5.658 3.301-5.658 3.301-5.658 3.3 2.533 3.3 5.658m0 16.817c0 3.125-3.3 5.658-3.3 5.658s-3.301-2.533-3.301-5.658 3.301-5.658 3.301-5.658 3.3 2.533 3.3 5.658m5.632-9.754c-2.706 1.562-6.551-.029-6.551-.029s.543-4.125 3.25-5.688 6.551.029 6.551.029-.543 4.125-3.25 5.688m-14.564 8.409c-2.706 1.563-6.551-.029-6.551-.029s.543-4.125 3.25-5.688 6.551.029 6.551.029-.543 4.125-3.25 5.688m11.263 0c-2.706-1.562-3.25-5.688-3.25-5.688s3.844-1.592 6.551-.029c2.706 1.563 3.25 5.688 3.25 5.688s-3.844 1.592-6.551.029m-14.564-8.409c-2.706-1.563-3.25-5.688-3.25-5.688s3.844-1.592 6.551-.029c2.706 1.562 3.25 5.688 3.25 5.688s-3.844 1.592-6.551.029" fill="#fff"/>
</svg>
