<svg width="256" height="224.615" viewBox="0 0 256 224.615" fill="none" xmlns="http://www.w3.org/2000/svg">
  <path d="M106.383 126.303c-4.618-2.608-9.395-2.388-13.686-.232-4.208 2.114-7.9 6.053-10.74 10.867-2.83 4.798-6.164 12.993-7.834 20.565-.834 3.782-1.282 7.534-.982 10.69.294 3.097 1.363 6.084 4.052 7.602 2.685 1.516 5.872.939 8.775-.349 2.959-1.312 6.079-3.554 9.034-6.139 5.913-5.174 11.55-12.074 14.384-16.88 2.847-4.828 4.433-9.96 4.144-14.611-.293-4.733-2.537-8.909-7.149-11.513Z" fill="#FFC000" stroke="#D39C28" stroke-width="3.692"/>
  <path d="M106.759 158.699c2.232-1.303 4.197-3.663 5.692-6.397a27.5 27.5 0 0 0 3.082-9.5c.885-6.801-.925-14.427-8.393-18.418-7.476-3.994-14.972-1.327-20.305 3.103-2.677 2.223-4.902 4.952-6.455 7.693-1.534 2.709-2.5 5.591-2.439 8.109.015.645.243 1.216.491 1.666.255.462.592.907.961 1.324.737.832 1.735 1.703 2.864 2.566 2.269 1.733 5.276 3.591 8.357 5.236s6.306 3.115 9.026 4.047c1.354.464 2.644.816 3.759.975.559.08 1.123.118 1.659.081.521-.037 1.135-.155 1.7-.484Z" fill="#fff" stroke="#CCC" stroke-width="3.692"/>
  <path d="M159.872 127.146c-4.567 2.695-6.766 6.942-7.044 11.736-.273 4.701 1.292 9.868 4.042 14.734 2.741 4.85 8.17 11.835 13.893 17.067 2.858 2.614 5.884 4.877 8.766 6.195 2.829 1.294 5.95 1.861 8.61.292 2.656-1.567 3.749-4.616 4.085-7.774.343-3.218-.038-7.042-.799-10.893-1.525-7.708-4.682-16.039-7.426-20.897-2.758-4.88-6.41-8.819-10.581-10.894-4.245-2.112-8.983-2.257-13.545.435Z" fill="#FFC000" stroke="#D39C28" stroke-width="3.692"/>
  <path d="M188.117 143.02c-.012-2.585-1.074-5.466-2.694-8.128a27.6 27.6 0 0 0-6.686-7.42c-5.447-4.167-12.957-6.413-20.146-1.94-7.197 4.477-8.635 12.303-7.465 19.136.587 3.43 1.837 6.722 3.434 9.437 1.579 2.684 3.592 4.961 5.803 6.167.566.309 1.175.398 1.688.408a7.5 7.5 0 0 0 1.627-.17c1.09-.222 2.342-.651 3.654-1.198 2.635-1.098 5.748-2.773 8.713-4.619s5.851-3.904 8.018-5.794c1.079-.941 2.028-1.882 2.724-2.768.348-.444.664-.913.899-1.396.228-.47.434-1.061.431-1.714Z" fill="#fff" stroke="#CCC" stroke-width="3.692"/>
  <path d="M171.042 179.06c-4.702 17.547-24.927 23.036-46.512 17.253s-36.355-20.651-31.653-38.197c8.122-30.311 31.173-46.346 52.758-40.563 21.585 5.784 32.793 33.946 25.408 61.508Z" fill="#fff" stroke="#CCC" stroke-width="3.692"/>
  <path d="M111.266 181.111c-4.707-1.261-9.367-.847-13.132 1.593-3.775 2.447-6.358 6.741-7.282 12.656-.674 4.321.517 9.306 2.475 13.335.989 2.034 2.21 3.902 3.572 5.379 1.342 1.455 2.936 2.656 4.696 3.127 1.738.466 3.64.263 5.459-.291 1.835-.56 3.714-1.516 5.487-2.724 3.529-2.403 6.858-5.954 8.707-9.845 2.514-5.29 2.539-10.453.585-14.671-1.947-4.203-5.769-7.273-10.568-8.559Zm40.799.353c4.769-1.278 9.484-.909 13.286 1.474 3.823 2.396 6.427 6.642 7.323 12.51.656 4.291-.599 9.244-2.619 13.245-1.021 2.022-2.275 3.878-3.667 5.347-1.373 1.449-2.991 2.637-4.761 3.111-3.415.915-7.579-.608-11.054-2.899-3.567-2.352-6.93-5.844-8.787-9.695-2.525-5.238-2.508-10.368-.486-14.566 2.01-4.174 5.907-7.226 10.766-8.527Z" fill="#FFC000" stroke="#D39C28" stroke-width="3.692"/>
  <path d="M102.974 161.005a1.243 1.243 0 0 1-1.456 1.103l-9.038-1.633a1.22 1.22 0 0 1-1.001-1.319c.294-2.913 1.174-11.027 2.518-18.469s3.362-15.35 4.105-18.182a1.216 1.216 0 0 1 1.399-.885l9.037 1.633a1.24 1.24 0 0 1 .978 1.543c-.766 2.869-2.619 10.105-4.04 17.965-1.421 7.861-2.216 15.288-2.503 18.243Zm53.241-36.135a1.24 1.24 0 0 1 .966-1.551l9.024-1.705a1.217 1.217 0 0 1 1.406.874c.766 2.826 2.845 10.718 4.249 18.149s2.347 15.538 2.664 18.449a1.216 1.216 0 0 1-.99 1.326l-9.024 1.705a1.24 1.24 0 0 1-1.465-1.092c-.31-2.953-1.165-10.373-2.648-18.222s-3.394-15.07-4.182-17.933Z" fill="#45566A" stroke="#394457" stroke-width="3.692"/>
  <path d="M133.017 199.607c11.445 0 21.955-2.686 29.665-7.836 7.76-5.184 12.683-12.884 12.683-22.66 0-7.176-.87-12.144-2.9-15.375-2.169-3.452-5.446-4.623-9.235-4.758-3.219-.115-7.09.509-11.344 1.194l-1.696.272c-5.014.795-10.726 1.605-17.172 1.605-6.412 0-12.099-.978-17.094-1.99-.878-.178-1.744-.36-2.595-.538-3.882-.814-7.444-1.561-10.427-1.609-1.867-.03-3.666.202-5.291.939-1.658.753-3.015 1.976-4.06 3.72-2.015 3.362-2.88 8.679-2.88 16.541 0 9.776 4.923 17.477 12.683 22.66 7.71 5.15 18.22 7.836 29.664 7.836Z" fill="#45566A" stroke="#394457" stroke-width="3.692"/>
  <path d="m98.395 159.147-.709-.421a1.23 1.23 0 0 0 .01 1.274l.771-.474-.771.474q.83 1.348 1.663 2.689a1.23 1.23 0 0 0 1.042.582l3.268.01a1.23 1.23 0 0 0 1.071-.618l-.8-.459.8.459a471 471 0 0 0 1.537-2.69 1.23 1.23 0 0 0-.03-1.262 373 373 0 0 1-1.667-2.673l-.764.472.764-.472a1.23 1.23 0 0 0-1.054-.584q-1.604.009-3.212.01a1.23 1.23 0 0 0-1.06.606l.795.468-.795-.468-.403.685q-.58.988-1.164 1.972zm0 0 .017.01zm62.517 0-.709-.421a1.23 1.23 0 0 0 .01 1.274l.771-.474-.771.474q.83 1.348 1.663 2.689a1.23 1.23 0 0 0 1.042.582l3.268.01a1.23 1.23 0 0 0 1.071-.618l-.801-.459.801.459a573 573 0 0 0 1.537-2.69 1.23 1.23 0 0 0-.03-1.262q-.84-1.334-1.667-2.673l-.764.472.764-.472a1.23 1.23 0 0 0-1.054-.584q-1.604.009-3.212.01a1.23 1.23 0 0 0-1.06.606l.795.468-.795-.468-.403.685q-.58.988-1.164 1.972zm0 0 .017.01z" fill="#fff" stroke="#CCC" stroke-width="1.846"/>
  <path d="m125.839 179.388-5.374-1.44a.77.77 0 0 1-.539-.538l-1.44-5.366a.75.75 0 0 1 .197-.735l3.93-3.927a.77.77 0 0 1 .737-.197l5.374 1.44a.77.77 0 0 1 .54.538l1.439 5.366a.75.75 0 0 1-.197.735l-3.93 3.927a.76.76 0 0 1-.737.197m-4.553-2.796 4.52 1.211 3.31-3.305-1.214-4.517-4.52-1.211-3.31 3.305z" fill="#4CB4FA"/>
  <path d="m135.136 176.925-5.374-1.44a.77.77 0 0 1-.54-.538l-1.439-5.366a.75.75 0 0 1 .197-.735l3.93-3.927a.77.77 0 0 1 .737-.197l5.374 1.44a.77.77 0 0 1 .54.538l1.439 5.366a.75.75 0 0 1-.197.735l-3.93 3.927a.76.76 0 0 1-.737.197m-4.553-2.796 4.52 1.211 3.31-3.305-1.214-4.517-4.52-1.211-3.31 3.305z" fill="#FFC000"/>
  <path d="m132.654 186.187-5.374-1.44a.77.77 0 0 1-.539-.539l-1.439-5.366a.75.75 0 0 1 .197-.735l3.93-3.927a.77.77 0 0 1 .736-.197l5.374 1.44a.77.77 0 0 1 .539.538l1.44 5.366a.76.76 0 0 1-.197.735l-3.929 3.927a.76.76 0 0 1-.737.197m-4.553-2.796 4.52 1.211 3.31-3.305-1.214-4.518-4.52-1.211-3.31 3.305z" fill="#fff"/>
  <path d="M87.475 193.745c1.921-18.755 9.395-18.971 23.216-15.268s22.058 7.788 13.612 25.136c-3.431 7.048-14.243 3.702-20.864 1.928s-16.753-4.088-15.964-11.796" fill="#45566A"/>
  <path d="M93.845 177.83c-3.089 2.308-5.522 7.624-6.371 15.916-.79 7.708 9.343 10.022 15.964 11.796s17.433 5.12 20.864-1.928c.766-1.572 1.506-3.651 2.006-5.015" stroke="#394457" stroke-width="3.692" stroke-linecap="round"/>
  <path d="M122.871 203.677c.82.177 1.23 1.102.811 1.829l-2.19 3.799a1.215 1.215 0 0 1-1.302.589 295 295 0 0 1-15.542-3.683c-6.87-1.841-13.472-3.953-15.843-4.726a1.22 1.22 0 0 1-.833-1.277l.402-4.289a1.24 1.24 0 0 1 1.615-1.062c2.822.907 9.344 2.956 16.402 4.847 6.94 1.86 13.508 3.328 16.48 3.971Z" fill="#fff" stroke="#CCC" stroke-width="3.692"/>
  <path d="M176.15 193.808c-1.808-18.547-9.402-18.703-23.474-14.932s-22.474 7.876-14.025 24.98c3.433 6.949 14.446 3.554 21.187 1.748s17.056-4.174 16.313-11.796" fill="#45566A"/>
  <path d="M136.923 198.595c.431 1.076 1.138 4.061 1.731 5.26 3.433 6.949 14.446 3.554 21.187 1.748s17.056-4.174 16.313-11.796c-.599-6.142-2.102-10.422-3.996-13.055" stroke="#394457" stroke-width="3.692" stroke-linecap="round"/>
  <path d="M140.086 203.911a1.24 1.24 0 0 0-.804 1.837l2.176 3.706a1.22 1.22 0 0 0 1.3.58c2.278-.477 8.8-1.882 15.843-3.769 7.015-1.88 13.757-4.026 16.156-4.804a1.22 1.22 0 0 0 .835-1.271l-.371-4.2a1.24 1.24 0 0 0-1.613-1.069c-2.862.915-9.522 2.998-16.727 4.929-7.082 1.898-13.78 3.404-16.796 4.061Z" fill="#fff" stroke="#CCC" stroke-width="3.692"/>
  <path d="M53.941 138.923h158.154l-6.154 85.538H60.095z" fill="#2A684C"/>
  <mask id="a" style="mask-type:alpha" maskUnits="userSpaceOnUse" x="175" y="451" width="515" height="279">
    <path d="M53.941 138.923h158.154l-6.154 85.538H60.095z" fill="#2A684C"/>
  </mask>
  <g mask="url(#a)">
    <path fill="#EC1A09" d="M44.308 160.615H220v42.154H44.308z"/>
    <path d="M82.18 182.583a1.23 1.23 0 0 1 0-1.474l7.83-10.466a1.23 1.23 0 0 1 1.971 0l7.83 10.466a1.23 1.23 0 0 1 0 1.474l-7.83 10.466a1.23 1.23 0 0 1-1.971 0zm19.231-.02a1.23 1.23 0 0 1 0-1.475l1.529-2.044a1.23 1.23 0 0 1 1.971 0l1.529 2.044a1.23 1.23 0 0 1 0 1.475l-1.529 2.044a1.23 1.23 0 0 1-1.971 0zm0-8.497a1.23 1.23 0 0 1 0-1.474l1.529-2.044a1.23 1.23 0 0 1 1.971 0l1.529 2.044a1.23 1.23 0 0 1 0 1.474l-1.529 2.044a1.23 1.23 0 0 1-1.971 0zm0 17.036a1.23 1.23 0 0 1 0-1.475l1.529-2.044a1.23 1.23 0 0 1 1.971 0l1.529 2.044a1.23 1.23 0 0 1 0 1.475l-1.529 2.044a1.23 1.23 0 0 1-1.971 0zm6.537-8.519a1.23 1.23 0 0 1 0-1.474l7.83-10.466a1.23 1.23 0 0 1 1.971 0l7.83 10.466a1.23 1.23 0 0 1 0 1.474l-7.83 10.466a1.23 1.23 0 0 1-1.971 0zm19.136-.005a1.23 1.23 0 0 1 0-1.474l1.529-2.044a1.23 1.23 0 0 1 1.971 0l1.529 2.044a1.23 1.23 0 0 1 0 1.474l-1.529 2.044a1.23 1.23 0 0 1-1.971 0zm0-8.512a1.23 1.23 0 0 1 0-1.474l1.529-2.044a1.23 1.23 0 0 1 1.971 0l1.529 2.044a1.23 1.23 0 0 1 0 1.474l-1.529 2.044a1.23 1.23 0 0 1-1.971 0zm0 17.026a1.23 1.23 0 0 1 0-1.474l1.529-2.044a1.23 1.23 0 0 1 1.971 0l1.529 2.044a1.23 1.23 0 0 1 0 1.474l-1.529 2.044a1.23 1.23 0 0 1-1.971 0zm-71.178-8.509a1.23 1.23 0 0 1 0-1.474l7.83-10.466a1.23 1.23 0 0 1 1.971 0l7.83 10.466a1.23 1.23 0 0 1 0 1.474l-7.83 10.466a1.23 1.23 0 0 1-1.971 0zm19.136-.005a1.23 1.23 0 0 1 0-1.474l1.529-2.044a1.23 1.23 0 0 1 1.971 0l1.529 2.044a1.23 1.23 0 0 1 0 1.474l-1.529 2.044a1.23 1.23 0 0 1-1.971 0zm0-8.512a1.23 1.23 0 0 1 0-1.474l1.529-2.044a1.23 1.23 0 0 1 1.971 0l1.529 2.044a1.23 1.23 0 0 1 0 1.474l-1.529 2.044a1.23 1.23 0 0 1-1.971 0zm0 17.026a1.23 1.23 0 0 1 0-1.474l1.529-2.044a1.23 1.23 0 0 1 1.971 0l1.529 2.044a1.23 1.23 0 0 1 0 1.474l-1.529 2.044a1.23 1.23 0 0 1-1.971 0zm59.085-8.509a1.23 1.23 0 0 1 0-1.474l7.83-10.466a1.23 1.23 0 0 1 1.971 0l7.83 10.466a1.23 1.23 0 0 1 0 1.474l-7.83 10.466a1.23 1.23 0 0 1-1.971 0zm19.136-.005a1.23 1.23 0 0 1 0-1.474l1.529-2.044a1.23 1.23 0 0 1 1.971 0l1.529 2.044a1.23 1.23 0 0 1 0 1.474l-1.529 2.044a1.23 1.23 0 0 1-1.971 0zm0-8.512a1.23 1.23 0 0 1 0-1.474l1.529-2.044a1.23 1.23 0 0 1 1.971 0l1.529 2.044a1.23 1.23 0 0 1 0 1.474l-1.529 2.044a1.23 1.23 0 0 1-1.971 0zm0 17.026a1.23 1.23 0 0 1 0-1.474l1.529-2.044a1.23 1.23 0 0 1 1.971 0l1.529 2.044a1.23 1.23 0 0 1 0 1.474l-1.529 2.044a1.23 1.23 0 0 1-1.971 0zm6.727-8.509a1.23 1.23 0 0 1 0-1.474l7.83-10.466a1.23 1.23 0 0 1 1.971 0l7.83 10.466a1.23 1.23 0 0 1 0 1.474l-7.83 10.466a1.23 1.23 0 0 1-1.971 0zm19.136-.005a1.23 1.23 0 0 1 0-1.474l1.529-2.044a1.23 1.23 0 0 1 1.971 0l1.529 2.044a1.23 1.23 0 0 1 0 1.474l-1.529 2.044a1.23 1.23 0 0 1-1.971 0zm0-8.512a1.23 1.23 0 0 1 0-1.474l1.529-2.044a1.23 1.23 0 0 1 1.971 0l1.529 2.044a1.23 1.23 0 0 1 0 1.474l-1.529 2.044a1.23 1.23 0 0 1-1.971 0zm0 17.026a1.23 1.23 0 0 1 0-1.474l1.529-2.044a1.23 1.23 0 0 1 1.971 0l1.529 2.044a1.23 1.23 0 0 1 0 1.474l-1.529 2.044a1.23 1.23 0 0 1-1.971 0zm7.043-8.509a1.23 1.23 0 0 1 0-1.474l7.83-10.466a1.23 1.23 0 0 1 1.971 0l7.83 10.466a1.23 1.23 0 0 1 0 1.474l-7.83 10.466a1.23 1.23 0 0 1-1.971 0zm19.136-.005a1.23 1.23 0 0 1 0-1.474l1.529-2.044a1.23 1.23 0 0 1 1.971 0l1.529 2.044a1.23 1.23 0 0 1 0 1.474l-1.529 2.044a1.23 1.23 0 0 1-1.971 0zm0-8.512a1.23 1.23 0 0 1 0-1.474l1.529-2.044a1.23 1.23 0 0 1 1.971 0l1.529 2.044a1.23 1.23 0 0 1 0 1.474l-1.529 2.044a1.23 1.23 0 0 1-1.971 0zm0 17.026a1.23 1.23 0 0 1 0-1.474l1.529-2.044a1.23 1.23 0 0 1 1.971 0l1.529 2.044a1.23 1.23 0 0 1 0 1.474l-1.529 2.044a1.23 1.23 0 0 1-1.971 0z" fill="#FFEBB2"/>
    <path fill="#F74A44" d="M44.308 196.308H220v6.461H44.308zm0-36H220v6.461H44.308z"/>
  </g>
  <path d="M208.905 81.231c-4.308-8.738-16.872-16.974-22.615-20l9.231-10c5.59 1.538 19.199 6.738 28.308 15.846 6.154 6.154 12.897 18.043 11.751 26.462-1.172 8.615-5.598 12-5.598 12s-.615-1.385-3.077-4.615-4.615-3.385-4.615-3.385-.615 4.308-3.538 8c-2.53 3.196-5.949 5.898-7.692 6.615 1.077-6.667 2.154-22.185-2.154-30.923" fill="#EC1A09"/>
  <path d="M216.443 66.923c7.877 4.431 13.641 9.538 15.538 11.385-4-7.692-9.077-13.538-16.615-18.308-5.769-3.65-14.974-7.846-19.231-9.385l-4.923 5.231c5.077 1.846 17.354 6.646 25.231 11.077" fill="#F74A44"/>
  <path fill="#36B27B" d="m15.063 90.862 169.807-31.01 5.948 32.57L21.01 123.43z"/>
  <path d="M135.52 34.308c-6.154 6.646-9.641 18.051-10.615 22.923 14.205-.974 43.754-3.415 48.308-5.385s6.718-8.102 7.231-10.923c-1.282-1.692-5.662-6.215-12.923-10.769s-16.666-6-20.462-6.154c-1.282.667-5.385 3.662-11.538 10.308M95.861 59.28l27.351-1.346c-6.114 4.1-22.434 18.633-38.809 43.961s-24.763 61.24-26.91 76.03c-1.092-2.359-5.055-9.455-7.845-18.56s-2.787-19.066-2.979-22.958c-6.964 5.58-11.282 14.88-11.282 14.88s-3.003-14.134-.519-23.079c3-10.804 10.028-23.034 18.48-34.489C65.709 76.968 86.84 63.78 95.86 59.28" fill="#F74A44"/>
  <mask id="b" style="mask-type:alpha" maskUnits="userSpaceOnUse" x="110" y="188" width="291" height="391">
    <path d="m95.861 59.28 27.351-1.346c-6.114 4.1-22.434 18.633-38.809 43.961s-24.763 61.24-26.91 76.03c-1.092-2.359-5.055-9.455-7.845-18.56s-2.787-19.066-2.979-22.958c-6.964 5.58-11.282 14.88-11.282 14.88s-3.003-14.134-.519-23.079c3-10.804 10.028-23.034 18.48-34.489C65.709 76.968 86.84 63.78 95.86 59.28" fill="#F74A44"/>
  </mask>
  <g mask="url(#b)" fill="#FFEBB2">
    <path d="M81.755 96.942c9.342-15.493 28.057-32.906 36.247-39.676l-4.764.234c-11.566 11.198-37.11 38.425-46.756 57.753s-13.754 41.855-14.613 50.472l1.396 3.32 1.204 2.559c.978-6.209 3.422-20.593 5.992-28.483 3.211-9.862 9.617-26.813 21.294-46.18M70.398 82.868c12.728-13.342 27.963-20.938 33.813-24.153l-4.302.212c-4.048 2.253-22.975 13.826-32.891 24.108-12.164 12.613-23.569 28.116-27.382 41.396-2.533 8.82-2.232 18.286-1.254 21.472l2.161-3.033s-.469-13.284 2.682-20.618c7.91-18.411 21.314-33.242 27.174-39.384"/>
  </g>
  <mask id="c" style="mask-type:alpha" maskUnits="userSpaceOnUse" x="405" y="78" width="182" height="108">
    <path d="M135.52 34.308c-6.154 6.646-9.641 18.051-10.615 22.923 14.205-.974 43.754-3.415 48.308-5.385s6.718-8.102 7.231-10.923c-1.282-1.692-5.662-6.215-12.923-10.769s-16.666-6-20.462-6.154c-1.282.667-5.385 3.662-11.538 10.308" fill="#F74A44"/>
  </mask>
  <g mask="url(#c)">
    <path d="m169.272 30.923 4 2.976c-1.231 0-7.55-.308-19.385 5.169-11.846 5.482-19.692 13.314-27.077 17.701 3.743-4.125 10.923-13.158 19.077-17.701s15.846-8.146 23.385-8.146" fill="#FFEBB2"/>
    <path d="M138.81 35.243c3.385-3.644 10.513-8.713 14.462-11.089l2.462.634c.615.158 2.154.634 2.154.634-4.41 3.168-12.741 7.841-17.846 13.624-3.077 3.485-9.846 12.885-12.308 17.109.923-5.228 5.043-14.416 11.077-20.911" fill="#FFEBB2"/>
    <path d="M153.046 43.623c7.781-3.039 21.649-3.06 27.611-2.691 0 6.204-4.288 9.972-6.432 11.08-.994.369-6.432 1.456-20.238 2.849s-24.486 2.212-28.407 2.37c6.118-3.218 19.685-10.569 27.466-13.608" fill="#EC1A09"/>
  </g>
  <path d="M123.981 39.846c2.215 5.292 2.462 13.692 2.308 17.231-7.231 2.154-23.231 6.093-29.385 4.616-7.692-1.846-14.923-6.769-16.462-8.769-1.231-1.6.513-10.308 1.538-14.462.564-1.334 3.785-4.739 12.154-7.693s18.872-3.487 23.077-3.385c1.334 1.949 4.554 7.169 6.769 12.462" fill="#F74A44"/>
  <path d="m105.52 28.154 4.154-.462c-.615 4.154-2.585 13.077 3.692 20.923 4.923 6.154 9.906 9.026 11.29 8.923l-2.367.769c-1.128.102-3.714-.063-5.385-.923-5.077-2.615-10.769-9.077-12-16.615-.985-6.031-.205-10.821.615-12.615M87.827 40.462c-.404-2.154-.615-5.846.308-7.077-1.108.492-3.128 1.949-4 2.615-.769 1.538-1.077 3.231-1.077 5.077 0 1.385 1.692 5.846 4.308 9.077 4.608 5.692 8.462 7.231 10.923 8.308h3.538c-1.128-.615-3.71-2.215-7.279-6.154-4.462-4.923-6.26-9.385-6.721-11.846" fill="#FFEBB2"/>
  <path d="M125.887 52.308c-.123 1.723-.462 4.102-.615 5.077l8.769-.769c.308-.359.954-1.138 1.077-1.385.154-.308-.154-2.308-1.077-3.385-.738-.862-5.744-2.718-8.154-3.538.051.615.123 2.277 0 4" fill="#FF6D68"/>
  <path d="M190.486 143.939c-.494 1.842-2.443 4.01-5.51 5.475-2.999 1.433-6.751 2.028-10.413 1.046s-6.614-3.372-8.495-6.113c-1.923-2.802-2.527-5.655-2.034-7.496.457-1.706 2.075-3.23 4.895-4.074 2.787-.834 6.464-.888 10.332.148s7.025 2.922 9.022 5.038c2.021 2.141 2.659 4.269 2.202 5.976Zm-86.583-6.807c.453 1.852-.214 4.69-2.197 7.45-1.94 2.699-4.943 5.025-8.626 5.926-3.682.902-7.421.225-10.388-1.273-3.034-1.532-4.936-3.742-5.389-5.594-.42-1.716.265-3.83 2.332-5.926 2.042-2.072 5.24-3.888 9.13-4.84s7.565-.817 10.333.077c2.801.905 4.385 2.464 4.805 4.18Zm28.709 1.33c9.766 0 17.349-2.709 22.743-7.219s8.456-10.702 9.385-17.399c.654-4.712-.155-11.054-1.838-17.778-1.695-6.77-4.323-14.11-7.455-20.892-3.127-6.77-6.794-13.062-10.594-17.693-1.9-2.315-3.876-4.269-5.884-5.658-1.999-1.382-4.15-2.285-6.357-2.285-2.183 0-4.313.849-6.302 2.172-1.994 1.327-3.95 3.2-5.826 5.428-3.751 4.457-7.349 10.538-10.418 17.169-3.074 6.643-5.653 13.914-7.336 20.794-1.675 6.852-2.494 13.442-1.947 18.679.723 6.933 3.71 13.154 9.098 17.626 5.379 4.466 12.987 7.056 22.731 7.056Z" fill="#FFC000" stroke="#D39C28" stroke-width="3.692"/>
  <path d="M121.099 103.783c3.809 0 6.897-3.392 6.897-7.576s-3.088-7.576-6.897-7.576-6.897 3.392-6.897 7.576 3.088 7.576 6.897 7.576" fill="#fff"/>
  <path d="M121.099 104.931c-4.437 0-8.046-3.912-8.046-8.724s3.609-8.724 8.046-8.724 8.046 3.912 8.046 8.724-3.609 8.724-8.046 8.724m0-15.152c-3.168 0-5.747 2.883-5.747 6.428s2.579 6.428 5.747 6.428 5.747-2.883 5.747-6.428-2.579-6.428-5.747-6.428" fill="#534741"/>
  <path d="M143.628 103.324c3.809 0 6.897-3.392 6.897-7.576s-3.088-7.576-6.897-7.576-6.897 3.392-6.897 7.576 3.088 7.576 6.897 7.576" fill="#fff"/>
  <path d="M143.628 104.472c-4.437 0-8.046-3.912-8.046-8.724s3.609-8.724 8.046-8.724 8.046 3.912 8.046 8.724-3.609 8.724-8.046 8.724m0-15.152c-3.168 0-5.747 2.884-5.747 6.428s2.579 6.428 5.747 6.428 5.747-2.883 5.747-6.428-2.579-6.428-5.747-6.428m-21.609 14.922c3.047 0 5.517-2.57 5.517-5.739s-2.47-5.74-5.517-5.74-5.517 2.57-5.517 5.74 2.47 5.739 5.517 5.739" fill="#534741"/>
  <path d="M143.757 103.627c2.976 0 5.389-2.57 5.389-5.739s-2.413-5.74-5.389-5.74-5.389 2.57-5.389 5.74 2.413 5.739 5.389 5.739" fill="#534741"/>
  <path d="M121.099 96.643c.889 0 1.609-.569 1.609-1.272s-.721-1.272-1.609-1.272-1.609.57-1.609 1.272.72 1.272 1.609 1.272" fill="#fff"/>
  <path d="M112.363 113.77c4.063 0 7.357-2.261 7.357-5.051s-3.294-5.051-7.357-5.051-7.356 2.261-7.356 5.051 3.294 5.051 7.356 5.051m40.69 0c4.063 0 7.356-2.261 7.356-5.051s-3.294-5.051-7.356-5.051-7.356 2.261-7.356 5.051 3.294 5.051 7.356 5.051" fill="#E4A92D"/>
  <path d="M143.044 95.839c.889 0 1.609-.57 1.609-1.272s-.721-1.272-1.609-1.272-1.609.57-1.609 1.272.721 1.272 1.609 1.272" fill="#fff"/>
  <path d="M149.084 82.468c-2.615-2-6.714-3.323-10.462-3.046m-23.692 3.037c2.143-1.691 6.615-3.074 9.846-3.074" stroke="#534741" stroke-width="2.462" stroke-linecap="round"/>
  <path d="M145.96 115.576c.045 2.927-1.207 5.369-3.316 7.744-2.214 2.494-5.553 4.239-9.886 4.306-4.769.073-7.62-1.396-10.235-3.998-2.091-2.081-3.429-4.126-3.481-7.486-.012-.769.743-1.704 1.674-1.238 1.873 1.053 5.505 2.974 11.892 2.877 6.086-.093 9.921-1.999 11.187-2.942s2.154-.034 2.165.736" fill="#534741"/>
  <path d="M197.538 11.077a1.81 1.81 0 0 1-1.201 1.716l-5.969 2.196-2.196 5.971a1.83 1.83 0 0 1-1.714 1.194 1.83 1.83 0 0 1-1.715-1.194l-2.196-5.971-5.969-2.196a1.83 1.83 0 0 1-1.193-1.716 1.83 1.83 0 0 1 1.193-1.716l5.969-2.196 2.196-5.971A1.83 1.83 0 0 1 186.458 0a1.83 1.83 0 0 1 1.715 1.193l2.196 5.971 5.969 2.196a1.81 1.81 0 0 1 1.2 1.717m6.154 16.769a.93.93 0 0 1-.617.882l-3.068 1.129-1.128 3.069a.94.94 0 0 1-.882.613.94.94 0 0 1-.881-.613l-1.128-3.069-3.068-1.129a.941.941 0 0 1 0-1.764l3.068-1.129 1.128-3.069a.94.94 0 0 1 1.418-.445c.158.11.278.265.345.445l1.128 3.069 3.068 1.129a.93.93 0 0 1 .617.882M65.231 48.769a.93.93 0 0 1-.617.882l-3.068 1.129-1.128 3.069a.94.94 0 0 1-.882.613.94.94 0 0 1-.881-.613l-1.128-3.069-3.068-1.129a.94.94 0 0 1-.613-.882.94.94 0 0 1 .613-.882l3.068-1.129 1.128-3.069a.94.94 0 0 1 .881-.613.94.94 0 0 1 .882.613l1.128 3.069 3.068 1.129a.93.93 0 0 1 .617.882" fill="#fff"/>
  <path fill="#36B27B" d="M226.462 140a2.46 2.46 0 0 1-2.462 2.462 2.46 2.46 0 0 1-2.462-2.462 2.462 2.462 0 0 1 4.924 0"/>
  <path fill="#FD7BAC" d="M256 104.308a2.46 2.46 0 0 1-2.462 2.461 2.46 2.46 0 0 1-2.461-2.461 2.462 2.462 0 0 1 4.923 0"/>
  <path d="M213.674 119.337s-2.482 9.114 3.278 9.86 9.586-11.729 5.492-12.197.048 14.972 7.656 8.687.696-15.869-1.966-13.614 2.994 11.501 11.648 7.955" stroke="#FF9C42" stroke-width="2.462" stroke-miterlimit="10"/>
  <path d="M236.499 134.154s1.417 1.111 3.684 1.852 4.066.682 4.066.682" stroke="#4CB4FA" stroke-width="2.462"/>
  <path d="m241.538 100.154 5.385-3.538" stroke="#36B27B" stroke-width="2.462"/>
  <path fill="#36B27B" d="M15.385 135.975a2.46 2.46 0 0 1-2.462 2.461 2.46 2.46 0 0 1-2.461-2.461 2.462 2.462 0 0 1 4.923 0"/>
  <path d="M14.935 101.538s-9.038 2.745-6.607 8.019 15.031 1.881 13.25-1.835-12.655 8.003-3.286 11.104 13.809-7.849 10.484-8.905-8.147 8.652-.543 14.095" stroke="#B572ED" stroke-width="2.462" stroke-miterlimit="10"/>
  <path d="M.308 132.857s1.794.156 4.097-.462 3.778-1.651 3.778-1.651" stroke="#FF9C42" stroke-width="2.462"/>
  <path d="M35.202 93.853s-.705 1.657-.831 4.038.398 4.104.398 4.104" stroke="#4CB4FA" stroke-width="2.462"/>
  <path d="m12.771 78.769 2.778 5.814" stroke="#FD7BAC" stroke-width="2.462"/>
</svg>
