<svg width="113" height="125" viewBox="0 0 113 125" fill="none" xmlns="http://www.w3.org/2000/svg">
  <ellipse cx="54.446" cy="114.691" rx="48.325" ry="8.054" fill="#000" fill-opacity=".1"/>
  <path d="M90.657 64.288c-2.245-2.187-4.404-3.982-6.079-5.022-5.644-3.502-5.686-1.134-5.618-6.65.048-3.901-.32-7.729-1.24-11.633-3.97-16.81-14.057-31.33-20.526-31.679-5.995-.18-17.439 15.603-21.356 32.323a56 56 0 0 0-1.466 10.464c-.261 5.509-.052 3.148-5.78 6.508C21.965 62.49 7.73 77.703 9.732 83.277c1.064 2.957 14.489 1.807 17.35 1.465 3.891-.467 1.642 7.784.553 16.415-.821 6.517.145 11.672 3.554 13.766 2.523 1.549 14.749-.026 24.932-18.267 9.733 18.486 21.218 20.193 23.834 18.805 4.043-2.149 5.332-8.27 5.184-13.966-.223-8.518-3.573-16.669.306-16.105.757.11 2.255.296 4.065.454-.241-7.184.258-14.372 1.147-21.556" fill="#FEBD33"/>
  <path d="M78.006 116.8c-1.076 0-2.323-.202-3.634-.605-3.879-1.195-11.289-5.065-18.273-17.561-7.71 12.976-16.08 16.375-19.404 17.245-2.545.664-4.794.615-6.012-.135-3.557-2.188-4.942-7.275-4.004-14.71.222-1.763.49-3.49.747-5.161.654-4.224 1.395-9.008.406-10.03-.058-.057-.19-.196-.635-.141-1.617.193-5.673.55-9.475.512-5.528-.058-8.27-.86-8.898-2.61C7.53 80 11.57 74.05 15.184 69.69c4.133-4.98 9.446-9.884 12.922-11.923a30 30 0 0 1 3.808-1.894c.863-.364 1.095-.477 1.185-.67.178-.374.223-1.318.297-2.877l.013-.284a57.5 57.5 0 0 1 1.488-10.638c3.792-16.182 15.151-33.07 22.197-33.07q.066 0 .132.003c7.317.393 17.523 15.848 21.437 32.423.902 3.827 1.318 7.71 1.266 11.868-.02 1.624-.032 2.694.132 3.106.08.203.313.322 1.183.702.83.364 2.087.915 3.843 2.004 1.695 1.054 3.914 2.88 6.244 5.149a.96.96 0 0 1 .283.811c-.983 7.958-1.353 14.959-1.134 21.405a.968.968 0 0 1-1.05.995 76 76 0 0 1-4.12-.46c-.142-.02-.397-.042-.49.051-.593.603-.103 3.702.328 6.44.413 2.61.88 5.567.96 8.634.09 3.506-.283 11.966-5.696 14.846-.615.328-1.443.489-2.406.489M56.124 95.689h.013a.97.97 0 0 1 .844.516c6.898 13.095 14.214 16.99 17.961 18.144 2.526.779 4.092.509 4.562.258 3.096-1.647 4.842-6.537 4.671-13.087-.077-2.941-.531-5.831-.934-8.382-.647-4.099-1.073-6.805.206-8.1.361-.367 1.028-.77 2.143-.605.628.09 1.672.222 2.928.344-.145-6.111.222-12.716 1.121-20.132-2.103-2.02-4.069-3.63-5.57-4.558-1.64-1.019-2.774-1.515-3.602-1.879-2.529-1.108-2.522-1.707-2.474-5.605.048-3.998-.348-7.73-1.215-11.398C72.822 24.439 62.8 10.573 57.142 10.27h-.077c-4.993 0-16.247 14.33-20.287 31.579a55.4 55.4 0 0 0-1.44 10.287l-.013.28c-.17 3.644-.2 4.204-2.66 5.238-.819.345-1.937.815-3.58 1.779-7.152 4.2-20.097 18.907-18.44 23.518.019.051.528 1.263 7.1 1.33 3.695.039 7.651-.31 9.223-.5 1.157-.141 1.866.313 2.256.72 1.652 1.71 1.008 5.888.112 11.668-.257 1.656-.521 3.37-.74 5.106-.825 6.534.276 11.086 3.099 12.823.428.264 1.926.586 4.51-.091 3.209-.837 11.495-4.249 19.072-17.825a.97.97 0 0 1 .847-.493" fill="#E4A92D"/>
  <path d="M48.724 42.592c2.67 0 4.833-2.38 4.833-5.315s-2.164-5.316-4.833-5.316-4.832 2.38-4.832 5.316 2.163 5.315 4.832 5.315" fill="#fff"/>
  <path d="M48.724 43.399c-3.109 0-5.638-2.745-5.638-6.122s2.53-6.12 5.638-6.12c3.11 0 5.638 2.744 5.638 6.12s-2.529 6.121-5.638 6.121m0-10.632c-2.22 0-4.027 2.023-4.027 4.51s1.808 4.51 4.027 4.51 4.027-2.023 4.027-4.51-1.807-4.51-4.027-4.51" fill="#534741"/>
  <path d="M64.51 42.27c2.67 0 4.833-2.38 4.833-5.316s-2.164-5.315-4.833-5.315-4.832 2.38-4.832 5.315 2.164 5.316 4.832 5.316" fill="#fff"/>
  <path d="M64.51 43.076c-3.108 0-5.637-2.745-5.637-6.12 0-3.377 2.529-6.122 5.637-6.122 3.11 0 5.638 2.745 5.638 6.121s-2.529 6.121-5.638 6.121m0-10.631c-2.22 0-4.027 2.023-4.027 4.51s1.808 4.51 4.027 4.51 4.027-2.023 4.027-4.51-1.807-4.51-4.027-4.51M49.369 42.916c2.135 0 3.866-1.803 3.866-4.028s-1.731-4.027-3.866-4.027c-2.136 0-3.866 1.803-3.866 4.027s1.73 4.028 3.866 4.028" fill="#534741"/>
  <path d="M64.6 42.484c2.086 0 3.776-1.803 3.776-4.027s-1.69-4.027-3.776-4.027-3.775 1.803-3.775 4.027 1.69 4.027 3.775 4.027" fill="#534741"/>
  <path d="M48.724 37.584c.623 0 1.128-.4 1.128-.893s-.505-.892-1.128-.892-1.127.4-1.127.892c0 .493.505.893 1.127.893" fill="#fff"/>
  <path d="M50.586 24.59c.664-.1 1.08-.09 1.28.159.325.402.015 1.346-.558 1.878-.644.599-1.147.225-2.996.605-1.034.213-1.321.42-3.354.886-1.03.236-1.273.255-1.318.161-.157-.315 2.05-1.675 2.513-1.962.922-.567 2.449-1.43 4.433-1.726" fill="#534741"/>
  <path d="M42.603 49.6c2.847 0 5.155-1.587 5.155-3.544s-2.308-3.544-5.155-3.544-5.154 1.586-5.154 3.544 2.307 3.543 5.154 3.543m28.512.001c2.847 0 5.154-1.587 5.154-3.544s-2.307-3.544-5.154-3.544-5.155 1.586-5.155 3.544 2.308 3.543 5.155 3.543m-35.993 52.595a.48.48 0 0 1-.412-.232l-1.843-3.019a.49.49 0 0 1-.013-.483l1.695-3.106a.49.49 0 0 1 .412-.251l3.538-.087a.47.47 0 0 1 .425.232l1.843 3.019a.49.49 0 0 1 .013.483l-1.695 3.106a.49.49 0 0 1-.412.251l-3.538.087zm-1.285-3.518 1.553 2.545 2.98-.074 1.427-2.616-1.553-2.545-2.98.074zm.473 12.521a.48.48 0 0 1-.331-.132l-2.259-2.149a.48.48 0 0 1-.135-.463l.735-3.029a.49.49 0 0 1 .331-.351l2.99-.879a.48.48 0 0 1 .47.112l2.259 2.149a.48.48 0 0 1 .135.464l-.734 3.028a.49.49 0 0 1-.332.352l-2.99.879a.5.5 0 0 1-.138.019m-1.72-2.793 1.853 1.766 2.455-.722.602-2.487-1.852-1.766-2.455.722zm10.041-1.433a.48.48 0 0 1-.332-.132l-1.73-1.647a.48.48 0 0 1-.135-.464l.56-2.319a.49.49 0 0 1 .332-.351l2.291-.674a.48.48 0 0 1 .47.113l1.73 1.646a.48.48 0 0 1 .136.464l-.56 2.32a.5.5 0 0 1-.333.351l-2.29.673a.5.5 0 0 1-.139.02m-1.192-2.288 1.324 1.263 1.756-.515.428-1.779-1.324-1.262-1.755.515zm35.135-1.404h-.013l-3.537-.087a.48.48 0 0 1-.412-.251l-1.695-3.106a.48.48 0 0 1 .013-.483l1.843-3.019a.48.48 0 0 1 .425-.231l3.537.087a.48.48 0 0 1 .413.25l1.694 3.107a.48.48 0 0 1-.013.483l-1.842 3.018a.48.48 0 0 1-.413.232m-3.247-1.047 2.98.074 1.553-2.545-1.427-2.616-2.98-.074-1.553 2.545zm6.312 10.693a.5.5 0 0 1-.136-.019l-2.99-.88a.48.48 0 0 1-.332-.351l-.734-3.028a.49.49 0 0 1 .135-.464l2.258-2.149a.48.48 0 0 1 .47-.113l2.99.88a.48.48 0 0 1 .332.351l.735 3.028a.49.49 0 0 1-.135.464l-2.259 2.149a.5.5 0 0 1-.335.132m-2.588-1.746 2.455.722 1.852-1.766-.602-2.487-2.455-.721-1.852 1.765zm-5.089.099a.5.5 0 0 1-.135-.019l-2.29-.674a.48.48 0 0 1-.333-.351l-.56-2.32a.49.49 0 0 1 .135-.463l1.73-1.647a.48.48 0 0 1 .47-.112l2.291.673a.48.48 0 0 1 .332.351l.56 2.32a.49.49 0 0 1-.135.464l-1.73 1.646a.5.5 0 0 1-.335.132m-1.885-1.543 1.756.515 1.324-1.263-.428-1.778-1.756-.516-1.324 1.263z" fill="#E4A92D"/>
  <path d="M64.101 37.02c.623 0 1.128-.4 1.128-.893s-.505-.893-1.128-.893-1.127.4-1.127.893.505.892 1.127.892m26.856 24.944c-2.223-1.231-4.565-2.475-6.208-3.663-6.862-4.962-12.217 3.85-24.485 5.902-2.52.422-5.419.422-7.593 0-12.207-2.365-17.623-10.867-24.485-5.902-3.866 2.796-11.598 5.902-12.564 8.389-1.501 3.86 1.89 2.912 2.9 9.01.96 5.819-1.048 10.332.644 11.496 1.417.976 4.607-1.202 6.443 0 1.163.76.084 5.505.966 6.836 1.85 2.78 8.853-3.016 19.652-2.797h20.48c10.8-.219 17.803 5.577 19.653 2.797.882-1.327-.197-6.076.966-6.837.628-.409 1.311-2.944 2.133-2.825-.37-8.308.377-14.098 1.498-22.406" fill="#fff"/>
  <path d="M28.177 95.754c-1.025 0-1.834-.329-2.407-1.192-.577-.87-.56-2.336-.544-3.889.01-.876.025-2.326-.19-2.7-.632-.37-1.73-.119-2.79.123-1.283.293-2.61.596-3.631-.106-1.353-.931-1.192-2.813-.986-5.194.164-1.917.37-4.3-.065-6.942-.44-2.668-1.353-3.831-2.087-4.765-.896-1.14-1.743-2.22-.757-4.752.737-1.895 3.95-3.663 7.67-5.706 1.895-1.04 3.85-2.116 5.23-3.115 4.57-3.309 8.704-1.195 13.488 1.253 3.26 1.666 6.953 3.557 11.746 4.485 2.065.4 4.843.4 7.25-.003 4.944-.828 8.704-2.774 12.022-4.488 4.665-2.413 8.692-4.494 13.186-1.244 1.383.999 3.338 2.075 5.232 3.116l1.453.802-.087.654c-1.082 8.028-1.865 13.83-1.491 22.235l.051 1.167-.902-.13c-.177.233-.425.72-.583 1.032-.345.676-.644 1.263-1.089 1.578-.219.365-.203 1.824-.193 2.703.016 1.553.032 3.022-.544 3.889-1.309 1.968-3.838 1.153-7.343.023-3.263-1.054-7.728-2.488-13.096-2.388H46.221c-5.387-.112-9.852 1.334-13.115 2.388-1.96.63-3.618 1.166-4.93 1.166m39.149-5.493c5.387 0 9.82 1.43 13.09 2.484 2.49.802 4.642 1.498 5.138.747.248-.374.232-1.833.22-2.796-.023-1.92-.04-3.58.985-4.288.12-.136.351-.59.506-.893.335-.654.696-1.366 1.195-1.775-.3-7.996.46-13.94 1.447-21.253l-.294-.161c-1.945-1.07-3.956-2.175-5.434-3.244-3.532-2.555-6.57-.983-11.167 1.395-3.273 1.694-7.348 3.801-12.593 4.678-2.62.438-5.66.434-7.935-.004-5.061-.98-9.05-3.022-12.255-4.661-4.736-2.423-7.864-4.021-11.479-1.408-1.476 1.066-3.486 2.174-5.432 3.24-2.815 1.547-6.317 3.474-6.797 4.714-.587 1.504-.316 1.846.476 2.858.825 1.05 1.953 2.49 2.475 5.644.476 2.88.257 5.4.083 7.422-.132 1.544-.27 3.142.155 3.435.322.222 1.311-.003 2.104-.187 1.41-.322 3.009-.683 4.32.174 1.063.696 1.044 2.371 1.021 4.31-.01.967-.026 2.426.22 2.797.495.747 2.648.055 5.135-.748 3.395-1.095 8.031-2.596 13.73-2.477H66.7q.32-.004.625-.003" fill="#CCC"/>
  <path d="M56.476 101.568c1.169.541 2.116 1.389 5.799 6.807 1.627 2.394 2.248 2.749 3.543 2.784 1.618.045 1.834-.342 3.222-1.856 5.763-6.288 17.413-1.955 18.685-5.879.332-1.025.081-1.721 0-4.02-.135-3.909 1.096-5.384.323-7.427-.638-1.688-1.637-.522-3.544-3.093-1.682-2.268-1.682-6.907-1.289-12.065.554-7.248 1.54-12.168 3.222-17.635.1-.322.838-.928.644-1.546-.29-.928-4.942-2.877-6.12-2.475-1.241.423-1.74 2.037-2.256 4.952-1.437 8.144-.847 12.094-3.222 13.306-5.87 2.992-31.643 3.302-38.73 0-2.42-1.128-1.785-5.158-3.222-13.306-.515-2.916-.693-4.53-1.933-4.952-1.18-.4-6.153 1.547-6.443 2.475-.194.618.525 1.23.644 1.546 1.933 5.158 2.374 9.623 3.222 17.635.644 6.086.966 8.56-1.289 12.065-1.727 2.687-2.906 1.408-3.544 3.093-.773 2.04.458 3.518.322 7.426-.08 2.304-.332 2.996 0 4.021 1.273 3.924 12.922-.409 18.686 5.879 1.388 1.514 1.604 1.901 3.222 1.856 1.295-.035 1.916-.393 3.543-2.784 3.683-5.418 4.63-6.266 5.8-6.807.157-.074.553-.074.715 0" fill="#45566A"/>
  <path d="M66.021 112.128q-.112 0-.228-.003c-1.75-.048-2.597-.677-4.318-3.209-3.575-5.261-4.445-6.011-5.334-6.44h-.049c-.886.425-1.759 1.179-5.335 6.44-1.72 2.529-2.568 3.161-4.317 3.209-1.936.052-2.48-.544-3.67-1.852l-.29-.319c-2.931-3.199-7.734-3.406-11.594-3.57-3.502-.151-6.527-.28-7.297-2.664-.284-.873-.232-1.556-.151-2.59.035-.461.08-1.035.106-1.766.058-1.698-.152-2.893-.338-3.943-.232-1.308-.432-2.442.077-3.789.448-1.182 1.185-1.456 1.781-1.678.535-.2 1.09-.406 1.853-1.595 2.02-3.141 1.791-5.293 1.182-11.04l-.1-.935c-.811-7.677-1.26-11.914-3.096-16.827-.029-.045-.07-.096-.112-.154-.297-.403-.844-1.154-.564-2.056.125-.406.454-.921 1.94-1.675 1.298-.66 4.41-1.878 5.737-1.427 1.685.573 1.991 2.345 2.458 5.026l.116.67c.47 2.654.722 4.897.925 6.694.419 3.721.65 5.387 1.752 5.902 7.017 3.27 32.484 2.768 37.887.016 1.108-.563 1.346-2.242 1.781-5.982.207-1.782.464-3.998.928-6.627.503-2.842 1.034-5.065 2.896-5.696 1.602-.544 5.203 1.276 5.239 1.292 1.633.831 1.988 1.405 2.113 1.81.277.89-.26 1.627-.55 2.024q-.065.082-.11.151c-1.76 5.728-2.645 10.603-3.164 17.368-.322 4.191-.486 9.278 1.102 11.418.847 1.143 1.427 1.388 1.94 1.6.573.242 1.285.542 1.733 1.728.512 1.35.309 2.48.077 3.788-.187 1.054-.4 2.246-.338 3.944.026.731.07 1.304.106 1.765.08 1.034.132 1.717-.151 2.59-.773 2.384-3.795 2.513-7.297 2.664-3.86.168-8.663.374-11.595 3.57l-.29.319c-1.14 1.247-1.688 1.849-3.44 1.849M26.134 57.934c.061.106.158.241.222.325.136.187.268.364.348.58 1.933 5.158 2.416 9.742 3.222 17.339l.1.934c.625 5.89.912 8.58-1.479 12.29-1.111 1.727-2.13 2.108-2.803 2.359-.454.17-.512.193-.65.554-.323.85-.187 1.614.015 2.767.194 1.09.435 2.446.368 4.35-.026.77-.074 1.366-.11 1.846-.077.992-.093 1.359.061 1.846.358 1.105 2.877 1.214 5.542 1.327 4.217.18 9.465.406 12.935 4.195l.296.322c1.092 1.201 1.137 1.25 2.188 1.221.815-.023 1.188-.032 2.77-2.362 3.624-5.335 4.726-6.462 6.192-7.139.422-.196 1.105-.196 1.527 0 1.466.68 2.568 1.804 6.192 7.139 1.582 2.33 1.956 2.339 2.77 2.362 1.054.029 1.096-.02 2.188-1.221l.293-.322c3.474-3.789 8.722-4.015 12.935-4.195 2.668-.116 5.184-.222 5.542-1.327.157-.484.138-.854.06-1.846-.035-.48-.083-1.076-.109-1.846-.067-1.904.174-3.26.368-4.35.203-1.153.338-1.916.016-2.767-.155-.41-.226-.438-.674-.628-.628-.264-1.578-.664-2.741-2.233-1.953-2.629-1.862-7.664-1.476-12.716.532-6.942 1.447-11.945 3.26-17.844.081-.255.233-.464.377-.667.058-.08.155-.21.21-.31-.8-.737-4.082-2.013-4.846-1.839-.756.258-1.175 1.798-1.597 4.198-.455 2.574-.71 4.758-.912 6.514-.464 4.004-.744 6.424-2.822 7.48-3.467 1.766-12.265 2.433-19.343 2.465h-.644c-8.986 0-16.28-.908-19.591-2.451-2.13-.993-2.404-3.419-2.858-7.436-.2-1.772-.448-3.979-.908-6.575l-.12-.677c-.38-2.184-.602-3.331-1.172-3.528-.757-.157-4.288 1.134-5.142 1.866m30.032 44.51q-.005 0 0 0-.005 0 0 0" fill="#394457"/>
  <path d="M56.476 101.942c1.169.542 2.116 1.389 5.799 6.808 1.627 2.393 2.248 2.748 3.543 2.783 1.618.045 1.834-.341 3.222-1.855 5.763-6.289 17.413-1.956 18.685-5.88.332-1.024.081-1.72 0-4.02-.135-3.908 1.096-5.384.323-7.426-.638-1.689-1.637-.522-3.544-3.093-1.682-2.268-1.682-6.907-1.289-12.065.554-7.249-5.357-4.614-7.732-3.402-5.87 2.993-31.643 3.302-38.73 0-2.42-1.128-8.58-4.607-7.732 3.402.644 6.085.966 8.56-1.289 12.065-1.727 2.687-2.906 1.408-3.544 3.093-.773 2.039.458 3.518.322 7.426-.08 2.303-.332 2.996 0 4.02 1.273 3.924 12.922-.409 18.686 5.88 1.388 1.514 1.604 1.9 3.222 1.855 1.295-.035 1.916-.393 3.543-2.783 3.683-5.419 4.63-6.266 5.8-6.808.157-.074.553-.074.715 0" fill="#45566A"/>
  <path d="M66.018 112.503q-.11 0-.229-.003c-1.75-.048-2.596-.677-4.317-3.209-3.576-5.261-4.446-6.011-5.335-6.44h-.048c-.886.425-1.756 1.176-5.332 6.44-1.72 2.529-2.568 3.161-4.317 3.209-1.936.058-2.48-.544-3.67-1.852l-.29-.319c-2.931-3.199-7.734-3.406-11.594-3.57-3.502-.151-6.527-.28-7.297-2.664-.284-.873-.232-1.556-.151-2.59.035-.461.08-1.035.106-1.766.058-1.698-.152-2.893-.338-3.943-.232-1.308-.432-2.442.077-3.789.448-1.182 1.185-1.46 1.781-1.678.535-.2 1.09-.406 1.853-1.595 2.02-3.141 1.791-5.293 1.182-11.04l-.042-.4c-.3-2.838.194-4.668 1.508-5.596 2.052-1.447 5.21.07 7.094.976q.27.131.496.238c7.017 3.27 32.484 2.768 37.887.016 3.373-1.72 5.796-2.036 7.4-.966 1.35.899 1.933 2.684 1.733 5.303-.322 4.194-.486 9.278 1.102 11.417.847 1.144 1.427 1.389 1.94 1.602.573.241 1.285.54 1.733 1.726.512 1.35.309 2.481.077 3.789-.187 1.053-.4 2.245-.338 3.943.026.732.07 1.305.106 1.766.08 1.034.132 1.717-.151 2.59-.773 2.384-3.795 2.513-7.297 2.664-3.86.165-8.663.374-11.595 3.57l-.29.316c-1.14 1.256-1.688 1.855-3.444 1.855m-9.9-11.582c.277 0 .554.049.763.145 1.466.68 2.568 1.804 6.192 7.14 1.582 2.329 1.956 2.338 2.771 2.361 1.053.029 1.095-.019 2.188-1.221l.293-.322c3.473-3.789 8.72-4.014 12.935-4.195 2.667-.116 5.183-.222 5.54-1.327.159-.483.14-.854.062-1.846-.035-.48-.084-1.076-.11-1.846-.067-1.904.175-3.26.368-4.35.203-1.153.338-1.916.016-2.767-.155-.409-.226-.438-.677-.628-.628-.264-1.575-.664-2.741-2.233-1.953-2.628-1.862-7.664-1.476-12.715.097-1.286.026-2.945-.88-3.547-.656-.439-2.138-.61-5.45 1.079-3.467 1.765-12.265 2.432-19.343 2.464h-.644c-8.986 0-16.28-.911-19.591-2.451l-.519-.248c-1.405-.677-4.02-1.93-5.145-1.14-.664.466-.912 1.82-.699 3.81l.042.4c.625 5.89.908 8.58-1.479 12.29-1.111 1.727-2.13 2.107-2.803 2.359-.454.17-.512.19-.65.554-.323.85-.187 1.614.016 2.767.193 1.09.435 2.446.367 4.35-.026.769-.074 1.365-.11 1.845-.077.993-.093 1.36.062 1.846.357 1.106 2.877 1.215 5.54 1.328 4.218.18 9.466.406 12.936 4.194l.293.323c1.092 1.201 1.137 1.25 2.187 1.221.816-.023 1.19-.033 2.771-2.362 3.624-5.335 4.726-6.463 6.192-7.139a2.2 2.2 0 0 1 .783-.139" fill="#394457"/>
  <path d="m32.478 79.721 1.559-2.7h3.118l1.556 2.7-1.556 2.7h-3.118z" fill="#fff"/>
  <path d="M37.155 83.227H34.04a.81.81 0 0 1-.7-.403l-1.558-2.7a.8.8 0 0 1 0-.805l1.559-2.7a.81.81 0 0 1 .699-.402h3.115c.287 0 .554.154.7.403l1.559 2.7a.8.8 0 0 1 0 .805l-1.56 2.7a.81.81 0 0 1-.699.402m-2.654-1.61h2.187l1.092-1.895-1.092-1.894h-2.187l-1.093 1.894z" fill="#CCC"/>
  <path d="m73.747 79.721 1.56-2.7h3.118l1.559 2.7-1.56 2.7h-3.118z" fill="#fff"/>
  <path d="M78.425 83.227h-3.119a.81.81 0 0 1-.699-.403l-1.56-2.7a.8.8 0 0 1 0-.805l1.56-2.7a.81.81 0 0 1 .7-.402h3.118c.286 0 .554.154.699.403l1.559 2.7a.8.8 0 0 1 0 .805l-1.56 2.7a.8.8 0 0 1-.698.402m-2.652-1.61h2.188l1.092-1.895-1.092-1.894h-2.188l-1.092 1.894z" fill="#CCC"/>
  <path d="M55.641 92.364h-3.527a.49.49 0 0 1-.42-.242l-1.762-3.054a.48.48 0 0 1 0-.483l1.763-3.054a.49.49 0 0 1 .419-.242h3.527c.174 0 .332.093.419.242l1.762 3.054a.48.48 0 0 1 0 .483l-1.762 3.054a.48.48 0 0 1-.419.242m-3.247-.967h2.967l1.485-2.57-1.485-2.571h-2.967l-1.485 2.57z" fill="#4CB4FA"/>
  <path d="M60.931 89.327h-3.527a.49.49 0 0 1-.42-.242l-1.762-3.054a.48.48 0 0 1 0-.483l1.763-3.054a.49.49 0 0 1 .419-.242h3.527c.174 0 .332.093.419.242l1.762 3.054a.48.48 0 0 1 0 .483l-1.762 3.054a.48.48 0 0 1-.419.242m-3.247-.967h2.967l1.485-2.57-1.485-2.572h-2.967l-1.485 2.571z" fill="#FFC000"/>
  <path d="M60.931 95.417h-3.527a.49.49 0 0 1-.42-.242l-1.762-3.054a.48.48 0 0 1 0-.483l1.763-3.055a.49.49 0 0 1 .419-.241h3.527c.174 0 .332.093.419.241l1.762 3.055a.48.48 0 0 1 0 .483l-1.762 3.054a.48.48 0 0 1-.419.242m-3.247-.967h2.967l1.485-2.57-1.485-2.572h-2.967l-1.485 2.571zm-33.734 8.39c3.582-1.027 9.426-1.172 14.346.471 6.095 2.033 10.982 6.182 10.895 7.41-.067.979-2.429 1.614-3.534 1.221-.834-.297-1.685-1.328-2.403-1.837-3.132-2.213-5.609-3.238-7.79-3.634-8.876-1.611-10.56 1.041-11.73-.567-.812-1.121-1.176-2.667.216-3.064" fill="#fff"/>
  <path d="M46.479 113.024c-.419 0-.812-.054-1.144-.174-.718-.254-1.353-.831-1.914-1.34a8 8 0 0 0-.724-.615c-2.761-1.953-5.116-3.058-7.404-3.473-4.87-.883-7.487-.445-9.05-.181-1.304.219-2.432.41-3.289-.77-.799-1.098-1.092-2.293-.783-3.195.23-.667.767-1.151 1.511-1.363 3.605-1.034 9.617-1.286 14.92.483 5.767 1.923 11.704 6.237 11.556 8.392-.03.403-.222.99-.986 1.489-.728.477-1.772.747-2.693.747M30 104.96c1.482 0 3.328.139 5.641.561 2.578.467 5.174 1.675 8.174 3.795.306.216.612.496.908.764.425.386.905.824 1.26.95.596.213 1.81-.106 2.194-.406-.577-1.047-4.585-4.529-10.184-6.395-4.88-1.627-10.564-1.379-13.773-.457-.19.054-.209.112-.215.135-.071.203.045.78.518 1.43.123.168.155.21 1.405 0 .934-.161 2.22-.377 4.072-.377" fill="#CCC"/>
  <path d="M88.112 102.84c-3.582-1.027-9.426-1.172-14.346.471-6.095 2.033-10.983 6.182-10.896 7.41.068.979 2.43 1.614 3.535 1.221.834-.297 1.685-1.328 2.403-1.837 3.131-2.213 5.609-3.238 7.79-3.634 8.876-1.611 10.56 1.041 11.73-.567.812-1.121 1.173-2.667-.216-3.064" fill="#fff"/>
  <path d="M65.583 113.024c-.924 0-1.965-.27-2.69-.747-.763-.503-.96-1.086-.986-1.489-.151-2.155 5.79-6.469 11.556-8.392 5.303-1.769 11.315-1.517 14.92-.483.747.212 1.282.699 1.51 1.363.31.902.017 2.097-.782 3.195-.857 1.18-1.985.989-3.29.77-1.562-.264-4.181-.705-9.049.181-2.287.415-4.642 1.517-7.403 3.473-.21.148-.458.373-.725.615-.56.509-1.195 1.086-1.914 1.34a3.5 3.5 0 0 1-1.147.174m-1.697-2.403c.38.3 1.597.618 2.193.406.352-.126.835-.564 1.26-.951a10 10 0 0 1 .909-.763c2.999-2.123 5.599-3.328 8.173-3.795 5.203-.944 8.028-.467 9.716-.184 1.25.21 1.286.168 1.405 0 .474-.651.59-1.227.519-1.43-.007-.023-.026-.081-.216-.136-3.212-.921-8.892-1.169-13.773.458-5.599 1.869-9.61 5.348-10.187 6.395" fill="#CCC"/>
  <path d="M62.097 24.59c-.663-.1-1.079-.09-1.279.159-.325.402-.016 1.346.558 1.878.644.599 1.147.225 2.996.605 1.034.213 1.32.42 3.353.886 1.031.236 1.273.255 1.318.161.158-.315-2.049-1.675-2.513-1.962-.921-.567-2.451-1.43-4.433-1.726m-4.948 29.126c-4.649.151-8.699-3.428-8.699-3.428 0 4.507 3.895 8.054 8.699 8.054 4.803 0 8.698-3.544 8.698-8.054 0 0-3.682 3.264-8.698 3.428" fill="#534741"/>
  <path d="M57.149 58.988c-5.151 0-9.343-3.902-9.343-8.699a.648.648 0 0 1 1.073-.483c.039.035 3.908 3.405 8.25 3.267 4.714-.155 8.258-3.238 8.293-3.267a.64.64 0 0 1 .693-.103c.232.103.38.335.38.586-.003 4.797-4.195 8.699-9.346 8.699m-7.916-7.291c.696 3.46 3.924 6.002 7.916 6.002 3.998 0 7.23-2.552 7.919-6.018-1.527 1.028-4.385 2.568-7.896 2.684-3.341.112-6.34-1.566-7.939-2.668" fill="#534741"/>
  <path d="M89.153 62.107c.618 0 .618-.96 0-.96-.616 0-.616.96 0 .96" fill="#CCC"/>
  <path d="m65.425 84.47-4.546-.614a4.514 4.514 0 0 1-3.866-5.074l2.236-16.528a4.514 4.514 0 0 1 5.074-3.866l4.546.616a4.514 4.514 0 0 1 3.866 5.074L70.5 80.605a4.51 4.51 0 0 1-5.074 3.866" fill="#4D4D4D"/>
  <path d="M66.04 85.48a5 5 0 0 1-.744-.052l-4.545-.616a5.484 5.484 0 0 1-4.694-6.16l2.232-16.527a5.45 5.45 0 0 1 2.107-3.624 5.44 5.44 0 0 1 4.053-1.07l4.546.616a5.484 5.484 0 0 1 4.694 6.16l-2.236 16.527a5.45 5.45 0 0 1-2.107 3.624 5.42 5.42 0 0 1-3.305 1.121m-2.329-26.164a3.52 3.52 0 0 0-2.139.725 3.52 3.52 0 0 0-1.366 2.345l-2.232 16.527a3.55 3.55 0 0 0 3.038 3.989l4.545.615a3.53 3.53 0 0 0 2.623-.692 3.53 3.53 0 0 0 1.366-2.346l2.236-16.527a3.55 3.55 0 0 0-3.038-3.988l-4.546-.616a4 4 0 0 0-.487-.032" fill="#333"/>
  <path d="M80.76 66.162c2.346 7.848 1.076 16.453-4.455 20.847-4.81-1.523-14.755-6.623-14.697-8.93.11-4.404 10.708-8.563 19.152-11.917" fill="#FEBD33"/>
  <path d="M76.305 87.976a1 1 0 0 1-.293-.045c-2.549-.808-6.311-2.516-9.36-4.252-6.065-3.454-6.027-5.03-6.01-5.625.122-4.994 10.415-9.082 19.497-12.684l.267-.106a.967.967 0 0 1 1.285.621c2.613 8.74.693 17.536-4.78 21.882a.98.98 0 0 1-.606.21m3.814-20.519c-7.223 2.871-17.455 7.05-17.545 10.645.045.31 1.07 1.662 5.22 3.998 2.702 1.524 5.963 3.019 8.308 3.824 4.352-3.798 5.918-11.044 4.017-18.467" fill="#E4A92D"/>
  <path d="M90.132 61.598c7.38 2.152 2.987 21.34-1.047 26.22-.84 1.016-2.526 1.705-6.076 1.276-1.434-.17-6.636-.525-7.358-1.298-1.308-1.398 1.211-5.554 1.314-11.434.107-6.162-3.05-5.728-1.092-9.313.725-1.328 7.465-4.588 10.496-3.676" fill="#fff"/>
  <path d="M84.968 90.19q-.957 0-2.075-.136c-.251-.03-.615-.065-1.053-.11-4.636-.45-6.247-.799-6.892-1.488-1.046-1.118-.618-2.842-.032-5.229.461-1.872 1.038-4.2 1.083-6.881.048-2.713-.574-4.002-1.073-5.036-.6-1.243-1.166-2.416.1-4.726.96-1.756 8.144-5.184 11.62-4.137a.966.966 0 1 1-.557 1.853c-2.577-.773-8.727 2.184-9.372 3.218-.783 1.434-.583 1.85-.051 2.958.557 1.153 1.317 2.735 1.263 5.908-.052 2.9-.654 5.345-1.14 7.314-.349 1.414-.745 3.015-.458 3.418.712.428 4.452.792 5.69.911.457.046.837.081 1.098.113 2.683.322 4.436.01 5.216-.934C91.24 83.69 94.44 71.758 92.59 65.74c-.54-1.759-1.46-2.841-2.732-3.212a.967.967 0 0 1 .542-1.856c1.91.558 3.305 2.114 4.04 4.501 2.11 6.865-1.383 19.356-4.614 23.264-.97 1.172-2.57 1.752-4.858 1.752" fill="#CCC"/>
  <path d="m31.782 24.052-14.45 7.88a2.607 2.607 0 0 1-3.524-1.037l-4.037-7.4a2.607 2.607 0 0 1 1.038-3.525l14.449-7.88a2.607 2.607 0 0 1 3.524 1.037l4.034 7.4a2.6 2.6 0 0 1-1.034 3.525" fill="#fff"/>
  <path d="M16.095 33.215a3.57 3.57 0 0 1-3.137-1.86l-4.034-7.4a3.567 3.567 0 0 1 1.424-4.835l14.45-7.877a3.567 3.567 0 0 1 4.835 1.424l4.033 7.4a3.567 3.567 0 0 1-1.424 4.836L17.793 32.78a3.5 3.5 0 0 1-1.698.435m10.406-20.477a1.6 1.6 0 0 0-.78.2l-14.448 7.88a1.633 1.633 0 0 0-.651 2.213l4.033 7.4a1.63 1.63 0 0 0 2.214.65l14.449-7.876a1.633 1.633 0 0 0 .65-2.213l-4.033-7.4a1.63 1.63 0 0 0-1.434-.854" fill="#CCC"/>
  <path d="m22.742 23.211 4.542-9.213c.522-1.057-.625-2.159-1.659-1.595l-14.749 8.044c-1.034.564-.731 2.123.442 2.259l10.206 1.172c.506.058.992-.21 1.218-.667" fill="#fff"/>
  <path d="M21.66 24.85a2 2 0 0 1-.249-.012l-10.206-1.173a2.14 2.14 0 0 1-1.885-1.743 2.14 2.14 0 0 1 1.092-2.322l14.75-8.042a2.135 2.135 0 0 1 2.544.342c.7.67.873 1.662.445 2.529l-4.543 9.214a2.18 2.18 0 0 1-1.949 1.208m4.551-11.63a.3.3 0 0 0-.122.036l-14.748 8.04c-.038.023-.154.084-.122.258q.034.174.21.194l10.206 1.172a.24.24 0 0 0 .241-.132l4.543-9.217a.22.22 0 0 0-.049-.28.22.22 0 0 0-.158-.071" fill="#CCC"/>
  <path d="m100.084 44.704-15.042-6.681a2.61 2.61 0 0 1-1.32-3.431l3.42-7.703a2.61 2.61 0 0 1 3.432-1.321l15.041 6.681a2.61 2.61 0 0 1 1.321 3.432l-3.421 7.703a2.61 2.61 0 0 1-3.431 1.32" fill="#fff"/>
  <path d="M101.134 45.893c-.483 0-.973-.1-1.443-.306l-15.042-6.682a3.57 3.57 0 0 1-1.81-4.707l3.42-7.703a3.57 3.57 0 0 1 4.707-1.81l15.042 6.681a3.56 3.56 0 0 1 1.879 1.978 3.54 3.54 0 0 1-.068 2.726l-3.421 7.703a3.57 3.57 0 0 1-3.264 2.12m-.657-2.075a1.63 1.63 0 0 0 2.155-.828l3.421-7.703a1.637 1.637 0 0 0-.827-2.155L90.184 26.45a1.634 1.634 0 0 0-2.156.828l-3.421 7.703a1.637 1.637 0 0 0 .828 2.155z" fill="#CCC"/>
  <path d="m95.255 37.013 10.077-1.994c1.157-.229 1.334-1.807.255-2.288l-15.355-6.82c-1.076-.477-2.13.712-1.527 1.724l5.274 8.814c.267.438.776.664 1.276.564" fill="#fff"/>
  <path d="M95.023 38.002c-.754 0-1.47-.393-1.866-1.056L87.88 28.13a2.14 2.14 0 0 1 .239-2.558 2.136 2.136 0 0 1 2.51-.544l15.354 6.82a2.14 2.14 0 0 1 1.276 2.23 2.14 2.14 0 0 1-1.737 1.89l-10.077 1.995q-.211.038-.422.038m-5.287-11.23q-.096 0-.17.087c-.117.132-.05.244-.027.283l5.278 8.814a.24.24 0 0 0 .25.113l10.078-1.994c.042-.01.174-.036.193-.21.013-.115-.035-.2-.141-.244L89.845 26.8a.2.2 0 0 0-.109-.03M26.095 39.143a.8.8 0 0 1-.492-.17l-5.365-4.17a.806.806 0 1 1 .99-1.272l5.364 4.169a.806.806 0 0 1-.497 1.443m2.291-1.753a.8.8 0 0 1-.664-.347l-2.873-4.185a.807.807 0 0 1 1.33-.912l2.874 4.185a.807.807 0 0 1-.21 1.121.83.83 0 0 1-.457.139m2.223-1.421a.806.806 0 0 1-.806-.806V29.57a.806.806 0 0 1 1.611 0v5.596c0 .445-.36.802-.805.802M89.59 50.74a.805.805 0 0 1-.428-1.485l5.364-3.396a.805.805 0 1 1 .86 1.363l-5.363 3.396a.8.8 0 0 1-.432.122m-1.969-1.39a.803.803 0 0 1-.615-1.324l2.874-3.41a.803.803 0 0 1 1.134-.096.803.803 0 0 1 .096 1.134l-2.873 3.409a.8.8 0 0 1-.616.286M85.4 48.192a.806.806 0 0 1-.806-.806v-4.555a.806.806 0 0 1 1.61 0v4.555c0 .445-.36.806-.805.806" fill="#CCC"/>
</svg>
