<svg width="48" height="48" viewBox="0 0 48 48" fill="none" xmlns="http://www.w3.org/2000/svg"><path d="M24.2 42q-.85 0-1.425-.575T22.2 40q0-.35.15-.725t.45-.675l9.25-9.25-1.45-1.45-9.2 9.25q-.3.3-.65.45t-.75.15q-.85 0-1.425-.575T18 35.75q0-.5.15-.825t.4-.575l9.25-9.25-1.4-1.4-9.25 9.2q-.3.3-.65.45t-.8.15q-.8 0-1.4-.6t-.6-1.4q0-.4.15-.75t.45-.65l9.25-9.25-1.45-1.4-9.2 9.25q-.25.25-.6.4t-.85.15q-.85 0-1.425-.575T9.45 27.25q0-.4.15-.75t.45-.65L21.2 14.7l7.5 7.55q.55.55 1.3.875t1.5.325q1.6 0 2.8-1.125t1.2-2.875q0-.7-.25-1.45t-.9-1.4L25.4 7.65a6.1 6.1 0 0 1 1.9-1.225A5.6 5.6 0 0 1 29.4 6q1.3 0 2.4.425t2 1.325l8.45 8.5q.9.9 1.325 2T44 20.8q0 1-.45 2.025a6.1 6.1 0 0 1-1.3 1.875L25.6 41.4q-.4.4-.7.5t-.7.1M7.05 26l-1.3-1.3a5.4 5.4 0 0 1-1.3-1.9Q4 21.7 4 20.5q0-1.3.5-2.4t1.25-1.85l8.45-8.5a6 6 0 0 1 1.9-1.275Q17.2 6 18.25 6q1.35 0 2.4.375T22.7 7.75L32.95 18q.3.3.45.65t.15.75q0 .8-.6 1.4t-1.4.6q-.45 0-.75-.125t-.65-.475l-9-8.9z" fill="#fff"/></svg>