<svg width="48" height="48" viewBox="0 0 48 48" fill="none" xmlns="http://www.w3.org/2000/svg"><path d="M12 40q-1.65 0-2.825-1.175T8 36t1.175-2.825T12 32t2.825 1.175T16 36t-1.175 2.825T12 40m12 0q-1.65 0-2.825-1.175T20 36t1.175-2.825T24 32t2.825 1.175T28 36t-1.175 2.825T24 40m12 0q-1.65 0-2.825-1.175T32 36t1.175-2.825T36 32t2.825 1.175T40 36t-1.175 2.825T36 40M12 28q-1.65 0-2.825-1.175T8 24t1.175-2.825T12 20t2.825 1.175T16 24t-1.175 2.825T12 28m12 0q-1.65 0-2.825-1.175T20 24t1.175-2.825T24 20t2.825 1.175T28 24t-1.175 2.825T24 28m12 0q-1.65 0-2.825-1.175T32 24t1.175-2.825T36 20t2.825 1.175T40 24t-1.175 2.825T36 28M12 16q-1.65 0-2.825-1.175T8 12t1.175-2.825T12 8t2.825 1.175T16 12t-1.175 2.825T12 16m12 0q-1.65 0-2.825-1.175T20 12t1.175-2.825T24 8t2.825 1.175T28 12t-1.175 2.825T24 16m12 0q-1.65 0-2.825-1.175T32 12t1.175-2.825T36 8t2.825 1.175T40 12t-1.175 2.825T36 16" fill="#fff"/></svg>